<?xml version="1.0" encoding="utf-8"?>
<!-- Generator: Adobe Illustrator 26.0.1, SVG Export Plug-In . SVG Version: 6.00 Build 0)  -->
<svg version="1.1" id="Layer_1" xmlns="http://www.w3.org/2000/svg" xmlns:xlink="http://www.w3.org/1999/xlink" x="0px" y="0px"
	 viewBox="0 0 634.8 170.7" style="enable-background:new 0 0 634.8 170.7;" xml:space="preserve">
<path id="Baby_Zen_-_Logo" d="M608.9,43.7h8v2.7h-2.6v11.8h-2.8V46.4h-2.6L608.9,43.7L608.9,43.7z M620.2,43.7h2.7l3.4,10.1
	l3.4-10.1h2.7l2.4,14.5h-2.7l-1.6-9.1l-3.1,9.1H625l-3.1-9.1l-1.5,9.1h-2.7C617.7,58.2,620.2,43.7,620.2,43.7z M198.6,102.3
	c-7.1,0-12.9,5.8-12.9,12.9v42.5c0,7.1,5.8,12.9,12.9,12.9c7.1,0,12.9-5.8,12.9-12.9v-42.5C211.5,108.1,205.7,102.3,198.6,102.3z
	 M177.6,152.9L165,121.4c-1.3-3.2-3.8-5.7-6.9-7.1c-3.1-1.4-6.7-1.4-9.9-0.1c-3.2,1.3-5.7,3.8-7.1,6.9c-1.4,3.1-1.4,6.7-0.1,9.9
	l12.6,31.5c2,4.9,6.7,8.1,12,8.2c1.6,0,3.3-0.3,4.8-0.9c3.2-1.3,5.7-3.8,7.1-6.9C178.8,159.7,178.9,156.1,177.6,152.9L177.6,152.9z
	 M12.9,102.3c-7.1,0-12.9,5.8-12.9,12.9v42.5c0,7.1,5.8,12.9,12.9,12.9s12.9-5.8,12.9-12.9v-42.5c0.1-7.1-5.6-12.8-12.7-12.9
	C13,102.3,13,102.3,12.9,102.3z M307.2,85.3l-21.6-31c-4.2-5.8-12.3-7-18.1-2.8c-5.6,4.1-7,11.9-3.1,17.6l21.6,31
	c1.8,2.6,2.7,5.7,2.8,8.8v48.8c0,7.1,5.8,12.9,12.9,12.9c7.1,0,12.9-5.8,12.9-12.9v-48.8C315,101.8,311.6,91,307.2,85.3L307.2,85.3z
	 M262.9,113.7c6.3-16.1-1.6-34.2-17.6-40.6c-3.7-1.5-7.7-2.2-11.7-2.3h-35c-7.1,0-12.9,5.8-12.9,12.9s5.8,12.9,12.9,12.9l0,0h35
	c3,0,5.5,2.5,5.5,5.5c0,3-2.5,5.5-5.5,5.5h-3.5c-7.1,0-12.9,5.8-12.9,12.9s5.8,12.9,12.9,12.9l0,0h14.6c3,0,5.5,2.5,5.5,5.5
	s-2.5,5.5-5.5,5.5h-14.6c-7.1,0-12.9,5.8-12.9,12.9c0,7.1,5.8,12.9,12.9,12.9l0,0h14.6c17.3,0,31.4-14.1,31.4-31.4
	C276.6,130.1,270.7,118.7,262.9,113.7L262.9,113.7z M147.9,78.7c-2.8-6.6-10.5-9.6-17-6.8c-3.1,1.4-5.6,3.9-6.9,7.1l-29.5,74
	c-2.6,6.6,0.6,14.1,7.2,16.8c1.5,0.6,3.2,0.9,4.8,0.9c5.3-0.1,10-3.3,12-8.2l29.5-74C149.4,85.4,149.3,81.8,147.9,78.7z M77.2,113.7
	c6.3-16.1-1.6-34.2-17.6-40.6c-3.7-1.5-7.7-2.2-11.7-2.3h-35C5.8,70.8,0,76.6,0,83.7c0,7.1,5.8,12.9,12.9,12.9h35
	c3,0,5.5,2.5,5.5,5.5s-2.5,5.5-5.5,5.5h-3.5c-7.1,0-12.9,5.8-12.9,12.9s5.8,12.9,12.9,12.9H59c3,0,5.5,2.5,5.5,5.5s-2.5,5.5-5.5,5.5
	H44.4c-7.1,0-12.9,5.8-12.9,12.9c0,7.1,5.8,12.9,12.9,12.9H59c17.3,0,31.4-14.1,31.4-31.4C90.9,130.1,85,118.7,77.2,113.7z
	 M564.4,122c-7.1,0-12.9,5.8-12.9,12.9v22.8c0,7.1,5.8,12.9,12.9,12.9c7.1,0,12.9-5.8,12.9-12.9c0,0,0,0,0,0v-22.8
	c0.1-7.1-5.6-12.8-12.7-12.9C564.5,122,564.5,122,564.4,122z M528.2,107.8h-42.5c-7.1,0-12.9,5.8-12.9,12.9s5.8,12.9,12.9,12.9l0,0
	h42.5c7.1,0,12.9-5.8,12.9-12.9S535.3,107.8,528.2,107.8z M528.2,144.8h-42.5c-7.1,0-12.9,5.8-12.9,12.9c0,7.1,5.8,12.9,12.9,12.9
	l0,0h42.5c7.1,0,12.9-5.8,12.9-12.9C541.1,150.6,535.3,144.8,528.2,144.8z M449.6,144.8h-18.9c-7.1,0-12.9,5.8-12.9,12.9
	c0,7.1,5.8,12.9,12.9,12.9h18.9c7.1,0,12.9-5.8,12.9-12.9C462.5,150.6,456.7,144.8,449.6,144.8z M317.4,0c-17.1,0-31,13.9-31,31
	s13.9,31,31,31s31-13.9,31-31S334.5,0,317.4,0z M621.9,70.8c-7.1,0-12.9,5.8-12.9,12.9v22.8c0,7.1,5.8,12.9,12.9,12.9
	c7.1,0,12.9-5.8,12.9-12.9c0,0,0,0,0,0V83.7C634.7,76.6,629,70.9,621.9,70.8z M632.1,149.8l-57.4-74c-2.1-2.7-5.2-4.5-8.6-4.9
	c-3.4-0.4-6.9,0.5-9.6,2.6c-5.6,4.4-6.7,12.5-2.3,18.2l57.4,74c4.8,5.4,13,5.9,18.4,1.1C634.8,162.5,635.7,155.2,632.1,149.8
	L632.1,149.8z M528.2,70.8h-42.5c-7.1,0-12.9,5.8-12.9,12.9s5.8,12.9,12.9,12.9l0,0h42.5c7.1,0,12.9-5.8,12.9-12.9
	S535.3,70.8,528.2,70.8z M457.6,73.6c-2.7-2.1-6.1-3.1-9.5-2.7c-3.4,0.4-6.5,2.1-8.6,4.8l-58.2,74c-4.4,5.7-3.4,13.8,2.2,18.2
	c2.3,1.8,5.1,2.7,8,2.8c0.5,0,1.1,0,1.6-0.1c3.4-0.4,6.5-2.1,8.6-4.8l58.2-74C464.2,86.1,463.2,78,457.6,73.6L457.6,73.6z
	 M410.2,70.8h-18.8c-7.1,0-12.9,5.8-12.9,12.9s5.8,12.9,12.9,12.9l0,0h18.9c7.1,0,12.9-5.8,12.9-13S417.3,70.8,410.2,70.8
	L410.2,70.8z M372.6,59.5c-0.6-3.4-2.5-6.4-5.3-8.3c-5.8-4.1-13.8-2.7-17.9,3.1c0,0,0,0.1-0.1,0.1l-21.6,31
	c-4.4,5.6-7.8,16.5-7.4,23.6v48.8c0,7.1,5.8,12.9,12.9,12.9c7.1,0,12.9-5.8,12.9-12.9V109c0-3.2,1-6.2,2.8-8.8l21.6-31
	C372.5,66.4,373.2,62.9,372.6,59.5z"/>
</svg>
