<?xml version="1.0" encoding="utf-8"?>
<!-- Generator: Adobe Illustrator 26.0.1, SVG Export Plug-In . SVG Version: 6.00 Build 0)  -->
<svg version="1.1" id="Layer_1" xmlns="http://www.w3.org/2000/svg" xmlns:xlink="http://www.w3.org/1999/xlink" x="0px" y="0px"
	 viewBox="0 0 1500 412.9" style="enable-background:new 0 0 1500 412.9;" xml:space="preserve">
<style type="text/css">
	.st0{fill:#FFFFFF;}
	.st1{fill:#FF610D;}
</style>
<g id="Be_Safe_-_Logo_White">
	<path class="st0" d="M1412.4,114.3c0,24.2,19.6,43.8,43.8,43.8s43.8-19.6,43.8-43.8s-19.6-43.8-43.8-43.8
		C1432,70.5,1412.4,90.1,1412.4,114.3 M1423,114.3c0-18.3,14.9-33.2,33.2-33.2c18.3,0,33.2,14.9,33.2,33.2s-14.9,33.2-33.2,33.2l0,0
		c-18.3,0-33.2-14.7-33.2-33C1423,114.4,1423,114.4,1423,114.3 M1438.6,138h10.6v-19.8h3.3l10.9,19.8h12l-12-20.5
		c7.5-0.4,12.7-3.6,12.7-12.5c0-11.3-7.5-14.5-20-14.5h-17.5V138z M1449.1,109.7V99h6.7c3.5,0,9,0.4,9,4.8c0,4.8-2.5,5.9-6.6,5.9
		L1449.1,109.7z"/>
	<path class="st1" d="M100.2,72.6h11.3c14.6,0,24.2,10.1,24.2,24.8v42.8c0,14.6-9.6,24.8-24.2,24.8h-11.3V72.6z M100.2,225.7h10.1
		c15.7,0,25.3,7.9,25.3,25.3v60.5c0,17.5-9.6,25.3-25.3,25.3h-10.1V225.7z M0,404.4h140.2c65.3,0,99.1-24.2,99.1-88.4v-50.4
		c0-48.4-29.8-75.4-75.4-77.1l1.1-1.1c42.2-1.7,67.5-14.1,67.5-60.2V82.8c0-57.4-31.5-74.3-86.1-74.3H0V404.4z"/>
	<path class="st1" d="M266.5,303.7c0,85.6,63,109.2,118.2,109.2c52.9,0,111.5-23.6,111.5-109.2v-27.9h-96.8V329
		c0,12.4-3.4,23.1-17.4,23.1c-12.4,0-15.2-8.4-15.2-21.4v-80.2h129.5v-69.2c0-82.7-63-109.2-111.5-109.2
		c-55.2,0-118.2,23.6-118.2,109.2L266.5,303.7L266.5,303.7z M366.7,154.2c0-12.9,2.8-21.4,15.2-21.4c14,0,17.4,10.7,17.4,23.1v40.5
		h-32.7v-42.2H366.7z"/>
	<path class="st0" d="M523.9,308.2c0,57.4,14.1,104.7,112.6,104.7c72.1,0,121-21.4,121-103v-25.6c0-118.2-137.3-117.6-137.3-176.2
		V90.6c0-20.2,7.3-26.5,17.4-26.5c9,0,20.3,3.4,20.3,28.7V126h92.8V88.4C750.7,45,733.3,0,636.5,0c-68.6,0-113.1,26.5-113.1,99.6
		v22.5c0,114.8,134,105.3,134,179v11c0,15.7-0.6,36.6-19.1,36.6c-14.6,0-17.5-13-17.5-25.9V264H524L523.9,308.2L523.9,308.2z"/>
	<path class="st0" d="M1003.1,169.4c0-76.5-43.9-97.4-114.8-97.4C812.9,72,778,100.2,778,172.8v34.9h92.9v-65.3
		c0-10.1,3.9-19.7,15.2-19.7s16.9,10.1,16.9,19.7V184c0,19.2-5.1,24.8-61.3,46.2c-61.3,22.5-63.6,36-63.6,73.7v38.6
		c0,41.6,22.5,70.4,65.3,70.4c25.3,0,48.4-11.8,63.1-27v18.6h96.8V169.4H1003.1z M870.9,303.4c0-23.1,11.3-37.2,32.1-50.1v80.2
		c0,7.3-5.1,16.9-17.4,16.9c-9,0-14.6-9-14.6-18.6L870.9,303.4L870.9,303.4z"/>
	<path class="st0" d="M1018.5,134.5h20.8v269.9h100.2V134.5h29.8v-54h-49c2.3-18,15.2-21.4,31.5-21.4h15.2V8.5h-44.5
		c-61.9,0-81,13.5-83.3,72h-20.8v54H1018.5z"/>
	<path class="st0" d="M1179.1,303.7c0,85.6,63.1,109.2,118.2,109.2c52.9,0,111.5-23.6,111.5-109.2v-27.9H1312V329
		c0,12.4-3.4,23.1-17.4,23.1c-12.4,0-15.2-8.4-15.2-21.4v-80.2h129.5v-69.2c0-82.7-63-109.2-111.5-109.2
		c-55.1,0-118.2,23.6-118.2,109.2v122.4H1179.1z M1279.3,154.2c0-12.9,2.8-21.4,15.2-21.4c14.1,0,17.4,10.7,17.4,23.1v40.5h-32.6
		V154.2z"/>
</g>
</svg>
