<svg id="Layer_1" data-name="Layer 1" xmlns="http://www.w3.org/2000/svg" viewBox="0 0 140 27.26"><path id="Bugaboo_-_Logo" data-name="Bugaboo - Logo" d="M27.8,19.13A11.17,11.17,0,0,0,16.76,8,11,11,0,0,0,3.58,25.53a11.39,11.39,0,0,0,14.9,6.16A11.26,11.26,0,0,0,23,28.27,11.11,11.11,0,0,0,27.8,19.13Zm-9-8.39a11.43,11.43,0,0,0-6.13-.91,10.14,10.14,0,0,1,4-.82h.25A10.7,10.7,0,0,1,18.8,10.74Zm3,4.23a9.82,9.82,0,0,1-.92,13.35,10.08,10.08,0,0,1-8.41,0A11,11,0,0,0,21.79,15ZM11.17,27.64a10.11,10.11,0,0,1-3.06-14A7.3,7.3,0,0,1,8.63,13a9.85,9.85,0,0,1,11.95.75,10.23,10.23,0,0,1-9.41,13.92ZM2.7,21.15a11.4,11.4,0,0,0,.3,2.6A10.24,10.24,0,0,1,15.23,8.06a11.11,11.11,0,0,0-6.08,2.81A11.43,11.43,0,0,0,2.7,21.15Zm2.87,4.9a9.83,9.83,0,0,1,.59-10.71A11.13,11.13,0,0,0,9.27,27.49a10.26,10.26,0,0,1-3.7-1.43Zm8.54,5A9.86,9.86,0,0,1,6.58,27.5a11.13,11.13,0,0,0,3.9.92A11.13,11.13,0,0,0,18,30.2,9.76,9.76,0,0,1,14.11,31Zm6.33-19.35a10.9,10.9,0,0,0-2.09-2.5,10.1,10.1,0,0,1,6.49,15.89A11.4,11.4,0,0,0,20.44,11.66Zm21.94.59a7.22,7.22,0,0,0-4.82,1.87V8.43H35.12l0,11.09a7.29,7.29,0,1,0,7.3-7.27Zm0,12.14a4.94,4.94,0,0,1-4.85-4.53c0-.44,0-.94,0-.94a4.86,4.86,0,1,1,4.82,5.47Zm40.3-4.87A7.28,7.28,0,1,0,71,25.25,6.71,6.71,0,0,0,70.71,27,6.58,6.58,0,1,0,82,22.5,7.29,7.29,0,0,0,82.68,19.52Zm-12.14,0a4.87,4.87,0,0,1,9.73-.2h0v.2A5,5,0,0,1,80,21.05a6.56,6.56,0,0,0-7.94,2A4.81,4.81,0,0,1,70.54,19.52Zm9,2.45A4.83,4.83,0,0,1,73,23.73l-.13-.08A5.56,5.56,0,0,1,79.59,22ZM82.84,27a5.57,5.57,0,0,1-11.13,0h0a5.84,5.84,0,0,1,.13-1.18,7.2,7.2,0,0,0,9.68-2.43A5.51,5.51,0,0,1,82.84,27Zm26-14.78A7.18,7.18,0,0,0,104,14.12V8.43h-2.43l0,11.09a7.28,7.28,0,1,0,7.29-7.27h0Zm0,12.14A4.88,4.88,0,0,1,104,19.86l0-.94a4.86,4.86,0,1,1,4.82,5.47Zm24.58-12.75a6.56,6.56,0,0,0-4.66,1.49,7.28,7.28,0,1,0,1.95,11.25A6.57,6.57,0,0,0,135.13,12,6.5,6.5,0,0,0,133.38,11.64Zm-8.45,12.74a4.87,4.87,0,1,1,.7-9.71h0a4.66,4.66,0,0,1,1.51.38,6.47,6.47,0,0,0-.8,2.69c0,.16,0,.32,0,.47a6.58,6.58,0,0,0,2.22,4.92,4.83,4.83,0,0,1-3.62,1.25Zm5.2-4.51a4.72,4.72,0,0,1-.91,2.48A5.54,5.54,0,0,1,128,15.52a4.87,4.87,0,0,1,2.1,4.36Zm8.33-1.28a5.58,5.58,0,0,1-5.94,5.16h0a5.23,5.23,0,0,1-1.18-.22A7.38,7.38,0,0,0,132.55,20a7.18,7.18,0,0,0-2.93-6.33,5.56,5.56,0,0,1,8.84,4.88ZM92,12.25a7.28,7.28,0,1,0,4.83,12.69v1.6h2.44v-7A7.29,7.29,0,0,0,92,12.25Zm4.83,7.87a4.84,4.84,0,1,1,0-.93ZM63.69,19.9a4.86,4.86,0,0,1-9.59.63s-.09-.61-.09-.61V12.4H51.58v7.5A7.28,7.28,0,0,0,66.11,20V12.4H63.69Zm74.48-9.32a.15.15,0,0,1,.12-.16h.39c.31,0,.5.14.5.45a.38.38,0,0,1-.37.38l.34.37a.1.1,0,0,1,0,.09.15.15,0,0,1-.15.15.14.14,0,0,1-.11,0l-.46-.54v.43a.15.15,0,0,1-.14.15h0a.15.15,0,0,1-.15-.15Zm.3.47h.2a.16.16,0,0,0,.19-.14,0,0,0,0,0,0,0,.17.17,0,0,0-.15-.18h-.25Zm-1.21.09a1.37,1.37,0,1,0,1.37-1.37A1.37,1.37,0,0,0,137.26,11.14Zm.3,0a1.07,1.07,0,0,1,1.07-1.07,1.09,1.09,0,0,1,1.07,1.08,1.07,1.07,0,0,1-2.14,0Z" transform="translate(0 -6.37)"/></svg>