<svg id="East_Coast_-_Logo" data-name="East Coast - Logo" xmlns="http://www.w3.org/2000/svg" viewBox="0 0 600 266.5"><defs><style>.cls-1{fill:#0093a2;}.cls-2{fill:#fff;}</style></defs><path class="cls-1" d="M578.4,454.2H65.2a43.49,43.49,0,0,1-43.4-43.4V231.1a43.49,43.49,0,0,1,43.4-43.4H578.4a43.49,43.49,0,0,1,43.4,43.4V410.8a43.55,43.55,0,0,1-43.4,43.4" transform="translate(-21.8 -187.7)"/><path class="cls-2" d="M147.7,320.9Zm51,24.8c0-12-10-21.7-22.3-21.7s-22.3,9.7-22.3,21.7,10,21.7,22.3,21.7,22.3-9.7,22.3-21.7m-.1-79c-1.3-26.5-25.2-48.1-56-51.7h-.5a2.35,2.35,0,0,0-2.4,2.3v49.5a2.35,2.35,0,0,0,2.4,2.3h54.1a2.43,2.43,0,0,0,2.4-2.4Zm-2.7,120.9a3,3,0,0,0-3.1-3,3,3,0,0,0-2.8,1.8h0c-7.4,20-30,34.5-56.6,34.5-2.2,0-4.3-.1-6.4-.3V323.4c2.1.2,4.2.3,6.4.3h0a78.46,78.46,0,0,0,21.4-3c18.7-5.4,33.5-17.7,40.2-33.3l.3-1.2a3.09,3.09,0,0,0-5.9-1.2c-8.1,19-30.1,32.6-55.9,32.6-2.2,0-4.3-.1-6.4-.3V217.2h0a2.35,2.35,0,0,0-2.4-2.3h0c-31.9,3.6-56.5,26.4-56.5,54.1,0,23.9,18.4,44.2,43.9,51.6-25.6,7.4-43.9,27.7-43.9,51.6,0,28.4,25.8,51.6,58.9,54.3,2.1.2,4.2.3,6.4.3,29.2,0,53.9-16,62.3-38h0l.1-1.2M300.6,278.2a4.23,4.23,0,0,0,4.3-4.1,37.33,37.33,0,0,0-37.6-36.5c-20.6,0-37.5,16.4-37.5,36.5s16.8,36.7,37.5,36.7c13.3,0,25.1-7.3,30.7-15.6a4.25,4.25,0,1,0-7.2-4.5,28.91,28.91,0,0,1-52.2-12.5h62m-61.9-8.1a29,29,0,0,1,57.4,0Zm145.1,35.5a4.08,4.08,0,0,0,4.2,4.1,4.14,4.14,0,0,0,4.2-4.1V242.7a4.08,4.08,0,0,0-4.2-4.1,4.14,4.14,0,0,0-4.2,4.1v10.9c-5.6-8.4-15-16-29.4-16-20.8,0-37.8,16.4-37.8,36.5,0,20.3,17.1,36.7,37.8,36.7,14.4,0,23.7-7.8,29.4-16Zm-29.4-60.1c16.1,0,29.4,12.9,29.4,28.7S370.5,303,354.4,303a28.75,28.75,0,1,1,0-57.5m78.6-.2c7.6,0,13.3,2.3,18.9,4.9a4.29,4.29,0,0,0,6.5-3.5,4.12,4.12,0,0,0-2.6-3.7,45.83,45.83,0,0,0-22.8-5.6c-14,0-26.7,6.6-26.7,18.5,0,13,10.1,17.6,19.3,18.9l13.6,2.1c10.2,1.6,14.4,5.6,14.4,12.4,0,8.2-7.7,13.5-20.4,13.5-8,0-15.9-3.2-21.9-6.6a4.32,4.32,0,0,0-6.4,3.7,3.89,3.89,0,0,0,2,3.6,53.27,53.27,0,0,0,26.3,7.2c17.7,0,28.9-8.2,29-20.9.1-13.1-9.1-19.2-19.9-20.7L428.4,267c-8.5-1.1-13.5-4.3-13.5-11.3.1-5.5,7.1-10.4,18.1-10.4m42.2-5.7a4.14,4.14,0,0,0-4.2,4.1,4.08,4.08,0,0,0,4.2,4.1h5.2v44.8c0,10.1,7.6,16.2,16.7,16.2h3.1a4.1,4.1,0,1,0,0-8.2h-3.1c-4.5,0-8.4-2.5-8.4-8.1V247.7h11.4a4.14,4.14,0,0,0,4.2-4.1,4.08,4.08,0,0,0-4.2-4.1H488.7V227.1a4.16,4.16,0,0,0-4.2-4.2,4.23,4.23,0,0,0-4.2,4.2v12.4h-5.1m-181,147.7a4.41,4.41,0,0,0-5.8-.1,30.41,30.41,0,0,1-20.9,8.7,29,29,0,0,1-29.1-28.9c0-15.6,13-28.5,29.1-28.7a30.58,30.58,0,0,1,20.8,8.6,4.45,4.45,0,0,0,6,.1,4.07,4.07,0,0,0,0-5.7,38.6,38.6,0,0,0-26.8-10.9c-20.9.1-37.7,16.4-37.7,36.7s16.8,36.5,37.7,36.7a38.25,38.25,0,0,0,26.8-10.9,3.79,3.79,0,0,0-.1-5.6m9.2-20.2c0,20.3,17,36.7,37.7,36.7,20.9,0,37.8-16.4,37.8-36.7s-17-36.5-37.8-36.5-37.7,16.3-37.7,36.5m67,0a29.15,29.15,0,1,1-29.2-28.7c16.3.1,29.2,13,29.2,28.7m86.2,31.5a4.08,4.08,0,0,0,4.2,4.1,4.14,4.14,0,0,0,4.2-4.1V335.6a4.08,4.08,0,0,0-4.2-4.1,4.14,4.14,0,0,0-4.2,4.1v10.9c-5.7-8.4-15-16-29.4-16-20.8,0-37.8,16.4-37.8,36.5,0,20.3,17.1,36.7,37.8,36.7,14.4,0,23.7-7.8,29.4-16Zm-29.3-60.1c16.1,0,29.4,12.9,29.4,28.7s-13.3,28.8-29.4,28.8a29,29,0,0,1-29.2-28.8c-.1-15.8,13-28.7,29.2-28.7m77.4-.2c7.6,0,13.3,2.3,18.9,4.9a4.27,4.27,0,0,0,6.5-3.5,4.12,4.12,0,0,0-2.6-3.7,45.94,45.94,0,0,0-22.9-5.6c-14,0-26.7,6.6-26.7,18.5,0,13,10.1,17.5,19.3,18.9l13.6,2.1c10.2,1.6,14.4,5.6,14.4,12.4,0,8.2-7.7,13.5-20.4,13.5-8,0-15.8-3.2-21.9-6.6a4.32,4.32,0,0,0-6.4,3.7,3.89,3.89,0,0,0,2,3.6,53,53,0,0,0,26.3,7.2c17.7,0,28.9-8.2,29-20.9.1-13.1-9.1-19.2-19.9-20.7L500,359.9c-8.5-1.1-13.5-4.3-13.5-11.3.1-5.5,7.1-10.4,18.2-10.4m41.5-5.7a4.14,4.14,0,0,0-4.2,4.1,4.08,4.08,0,0,0,4.2,4.1h5.2v44.8c0,10.1,7.6,16.2,16.7,16.2h3.1a4.1,4.1,0,1,0,0-8.2h-3.1c-4.5,0-8.4-2.5-8.4-8.1V340.6h11.4a4.14,4.14,0,0,0,4.2-4.1,4.08,4.08,0,0,0-4.2-4.1H559.7V320a4.2,4.2,0,0,0-8.4,0v12.4h-5.1m42.4-83.7a12.85,12.85,0,1,0-13.2-12.9,13,13,0,0,0,13.2,12.9m0-24.2A11.35,11.35,0,1,1,577,235.8a11.51,11.51,0,0,1,11.6-11.3m-5,3.8-.7.7v13.8l.7.7.7-.7v-4.9h5.5l2.6,5.2.7.5.7-.7-.1-.4-2.5-4.8a4.75,4.75,0,0,0,3.2-4.5,4.89,4.89,0,0,0-4.9-4.8h-5.9m6,1.3a3.46,3.46,0,0,1,3.5,3.4,3.4,3.4,0,0,1-3.5,3.4h-5.3v-6.8h5.3" transform="translate(-21.8 -187.7)"/></svg>