<svg id="Layer_2" data-name="Layer 2" xmlns="http://www.w3.org/2000/svg" viewBox="0 0 488 91.08"><defs><style>.cls-1,.cls-2{fill:#231f20;}.cls-2{fill-rule:evenodd;}</style></defs><g id="Leclerc_Baby_-_Logo" data-name="Leclerc Baby - Logo"><path class="cls-1" d="M139.52,32.08c-11.57,0-18.63,9.44-18.63,21.42s7.3,20,19.53,20a32.13,32.13,0,0,0,13.21-2.46L152.4,65.9a26.13,26.13,0,0,1-11,2c-7.22,0-13.46-4-13.62-13.79h27.9a27.57,27.57,0,0,0,.25-3.37c0-7.3-3.45-18.71-16.41-18.71M127.87,49c.57-5,3.77-11.74,11.08-11.74,8.12,0,10.09,7.14,10,11.74Zm55.46-11.08a16.67,16.67,0,0,1,8.37,1.89l1.64-5.58a24.08,24.08,0,0,0-10-2c-13,0-21.34,8.86-21.34,21.09s7.8,20.28,19.78,20.28a26.56,26.56,0,0,0,11.41-2.3L192,65.82a20.55,20.55,0,0,1-8.86,2c-7.88,0-13.79-5.66-13.79-14.86,0-8.29,4.92-15,14-15m53.42-5.83c-11.57,0-18.63,9.44-18.63,21.42s7.3,20,19.53,20a32.13,32.13,0,0,0,13.21-2.46l-1.23-5.17a26.11,26.11,0,0,1-11,2c-7.22,0-13.46-4-13.62-13.79h27.9a27.57,27.57,0,0,0,.25-3.37c0-7.3-3.45-18.71-16.41-18.71M225.11,49c.57-5,3.77-11.74,11.08-11.74,8.12,0,10.09,7.14,10,11.74Zm81.48-11.08A16.67,16.67,0,0,1,315,39.8l1.64-5.58a24,24,0,0,0-10-2c-13,0-21.34,8.86-21.34,21.09s7.8,20.28,19.77,20.28a26.52,26.52,0,0,0,11.41-2.3l-1.23-5.42a20.55,20.55,0,0,1-8.86,2c-7.88,0-13.78-5.66-13.78-14.86,0-8.29,4.92-15,14-15M103.64,20.15V73.61h7.22V15.33Zm98.36,0V73.61h7.22V15.33Zm77.73,19.64a10.53,10.53,0,0,1,2.46.25V33.23a8,8,0,0,0-2.05-.24c-4.84,0-9.19,3.36-11,8.7h-.33l-.24-7.78-6.12,4.81.13,34.89h7.14V52.43a20.67,20.67,0,0,1,.33-3.36c1-5.42,4.59-9.28,9.68-9.28m45.8,33c.21-2.79.34-6.31.34-9.22V16.79l4.05-2.69V40.53h.17c2.73-5.13,7.78-8.31,15-8.31,10.38,0,17.52,8.4,17.52,20.33,0,14.21-9.27,21.2-18.24,21.2-6.61,0-11.4-2.58-14.64-8.06h-.21l-.28,7.16h-3.67Zm4.39-15.32a12.45,12.45,0,0,0,.36,2.9,13.71,13.71,0,0,0,13.47,10.07c9.35,0,14.72-7.44,14.72-17.81,0-9.12-5.13-17.18-14.38-17.18a14.32,14.32,0,0,0-13.64,10.63,12.2,12.2,0,0,0-.53,3.45v7.94Zm65.33,15.32-.6-5.69h-.19a15.57,15.57,0,0,1-13,6.6c-8.22,0-12-5.62-12-10.92,0-9.16,8.31-14.68,24.95-14.52v-1c0-3.93-.79-11.77-10.46-11.7a18.34,18.34,0,0,0-10.27,3l-1.28-2.85a22.41,22.41,0,0,1,12-3.43c11.8,0,14.06,8.6,14.06,15.7V63.42a62.69,62.69,0,0,0,.6,9.43h-3.73Zm-.92-21.22c-8.91-.25-20.67,1-20.67,10.59,0,5.71,3.88,8.27,8.14,8.27,6.82,0,10.7-4.09,12.1-8a7.37,7.37,0,0,0,.43-2.38Zm16.94,21.22c.21-2.79.34-6.31.34-9.22V16.81l4.05-2.71V40.53h.17c2.73-5.13,7.78-8.31,15-8.31,10.38,0,17.52,8.4,17.52,20.33,0,14.21-9.27,21.2-18.24,21.2-6.61,0-11.4-2.58-14.64-8.06h-.21l-.28,7.16h-3.67Zm4.39-15.32a12.45,12.45,0,0,0,.36,2.9,13.71,13.71,0,0,0,13.47,10.07c9.35,0,14.72-7.44,14.72-17.81,0-9.12-5.13-17.18-14.38-17.18a14.32,14.32,0,0,0-13.64,10.63,12.2,12.2,0,0,0-.53,3.45v7.94Zm41-24.39,10.72,26c1.13,2.81,2.26,6,3,8.56h.17c.83-2.46,1.9-5.56,3.11-8.81l10-25.7H488L475.74,62.75C470.8,75.07,467.32,82.44,462,86.94a23,23,0,0,1-7.16,4.14l-1.3-3.29a21,21,0,0,0,7.14-4.43,30.87,30.87,0,0,0,6.84-10,5,5,0,0,0,.49-1.72,4.62,4.62,0,0,0-.49-1.74L452.34,33.1h4.33Z" transform="translate(-0.01 0)"/><path class="cls-2" d="M52.62,47.27S44.1,44.28,45.3,37C38.84,31.6,33.17,21.32,37.45,5.74c2.14-7.94,4-2.46,5.15-1.74S54.54,14.62,55.9,16.62c3-1.74,10.12-1.5,12.53-.79,2-4.25,6.52-10.2,7.69-11.65S79.35-1,80.24.24c3,4.07,4.55,12.51,4.41,18s-3,13.6-5.14,16.59a9.53,9.53,0,0,1-.71,8.3A17.15,17.15,0,0,1,74,47.48c0,1.53-.73,6.85-1.61,8.52,1.81.59,4.9,2.08,5,3.17a12.6,12.6,0,0,1-.81,5.32c-.29.88-1.79,3.09-3.62,2.74a3.75,3.75,0,0,1-3.12-4c-.21-.64-2.11.51-2.39,1.48s-2.39,3.37-2.94,4.08a23.38,23.38,0,0,0-1.47,3.1c-.44.87-1.28,2.41-2.46,2.51s-3-.86-3.69-.48c-1.24,2.32-4.62,6-7.25,6.35-4.26.53-9-2.65-10-2.75-.85.89-2.81.71-3.77.55s-3.66-1.41-4.08-2.94c-1.86.8-7.48.24-10.86.41-2,.1-6.77.76-6.77,4.86,0,4.39,1.21,6.66,3.1,7.94-5.56,2.09-13.45-2.13-15.75-6.75S-.6,70,2.9,64c3.92-6.74,12.59-8.52,17.94-8.25s13.36,3.73,15.26,5c-.32-2.46.13-6.45.12-7.91a28.3,28.3,0,0,1,.59-4.3A3.32,3.32,0,0,1,38.09,47a6.3,6.3,0,0,1,3-.5,4.78,4.78,0,0,1,2.28,1.31l.8,1c1.09-.64,3.53,0,4.38.94s2.23,3.2,2.18,4.09a2.78,2.78,0,0,0,1.95-2.55c-.06-.9-.82-3-.46-3.55l.36-.54Z" transform="translate(-0.01 0)"/></g></svg>