<svg xmlns="http://www.w3.org/2000/svg" width="230" height="42.93" viewBox="0 0 230 42.93">
  <path id="Union_2" data-name="Union 2" d="M-629.241-3411.69a9.894,9.894,0,0,0,3.365-2.088,14.545,14.545,0,0,0,3.224-4.712,2.371,2.371,0,0,0,.231-.811,2.171,2.171,0,0,0-.231-.82l-7.154-17.344h2.04l5.049,12.244c.533,1.325,1.065,2.829,1.414,4.035h.08c.391-1.159.9-2.62,1.465-4.152l4.713-12.113H-613l-5.778,13.96c-2.328,5.807-3.969,9.281-6.476,11.4a10.83,10.83,0,0,1-3.374,1.951Zm-213.042-2.922a9.074,9.074,0,0,1,.655-8.29c1.847-3.176,5.934-4.016,8.455-3.888a19.8,19.8,0,0,1,7.192,2.356,30.063,30.063,0,0,1,.057-3.728,13.389,13.389,0,0,1,.278-2.027,1.563,1.563,0,0,1,.6-.725,2.965,2.965,0,0,1,1.414-.236,2.244,2.244,0,0,1,1.075.617l.377.471a2.116,2.116,0,0,1,2.065.443,4.427,4.427,0,0,1,1.028,1.928,1.31,1.31,0,0,0,.919-1.2c-.029-.424-.387-1.414-.217-1.673l.156-.233c-.38-.143-3.952-1.579-3.417-4.828-3.045-2.545-5.717-7.39-3.7-14.733,1.009-3.742,1.885-1.159,2.427-.82a67.225,67.225,0,0,1,6.268,5.948c1.414-.82,4.769-.708,5.906-.373a35.266,35.266,0,0,1,3.624-5.491c.551-.683,1.522-2.441,1.941-1.857,1.414,1.918,2.145,5.9,2.078,8.483a18.016,18.016,0,0,1-2.422,7.819,4.492,4.492,0,0,1-.335,3.911,8.094,8.094,0,0,1-2.263,2.05,14.148,14.148,0,0,1-.759,4.016c.853.278,2.309.98,2.357,1.494a5.941,5.941,0,0,1-.383,2.507c-.136.414-.843,1.456-1.706,1.292a1.768,1.768,0,0,1-1.471-1.885c-.1-.3-.995.24-1.127.7a10.681,10.681,0,0,1-1.385,1.923,11.011,11.011,0,0,0-.693,1.461c-.208.41-.6,1.136-1.159,1.183a2.725,2.725,0,0,1-.842-.132c-.368-.1-.716-.193-.9-.094-.584,1.094-2.177,2.828-3.416,2.992-2.008.25-4.242-1.249-4.713-1.3-.4.419-1.324.335-1.777.259s-1.725-.664-1.923-1.386a10.527,10.527,0,0,1-3.184.194c-.693-.014-1.379-.028-1.934,0-.942.048-3.19.358-3.19,2.291,0,2.069.571,3.139,1.461,3.742a4.276,4.276,0,0,1-1.508.259A7.238,7.238,0,0,1-842.283-3414.613ZM-818.2-3430.788Zm171.012,8.681h-.1l-.131,3.375h-1.73l-.019-.029c.1-1.315.16-2.974.16-4.345v-22.038l1.909-1.277v12.456h.08a7.5,7.5,0,0,1,7.07-3.916c4.892,0,8.257,3.959,8.257,9.581,0,6.7-4.369,9.992-8.6,9.992A7.4,7.4,0,0,1-647.184-3422.106Zm.339-9.242a5.751,5.751,0,0,0-.249,1.625v3.742a5.878,5.878,0,0,0,.169,1.367,6.461,6.461,0,0,0,6.349,4.746c4.406,0,6.937-3.507,6.937-8.394,0-4.3-2.417-8.1-6.777-8.1A6.75,6.75,0,0,0-646.844-3431.348Zm-40.748,9.242h-.1l-.132,3.375h-1.729l-.019-.029c.1-1.315.16-2.974.16-4.345v-22.047l1.908-1.268v12.456h.08a7.5,7.5,0,0,1,7.07-3.916c4.891,0,8.257,3.959,8.257,9.581,0,6.7-4.369,9.992-8.6,9.992A7.4,7.4,0,0,1-687.593-3422.106Zm.339-9.242a5.756,5.756,0,0,0-.25,1.625v3.742h0a5.829,5.829,0,0,0,.169,1.367,6.46,6.46,0,0,0,6.349,4.746c4.406,0,6.937-3.507,6.937-8.394,0-4.3-2.417-8.1-6.777-8.1A6.749,6.749,0,0,0-687.254-3431.348Zm24.041,13.017c-3.874,0-5.656-2.649-5.656-5.146,0-4.317,3.917-6.918,11.759-6.843v-.472c0-1.852-.373-5.548-4.93-5.514a8.639,8.639,0,0,0-4.84,1.414l-.6-1.343a10.561,10.561,0,0,1,5.656-1.617c5.561,0,6.627,4.054,6.627,7.4v7.276a29.485,29.485,0,0,0,.283,4.445h-1.758l-.038-.029-.284-2.682h-.089a7.336,7.336,0,0,1-6,3.112Zm-3.676-5.439a3.617,3.617,0,0,0,3.836,3.9,5.777,5.777,0,0,0,5.7-3.77,3.48,3.48,0,0,0,.2-1.121v-4c-.3-.008-.609-.013-.922-.013C-662.113-3428.774-666.888-3427.966-666.888-3423.77Zm-52.352,5.4-.061-16.444,2.884-2.267.113,3.667h.156a5.619,5.619,0,0,1,5.184-4.1,3.8,3.8,0,0,1,.967.113v3.209a4.963,4.963,0,0,0-1.159-.118c-2.4,0-4.091,1.819-4.562,4.374a9.639,9.639,0,0,0-.156,1.583v9.983Zm-28.552,0v-25.2l3.4-2.271v27.468Zm-46.357,0v-25.2l3.4-2.271v27.468Zm36.827-.005c-5.646,0-9.322-3.794-9.322-9.558s3.931-9.94,10.058-9.94a11.335,11.335,0,0,1,4.713.943l-.773,2.63a7.847,7.847,0,0,0-3.945-.891l.009.019c-4.279,0-6.6,3.162-6.6,7.07,0,4.335,2.786,7,6.5,7a9.675,9.675,0,0,0,4.176-.942l.561,2.583a12.519,12.519,0,0,1-5.1,1.087Zm58.107,0c-5.641,0-9.318-3.794-9.318-9.558s3.931-9.94,10.058-9.94a11.308,11.308,0,0,1,4.712.942l-.773,2.63a7.855,7.855,0,0,0-3.964-.885l.01.042c-4.279,0-6.6,3.163-6.6,7.07,0,4.336,2.78,7,6.494,7a9.685,9.685,0,0,0,4.175-.943l.58,2.555a12.492,12.492,0,0,1-5.1,1.087C-699.029-3418.38-699.122-3418.381-699.215-3418.383Zm-31.766-.019c-5.764,0-9.2-3.78-9.2-9.426s3.327-10.1,8.78-10.1v-.038c6.108,0,7.734,5.377,7.734,8.818a12.878,12.878,0,0,1-.118,1.589h-13.149c.076,4.613,3.016,6.5,6.419,6.5a12.322,12.322,0,0,0,5.185-.942l.58,2.436a15.151,15.151,0,0,1-5.824,1.165C-730.713-3418.4-730.847-3418.4-730.981-3418.4Zm-5.919-11.571h9.935c.042-2.168-.887-5.533-4.713-5.533C-735.124-3435.505-736.632-3432.328-736.9-3429.972Zm-39.915,11.547c-5.764,0-9.2-3.78-9.2-9.427s3.327-10.094,8.78-10.094v-.024c6.108,0,7.734,5.378,7.734,8.818a13.013,13.013,0,0,1-.117,1.588h-13.15c.076,4.614,3.017,6.5,6.42,6.5a12.306,12.306,0,0,0,5.184-.942l.58,2.423a15.143,15.143,0,0,1-5.824,1.165C-776.547-3418.42-776.681-3418.422-776.815-3418.425Zm-5.915-11.547h9.935c.042-2.168-.886-5.533-4.712-5.533C-780.953-3435.505-782.461-3432.328-782.73-3429.972Zm154.963-7.493,0-.01,0,.01Z" transform="translate(843 3453.07)" fill="#fcfbfa"/>
</svg>
