<svg id="ctl00_Header_ctl04_svgPediped" data-name="ctl00 Header ctl04 svgPediped" xmlns="http://www.w3.org/2000/svg" viewBox="0 0 311.05 98.3"><defs><style>.cls-1{fill:#593a7e;}</style></defs><path id="Pediped_-_Logo" data-name="Pediped - Logo" class="cls-1" d="M20.17,23.83A10.2,10.2,0,0,0,12.48,27a11.39,11.39,0,0,0-3.06,8.29,11.73,11.73,0,0,0,3.06,8.45A10.17,10.17,0,0,0,20.17,47a10,10,0,0,0,7.58-3.28,11.72,11.72,0,0,0,3.08-8.36,11.61,11.61,0,0,0-3-8.26,10,10,0,0,0-7.64-3.23m-10.32-8v4.28a18.75,18.75,0,0,1,5.79-4,16.93,16.93,0,0,1,6.67-1.32,17.21,17.21,0,0,1,13.11,5.79q5.4,5.78,5.4,14.84a20.48,20.48,0,0,1-5.57,14.62A17.73,17.73,0,0,1,22,56a16.42,16.42,0,0,1-6.34-1.21,19.13,19.13,0,0,1-5.83-3.94V69.23H0V15.84Zm265.13,8a9.9,9.9,0,0,0-7.59,3.23,11.52,11.52,0,0,0-3,8.26,11.67,11.67,0,0,0,3.07,8.36A9.92,9.92,0,0,0,275,47a10.18,10.18,0,0,0,7.69-3.22,11.74,11.74,0,0,0,3.07-8.45A11.4,11.4,0,0,0,282.71,27,10.24,10.24,0,0,0,275,23.83M285.35.7h9.85V55h-9.85V50.81a19.49,19.49,0,0,1-5.83,3.94A16.28,16.28,0,0,1,273.2,56,17.69,17.69,0,0,1,260,50.09a20.41,20.41,0,0,1-5.59-14.62q0-9.06,5.4-14.84a17.29,17.29,0,0,1,13.13-5.79,17,17,0,0,1,6.69,1.32,18.52,18.52,0,0,1,5.76,4Zm-47,29.84a9.71,9.71,0,0,0-3.84-5.25,11.21,11.21,0,0,0-6.64-2,11.81,11.81,0,0,0-7.19,2.27,12.62,12.62,0,0,0-3.6,5Zm9.82,7.71H216.62a10.54,10.54,0,0,0,3.62,6.67,11.46,11.46,0,0,0,7.56,2.46,13,13,0,0,0,9.42-3.85l8.24,3.86a19.66,19.66,0,0,1-7.4,6.47A23.19,23.19,0,0,1,227.82,56q-9.19,0-15-5.8A19.82,19.82,0,0,1,207,35.61a20.38,20.38,0,0,1,5.79-14.85,19.37,19.37,0,0,1,14.48-5.92q9.27,0,15.05,5.92t5.81,15.62ZM180.19,23.83A10.2,10.2,0,0,0,172.5,27a11.39,11.39,0,0,0-3.06,8.29,11.73,11.73,0,0,0,3.06,8.45A10.17,10.17,0,0,0,180.19,47a10,10,0,0,0,7.58-3.28,11.72,11.72,0,0,0,3.07-8.36,11.6,11.6,0,0,0-3-8.26,10,10,0,0,0-7.64-3.23m-10.33-8v4.28a18.68,18.68,0,0,1,5.8-4,16.89,16.89,0,0,1,6.67-1.32,17.23,17.23,0,0,1,13.11,5.79q5.4,5.78,5.4,14.84a20.44,20.44,0,0,1-5.58,14.62A17.71,17.71,0,0,1,182,56a16.47,16.47,0,0,1-6.35-1.21,19.25,19.25,0,0,1-5.83-3.94V69.23H160V15.84Zm-27.19,0h9.85V55h-9.85ZM147.58-.3A6,6,0,0,1,152,1.57a6.22,6.22,0,0,1,1.84,4.52A6.21,6.21,0,0,1,152,10.57a6.11,6.11,0,0,1-8.78,0,6.32,6.32,0,0,1-1.84-4.59,6,6,0,0,1,1.82-4.4A5.92,5.92,0,0,1,147.58-.3M115,23.83a9.94,9.94,0,0,0-7.6,3.23,11.61,11.61,0,0,0-3,8.26,11.72,11.72,0,0,0,3.07,8.36A10,10,0,0,0,115,47a10.2,10.2,0,0,0,7.7-3.22,11.78,11.78,0,0,0,3.07-8.45A11.44,11.44,0,0,0,122.69,27,10.25,10.25,0,0,0,115,23.83M125.32.7h9.86V55h-9.86V50.81a19.33,19.33,0,0,1-5.82,3.94A16.32,16.32,0,0,1,113.18,56a17.73,17.73,0,0,1-13.25-5.87,20.4,20.4,0,0,1-5.58-14.62q0-9.06,5.4-14.84a17.25,17.25,0,0,1,13.14-5.79,16.84,16.84,0,0,1,6.66,1.32,18.33,18.33,0,0,1,5.77,4Zm-47,29.84a9.76,9.76,0,0,0-3.84-5.25,11.19,11.19,0,0,0-6.64-2,11.88,11.88,0,0,0-7.2,2.27,12.61,12.61,0,0,0-3.59,5Zm9.81,7.71H56.59a10.61,10.61,0,0,0,3.64,6.67,11.38,11.38,0,0,0,7.54,2.46,13,13,0,0,0,9.42-3.85l8.24,3.86A19.58,19.58,0,0,1,78,53.86,23.13,23.13,0,0,1,67.79,56q-9.2,0-15-5.8A19.82,19.82,0,0,1,47,35.61a20.3,20.3,0,0,1,5.79-14.85A19.39,19.39,0,0,1,67.3,14.84q9.24,0,15,5.92t5.79,15.62ZM291.51,77H293v4.42h2.43v1.32H293V93.34h-1.53V82.75h-2.09V81.43h2.09Zm-5.88,9.17a5,5,0,0,0-.89-2A4.23,4.23,0,0,0,283.19,83a4.77,4.77,0,0,0-2-.45,4.32,4.32,0,0,0-3,1.13,4.94,4.94,0,0,0-1.39,2.46Zm0,3.21,1.29.67a6.81,6.81,0,0,1-1.47,2,5.69,5.69,0,0,1-1.87,1.16,6.44,6.44,0,0,1-2.35.4,5.66,5.66,0,0,1-4.56-1.91,6.52,6.52,0,0,1-.25-8.35,5.67,5.67,0,0,1,4.72-2.26A5.86,5.86,0,0,1,286,83.43a6.51,6.51,0,0,1,1.32,4.07H276.6a4.81,4.81,0,0,0,1.33,3.4,4.21,4.21,0,0,0,3.17,1.33,5.07,5.07,0,0,0,3.23-1.15,7.46,7.46,0,0,0,1.3-1.69m-14.57-3.21a5,5,0,0,0-.89-2A4.23,4.23,0,0,0,268.62,83a4.74,4.74,0,0,0-2-.45,4.32,4.32,0,0,0-3,1.13,5,5,0,0,0-1.39,2.46Zm0,3.21,1.3.67a7.17,7.17,0,0,1-1.47,2A5.74,5.74,0,0,1,269,93.24a6.4,6.4,0,0,1-2.35.4,5.69,5.69,0,0,1-4.56-1.91,6.45,6.45,0,0,1-1.64-4.31,6.35,6.35,0,0,1,1.39-4,5.68,5.68,0,0,1,4.72-2.26,5.86,5.86,0,0,1,4.86,2.31,6.45,6.45,0,0,1,1.32,4.07H262a4.85,4.85,0,0,0,1.33,3.4,4.21,4.21,0,0,0,3.17,1.33,5.16,5.16,0,0,0,1.77-.31,5,5,0,0,0,1.46-.84,7.18,7.18,0,0,0,1.3-1.69M258.9,76.83v1.5a3.78,3.78,0,0,0-1.44-.36,1.44,1.44,0,0,0-.75.18.81.81,0,0,0-.37.42,5.64,5.64,0,0,0-.08,1.25v1.61h2.49v1.32h-2.49V93.34h-1.54V82.75h-1.56V81.43h1.56V79.57a5,5,0,0,1,.24-1.83,1.83,1.83,0,0,1,.8-.88,2.63,2.63,0,0,1,1.36-.33,6.53,6.53,0,0,1,1.78.3m-15.65,9.35a5,5,0,0,0-.89-2A4.23,4.23,0,0,0,240.81,83a4.74,4.74,0,0,0-2-.45,4.32,4.32,0,0,0-3,1.13,5,5,0,0,0-1.39,2.46Zm0,3.21,1.3.67a7.17,7.17,0,0,1-1.47,2,5.74,5.74,0,0,1-1.88,1.16,6.4,6.4,0,0,1-2.35.4,5.69,5.69,0,0,1-4.56-1.91,6.45,6.45,0,0,1-1.64-4.31,6.35,6.35,0,0,1,1.39-4,5.68,5.68,0,0,1,4.72-2.26,5.86,5.86,0,0,1,4.86,2.31,6.45,6.45,0,0,1,1.32,4.07H234.22a4.85,4.85,0,0,0,1.33,3.4,4.21,4.21,0,0,0,3.17,1.33,5.16,5.16,0,0,0,1.77-.31,5,5,0,0,0,1.46-.84,7.18,7.18,0,0,0,1.3-1.69m-17.34-8h1.56v1.74A5.48,5.48,0,0,1,229,81.63a2.92,2.92,0,0,1,1.62-.51,2.85,2.85,0,0,1,1.36.41l-.8,1.29a2.11,2.11,0,0,0-.81-.21,2.21,2.21,0,0,0-1.48.63,4,4,0,0,0-1.08,2,18.63,18.63,0,0,0-.29,4.12v4h-1.56Zm-9,1.17A4.63,4.63,0,0,0,212.83,85a4.91,4.91,0,0,0-.64,2.41,4.81,4.81,0,0,0,.65,2.4,4.59,4.59,0,0,0,1.73,1.79,4.49,4.49,0,0,0,2.33.64,4.83,4.83,0,0,0,2.39-.63A4.47,4.47,0,0,0,221,89.88a4.94,4.94,0,0,0,.61-2.44A4.76,4.76,0,0,0,220.27,84a4.51,4.51,0,0,0-3.35-1.39M223,81.43V93.34h-1.51v-2a6.48,6.48,0,0,1-2.16,1.76,6,6,0,0,1-6.94-1.24,6.12,6.12,0,0,1-1.79-4.46,6,6,0,0,1,1.8-4.4,5.91,5.91,0,0,1,4.35-1.83,5.55,5.55,0,0,1,2.65.63,6,6,0,0,1,2.09,1.87V81.43ZM202.11,92.17a4.61,4.61,0,0,0,4.08-2.4,4.81,4.81,0,0,0,.64-2.41,5,5,0,0,0-.64-2.42,4.82,4.82,0,0,0-1.74-1.79,4.53,4.53,0,0,0-2.32-.64,4.83,4.83,0,0,0-2.38.64A4.45,4.45,0,0,0,198,84.88a4.93,4.93,0,0,0-.6,2.44,4.74,4.74,0,0,0,1.36,3.46,4.51,4.51,0,0,0,3.34,1.39M196,93.34V76.83h1.54v6.65a6.37,6.37,0,0,1,2.15-1.77A6,6,0,0,1,206.59,83a6.36,6.36,0,0,1,0,8.86,5.9,5.9,0,0,1-4.34,1.82A5.53,5.53,0,0,1,199.6,93a6.2,6.2,0,0,1-2.08-1.87v2.19ZM180.63,82.62A4.43,4.43,0,0,0,177.35,84,4.76,4.76,0,0,0,176,87.45a4.94,4.94,0,0,0,.62,2.41,4.44,4.44,0,0,0,1.69,1.72,4.79,4.79,0,0,0,4.68,0,4.37,4.37,0,0,0,1.69-1.72,4.85,4.85,0,0,0,.63-2.41A4.72,4.72,0,0,0,183.91,84a4.43,4.43,0,0,0-3.28-1.41m0-1.5a5.92,5.92,0,0,1,4.56,2,6.42,6.42,0,0,1-.09,8.67,6.31,6.31,0,0,1-9,0,6.37,6.37,0,0,1-.09-8.65,5.88,5.88,0,0,1,4.57-2M168.74,77h1.53v4.42h2.43v1.32h-2.43V93.34h-1.53V82.75h-2.09V81.43h2.09ZM151.86,82.6a4.82,4.82,0,0,0-2.41.63A4.5,4.5,0,0,0,147.7,85a4.69,4.69,0,0,0-.64,2.4,4.34,4.34,0,0,0,1.31,3.24,5.18,5.18,0,0,0,6.81,0,4.49,4.49,0,0,0,1.28-3.33,4.92,4.92,0,0,0-.59-2.41,4.32,4.32,0,0,0-1.67-1.67,4.67,4.67,0,0,0-2.34-.61m4.53-1.17h1.53v9.49a11.19,11.19,0,0,1-.44,3.66,4.75,4.75,0,0,1-2.09,2.53,6.89,6.89,0,0,1-3.58.89,8.4,8.4,0,0,1-2.75-.43,5.44,5.44,0,0,1-2-1.17,7,7,0,0,1-1.41-2.13h1.66A4.42,4.42,0,0,0,149.08,96a5.6,5.6,0,0,0,2.66.57,5.52,5.52,0,0,0,2.65-.59,3.5,3.5,0,0,0,1.53-1.46,6.49,6.49,0,0,0,.47-2.86v-.61a5.86,5.86,0,0,1-2.12,1.68,6.24,6.24,0,0,1-5.74-.23,5.66,5.66,0,0,1-2.23-2.19,6,6,0,0,1-.79-3,6.19,6.19,0,0,1,6.15-6.17,5.69,5.69,0,0,1,2.5.56,6.76,6.76,0,0,1,2.23,1.82Zm-23.94,0H134v2.13a6.34,6.34,0,0,1,2-1.83,5,5,0,0,1,2.43-.61,4.24,4.24,0,0,1,2.37.68,4,4,0,0,1,1.52,1.83,9.62,9.62,0,0,1,.5,3.58v6.13H141.3V87.66a13.56,13.56,0,0,0-.17-2.75,3,3,0,0,0-1-1.78,3.07,3.07,0,0,0-2-.6,3.78,3.78,0,0,0-2.49.92,4.36,4.36,0,0,0-1.45,2.28A15.5,15.5,0,0,0,134,89v4.37h-1.53Zm-4.72,0h1.53V93.34h-1.53Zm.76-4.9a1.22,1.22,0,0,1,.9.37,1.26,1.26,0,0,1,.37.89,1.24,1.24,0,0,1-.37.89,1.22,1.22,0,0,1-.9.37,1.26,1.26,0,0,1-1.25-1.26,1.22,1.22,0,0,1,.37-.89,1.19,1.19,0,0,1,.88-.37m-14.2.3h1.53v6.73a6.83,6.83,0,0,1,2.05-1.83,5.05,5.05,0,0,1,2.42-.61,4.24,4.24,0,0,1,2.37.68,4.06,4.06,0,0,1,1.53,1.82,9.9,9.9,0,0,1,.49,3.59v6.13h-1.53V87.66a14.37,14.37,0,0,0-.17-2.75,3.11,3.11,0,0,0-1-1.78,3.07,3.07,0,0,0-2-.6,3.82,3.82,0,0,0-2.49.92A4.42,4.42,0,0,0,116,85.73a16.11,16.11,0,0,0-.22,3.24v4.37h-1.53ZM108,77h1.53v4.42H112v1.32h-2.43V93.34H108V82.75h-2.09V81.43H108Zm-13.8,0h1.53v4.42h2.43v1.32H95.76V93.34H94.23V82.75H92.14V81.43h2.09Zm-4,5.72-1,1a3.52,3.52,0,0,0-2.41-1.19,1.83,1.83,0,0,0-1.28.49A1.54,1.54,0,0,0,85,84.2a1.72,1.72,0,0,0,.44,1.1,6.11,6.11,0,0,0,1.84,1.26,6.87,6.87,0,0,1,2.33,1.71,3.11,3.11,0,0,1,.6,1.87,3.36,3.36,0,0,1-1,2.49,3.54,3.54,0,0,1-2.57,1,4.61,4.61,0,0,1-2-.44A4.3,4.3,0,0,1,83.07,92l1-1.1a3.33,3.33,0,0,0,2.49,1.33,2.27,2.27,0,0,0,1.57-.59,1.85,1.85,0,0,0,.65-1.39A1.8,1.8,0,0,0,88.31,89a6.86,6.86,0,0,0-1.93-1.27,6.11,6.11,0,0,1-2.19-1.65,3.07,3.07,0,0,1-.59-1.85A3,3,0,0,1,84.53,82a3.23,3.23,0,0,1,2.34-.9,4.85,4.85,0,0,1,3.31,1.61M79.65,86.18a5,5,0,0,0-.89-2A4.23,4.23,0,0,0,77.21,83a4.74,4.74,0,0,0-2-.45,4.32,4.32,0,0,0-3,1.13,5,5,0,0,0-1.39,2.46Zm0,3.21,1.29.67a7,7,0,0,1-1.46,2,5.74,5.74,0,0,1-1.88,1.16,6.44,6.44,0,0,1-2.35.4,5.67,5.67,0,0,1-4.56-1.91,6.45,6.45,0,0,1-1.64-4.31,6.35,6.35,0,0,1,1.39-4,5.67,5.67,0,0,1,4.72-2.26A5.86,5.86,0,0,1,80,83.43a6.45,6.45,0,0,1,1.32,4.07H70.62A4.81,4.81,0,0,0,72,90.9a4.21,4.21,0,0,0,3.17,1.33,5.16,5.16,0,0,0,1.77-.31,5,5,0,0,0,1.46-.84,7.46,7.46,0,0,0,1.3-1.69M60.57,92.17a4.57,4.57,0,0,0,2.35-.63,4.51,4.51,0,0,0,1.72-1.77,4.81,4.81,0,0,0,.64-2.41,4.9,4.9,0,0,0-.64-2.42,4.8,4.8,0,0,0-1.73-1.79,4.58,4.58,0,0,0-2.32-.64,4.84,4.84,0,0,0-2.39.64,4.43,4.43,0,0,0-1.73,1.73,4.83,4.83,0,0,0-.61,2.44,4.74,4.74,0,0,0,1.36,3.46,4.51,4.51,0,0,0,3.35,1.39m-6.13,1.17V76.83H56v6.65a6.46,6.46,0,0,1,2.15-1.77,5.89,5.89,0,0,1,2.62-.59A5.78,5.78,0,0,1,65.05,83a6.13,6.13,0,0,1,1.79,4.45A6.07,6.07,0,0,1,65,91.82a5.9,5.9,0,0,1-4.34,1.82A5.46,5.46,0,0,1,58.06,93,6.14,6.14,0,0,1,56,91.15v2.19ZM41.87,77H43.4v4.42h2.43v1.32H43.4V93.34H41.87V82.75H39.78V81.43h2.09ZM28.42,81.43h1.84l3.17,4.36,3.13-4.36H38.4l-4,5.62,4.57,6.29H37.05l-3.62-5-3.61,5H28l4.51-6.27Zm-3.18,4.75a5.17,5.17,0,0,0-.9-2A4.23,4.23,0,0,0,22.79,83a4.74,4.74,0,0,0-2-.45,4.34,4.34,0,0,0-3,1.13,5,5,0,0,0-1.39,2.46Zm0,3.21,1.29.67a7.17,7.17,0,0,1-1.47,2,5.8,5.8,0,0,1-1.87,1.16,6.49,6.49,0,0,1-2.36.4,5.69,5.69,0,0,1-4.56-1.91,6.45,6.45,0,0,1-1.64-4.31,6.35,6.35,0,0,1,1.39-4,5.68,5.68,0,0,1,4.72-2.26,5.9,5.9,0,0,1,4.87,2.31,6.44,6.44,0,0,1,1.31,4.07H16.21a4.84,4.84,0,0,0,1.32,3.4,4.22,4.22,0,0,0,3.17,1.33,5.12,5.12,0,0,0,1.77-.31,5,5,0,0,0,1.46-.84,7.45,7.45,0,0,0,1.31-1.69m-23.7-8H3.07v2.13a6.34,6.34,0,0,1,2-1.83,5,5,0,0,1,2.43-.61,4.24,4.24,0,0,1,2.37.68,4,4,0,0,1,1.53,1.83,9.88,9.88,0,0,1,.49,3.58v6.13H10.4V87.66a13.32,13.32,0,0,0-.18-2.75,3,3,0,0,0-1-1.78,3.07,3.07,0,0,0-2-.6,3.82,3.82,0,0,0-2.49.92,4.36,4.36,0,0,0-1.45,2.28A16.25,16.25,0,0,0,3.07,89v4.37H1.54ZM304.58,6h.6c.71,0,1.28-.24,1.28-.81s-.37-.83-1.18-.83a3.36,3.36,0,0,0-.7.06Zm0,3.08h-1.28V3.57a10.73,10.73,0,0,1,2.11-.2,3.15,3.15,0,0,1,1.92.43A1.52,1.52,0,0,1,307.83,5a1.41,1.41,0,0,1-1.14,1.3v.07c.54.17.84.6,1,1.34A3.68,3.68,0,0,0,308.1,9h-1.38a4.75,4.75,0,0,1-.43-1.3c-.1-.61-.44-.88-1.14-.88h-.6Zm.83-7.24a4.27,4.27,0,0,0-4.22,4.39,4.26,4.26,0,0,0,4.29,4.4,4.2,4.2,0,0,0,4.19-4.4,4.24,4.24,0,0,0-4.22-4.39Zm.07-1.11a5.52,5.52,0,1,1-5.7,5.5,5.57,5.57,0,0,1,5.67-5.5Z" transform="translate(0 0.3)"/></svg>