<svg id="layer" xmlns="http://www.w3.org/2000/svg" viewBox="0 0 600.1 201.7"><path id="Quax_-_Logo" data-name="Quax - Logo" d="M170.5,405.7c-14.2,12.6-33.2,20.1-56.3,20.1C56.8,425.8,26,380,26,325.6s30.8-100.2,88.2-100.2,88.2,45.8,88.2,100.2c0,30.3-9.6,58.1-28.4,76.6l30.8,21.2-2.7,3.7Zm-38.6-26.2,2.9-4.3L169.4,399c17.4-16.6,27.3-42.6,27.6-73.4-.5-55.2-31.3-94.9-82.8-94.9s-82.3,39.7-82.8,94.9c.5,55.2,31.3,94.9,82.8,94.9,20.6,0,38-6.4,51.4-17.9ZM327,421.3h-5.4v-34h-.5c-5.1,21.2-22.5,37.2-49.6,37.2-28.7,0-49-17.7-49-49.6V283.5h5.4v90.6c0,31.9,20.4,45,43.7,45,33,0,50.1-27.1,50.1-57.6v-78h5.4V421.3Zm24.9-95.2c1.3-26,18.5-45.8,52.5-45.8,24.4,0,44.7,9.4,45.6,39.4v87.6c0,10.4,9.9,9.4,17.4,8.6v5.4c-10.5.8-22.8.8-22.8-13.4v-18h-.5c-5.4,17.7-26.3,34.6-54.7,34.6-27.3,0-46.1-12.9-46.1-37.2,0-34,24.4-39.7,47.4-41.3,37.8-2.1,53.9-1.3,53.9-22.2,0-16.6-3.5-38.1-40.2-38.1-28.7,0-45.3,14.7-47.2,40.5h-5.3Zm92.7,14.2h-.5c-7.2,10.5-31.1,9.4-53.3,11-21.7,1.6-42.1,6.4-42.1,35.9,0,15.8,10.2,31.9,40.2,31.9,35.9,0,55.7-26.3,55.7-53.3V340.3Zm130.6-56.8h6.4L531.3,350l55.2,71.3h-6.7l-52-67.3-51.7,67.3h-6.7L524.6,350l-50.1-66.5h7l46.3,62.4Zm30-1.5a20.9,20.9,0,1,1-20.9,20.9A20.89,20.89,0,0,1,605.2,282m0,40.6a19.75,19.75,0,1,0-19.8-19.7,19.67,19.67,0,0,0,19.8,19.7m-7.1-31.4H606c5.4,0,7.9,2.4,7.9,6.5s-2.9,6-6.3,6.2l7.4,11.3h-1.4L606.4,304a9.7,9.7,0,0,1-1.7.1h-5.5v11.1h-1.1v-24ZM605,303c3.2,0,7.8-.5,7.8-5.3,0-4.4-3.3-5.4-6.9-5.4h-6.7V303Z" transform="translate(-26 -225.4)"/></svg>