<svg id="Layer_1" data-name="Layer 1" xmlns="http://www.w3.org/2000/svg" viewBox="0 0 936 936"><defs><style>.cls-1{fill:#ed7703;}.cls-2{fill:#fff;}</style></defs><g id="Stokke_-_Logo" data-name="Stokke - Logo"><rect class="cls-1" width="936" height="936"/><path class="cls-2" d="M445.13,262.67c-47.52,6.61-68.93-14.87-73.08-29.22C358.33,186,407.71,165,439.9,192c24.57,20.63,8.54,63.41,5.23,70.64M349.47,256c14.31,23.74,38.09,37.14,83.4,33.45,0,0-88.75,152.66,31.66,220.65-20.65,0-59.51-5.46-93.23-26.13-67.74-41.53-100-110.41-88.77-185.7,6.28-41.91,34.15-92.09,69.77-114.28-15,17-13,55.21-2.83,72m116,178.61c-42.35-52.5,5.17-150.12,5.17-150.12C597.42,249.92,645.53,318,644,380.91c-1.94,80.25-113.5,134.21-178.48,53.65m14.72-177.38C511,173,431.94,133.47,367.41,161.35c-66.08,28.56-95.18,89.4-107.58,132.84-37.53,131.5,62.32,298.45,246,280.47,64.89-6.35,128-48.43,155.94-97.11,59.68-103.75-.59-264.32-181.5-220.37"/><path class="cls-2" d="M649.75,548.32H644V564h-2.53V548.32h-5.79V546h14.11ZM655.18,564h-2.54V546h4.16l5.6,14.15L667.84,546H672v18h-2.54V548.36h-.09L663.11,564h-1.58l-6.26-15.68h-.09Z"/><path class="cls-2" d="M842.38,693a15.29,15.29,0,1,1,0,.06Zm15.4-13a13.07,13.07,0,1,0,12.86,13.28V693a12.73,12.73,0,0,0-12.46-13Zm-3.48,22H852V684h6.9c4.08,0,6,1.76,6,5.12,0,3.19-2.09,4.58-4.55,5l5.22,7.91h-2.71l-5-7.88H854.3Zm0-16v6.09h4.21c3.15,0,4.08-1.16,4.08-3.11,0-2.43-2.12-3-4.17-3Z"/><polygon class="cls-2" points="307.18 684 219.75 684 215.68 702.05 253.05 702.05 253.05 829.24 272.28 826.97 272.28 702.05 311.37 702.05 307.18 684"/><polygon class="cls-2" points="660.71 755.16 713.59 694.45 699.01 682.12 644.94 744.42 644.95 682.66 625.67 684.76 625.67 829.28 644.95 827 644.95 765.79 702.15 829.54 717.68 817.25 660.71 755.16"/><polygon class="cls-2" points="542.11 755.16 594.99 694.45 580.41 682.12 526.34 744.42 526.35 682.66 507.07 684.76 507.07 829.28 526.35 827 526.35 765.79 583.55 829.54 599.08 817.25 542.11 755.16"/><path class="cls-2" d="M397.66,677.94c-43.5,0-78.9,35-78.9,78S354.16,834,397.66,834s78.91-35,78.91-78.07S441.17,677.94,397.66,677.94Zm59.23,78c0,32.33-27.12,59.65-59.23,59.65S338.44,788.32,338.44,756s27.12-59.63,59.22-59.63,59.23,27.3,59.23,59.63Z"/><polygon class="cls-2" points="763.97 809.95 763.97 765.17 815.8 765.17 815.8 747.12 763.97 747.12 763.97 702.05 822.57 702.05 817.4 684 744.74 684 744.74 828 823.54 828 828 809.95 763.97 809.95"/><path class="cls-2" d="M158.92,745.05c-15.15-5.09-27.1-9.11-26.83-25.27.36-23.09,22.28-23.76,24.78-23.76h.69c14.12.48,23.76,11.94,26.4,15.48l12.33-14.15a50.58,50.58,0,0,0-35.86-19.47c-1-.1-2.14-.14-3.38-.14a49.67,49.67,0,0,0-27.18,8.43c-10.63,7.4-16.4,18.88-16.69,33.2-.63,30.1,20.55,37.22,37.57,43,15,5,27.88,9.41,29.05,25.67.94,13.17-5.09,23-16.56,26.84a28.75,28.75,0,0,1-9.19,1.57c-18.88,0-30.64-20.45-30.77-20.68l-1.89-3.29-13.1,15,1,1.68c.15.25,15.23,25,43.29,25h.24c14.2-.07,26.82-5.25,35.54-14.6a41.2,41.2,0,0,0,11-31.06C197.5,758,177,751.13,158.92,745.05Z"/></g></svg>