<svg id="Stokke_-_Logo" data-name="Stokke - Logo" xmlns="http://www.w3.org/2000/svg" width="90" height="90" viewBox="0 0 90 90">
  <rect id="Rectangle_463" data-name="Rectangle 463" width="90" height="90" fill="#ed7703"/>
  <path id="Union_1" data-name="Union 1" d="M-530.742-399.454a5.244,5.244,0,0,1-4.163-2.4l-.1-.162,1.259-1.442.182.316c.013.022,1.143,1.989,2.958,1.989a2.759,2.759,0,0,0,.884-.151,2.338,2.338,0,0,0,1.592-2.581c-.112-1.563-1.351-1.987-2.793-2.468-1.637-.556-3.673-1.24-3.613-4.135a3.8,3.8,0,0,1,1.6-3.192,4.779,4.779,0,0,1,2.614-.811c.119,0,.229,0,.325.013a4.864,4.864,0,0,1,3.448,1.873l-1.185,1.36a3.573,3.573,0,0,0-2.539-1.489h-.066a2.263,2.263,0,0,0-2.383,2.285c-.026,1.553,1.123,1.94,2.58,2.43,1.738.584,3.71,1.245,3.888,4.178a3.962,3.962,0,0,1-1.057,2.986,4.627,4.627,0,0,1-3.417,1.4Zm15.979-7.521a7.553,7.553,0,0,1,7.586-7.5,7.548,7.548,0,0,1,7.588,7.5,7.555,7.555,0,0,1-7.588,7.507A7.558,7.558,0,0,1-514.762-406.976Zm1.892.005a5.787,5.787,0,0,0,5.694,5.729,5.792,5.792,0,0,0,5.7-5.732,5.791,5.791,0,0,0-5.7-5.731A5.791,5.791,0,0,0-512.87-406.97Zm29.472.941v5.885l-1.854.22v-13.9l1.854-.2v5.938l5.2-5.99,1.4,1.185-5.084,5.837,5.477,5.971L-477.9-399.9Zm-11.4,0v5.885l-1.854.22v-13.9l1.854-.2v5.938l5.2-5.99,1.4,1.185-5.084,5.837,5.477,5.971L-489.3-399.9Zm-26.279-6.129h-3.593l.391-1.735h8.407l.4,1.735h-3.758v12.011l-1.849.219Zm47.278,12.11v-13.846h6.987l.5,1.735h-5.635v4.333h4.983v1.736h-4.983v4.306h6.157l-.428,1.735Zm9.389-12.974v-.005a1.47,1.47,0,0,1,1.471-1.468,1.471,1.471,0,0,1,1.469,1.471,1.47,1.47,0,0,1-1.469,1.47A1.469,1.469,0,0,1-464.414-413.022Zm.2-.02a1.256,1.256,0,0,0,1.236,1.277A1.257,1.257,0,0,0-461.7-413v-.026a1.223,1.223,0,0,0-1.2-1.25h-.06A1.255,1.255,0,0,0-464.21-413.042Zm1.765.883-.481-.758h-.343v.754h-.221v-1.731h.664c.392,0,.577.169.577.492a.464.464,0,0,1-.437.481l.5.761Zm-.823-1.542v.585h.4c.3,0,.392-.112.392-.3,0-.233-.2-.288-.4-.288Zm-57.16-37.675c1.193-4.177,3.991-10.027,10.345-12.773,6.2-2.681,13.806,1.121,10.849,9.214h0c17.4-4.225,23.19,11.214,17.452,21.19-2.686,4.681-8.755,8.727-14.994,9.337q-1.328.13-2.594.129A21.517,21.517,0,0,1-520.429-451.375Zm2.182.392a17.369,17.369,0,0,0,8.536,17.856,18.3,18.3,0,0,0,8.964,2.513c-11.578-6.538-3.044-21.217-3.044-21.217-4.357.355-6.643-.934-8.019-3.217h0c-.978-1.615-1.17-5.288.272-6.923C-514.962-459.837-517.642-455.012-518.246-450.983Zm34.757,7.946c.147-6.049-4.479-12.595-16.67-9.272,0,0-4.569,9.386-.5,14.434l0,0C-494.4-430.132-483.676-435.32-483.489-443.037Zm-26.15-14.179c.4,1.38,2.458,3.445,7.027,2.81v0c.318-.7,1.859-4.809-.5-6.792a4.74,4.74,0,0,0-3.041-1.147C-508.522-462.347-510.56-460.4-509.639-457.215Zm28.6,31.783v-1.5h-.009l-.6,1.5h-.152l-.6-1.507h-.009v1.507h-.244v-1.731h.4l.538,1.361.523-1.361h.4v1.731Zm-2.692,0v-1.507h-.556v-.223h1.356l0,.223h-.553v1.507Z" transform="translate(545.413 479.662)" fill="#fff"/>
</svg>
