<svg id="SvgjsSvg1008" xmlns="http://www.w3.org/2000/svg" viewBox="0 0 139.13 22.41"><defs><style>.cls-1{fill:#613c96;}</style></defs><path id="Traeumeland_-_Logo" data-name="Traeumeland - Logo" class="cls-1" d="M18.1,1.46a1.44,1.44,0,0,1-1.45,1.45H10.49v18a1.45,1.45,0,0,1-1.43,1.47,1.46,1.46,0,0,1-1.45-1.47v-18H1.45A1.46,1.46,0,0,1,1.45,0h15.2A1.45,1.45,0,0,1,18.1,1.46ZM71.47,21a1.39,1.39,0,1,1-2.78,0V14.69c0-2.68-.08-4.85-2.79-4.85S63.09,12,63.09,14.69v6.25a1.41,1.41,0,0,1-.88,1.3,1.31,1.31,0,0,1-.52.11h0a1.4,1.4,0,0,1-1.38-1.41V14.69c0-2.68-.08-4.85-2.79-4.85S54.7,12,54.7,14.69v6.25a1.4,1.4,0,1,1-2.79,0V14.69C51.91,10.48,53,7,57.51,7A4.8,4.8,0,0,1,61.7,8.9,4.83,4.83,0,0,1,65.9,7c4.53,0,5.57,3.46,5.57,7.67Zm67.66-6.27c0,4.23-1.55,7.67-6.51,7.67s-6.52-3.44-6.52-7.67S127.66,7,132.62,7a6.81,6.81,0,0,1,3.63.92V1.49A1.46,1.46,0,0,1,137.7,0a1.45,1.45,0,0,1,1.43,1.47ZM85.49,20.44a7.15,7.15,0,0,1-5,1.75c-4.77,0-6.91-3.78-6.91-7.52v-.22c0-1.2,0-4,1.82-5.92a6.33,6.33,0,0,1,4.72-1.74,6.19,6.19,0,0,1,4.71,1.86,8,8,0,0,1,1.82,5.46,1.45,1.45,0,0,1-1.44,1.36H76.51c.17,1.55.94,3.82,4,3.82a4.47,4.47,0,0,0,3-.93,1.42,1.42,0,0,1,2,0A1.46,1.46,0,0,1,85.49,20.44Zm-50.29.43a1.45,1.45,0,0,1-1.44,1.47,1.44,1.44,0,0,1-1.35-1,6.7,6.7,0,0,1-3.73,1c-3.44,0-5.93-2.19-5.93-5s2.55-5.1,5.91-5.11h.05a6.69,6.69,0,0,1,3.6,1c-.24-2.31-1.26-3.45-3.63-3.45a4.4,4.4,0,0,0-2.33.66,1.47,1.47,0,0,1-.91.31A1.41,1.41,0,0,1,24,9.39a1.39,1.39,0,0,1,.5-1.11A6.39,6.39,0,0,1,28.68,7c5,0,6.51,3.42,6.51,7.64h0Zm74.66,0a1.43,1.43,0,0,1-2.78.5,6.7,6.7,0,0,1-3.73,1c-3.44,0-5.93-2.19-5.93-5s2.54-5.1,5.91-5.11h0a6.7,6.7,0,0,1,3.61,1c-.24-2.31-1.26-3.45-3.63-3.45a4.44,4.44,0,0,0-2.34.66,1.45,1.45,0,0,1-.9.31,1.43,1.43,0,0,1-.9-2.52A6.39,6.39,0,0,1,103.35,7c5,0,6.51,3.42,6.51,7.64Zm11.59.09V13.51c0-2.59-.94-3.64-3.24-3.64S115,11,115,13.51V21a1.44,1.44,0,1,1-2.87,0V13.51c0-4.16,2.23-6.55,6.11-6.55s6.12,2.39,6.12,6.55V21a1.44,1.44,0,1,1-2.88,0ZM49.66,15.87c0,4.16-2.23,6.54-6.11,6.54S37.43,20,37.43,15.87V8.41a1.44,1.44,0,1,1,2.88,0v7.46c0,2.59.94,3.64,3.24,3.64s3.23-1.09,3.23-3.64V8.41a1.44,1.44,0,1,1,2.88,0Zm46.86,5.06a1.4,1.4,0,0,1-1.4,1.41c-4.93,0-6.19-3.46-6.19-7.68V1.46A1.46,1.46,0,0,1,90.39,0a1.44,1.44,0,0,1,1.43,1.46v13.2c0,2.68.15,4.86,3.3,4.86A1.4,1.4,0,0,1,96.52,20.93ZM22,8.4a1.4,1.4,0,0,1-1.39,1.41c-3.16,0-3.31,2.18-3.31,4.85v6.21a1.45,1.45,0,0,1-1.43,1.47,1.46,1.46,0,0,1-1.46-1.47V14.66c0-4.2,1.26-7.67,6.2-7.67A1.4,1.4,0,0,1,22,8.4ZM132.57,9.83c-3.19,0-3.74,2.18-3.74,4.86s.59,4.85,3.74,4.85,3.75-2.17,3.75-4.85S135.76,9.83,132.57,9.83ZM32.29,17.31c0-1.25-1.05-2.32-3.45-2.32s-3.36,1.07-3.36,2.32,1.17,2.3,3.36,2.3S32.29,18.55,32.29,17.31Zm74.67,0c0-1.25-1.55-2.26-3.45-2.26s-3.36,1-3.36,2.26,1.45,2.25,3.36,2.25S107,18.55,107,17.31Zm-29.5-6.74a3.66,3.66,0,0,0-.89,2h7.09a4,4,0,0,0-.93-1.94,3.39,3.39,0,0,0-2.6-.94A3.58,3.58,0,0,0,77.46,10.57ZM32.6,4.07a1.4,1.4,0,1,1-1.4-1.41A1.41,1.41,0,0,1,32.6,4.07ZM27,2.66a1.41,1.41,0,1,0,1.4,1.41A1.41,1.41,0,0,0,27,2.66Z"/></svg>