<svg id="logo-Calque_1-6382426daae95" data-name="logo-Calque 1-6382426daae95" xmlns="http://www.w3.org/2000/svg" viewBox="0 0 1224.5 1352.2"><defs><style>.cls-1{fill:#868787;}.cls-2{fill:#fff;}</style></defs><g id="Trois_Kilos_Sept_-_Logo" data-name="Trois Kilos Sept - Logo"><path class="cls-1" d="M884.3,1249.6H377.6c-83.6,0-162.1-32.7-221.2-92S64.8,1019.4,64.8,935.5V426.3c0-83.9,32.5-162.8,91.6-222.1s137.6-92,221.2-92H884.3c83.5,0,162.1,32.7,221.2,92s91.6,138.2,91.6,222.1V935.4c0,83.9-32.5,162.8-91.6,222.1S967.9,1249.6,884.3,1249.6ZM377.6,127.2a295,295,0,0,0-210.5,87.6A298,298,0,0,0,79.9,426.4V935.5A298,298,0,0,0,167.1,1147a295,295,0,0,0,210.5,87.6H884.3a295,295,0,0,0,210.5-87.6A298,298,0,0,0,1182,935.5h0V426.4a298.22,298.22,0,0,0-87.2-211.6,295,295,0,0,0-210.5-87.6Z" transform="translate(-64.8 -112.2)"/><path class="cls-1" d="M853.9,1205.2H836v-6h17.9Zm-41.6,0H794.5v-6h17.8Zm-41.7,0H752.8v-6h17.8Zm-41.6,0H711.2v-6H729v6Zm-41.6,0H669.6v-6h17.8Zm-41.7,0H627.8v-6h17.9Zm-41.6,0H586.3v-6h17.8Zm-41.6,0H544.7v-6h17.8Zm-41.7,0H503v-6h17.8v6Zm-41.6,0H461.4v-6h17.8Zm-41.6,0H419.7v-6h17.9Zm-41.7,0h-.3c-5.9,0-11.9-.2-17.7-.5l.4-6c5.8.3,11.6.5,17.4.5Zm481.9-.2-.2-6c5.9-.2,11.8-.7,17.6-1.2l.6,5.9c-6,.6-12,1-18,1.3M354,1202.2c-5.9-.9-11.9-1.9-17.7-3.2l1.2-5.9c5.7,1.2,11.5,2.3,17.4,3.1Zm565.6-2-1.1-5.9c5.8-1.1,11.6-2.4,17.2-3.8l1.5,5.8c-5.9,1.5-11.7,2.8-17.6,3.9M313,1193c-5.8-1.7-11.5-3.7-17.1-5.8l2.1-5.6c5.5,2.1,11.1,3.9,16.8,5.7L313,1193Zm647.2-3.6-1.9-5.7q8.25-2.85,16.5-6.3l2.3,5.5c-5.6,2.4-11.2,4.5-16.9,6.5m-686.5-11.5c-5.4-2.6-10.8-5.3-16.1-8.2l2.9-5.2c5.2,2.8,10.4,5.5,15.7,8.1l-2.5,5.3Zm725-5.2-2.8-5.3c5.2-2.7,10.3-5.6,15.4-8.7l3.1,5.1c-5.1,3.1-10.3,6.1-15.7,8.9m-761.6-15.5q-7.5-5-14.7-10.5l3.6-4.8c4.7,3.6,9.5,7,14.4,10.3Zm797.3-6.7-3.5-4.8c4.8-3.5,9.4-7.1,13.9-10.9l3.8,4.6c-4.5,3.8-9.3,7.5-14.2,11.1m-830.5-19.3c-4.5-4-8.8-8.2-13-12.5l4.3-4.2c4.1,4.2,8.4,8.3,12.7,12.3l-4,4.4Zm862.7-8-4.2-4.3c4.2-4.1,8.3-8.4,12.2-12.8l4.4,4c-4,4.6-8.1,8.9-12.4,13.1m-891.8-22.4c-3.8-4.7-7.5-9.4-11-14.3l4.8-3.5c3.5,4.8,7.1,9.4,10.8,14Zm919.6-9.2-4.7-3.6c3.6-4.7,7-9.5,10.3-14.4l5,3.3c-3.5,5-7,9.9-10.6,14.7m-944-25.2c-3.1-5.2-6.1-10.4-8.8-15.8l5.3-2.8c2.7,5.2,5.6,10.4,8.7,15.4l-5.2,3.2Zm967-10.2-5.2-2.9c2.8-5.2,5.5-10.5,8-15.8l5.4,2.6c-2.6,5.5-5.3,10.8-8.2,16.1m-986-27.4c-2.3-5.6-4.5-11.2-6.4-16.9l5.6-2q2.85,8.4,6.3,16.5Zm1003.5-11-5.6-2.1q3.15-8.4,5.7-16.8l5.7,1.7c-1.8,5.8-3.7,11.6-5.8,17.2M118,988.8c-1.5-5.9-2.8-11.7-3.9-17.7l5.8-1.1c1.1,5.8,2.4,11.6,3.8,17.3Zm1028.7-11.5-5.8-1.2c1.2-5.8,2.3-11.7,3.1-17.5l5.9.9c-.9,5.9-2,11.9-3.2,17.8M110.6,947.2c-.6-5.9-1-12-1.3-18l6-.2c.2,5.9.7,11.9,1.3,17.7Zm1041.7-11.8-6-.4q.6-8.85.6-17.7V916h6v1.3c0,6.1-.2,12.1-.6,18.1M115,905.2h-6V887.3h6Zm1037.9-13h-6V874.3h6ZM115,863.3h-6V845.4h6Zm1037.9-12.9h-6V832.5h6ZM115,821.5h-6V803.6h6Zm1037.9-13h-6V790.6h6ZM115,779.7h-6V761.8h6Zm1037.9-13h-6V748.8h6ZM115,737.8h-6V719.9h6Zm1037.9-12.9h-6V707h6v17.9ZM115,696h-6V678.1h6Zm1037.9-13h-6V665.1h6ZM115,654.2h-6V636.3h6Zm1037.9-13h-6V623.3h6ZM115,612.3h-6V594.4h6Zm1037.9-12.9h-6V581.5h6ZM115,570.5h-6V552.6h6Zm1037.9-13h-6V539.6h6ZM115,528.7h-6V510.8h6Zm1037.9-13h-6V497.8h6ZM115,486.8h-6V468.9h6Zm1037.9-12.9h-6V456h6ZM109.1,445v-.6c0-5.8.2-11.7.5-17.5l5.9.4c-.3,5.7-.5,11.4-.5,17.1Zm1037.6-12.8c-.2-5.9-.7-11.8-1.3-17.7l5.9-.6c.6,6,1.1,12.1,1.3,18.1ZM117.9,403.8l-5.9-.9c.9-6,1.9-11.9,3.1-17.8l5.8,1.2c-1.1,5.8-2.1,11.6-3,17.5m1024-12.7c-1.1-5.8-2.4-11.6-3.9-17.3l5.8-1.5q2.25,8.7,3.9,17.7l-5.8,1.1ZM126.8,363.4l-5.7-1.7c1.7-5.8,3.6-11.5,5.7-17.2l5.6,2.1c-2,5.5-3.9,11.1-5.6,16.8m1004.4-12.2c-1.9-5.6-4.1-11.1-6.4-16.5l5.5-2.3c2.3,5.6,4.5,11.2,6.5,16.9ZM141.5,324.8l-5.4-2.5c2.6-5.5,5.3-10.8,8.2-16.1l5.2,2.9c-2.8,5-5.5,10.3-8,15.7m973.3-11.5c-2.7-5.2-5.6-10.4-8.7-15.4l5.1-3.1c3.1,5.2,6.1,10.4,8.9,15.8ZM161.7,288.7l-5-3.3c3.3-5,6.8-10,10.4-14.8l4.7,3.6c-3.5,4.8-6.9,9.6-10.1,14.5M1093,278.3c-3.5-4.8-7.1-9.4-10.8-14l4.6-3.8c3.8,4.6,7.5,9.4,11.1,14.3l-4.9,3.5ZM186.9,256l-4.4-4c4-4.5,8.2-8.9,12.5-13.1l4.2,4.3c-4.3,4.2-8.4,8.4-12.3,12.8m879.5-9.2c-4.1-4.2-8.4-8.3-12.8-12.3l4-4.5c4.5,4,8.8,8.2,13,12.5ZM216.6,227.4l-3.8-4.6c4.6-3.8,9.4-7.6,14.2-11.1l3.5,4.8c-4.8,3.5-9.4,7.1-13.9,10.9m818.9-7.9q-7.05-5.4-14.4-10.2l3.3-5q7.5,4.95,14.7,10.5ZM250.1,203.4l-3.1-5.1c5.1-3.1,10.4-6.1,15.7-8.9l2.8,5.3c-5.3,2.7-10.4,5.6-15.4,8.7m750.8-6.4c-5.2-2.8-10.4-5.5-15.8-8l2.5-5.4c5.4,2.6,10.8,5.3,16.1,8.2ZM286.7,184.6l-2.3-5.5c5.5-2.3,11.1-4.5,16.8-6.5l2,5.7q-8.4,2.85-16.5,6.3m676.7-4.7c-5.5-2-11.1-3.9-16.7-5.6l1.7-5.7q8.7,2.55,17.1,5.7Zm-637.8-8.5-1.5-5.8c5.8-1.5,11.7-2.8,17.6-3.9l1.1,5.9c-5.7,1-11.5,2.3-17.2,3.8m598.3-2.9c-5.8-1.2-11.6-2.2-17.4-3.1l.9-5.9c5.9.9,11.9,1.9,17.7,3.1Zm-557.8-4.4-.6-5.9c6-.6,12-1.1,18-1.3l.2,6c-5.8.1-11.7.6-17.6,1.2m517-1.1c-5.5-.3-11.1-.5-16.7-.5h-.9v-6h.9c5.6,0,11.4.2,17.1.5l-.4,6Zm-41.5-.5H823.8v-6h17.8Zm-41.6,0H782.2v-6H800Zm-41.6,0H740.6v-6h17.8Zm-41.7,0H698.9v-6h17.8Zm-41.6,0H657.3v-6h17.8Zm-41.7,0H615.6v-6h17.8Zm-41.6,0H574v-6h17.8v6Zm-41.6,0H532.4v-6h17.8Zm-41.7,0H490.7v-6h17.8Zm-41.6,0H449v-6h17.8v6Zm-41.6,0H407.5v-6h17.8Zm-103,213.9-5.8,114.7a38.69,38.69,0,0,0,.6,8.4,28.69,28.69,0,0,0,8.8,16.6,26,26,0,0,0,16.6,6.9,35.53,35.53,0,0,0,6.7-.6,25.3,25.3,0,0,0,15.9-9.3c4.2-5.3,6.5-11.6,6.9-19.5l5.5-114,12.7,1.1a38.52,38.52,0,0,0,6.9-.6c13.1-2.3,19.2-9.4,19.9-23a55.32,55.32,0,0,0-.7-7c-1.4-7.7-5.5-18-24.8-18.9l-11.9-.2,1.4-28a39.61,39.61,0,0,0-.6-8.4,28.93,28.93,0,0,0-8.6-16.8c-4.4-4.2-10-6.4-16.9-6.7a29.34,29.34,0,0,0-6.8.3,24.36,24.36,0,0,0-15.5,9.4,35.25,35.25,0,0,0-6.9,19.4l-1.4,28-9-.9a36.57,36.57,0,0,0-5.7.5,22.58,22.58,0,0,0-13.6,7.7,23.37,23.37,0,0,0-5.9,15.2,33.11,33.11,0,0,0,.4,7.1c2.2,12.4,9.3,18.2,23,18.9l8.8-.3Zm136.3-62.5a27.75,27.75,0,0,0-17,5.6c-6.5,4.8-10,11.5-10.8,20.4L421.4,477c-.6,9,1.5,16.4,6.3,22.6,4.8,6,11,9.2,19,9.8s14.9-1.7,20.4-7.1c5.7-5.5,8.9-12.6,9.7-21.7l5.2-77.1c.6-7.9,4.8-18.6,20.8-25.6,10.4-3.7,20.5-7.2,30.5-10.7,8-3.9,12.4-9.8,12.9-17.7.6-9.4-1.6-16.9-6.9-22.9a26.12,26.12,0,0,0-17.8-8.4c-11.7-.8-21.3,2.1-27.5,8.8l-5.8,6.4-4.1-7.7c-3.9-7.2-11.4-11.1-23-11.8a20.85,20.85,0,0,1-2.5,0m265.3,86.3c-5.4-26.7-18.1-47.4-38.9-63.3-16.5-12.9-33.9-19.2-53.2-19.2a95.92,95.92,0,0,0-18.2,1.8c-26.3,5.3-45.8,19.4-59.5,43-13.4,22.8-17.4,46.9-12.2,73.8s18.3,48.2,38.6,63.7c20.9,16,44.9,21.5,71.6,16.3,27-5.4,46.7-19.3,60.3-42.4,12.8-21.8,16.7-46.6,11.5-73.7m-57.3,45.6c-4.9,11-13.1,17.7-24.6,19.9a38.1,38.1,0,0,1-6.7.7c-8.5,0-16.4-3.4-23.1-10-8-7.7-13.3-18.1-15.9-30.8-2.7-13.2-1.7-25.1,2.8-35.4q7.35-16.8,24.6-20.1c11.5-2.2,21.6,1.1,30.1,9.5,7.9,8,13.2,18.5,15.7,31.3s1.6,24.6-2.9,34.9m98.5-114.9h-1.7c-8.2.6-14.6,3.7-19.5,9.7s-7,13.3-6.4,22.3l7,134.8c.4,9.1,3.3,16.2,8.8,21.7,5.3,5.4,12,7.7,20.2,7.1,8.4-.4,14.7-3.4,19.6-9.3,5-6.1,7.2-13.4,6.8-22.4l-7.3-134.6c-.4-9.1-3.3-16.1-8.9-21.7a24.81,24.81,0,0,0-18.6-7.6M762,255.4a17.7,17.7,0,0,0-2.3.1c-8.3.4-15.2,3.8-21.2,10.3s-8.7,13.5-8.3,21.4c.5,8.4,4,15.5,10.6,21.8,6.5,6.1,13.7,8.8,21.9,8.2A28.72,28.72,0,0,0,784,306.9a31.29,31.29,0,0,0,7.9-22.8c-.4-8.2-3.8-14.9-10.3-20.7-6-5.4-12.4-8-19.6-8m87.1,209.3a33.53,33.53,0,0,0-7.6.9,20.46,20.46,0,0,0-13.9,10.1,30.53,30.53,0,0,0-4.3,15.8c0,6.6,2,16.3,19.8,23.4,11,4.6,23.6,6.9,37.5,6.9a107.52,107.52,0,0,0,23.1-2.3c18.8-4.4,33.2-12.3,44.2-24.1,10.6-11.3,16-24.6,16-39.5a53,53,0,0,0-1.6-13.2c-3.5-15.5-13-26.8-28.8-34.4-9.9-4.5-24.7-8.1-43.9-10.6-24.5-2.8-28.9-5.5-30-10.8a10.36,10.36,0,0,1,4.2-11.2c3.8-2.7,8.8-4,15.5-4,4.3,0,10.6.9,19.3,2.6,9.6,1.9,14.2,2.3,16.3,2.3,5.9,0,10.8-2.3,15-7a25.49,25.49,0,0,0,6.5-17.3c0-10.7-5.5-18.3-17.4-23.8-9.6-4.7-21.4-7.1-35.1-7.1-20.2,0-38.1,5.7-53.3,17-16.4,12.2-24.4,27.5-24.4,46.6a53.33,53.33,0,0,0,1.9,14.2c3.6,15.9,13,27.1,28.7,34.6,10.1,4.9,24.8,8.4,43.9,10.7,23.8,3.2,28.5,5.6,29.8,10.7a10.28,10.28,0,0,1-1.3,8.2c-2.2,3.6-6.4,5.9-13.2,7.4-7.1,2-15.5,1.5-29.4-2.5-7.6-2.5-13.4-3.6-17.5-3.6m-530.5,75a24.33,24.33,0,0,0-3.8.3c-13.2,1.6-20.6,8.5-23.4,21.7a37.88,37.88,0,0,0-.5,12.1l25.4,214.4c1.8,15.6,8.7,24.2,21.8,27.1a28.35,28.35,0,0,0,9.2.3c13.7-1.7,21.3-8.4,24-21.1a30,30,0,0,0,.2-12.3c-2-16.5-4.3-29.5-6.8-39.1l-5.4-21.3,71.3,69.4c7.4,7.1,14.1,11.4,20,12.7a28.14,28.14,0,0,0,8.2.6c12.2-1.6,19.3-8.2,22-20.7,2.2-10.4-.5-18.9-8.4-26.1l-64.9-60.3,37.7-43.2c4.4-4.8,6.9-9.3,7.9-13.9,1.5-6.9.3-13.3-3.5-19.8A23.63,23.63,0,0,0,434,609.1c-10.8-2.4-20.7,2.2-30.3,14L359,678.5,345.8,567.4c-1.8-15.6-8.6-24.1-21.4-26.9a19.78,19.78,0,0,0-5.8-.8M512,613.5h-1.7c-8.2.6-14.6,3.8-19.5,9.7-4.9,6.1-7.1,13.4-6.4,22.3l7,134.9c.4,9.1,3.2,16.2,8.8,21.7,5.4,5.4,11.9,7.8,20.2,7.2,8.4-.4,14.7-3.5,19.6-9.3,5-6.1,7.2-13.4,6.8-22.5l-7.3-134.7c-.5-9.1-3.4-16.2-8.9-21.8-5-5.1-11.1-7.5-18.6-7.5M508.8,538a16.2,16.2,0,0,0-2.2.1c-8.3.4-15.2,3.8-21.2,10.3s-8.7,13.5-8.3,21.5c.6,8.4,4,15.5,10.6,21.7,6.4,6.1,13.6,8.7,21.9,8.2a28.52,28.52,0,0,0,21.2-10.3,31.44,31.44,0,0,0,7.9-22.8c-.4-8.1-3.7-14.9-10.3-20.7a27.78,27.78,0,0,0-19.6-8m93.8-5.6c-7.2,0-13.1,2.3-18,7.2-5.7,5.5-8.7,12.5-9.3,21.5l-15,215.5c-.6,9.2,1.4,16.7,6.2,22.9,4.6,5.9,10.9,9.1,19.2,9.7,7.8.6,14.9-1.7,20.4-7.1,5.7-5.5,8.8-12.6,9.3-21.5l15-215.5c.6-9.1-1.5-16.8-6.2-23-4.6-5.9-10.9-9.1-19.1-9.7h-2.5m212,168.3c-1.6-26.8-11.5-49.8-29.7-68.2-17.8-18.5-38.4-27.4-63.3-27.4-1.7,0-3.4,0-5,.1-26.8,1.6-48,12.7-65,34.2-16.2,20.5-23.7,44.5-22.4,71.3,1.5,27.7,11.1,50.1,29.3,68.5,18.7,19,41.2,27.6,68.7,26.3,27.5-1.6,49-12.5,65.7-33.4,15.7-19.9,23-43.9,21.7-71.4m-63.2,37c-6.4,10.2-15.5,15.7-27.1,16.3h-1.9c-10.5,0-19.4-4.5-26.3-13.5-6.8-8.7-10.6-19.7-11.4-32.7-.8-13.5,1.9-25.1,7.7-34.7,6.4-10.3,15.5-15.9,27.1-16.4l1.9-.1c10.9,0,19.8,4.6,26.6,13.8,6.7,9,10.4,20.1,11.2,33.1.7,13.2-1.9,24.7-7.8,34.2m105.7-8.9a32.88,32.88,0,0,0-7.6.9,20.46,20.46,0,0,0-13.9,10.1,29.92,29.92,0,0,0-4.3,15.7c0,10.4,6.5,18,19.8,23.4,11,4.6,23.6,6.9,37.5,6.9a106.85,106.85,0,0,0,23.1-2.3c18.5-4.4,33.4-12.5,44.2-24.1s16-24.5,16-39.5a52.45,52.45,0,0,0-1.6-13.2c-3.6-15.6-12.9-26.8-28.8-34.5-10-4.5-24.8-8.1-43.9-10.6-24.5-2.8-28.9-5.5-30-10.8a10.83,10.83,0,0,1,4-11.2c3.9-2.8,8.9-4.1,15.6-4.1,4.3,0,10.6.9,19.3,2.6,9.9,2,14.4,2.3,16.3,2.3a18.93,18.93,0,0,0,14.9-7,25,25,0,0,0,6.5-17.3c0-10.7-5.5-18.3-17.4-23.9-9.7-4.7-21.5-7.1-35.2-7.1-20.2,0-38.1,5.7-53.2,17C822,614.5,814,629.8,814,648.9a54.43,54.43,0,0,0,1.9,14.2c3.6,15.9,13,27.1,28.8,34.5,10,4.9,24.8,8.5,43.9,10.7,23.8,3.2,28.4,5.5,29.7,10.6a10.84,10.84,0,0,1-1.2,8.3c-2.2,3.6-6.4,5.9-13.2,7.5-8.2,2.1-16.1,1.4-29.5-2.6-7.5-2.2-13.4-3.3-17.3-3.3M335.8,983.1a34.38,34.38,0,0,0-7.7.9,20.9,20.9,0,0,0-13.9,10.1,30,30,0,0,0-4.4,15.7c0,10.4,6.5,18,19.8,23.4,10.9,4.6,23.5,6.9,37.6,6.9a106.55,106.55,0,0,0,23-2.3c18.5-4.4,33.4-12.5,44.2-24.1s16-24.5,16-39.5a55,55,0,0,0-1.6-13.3c-3.6-15.6-13-26.8-28.8-34.4-10-4.5-24.8-8.1-43.9-10.6-22.7-2.7-28.9-5-30-10.9a10.42,10.42,0,0,1,4.2-11.2c3.6-2.6,8.7-3.9,15.5-3.9,4.5,0,10.8.8,19.4,2.6,9.8,2,14.4,2.3,16.2,2.3a18.93,18.93,0,0,0,14.9-7,25,25,0,0,0,6.5-17.3c0-10.7-5.5-18.3-17.4-23.8-9.7-4.8-21.5-7.2-35.1-7.2-20.1,0-38,5.7-53.2,17.1-16.4,12.2-24.4,27.4-24.4,46.6a55.56,55.56,0,0,0,1.9,14.2c3.6,15.9,13,27.1,28.8,34.5,10.1,4.9,24.9,8.5,43.8,10.7,23.7,3.1,28.4,5.4,29.7,10.5a10.78,10.78,0,0,1-1.2,8.3c-2.2,3.6-6.4,5.9-13.2,7.4-7.3,2-15.4,1.5-29.4-2.6-7.4-2-13.2-3.1-17.3-3.1m274.3-26.3a104.69,104.69,0,0,0-14.8,11.9c-11,10-21.2,16.1-30.3,18.4a52.86,52.86,0,0,1-19.1,1.6c-11.1-1.1-20-5.7-26.5-13.6l-6.4-7.7,92.4-22.2s10.2-2.5,15.6-4c8.6-3.2,13.1-8.6,13.9-16.8a32.51,32.51,0,0,0-1-11.4c-4.1-18-13.8-33.9-28.8-47.6-15.9-14.6-34-23-53.9-25a82.5,82.5,0,0,0-8.6-.4,92.23,92.23,0,0,0-20.8,2.4,86.12,86.12,0,0,0-48.7,30.7c-11.8,14.9-18.8,32.6-20.8,52.7a105.25,105.25,0,0,0,2.4,35.5c5.1,21.9,15.2,40,29.9,53.7a86.29,86.29,0,0,0,52.3,23.7,105.38,105.38,0,0,0,34.7-2.5c16.6-3.9,32.4-11.6,47.1-22.8,15.7-11.8,24.2-23.3,25.3-34.2.6-6.2-1.3-11.7-5.7-16.8a24.05,24.05,0,0,0-15.9-8.7c-5.9-.3-12.3,3.1-12.3,3.1M504.7,920.7c2-17.4,11.7-28.7,28.1-32.6a41.75,41.75,0,0,1,13-.8c11.2,1.1,20.2,7,26.7,17.5l4.5,7.3-73.4,17.4,1.1-8.8Zm318.1-46.3c-13.7-20.1-32.3-30.9-56.9-33.1-16.9-1.5-30.6,1.9-42.3,10.4l-5.6,4.1-3.4-6.1c-4.3-7.8-11.3-12-21.4-13a17.72,17.72,0,0,0-2.4-.1,25.21,25.21,0,0,0-18.1,7c-5.8,5.4-9,12.4-9.8,21.5l-18.1,208.1c-.8,9,1.1,16.5,5.9,22.9,4.6,6.1,10.7,9.4,18.8,10,9.1.8,15-1.4,20.6-6.6,5.8-5.4,9-12.4,9.8-21.4l4.7-55.2,8.7,5.7a72.25,72.25,0,0,0,33.5,12c27.2,2.4,49.8-7,68.4-28.8C832.3,991.5,841,967,841,939c0-25.1-6.1-46.8-18.2-64.6m-37.2,69.3c-1.3,12.8-5.5,23.6-12.6,32.2s-15.5,12.9-25.5,12.9a26.2,26.2,0,0,1-2.8-.1c-11.5-1.1-20.3-7.2-26.1-17.9-5.3-10-7.4-21.8-6.1-35.1,1-13.1,5.1-24,12.1-32.2,7.5-8.8,17.2-12.7,28.9-11.6,10.7.8,19.6,6.9,25.4,17.6,5.5,9.7,7.7,21.3,6.7,34.2m82.1-90.8a23.13,23.13,0,0,0-14.9,5.2,23.54,23.54,0,0,0-8.4,13.8,29.87,29.87,0,0,0-.9,7c0,12.6,6,19.6,19.3,22.8l8.6,1.1-26,112a40.7,40.7,0,0,0-.9,8.4,28.5,28.5,0,0,0,5.7,17.8,25.36,25.36,0,0,0,15.3,9.8,46.82,46.82,0,0,0,6.7.5,25.15,25.15,0,0,0,17.2-6.4c5.1-4.4,8.5-10.3,10.2-18l25.6-111.2,11.4,3.1a42.34,42.34,0,0,0,7.9.8c13.3,0,20.6-5.9,23.7-19.1a53.64,53.64,0,0,0,.5-7c0-7.8-2.2-18.7-21.1-23.1L936,868.3l6.3-27.4a39.29,39.29,0,0,0,.9-8.4c0-7.1-1.8-13-5.6-18a25.77,25.77,0,0,0-15.5-9.6c-10.1-2.5-17.4-.1-23.6,5.6a34.31,34.31,0,0,0-10.2,17.9L882,855.7l-8.7-2.5c-1.9-.1-3.8-.3-5.6-.3" transform="translate(-64.8 -112.2)"/><path class="cls-1" d="M1289.3,1246.8c0,120.2-97.4,217.6-217.6,217.6S854.1,1367,854.1,1246.8s97.4-217.6,217.6-217.6,217.6,97.4,217.6,217.6" transform="translate(-64.8 -112.2)"/><path class="cls-2" d="M948.6,1238.8v1.2s24,2.4,24,23.4c0,15-13.2,28.2-38.4,28.2-22.8,0-34.8-12-34.8-20.3,0-6.7,4.2-10.9,13.2-10.9,9.6,0,10.8,8.4,21.6,8.4,7.8,0,10.8-3,10.8-6.6s-3-6.6-9.6-6.6H924.6c-6,0-9.6-3.6-9.6-8.4,0-5.4,6-9,6-9l12-7.8v-1.2H915.6c-8.4,0-13.2-4.8-13.2-12s4.8-12,13.2-12H957c8.4,0,13.2,4.8,13.2,12s-7.2,12-7.2,12l-14.4,9.6Zm41.4,26.4c7.2,0,13.2,6,13.2,16.2,0,12-10.2,22.2-21.6,22.2-3,0-4.8-1.8-4.8-4.2,0-5.4,8.4-4.2,9.6-10.2-5.4,0-10.2-4.8-10.2-11.4,0-7.2,5.4-12.6,13.8-12.6m59.4,15.6c-2.4,5.4-6.6,9.6-13.2,9.6-7.8,0-13.8-5.4-13.8-10.8a24.82,24.82,0,0,1,2.4-9.6l19.2-39.6v-1.2h-25.2c-8.4,0-13.2-4.8-13.2-12s4.8-12,13.2-12h45c8.4,0,13.2,4.8,13.2,12,0,6-3,12-3,12Zm61.8-16.2v13.8c0,7.2-4.8,12-13.2,12s-13.2-4.8-13.2-12V1216c0-7.2,4.8-12,13.2-12s13.2,4.8,13.2,12v16.8l26.4-25.2a14.37,14.37,0,0,1,9.6-3.6c7.2,0,12,4.8,12,12,0,6-4.8,9.6-4.8,9.6l-16.8,16.2,20.4,25.8s4.8,6,4.8,10.8c0,7.2-4.8,12-13.2,12-6.6,0-11.4-6-11.4-6l-20.4-25.8Zm54-25.8c0-20.4,15.6-36,40.2-36,21,0,33,12,33,20.4,0,6.6-4.2,10.8-13.2,10.8-9.6,0-10.8-8.4-19.8-8.4-7.8,0-13.2,5.4-13.2,13.2v16.8c0,7.8,5.4,13.2,13.2,13.2a20.74,20.74,0,0,0,11.4-3.6v-4.8h-3.6c-7.2,0-12-4.8-12-10.8s4.8-10.8,12-10.8H1230q10.8,0,10.8,10.8v21.6c0,8.4-13.2,20.4-35.4,20.4-24.6,0-40.2-15.6-40.2-36v-16.8Z" transform="translate(-64.8 -112.2)"/></g></svg>