<?xml version="1.0" standalone="no"?>
<!DOCTYPE svg PUBLIC "-//W3C//DTD SVG 20010904//EN"
 "http://www.w3.org/TR/2001/REC-SVG-20010904/DTD/svg10.dtd">
<svg version="1.0" xmlns="http://www.w3.org/2000/svg"
 width="928.000000pt" height="928.000000pt" viewBox="0 0 928.000000 928.000000"
 preserveAspectRatio="xMidYMid meet">
<metadata>
Created by potrace 1.14, written by Peter Selinger 2001-2017
</metadata>
<g transform="translate(0.000000,928.000000) scale(0.100000,-0.100000)"
fill="#000000" stroke="none">
<path d="M4428 9265 c-1 -1 -22 -5 -45 -9 -194 -26 -416 -140 -564 -290 l-26
-26 -72 25 c-39 13 -71 22 -71 20 0 -3 -12 0 -27 6 -15 5 -43 12 -63 14 -19 2
-57 7 -85 10 -139 15 -254 5 -435 -39 -27 -7 -148 -54 -172 -67 -13 -8 -26
-13 -30 -14 -4 0 -49 -27 -99 -60 -94 -62 -224 -180 -275 -250 -16 -22 -31
-42 -35 -45 -10 -9 -79 -127 -79 -136 -1 -5 -11 -22 -24 -37 -22 -28 -25 -28
-52 -15 -16 8 -51 20 -79 27 -27 7 -66 16 -85 21 -88 22 -209 34 -350 34 -131
0 -237 -9 -335 -29 -14 -3 -37 -7 -53 -10 -64 -13 -218 -58 -229 -67 -7 -6
-13 -8 -13 -5 0 11 -195 -78 -260 -118 -19 -12 -38 -22 -41 -21 -3 1 -13 -6
-22 -14 -28 -26 -43 -37 -53 -41 -20 -8 -98 -74 -168 -144 -62 -61 -166 -187
-166 -200 0 -2 -14 -24 -31 -49 -53 -80 -139 -279 -153 -356 -3 -14 -5 -26 -7
-27 -3 -5 -5 -16 -14 -68 -4 -27 -10 -59 -13 -70 -8 -33 -8 -326 1 -380 4 -27
11 -66 14 -85 3 -19 9 -42 14 -51 4 -9 6 -19 3 -22 -3 -3 -2 -12 2 -19 5 -7
10 -22 11 -33 2 -11 7 -29 12 -40 5 -11 15 -38 22 -60 15 -52 93 -218 127
-270 46 -72 106 -160 117 -171 5 -6 30 -35 54 -64 24 -28 67 -73 94 -98 27
-26 57 -54 66 -63 41 -40 193 -147 286 -201 32 -19 207 -105 240 -119 72 -29
95 -37 95 -32 0 3 6 1 13 -5 7 -6 24 -13 37 -16 14 -3 61 -15 105 -26 186 -47
397 -66 552 -49 l53 5 6 -35 c11 -61 12 -65 18 -91 51 -233 87 -346 164 -503
23 -48 42 -92 42 -97 0 -6 5 -10 10 -10 6 0 10 -6 10 -13 0 -25 229 -395 275
-443 18 -20 90 -107 105 -128 38 -54 285 -289 353 -335 12 -8 24 -18 27 -21 4
-5 88 -65 140 -100 54 -37 136 -84 200 -117 41 -21 77 -41 80 -44 20 -23 489
-209 590 -234 24 -5 293 -95 315 -104 11 -5 51 -21 89 -37 121 -48 159 -102
181 -251 15 -99 22 -177 30 -343 11 -216 16 -308 20 -365 11 -143 16 -202 20
-235 3 -19 7 -51 9 -70 5 -42 15 -107 21 -140 3 -14 7 -42 10 -64 3 -21 7 -41
10 -46 2 -4 7 -25 10 -46 3 -21 14 -73 26 -114 11 -41 21 -85 22 -97 0 -13 4
-23 7 -23 4 0 7 -6 7 -12 1 -14 45 -148 65 -195 6 -16 12 -30 13 -33 13 -39
78 -175 119 -247 23 -41 115 -183 126 -193 3 -3 25 -29 50 -59 81 -98 287
-281 317 -281 6 0 13 -4 15 -9 8 -20 299 -164 358 -176 8 -2 49 -13 90 -25 94
-26 127 -34 200 -45 14 -2 36 -7 50 -10 90 -19 407 -26 530 -11 36 4 79 10 95
11 17 2 53 9 80 15 28 6 61 13 75 16 60 12 147 37 177 50 17 8 36 14 41 14 23
0 252 103 252 113 0 6 3 8 6 4 16 -16 318 178 436 281 47 41 208 201 249 248
31 35 118 147 139 179 72 108 91 138 120 190 18 33 36 65 40 70 5 6 9 13 10
17 9 37 14 48 21 48 5 0 9 9 9 19 0 11 6 26 13 33 7 7 15 18 16 23 2 6 9 24
16 40 7 17 38 91 69 165 32 74 61 144 66 155 12 28 81 230 84 246 2 8 6 21 9
29 7 19 47 150 52 170 2 8 15 62 30 119 14 58 31 125 36 150 5 25 12 57 15 71
3 14 7 36 9 50 2 14 4 25 5 25 4 0 14 84 14 117 1 20 4 34 7 32 4 -2 10 27 14
64 4 37 9 76 11 87 2 11 6 52 9 90 3 39 9 102 13 140 14 145 6 831 -10 862 -3
4 -4 25 -4 46 1 20 -1 37 -4 37 -3 0 -5 15 -6 33 -1 35 -10 108 -19 147 -3 14
-8 43 -11 65 -3 22 -9 60 -14 85 -6 25 -12 61 -15 80 -4 19 -10 53 -15 75 -5
22 -11 54 -14 70 -10 51 -13 68 -31 135 -17 65 -22 86 -30 126 -3 12 -11 40
-20 63 -8 23 -14 43 -15 46 0 3 0 6 -1 8 0 1 -2 11 -4 22 -2 12 -34 108 -70
215 -36 107 -67 203 -70 214 -2 10 -8 23 -13 30 -4 6 -14 29 -21 51 -8 22 -21
56 -29 75 -9 19 -16 37 -17 40 -4 31 -280 608 -296 620 -3 3 -9 14 -13 25 -3
11 -20 43 -38 70 -18 28 -39 63 -47 78 -8 14 -22 36 -33 46 -10 11 -18 23 -18
27 0 8 -149 217 -164 229 -7 6 -15 15 -17 22 -4 12 -71 91 -126 150 -18 19
-33 37 -33 39 0 2 -20 24 -44 48 l-45 44 53 103 c46 91 86 192 101 255 2 10 9
37 14 59 19 77 25 141 25 265 0 141 -5 190 -34 305 -11 44 -22 87 -24 96 -3 9
-14 35 -25 58 -12 22 -18 41 -14 41 5 0 3 4 -2 8 -6 4 -16 18 -23 32 -13 27
-34 62 -42 70 -3 3 -19 25 -35 50 -46 68 -166 183 -249 239 -82 56 -186 111
-208 111 -8 0 -18 4 -24 8 -11 10 -70 29 -106 36 -15 2 -31 7 -35 9 -26 16
-326 30 -348 17 -5 -3 -17 -6 -25 -5 -8 1 -27 -2 -42 -6 -22 -6 -32 -1 -61 32
-20 21 -34 39 -32 39 4 0 -85 89 -122 121 -45 40 -174 125 -224 147 -71 33
-123 55 -137 58 -8 1 -21 6 -30 10 -9 4 -24 8 -32 9 -36 6 -70 14 -79 19 -12
8 -153 20 -226 19 -60 0 -162 -9 -200 -17 -68 -15 -150 -40 -200 -61 -98 -41
-115 -50 -115 -58 0 -4 -4 -6 -9 -3 -4 3 -17 -1 -27 -8 -16 -12 -22 -12 -45 5
-15 10 -37 23 -50 29 -13 5 -31 14 -39 19 -51 31 -248 103 -320 116 -19 3 -48
8 -65 11 -34 6 -291 14 -297 9z"/>
</g>
</svg>
