<svg xmlns="http://www.w3.org/2000/svg" width="1388.5" height="865.223" viewBox="0 0 1388.5 865.223">
  <path id="Union_1" data-name="Union 1" d="M1083.189,845.273c-4.729-5.443,1.314-16.561-.075-18-.553-.554-2.687,0-5.39.563-4.072.841-9.432,1.682-12.611-1.28-3.09-2.883,2-17.871,6.108-18.493,1.351-.191,3.6.687,5.748,1.564,2.46,1.005,4.783,2.011,5.466,1.411,1.278-1.123-10.02-4.963-8-6.915s5.729-2.4,8.884-5.326c2.22-2.019,6.93-11.724,8.176-10.55,11.543,10.845-.75,27.122,1.458,29.509.825.893,3.7-.2,7.512-1.3,6.379-1.832,15.4-3.666,21.935,3.794,1.13,1.285-8.719,5.668-10.836,7.795-3.03,3.052-3.712,6.838-5.632,8.693-.985.95-2.4-1.553-3.706-4.056-1.237-2.379-2.368-4.758-2.919-4.172-1.131,1.2,3.121,8.385,2.582,11.311-.59,3.121-9.589,6.526-15.034,6.526C1085.182,846.347,1083.843,846.025,1083.189,845.273ZM544.04,842.244c-6.169-2.015-6.7-13.37-8.4-13.825-.82-.21-2.647,1.866-5.028,3.94-2.6,2.266-5.863,4.532-9.2,3.823-3.713-.787-6.719-14.72-3.857-17.06,2.062-1.7,9.561-1.486,10.024-2.946.2-.646-1.727-.562-3.89-.479-2.728.105-5.822.211-5.458-1.147.652-2.434,3.288-4.5,4.374-8.207.747-2.6-.1-12.242,1.41-11.911,13.924,3.017,11.947,21.288,14.8,22.052,1.292.346,3.529-2.925,6.854-6.2,4-3.938,9.581-7.877,16.987-5.5,1.47.466-4.092,8.4-4.733,11.02-.9,3.755.3,6.977-.317,9.3-.325,1.211-2.658-.146-4.856-1.5-2.006-1.239-3.9-2.479-4.052-1.763-.319,1.5,6.276,5.056,7.208,7.564,1.232,3.313-7.289,12.938-11.256,12.937A1.98,1.98,0,0,1,544.04,842.244ZM264.19,831.375c.252-2.663,5.709-7.811,5-9.171-.339-.655-1.856,1.088-3.479,2.831-1.751,1.881-3.627,3.762-4.28,2.63-1.26-2.182-.859-5.509-2.712-8.9-1.307-2.363-8.723-8.59-7.424-9.419,6.976-4.493,13.8-1.511,18.784,1.47,3.574,2.138,6.2,4.275,7.271,3.659,2.555-1.475-4.074-18.617,8.586-25.13,1.368-.709,3.043,8.832,4.445,11.14,2.017,3.292,5.149,4.718,6.349,6.8s-9.443,2.7-8.609,3.989c.427.659,2.524.415,4.794.172,2.155-.231,4.466-.463,5.651.079,3.39,1.553,4.073,15.755.69,17.476-3.2,1.625-7.212,0-10.409-1.617-2.576-1.306-4.626-2.613-5.305-2.219-1.523.9.908,11.992-4.568,15.547a2.573,2.573,0,0,1-1.413.346C273.207,841.057,263.861,834.631,264.19,831.375Zm427.2-7.866c.988-2.646,7.975-6.4,7.623-7.985-.167-.752-2.141.569-4.244,1.888-2.33,1.463-4.82,2.924-5.182,1.57-.691-2.579.636-5.854-.332-9.819-.68-2.768-6.55-11.155-5-11.641,7.811-2.507,13.7,1.654,17.917,5.815,3.506,3.456,5.866,6.913,7.23,6.547,3-.8.938-20.108,15.615-23.285,1.583-.351.692,9.847,1.488,12.584,1.143,3.918,3.966,6.225,4.622,8.67.362,1.351-2.856,1.262-5.719,1.173-2.316-.071-4.4-.143-4.172.546.506,1.541,8.414,1.306,10.594,3.1,3.036,2.52-.162,17.208-4.082,18.031-3.493.741-6.928-1.652-9.67-4.046-2.52-2.2-4.456-4.4-5.315-4.165-1.791.5-2.349,12.483-8.815,14.588a2.091,2.091,0,0,1-.654.1C699.085,837.18,690.089,827.014,691.385,823.509Zm431.366-151.178c-6.394-2.456-6.327-14.474-8.1-15.048-.84-.263-2.843,1.774-5.417,3.812-2.873,2.274-6.457,4.549-9.922,3.622-3.882-1.031-6.3-15.862-3.133-18.221,2.271-1.68,10.175-1.026,10.742-2.544s-10.614.305-9.788-2.235,3.722-4.563,5.068-8.416c.938-2.692.582-12.922,2.145-12.488,14.491,3.941,11.4,23.1,14.356,24.064,1.321.428,3.8-2.787,7.4-6,4.453-3.985,10.612-7.969,18.382-5.02,1.519.567-4.783,8.635-5.606,11.363-1.175,3.909-.064,7.382-.846,9.787-.408,1.254-2.786-.3-5.027-1.848-2.06-1.425-4.007-2.849-4.2-2.1-.415,1.569,6.346,5.679,7.195,8.373,1.1,3.529-8.2,13.034-12.457,13.034A2.174,2.174,0,0,1,1122.752,672.331ZM497.876,616.5c.951-2.308,7.383-5.331,7.159-6.766-.106-.679-1.916.4-3.847,1.47-2.151,1.2-4.451,2.394-4.712,1.167-.495-2.327.868-5.194.178-8.779-.469-2.5-5.315-10.238-3.911-10.609,7-1.846,12.019,2.012,15.583,5.87,3.047,3.3,5.032,6.6,6.281,6.331,2.71-.576,1.759-17.887,15.012-20.039,1.433-.233.165,8.808.742,11.282.857,3.55,3.264,5.737,3.734,7.947.257,1.21-2.537,1-5.059.787-2.088-.174-3.99-.348-3.822.283.367,1.394,7.436,1.558,9.293,3.27,2.592,2.383-.935,15.319-4.477,15.878-3.1.49-6.012-1.749-8.329-3.987-2.182-2.107-3.837-4.213-4.623-4.046-1.62.365-2.686,11.03-8.654,12.625a1.8,1.8,0,0,1-.468.059C504.26,629.243,496.574,619.586,497.876,616.5Zm391.407-28.363c.911-2.324,7.289-5.459,7.041-6.89-.118-.678-1.913.432-3.827,1.541-2.128,1.233-4.4,2.466-4.685,1.246-.535-2.319.779-5.208.025-8.78-.513-2.488-5.493-10.145-4.1-10.539,7-1.976,12.1,1.835,15.732,5.648,3.077,3.227,5.1,6.455,6.342,6.169,2.7-.623,1.447-17.914,14.659-20.3,1.429-.258.319,8.8.94,11.268.918,3.533,3.363,5.678,3.872,7.88.279,1.209-2.538,1.041-5.071.874-2.08-.138-3.968-.274-3.791.351.391,1.388,7.462,1.428,9.348,3.107,2.633,2.337-.668,15.333-4.2,15.953-3.1.545-6.063-1.661-8.425-3.866-2.2-2.059-3.885-4.119-4.667-3.938-1.613.392-2.492,11.075-8.432,12.774a1.819,1.819,0,0,1-.5.067C895.836,600.7,888.039,591.235,889.283,588.137Zm-754.088-6.475c-5.032-2.8-3.569-12.778-4.972-13.462-.646-.29-2.429,1.049-4.677,2.386-2.71,1.614-6.1,3.227-8.983,1.989-3.094-1.32-3.379-13.92-.471-15.505,1.031-.567,3.144-.492,5.091-.417,1.984.076,3.8.152,4.132-.448.659-1.192-8.83-1.013-7.861-3s3.617-3.332,5.179-6.375c1.093-2.127,1.987-10.669,3.25-10.13,11.592,4.974,6.8,20.55,9.136,21.69,1,.487,3.271-1.677,6.41-3.839,4.206-2.9,9.966-5.8,16.3-2.319,1.2.663-4.935,6.649-5.982,8.8-1.423,3.078-.9,6.091-1.835,8.005-.484.993-2.261-.547-3.932-2.087-1.553-1.429-3.017-2.859-3.271-2.26-.529,1.244,4.615,5.455,5,7.8.479,2.981-7.729,9.4-11.482,9.4A2.113,2.113,0,0,1,135.194,581.662Zm1160.078-101.72c1.151-1.895,7.1-3.734,7.067-5.025-.014-.606-1.692.09-3.486.786-2.035.788-4.218,1.578-4.3.47-.146-2.084,1.375-4.416,1.221-7.624-.106-2.237-3.376-9.578-2.113-9.726,6.1-.728,9.943,2.939,12.574,6.608,2.431,3.39,3.822,6.781,4.987,6.7,2.424-.169,3.716-15.376,15.538-15.621,1.271-.029-.9,7.691-.74,9.925.293,3.2,2.121,5.4,2.26,7.381.075,1.063-2.234.578-4.369.093-1.85-.42-3.57-.842-3.5-.255.149,1.263,6.285,2.278,7.7,3.993,1.961,2.389-2.693,13.24-5.847,13.29-2.693.047-4.909-2.122-6.634-4.291s-2.962-4.341-3.69-4.289c-1.464.122-3.692,9.27-9.029,9.933a1.464,1.464,0,0,1-.172.01C1299.563,492.3,1293.683,482.534,1295.273,479.942ZM496.162,440.336c-5-.26-7.64-8.64-9-8.64s-4.03,8.38-9.08,8.64c-2.93.13-7.97-9.65-6.3-12,1.2-1.69,6.84-3.03,6.9-4.21.027-.548-1.548-.026-3.243.495-1.955.6-4.068,1.2-4.068.166,0-1.94,1.561-4,1.63-7,.04-2.08-2.52-9.12-1.329-9.18,10.99-.491,13.18,13.51,15.449,13.51s4.46-14.04,15.46-13.51c1.19.06-1.33,7.1-1.33,9.18.06,3,1.62,5.14,1.62,7,0,.986-2.077.4-4.018-.189-1.714-.52-3.321-1.039-3.292-.472.06,1.21,5.7,2.52,6.9,4.21,1.686,2.36-3.279,12-6.228,12ZM6.506,336.738c.619-1.978,5.569-4.995,5.261-6.136-.147-.544-1.547.5-3.039,1.55-1.642,1.151-3.4,2.3-3.709,1.336-.6-1.845.247-4.286-.613-7.16-.6-1.991-5.215-7.895-4.1-8.32,5.7-2.137,10.2.773,13.457,3.683,2.632,2.353,4.446,4.7,5.412,4.391,2.159-.7-.1-14.731,10.528-17.626,1.15-.311.93,7.163,1.572,9.141.984,2.835,3.128,4.387,3.7,6.157s-7.587.5-7.156,1.631,6.2.635,7.863,1.872c2.352,1.738.562,12.6-2.283,13.36-2.551.684-5.175-.982-7.275-2.649-1.883-1.493-3.344-2.986-3.955-2.787-1.29.429-1.243,9.215-5.965,11.023a1.6,1.6,0,0,1-.562.093C12.529,346.3,5.7,339.319,6.506,336.738ZM914.2,326.7c-4.422-1.423-4.8-9.568-6.024-9.9-.584-.147-1.891,1.338-3.591,2.823-1.86,1.625-4.192,3.249-6.565,2.738-2.663-.569-4.829-10.528-2.768-12.233,1.476-1.22,6.839-1.066,7.181-2.113.151-.464-1.232-.4-2.782-.342-1.956.077-4.176.153-3.915-.822.469-1.748,2.356-3.23,3.128-5.881.541-1.863-.06-8.774,1.014-8.538,9.967,2.173,8.573,15.259,10.6,15.8.92.246,2.519-2.1,4.9-4.443,2.867-2.824,6.865-5.649,12.173-3.944,1.049.333-2.888,6.028-3.39,7.9-.657,2.681.214,5-.231,6.657-.233.868-1.9-.105-3.475-1.078-1.436-.888-2.794-1.778-2.906-1.264-.237,1.076,4.495,3.627,5.162,5.421.885,2.376-5.228,9.276-8.074,9.275A1.421,1.421,0,0,1,914.2,326.7Zm347.009-19.822c-4.25-1.878-3.771-10.017-4.956-10.472-.551-.2-1.946,1.065-3.724,2.331-2.045,1.456-4.6,2.912-6.957,2.138-2.59-.844-3.7-10.975-1.474-12.456,1.595-1.058,6.913-.346,7.363-1.351s-7.187-.167-6.538-1.857,2.681-2.966,3.726-5.522c.733-1.8.856-8.733,1.9-8.385,9.686,3.2,6.931,16.071,8.892,16.824.86.33,2.61-1.689,5.092-3.71,3.167-2.578,7.529-5.156,12.763-2.847,1.01.441-3.5,5.693-4.2,7.5-.933,2.6-.309,4.99-.925,6.6-.321.835-1.865-.292-3.322-1.418-1.344-1.04-2.614-2.078-2.78-1.577-.347,1.045,4.09,4.077,4.567,5.931.617,2.4-5.857,8.391-8.8,8.391A1.554,1.554,0,0,1,1261.211,306.873ZM155.94,217.7c-4.53-1.032-5.613-9.113-6.864-9.334-.607-.1-1.815,1.565-3.429,3.227-1.7,1.748-3.84,3.5-6.2,3.2-2.7-.334-5.729-10.067-3.823-11.945,1.363-1.344,6.719-1.659,6.97-2.732.113-.485-1.326-.285-2.906-.085-1.915.243-4.039.486-3.866-.491.314-1.782,2.066-3.423,2.6-6.131.376-1.9-.825-8.736.266-8.594,10.119,1.3,9.87,14.453,11.939,14.818.962.17,2.4-2.443,4.666-5.055,2.6-3,6.293-6,11.61-4.787,1.075.24-2.353,6.256-2.689,8.167-.42,2.729.649,4.958.35,6.652-.158.889-1.921.053-3.579-.783-1.5-.756-2.915-1.512-2.982-.993-.142,1.092,4.793,3.221,5.616,4.95,1.106,2.329-4.589,9.95-7.379,9.95A1.341,1.341,0,0,1,155.94,217.7Zm1206.405-51.157c.726-1.608,5.231-3.645,5.087-4.646-.068-.472-1.337.256-2.695.984-1.522.816-3.154,1.633-3.324.756-.322-1.659.706-3.651.22-6.154-.3-1.755-3.6-7.288-2.615-7.479,4.9-1.2,8.359,1.529,10.806,4.262,2.112,2.359,3.47,4.718,4.353,4.547,1.9-.37,1.453-12.5,10.746-13.845,1.011-.145.047,6.164.386,7.912.54,2.513,2.2,4.065,2.5,5.626.165.851-1.777.672-3.538.493-1.466-.148-2.805-.3-2.695.148.242.982,5.21,1.177,6.467,2.4,1.787,1.7-.841,10.718-3.321,11.057-2.179.3-4.189-1.284-5.782-2.87-1.512-1.5-2.651-3.01-3.2-2.9-1.147.233-2.011,7.685-6.17,8.717a1.236,1.236,0,0,1-.3.036C1366.688,175.586,1361.364,168.69,1362.345,166.543Zm-818.063,7.144c-3.551-2.4-1.823-9.7-2.816-10.3-.447-.264-1.8.564-3.5,1.391-2.134,1.04-4.812,2.08-6.917.958-2.215-1.167-1.6-10.548.661-11.525a8.8,8.8,0,0,1,3.713.008c1.5.187,2.885.374,3.175-.057.563-.841-6.507-1.285-5.637-2.734s2.968-2.241,4.281-4.427c.951-1.5,2.2-7.823,3.061-7.307,8.285,4.442,3.708,15.691,5.371,16.69.69.415,2.435-.948,4.8-2.31,3.329-1.92,7.885-3.839,12.452-.787.849.568-4.09,4.612-5.007,6.138-1.281,2.228-1.088,4.491-1.907,5.854-.424.7-1.633-.544-2.768-1.791-1.063-1.167-2.061-2.334-2.291-1.9-.478.891,3.084,4.361,3.2,6.111.168,2.161-5.983,6.242-8.88,6.242A1.743,1.743,0,0,1,544.282,173.687Zm316.667-8.834c.577-1.48,4.54-3.649,4.348-4.56-.092-.435-1.231.315-2.439,1.065-1.327.823-2.736,1.645-2.935.9-.38-1.419.366-3.349-.189-5.612-.351-1.582-3.717-6.416-2.819-6.657,4.468-1.458,7.838.928,10.254,3.315,2,1.976,3.349,3.952,4.124,3.745,1.709-.458.525-11.487,8.921-13.3.977-.221.468,5.611.887,7.175.652,2.237,2.247,3.518,2.633,4.958.214.8-1.645.742-3.287.685-1.308-.046-2.478-.092-2.351.3.286.876,4.805.742,6.045,1.776,1.742,1.439-.079,9.826-2.323,10.3-2,.421-3.961-.946-5.529-2.313-1.441-1.256-2.548-2.511-3.038-2.38-1.021.284-1.35,7.133-5.13,8.363a1.194,1.194,0,0,1-.371.055C865.354,172.666,860.211,166.856,860.949,164.853ZM1348.474,21.776c-3.781-1.018-4.465-7.85-5.5-8.07-.5-.1-1.56,1.239-2.961,2.581-1.494,1.43-3.381,2.861-5.407,2.542-2.265-.359-4.523-8.639-2.868-10.169,1.185-1.057,5.7-1.191,5.944-2.09.109-.407-1.105-.293-2.44-.177-1.616.14-3.41.278-3.242-.509.306-1.438,1.846-2.818,2.38-5.087.405-1.57-.4-7.4.51-7.212,8.488,1.335,7.874,12.45,9.6,12.818.8.169,2.067-1.94,4.017-4.05,2.281-2.468,5.494-4.937,9.972-3.753.969.247-2.13,5.212-2.467,6.8-.436,2.29.4,4.155.094,5.612-.163.767-1.63.008-3-.75-1.238-.683-2.4-1.365-2.466-.934-.142.911,3.946,2.842,4.581,4.327.86,1.984-4.082,8.162-6.448,8.162A1.152,1.152,0,0,1,1348.474,21.776ZM90.193,8.9c.163-1.757,3.758-5.149,3.3-6.049-.222-.433-1.218.72-2.287,1.872-1.157,1.247-2.4,2.494-2.837,1.733-.845-1.464-.521-3.683-1.8-5.891C85.714-1,80.8-5.156,81.662-5.657c4.6-2.967,9.11-1,12.4.974,2.361,1.412,4.1,2.825,4.8,2.42,1.679-.97-2.7-12.289,5.653-16.589.908-.467,2.051,5.813,2.941,7.355,1.328,2.2,3.4,3.129,4.195,4.506s-6.232,1.785-5.684,2.634c.281.435,1.664.272,3.161.11,1.428-.155,2.961-.311,3.736.055,2.243,1.025,2.694,10.407.459,11.535-2.117,1.075-4.764,0-6.875-1.066-1.7-.862-3.053-1.724-3.5-1.465-1.008.593.6,7.921-3,10.251a1.7,1.7,0,0,1-.937.231C96.14,15.295,89.982,11.063,90.193,8.9Z" transform="translate(-0.132 18.876)" fill="rgba(79,193,183,0.3)"/>
</svg>
