<svg xmlns="http://www.w3.org/2000/svg" viewBox="0 0 45.39 45.66"><defs><style>.cls-1{fill:#7dc0b6;}</style></defs><g id="Layer_2" data-name="Layer 2"><g id="Layer_1-2" data-name="Layer 1"><path id="Butterfly" class="cls-1" d="M22.69,33.21c2,0,5.8,12.07,13,12.45,4.22.22,11.47-13.85,9.06-17.23-1.72-2.43-9.84-4.36-9.93-6.06s10.52,3.62,10.52.95S43.12,17.53,43,13.23C43,10.23,46.65.1,44.94,0,29.11-.74,26,19.54,22.7,19.47S16.28-.74.45,0c-1.71.08,2,10.21,1.92,13.21C2.28,17.53,0,20.51,0,23.32s10.61-2.65,10.52-.95S2.35,26,.62,28.43c-2.4,3.38,4.84,17.45,9.07,17.23C16.89,45.28,20.73,33.24,22.69,33.21Z"/></g></g></svg>