<svg xmlns="http://www.w3.org/2000/svg" width="1390.362" height="866.969" viewBox="0 0 1390.362 866.969">
  <g id="Group_1504" data-name="Group 1504" transform="translate(-262.372 -5989.531)">
    <path id="Path_448" data-name="Path 448" d="M120.07,595.72c1.86,0,5.51,11.45,12.35,11.81,4,.22,10.89-13.14,8.61-16.36-1.64-2.3-9.34-4.12-9.43-5.74s10,3.43,10,.9-2.13-5.49-2.22-9.57c-.06-2.85,3.44-12.47,1.82-12.54-15-.73-18,18.45-21.11,18.45S114,563.49,99,564.22c-1.62.07,1.88,9.69,1.82,12.54-.09,4.08-2.22,6.9-2.22,9.57s10.07-2.52,10-.9-7.79,3.44-9.43,5.74c-2.28,3.22,4.6,16.58,8.61,16.36C114.57,607.17,118.21,595.74,120.07,595.72Z" transform="matrix(0.966, -0.259, 0.259, 0.966, 785.781, 6295.181)" fill="rgba(79,193,183,0.3)"/>
    <path id="Path_1989" data-name="Path 1989" d="M120.07,595.72c1.86,0,5.51,11.45,12.35,11.81,4,.22,10.89-13.14,8.61-16.36-1.64-2.3-9.34-4.12-9.43-5.74s10,3.43,10,.9-2.13-5.49-2.22-9.57c-.06-2.85,3.44-12.47,1.82-12.54-15-.73-18,18.45-21.11,18.45S114,563.49,99,564.22c-1.62.07,1.88,9.69,1.82,12.54-.09,4.08-2.22,6.9-2.22,9.57s10.07-2.52,10-.9-7.79,3.44-9.43,5.74c-2.28,3.22,4.6,16.58,8.61,16.36C114.57,607.17,118.21,595.74,120.07,595.72Z" transform="matrix(0.951, 0.309, -0.309, 0.951, 1559.741, 6062.146)" fill="rgba(79,193,183,0.3)"/>
    <path id="Path_449" data-name="Path 449" d="M119.45,541.16c1.76,0,5.21,10.83,11.69,11.18,3.79.2,10.3-12.44,8.14-15.48-1.55-2.18-8.84-3.91-8.92-5.44s9.45,3.25,9.45.85-2-5.2-2.1-9.06c-.06-2.7,3.26-11.8,1.72-11.87-14.22-.69-17.05,17.47-20,17.47s-5.77-18.16-20-17.47c-1.54.07,1.77,9.17,1.72,11.87-.09,3.86-2.1,6.54-2.1,9.06s9.52-2.38,9.45-.85-7.37,3.26-8.92,5.44c-2.16,3,4.35,15.68,8.14,15.48C114.24,552,117.68,541.18,119.45,541.16Z" transform="matrix(0.966, 0.259, -0.259, 0.966, 817.288, 6286.786)" fill="rgba(79,193,183,0.3)"/>
    <path id="Path_1978" data-name="Path 1978" d="M119.45,541.16c1.76,0,5.21,10.83,11.69,11.18,3.79.2,10.3-12.44,8.14-15.48-1.55-2.18-8.84-3.91-8.92-5.44s9.45,3.25,9.45.85-2-5.2-2.1-9.06c-.06-2.7,3.26-11.8,1.72-11.87-14.22-.69-17.05,17.47-20,17.47s-5.77-18.16-20-17.47c-1.54.07,1.77,9.17,1.72,11.87-.09,3.86-2.1,6.54-2.1,9.06s9.52-2.38,9.45-.85-7.37,3.26-8.92,5.44c-2.16,3,4.35,15.68,8.14,15.48C114.24,552,117.68,541.18,119.45,541.16Z" transform="translate(106.716 6427.668) rotate(-30)" fill="rgba(79,193,183,0.3)"/>
    <path id="Path_450" data-name="Path 450" d="M118.82,486.59c1.66,0,4.92,10.23,11,10.55,3.58.19,9.72-11.73,7.68-14.6-1.46-2.06-8.34-3.69-8.41-5.13s8.91,3.06,8.91.8-1.9-4.9-2-8.55c-.05-2.54,3.07-11.12,1.62-11.19-13.41-.65-16.08,16.48-18.85,16.48s-5.44-17.13-18.85-16.48c-1.45.07,1.68,8.65,1.62,11.19-.07,3.65-2,6.17-2,8.55s9-2.25,8.92-.8-7,3.07-8.41,5.13c-2,2.87,4.1,14.79,7.68,14.6C113.9,496.82,117.16,486.61,118.82,486.59Z" transform="matrix(0.978, -0.208, 0.208, 0.978, 265.64, 6213.789)" fill="rgba(79,193,183,0.3)"/>
    <path id="Path_2023" data-name="Path 2023" d="M118.82,486.59c1.66,0,4.92,10.23,11,10.55,3.58.19,9.72-11.73,7.68-14.6-1.46-2.06-8.34-3.69-8.41-5.13s8.91,3.06,8.91.8-1.9-4.9-2-8.55c-.05-2.54,3.07-11.12,1.62-11.19-13.41-.65-16.08,16.48-18.85,16.48s-5.44-17.13-18.85-16.48c-1.45.07,1.68,8.65,1.62,11.19-.07,3.65-2,6.17-2,8.55s9-2.25,8.92-.8-7,3.07-8.41,5.13c-2,2.87,4.1,14.79,7.68,14.6C113.9,496.82,117.16,486.61,118.82,486.59Z" transform="matrix(0.985, 0.174, -0.174, 0.985, 751.701, 6243.229)" fill="rgba(79,193,183,0.3)"/>
    <path id="Path_1987" data-name="Path 1987" d="M118.82,486.59c1.66,0,4.92,10.23,11,10.55,3.58.19,9.72-11.73,7.68-14.6-1.46-2.06-8.34-3.69-8.41-5.13s8.91,3.06,8.91.8-1.9-4.9-2-8.55c-.05-2.54,3.07-11.12,1.62-11.19-13.41-.65-16.08,16.48-18.85,16.48s-5.44-17.13-18.85-16.48c-1.45.07,1.68,8.65,1.62,11.19-.07,3.65-2,6.17-2,8.55s9-2.25,8.92-.8-7,3.07-8.41,5.13c-2,2.87,4.1,14.79,7.68,14.6C113.9,496.82,117.16,486.61,118.82,486.59Z" transform="translate(1138.803 6049.342) rotate(-13)" fill="rgba(79,193,183,0.3)"/>
    <path id="Path_1976" data-name="Path 1976" d="M118.19,432c1.56,0,4.62,9.61,10.37,9.92,3.36.17,9.14-11,7.22-13.73-1.37-1.94-7.84-3.47-7.91-4.82s8.38,2.88,8.38.75-1.79-4.61-1.86-8c0-2.39,2.89-10.46,1.52-10.53-12.6-.61-15.11,15.49-17.71,15.49s-5.12-16.1-17.72-15.49c-1.37.07,1.57,8.14,1.52,10.53-.07,3.42-1.86,5.79-1.86,8s8.45-2.11,8.38-.75-6.54,2.88-7.91,4.82c-1.92,2.7,3.86,13.9,7.22,13.73C113.57,441.64,116.63,432.05,118.19,432Z" transform="matrix(0.899, 0.438, -0.438, 0.899, 441.76, 6108.929)" fill="rgba(79,193,183,0.3)"/>
    <path id="Path_1995" data-name="Path 1995" d="M117.57,377.47c1.46,0,4.32,9,9.7,9.28,3.15.17,8.55-10.33,6.76-12.85-1.29-1.81-7.34-3.25-7.4-4.52s7.84,2.7,7.84.71-1.67-4.31-1.74-7.52c0-2.24,2.7-9.79,1.43-9.85-11.81-.58-14.16,14.5-16.59,14.5s-4.79-15.08-16.59-14.5c-1.27.06,1.48,7.61,1.43,9.85-.07,3.21-1.75,5.43-1.75,7.52s7.91-2,7.85-.71-6.12,2.71-7.4,4.52c-1.8,2.52,3.61,13,6.76,12.85C113.24,386.46,116.1,377.49,117.57,377.47Z" transform="matrix(0.998, -0.07, 0.07, 0.998, 1430.699, 6122.538)" fill="rgba(79,193,183,0.3)"/>
    <path id="Path_2024" data-name="Path 2024" d="M117.57,377.47c1.46,0,4.32,9,9.7,9.28,3.15.17,8.55-10.33,6.76-12.85-1.29-1.81-7.34-3.25-7.4-4.52s7.84,2.7,7.84.71-1.67-4.31-1.74-7.52c0-2.24,2.7-9.79,1.43-9.85-11.81-.58-14.16,14.5-16.59,14.5s-4.79-15.08-16.59-14.5c-1.27.06,1.48,7.61,1.43,9.85-.07,3.21-1.75,5.43-1.75,7.52s7.91-2,7.85-.71-6.12,2.71-7.4,4.52c-1.8,2.52,3.61,13,6.76,12.85C113.24,386.46,116.1,377.49,117.57,377.47Z" transform="matrix(0.998, -0.07, 0.07, 0.998, 1023.849, 6376.306)" fill="rgba(79,193,183,0.3)"/>
    <path id="Path_453" data-name="Path 453" d="M116.94,322.91c1.36,0,4,8.38,9,8.64,2.94.16,8-9.62,6.3-12-1.2-1.69-6.84-3-6.9-4.21s7.31,2.52,7.31.66-1.56-4-1.62-7c0-2.08,2.52-9.12,1.33-9.18-11-.53-13.19,13.51-15.46,13.51s-4.46-14-15.45-13.51c-1.19.06,1.37,7.1,1.33,9.18-.07,3-1.63,5.06-1.63,7s7.37-1.84,7.31-.66-5.7,2.52-6.9,4.21c-1.67,2.35,3.37,12.13,6.3,12C112.91,331.29,115.58,322.92,116.94,322.91Z" transform="translate(460.511 6132.948)" fill="rgba(79,193,183,0.3)"/>
    <path id="Path_1974" data-name="Path 1974" d="M116.94,322.91c1.36,0,4,8.38,9,8.64,2.94.16,8-9.62,6.3-12-1.2-1.69-6.84-3-6.9-4.21s7.31,2.52,7.31.66-1.56-4-1.62-7c0-2.08,2.52-9.12,1.33-9.18-11-.53-13.19,13.51-15.46,13.51s-4.46-14-15.45-13.51c-1.19.06,1.37,7.1,1.33,9.18-.07,3-1.63,5.06-1.63,7s7.37-1.84,7.31-.66-5.7,2.52-6.9,4.21c-1.67,2.35,3.37,12.13,6.3,12C112.91,331.29,115.58,322.92,116.94,322.91Z" transform="matrix(0.951, -0.309, 0.309, 0.951, 73.542, 6072.743)" fill="rgba(79,193,183,0.3)"/>
    <path id="Path_1973" data-name="Path 1973" d="M116.31,268.34c1.27,0,3.74,7.77,8.38,8,2.72.14,7.39-8.92,5.84-11.1-1.11-1.56-6.34-2.8-6.39-3.9s6.77,2.33,6.77.61-1.44-3.73-1.5-6.49c0-1.94,2.33-8.46,1.23-8.51-10.19-.5-12.22,12.52-14.32,12.52s-4.14-13-14.33-12.52c-1.1.05,1.27,6.57,1.23,8.51-.06,2.76-1.5,4.68-1.5,6.49s6.83-1.71,6.77-.61-5.28,2.34-6.39,3.9c-1.55,2.18,3.12,11.24,5.84,11.1C112.58,276.11,115.05,268.36,116.31,268.34Z" transform="matrix(0.985, 0.174, -0.174, 0.985, 343.502, 5932.438)" fill="rgba(79,193,183,0.3)"/>
    <path id="Path_1983" data-name="Path 1983" d="M116.31,268.34c1.27,0,3.74,7.77,8.38,8,2.72.14,7.39-8.92,5.84-11.1-1.11-1.56-6.34-2.8-6.39-3.9s6.77,2.33,6.77.61-1.44-3.73-1.5-6.49c0-1.94,2.33-8.46,1.23-8.51-10.19-.5-12.22,12.52-14.32,12.52s-4.14-13-14.33-12.52c-1.1.05,1.27,6.57,1.23,8.51-.06,2.76-1.5,4.68-1.5,6.49s6.83-1.71,6.77-.61-5.28,2.34-6.39,3.9c-1.55,2.18,3.12,11.24,5.84,11.1C112.58,276.11,115.05,268.36,116.31,268.34Z" transform="matrix(0.966, 0.259, -0.259, 0.966, 915.364, 6265.053)" fill="rgba(79,193,183,0.3)"/>
    <path id="Path_1993" data-name="Path 1993" d="M116.31,268.34c1.27,0,3.74,7.77,8.38,8,2.72.14,7.39-8.92,5.84-11.1-1.11-1.56-6.34-2.8-6.39-3.9s6.77,2.33,6.77.61-1.44-3.73-1.5-6.49c0-1.94,2.33-8.46,1.23-8.51-10.19-.5-12.22,12.52-14.32,12.52s-4.14-13-14.33-12.52c-1.1.05,1.27,6.57,1.23,8.51-.06,2.76-1.5,4.68-1.5,6.49s6.83-1.71,6.77-.61-5.28,2.34-6.39,3.9c-1.55,2.18,3.12,11.24,5.84,11.1C112.58,276.11,115.05,268.36,116.31,268.34Z" transform="translate(1506.205 6012.733) rotate(21)" fill="rgba(79,193,183,0.3)"/>
    <path id="Path_455" data-name="Path 455" d="M115.69,213.78c1.16,0,3.44,7.15,7.72,7.38,2.5.14,6.8-8.21,5.37-10.22-1-1.44-5.84-2.58-5.89-3.59s6.24,2.15,6.24.56-1.33-3.43-1.38-6c0-1.78,2.15-7.79,1.13-7.84-9.38-.45-11.25,11.54-13.19,11.54s-3.81-12-13.2-11.54c-1,0,1.18,6.06,1.14,7.84,0,2.55-1.39,4.31-1.39,6s6.29-1.57,6.24-.56-4.86,2.15-5.88,3.59c-1.43,2,2.87,10.36,5.37,10.22C112.25,220.94,114.52,213.79,115.69,213.78Z" transform="translate(775.781 6023.621) rotate(31)" fill="rgba(79,193,183,0.3)"/>
    <path id="Path_1972" data-name="Path 1972" d="M115.69,213.78c1.16,0,3.44,7.15,7.72,7.38,2.5.14,6.8-8.21,5.37-10.22-1-1.44-5.84-2.58-5.89-3.59s6.24,2.15,6.24.56-1.33-3.43-1.38-6c0-1.78,2.15-7.79,1.13-7.84-9.38-.45-11.25,11.54-13.19,11.54s-3.81-12-13.2-11.54c-1,0,1.18,6.06,1.14,7.84,0,2.55-1.39,4.31-1.39,6s6.29-1.57,6.24-.56-4.86,2.15-5.88,3.59c-1.43,2,2.87,10.36,5.37,10.22C112.25,220.94,114.52,213.79,115.69,213.78Z" transform="translate(158.24 5886.05) rotate(-30)" fill="rgba(79,193,183,0.3)"/>
    <path id="Path_1992" data-name="Path 1992" d="M115.69,213.78c1.16,0,3.44,7.15,7.72,7.38,2.5.14,6.8-8.21,5.37-10.22-1-1.44-5.84-2.58-5.89-3.59s6.24,2.15,6.24.56-1.33-3.43-1.38-6c0-1.78,2.15-7.79,1.13-7.84-9.38-.45-11.25,11.54-13.19,11.54s-3.81-12-13.2-11.54c-1,0,1.18,6.06,1.14,7.84,0,2.55-1.39,4.31-1.39,6s6.29-1.57,6.24-.56-4.86,2.15-5.88,3.59c-1.43,2,2.87,10.36,5.37,10.22C112.25,220.94,114.52,213.79,115.69,213.78Z" transform="translate(1483.753 5987.587) rotate(-11)" fill="rgba(79,193,183,0.3)"/>
    <path id="Path_1980" data-name="Path 1980" d="M115.06,159.22c1.06,0,3.15,6.54,7.06,6.75,2.29.12,6.22-7.51,4.91-9.35-.93-1.32-5.33-2.36-5.38-3.28s5.7,2,5.7.51-1.21-3.14-1.26-5.47c0-1.62,2-7.12,1-7.16-8.58-.42-10.29,10.54-12.06,10.54s-3.48-11-12.06-10.54c-.93,0,1.07,5.54,1,7.16-.05,2.33-1.27,4-1.27,5.47s5.75-1.44,5.7-.51-4.44,2-5.38,3.28c-1.3,1.84,2.63,9.47,4.92,9.35C111.91,165.76,114,159.23,115.06,159.22Z" transform="matrix(0.966, -0.259, 0.259, 0.966, 997.275, 6065.878)" fill="rgba(79,193,183,0.3)"/>
    <path id="Path_1990" data-name="Path 1990" d="M115.06,159.22c1.06,0,3.15,6.54,7.06,6.75,2.29.12,6.22-7.51,4.91-9.35-.93-1.32-5.33-2.36-5.38-3.28s5.7,2,5.7.51-1.21-3.14-1.26-5.47c0-1.62,2-7.12,1-7.16-8.58-.42-10.29,10.54-12.06,10.54s-3.48-11-12.06-10.54c-.93,0,1.07,5.54,1,7.16-.05,2.33-1.27,4-1.27,5.47s5.75-1.44,5.7-.51-4.44,2-5.38,3.28c-1.3,1.84,2.63,9.47,4.92,9.35C111.91,165.76,114,159.23,115.06,159.22Z" transform="translate(1525.901 5842.575) rotate(12)" fill="rgba(79,193,183,0.3)"/>
  </g>
</svg>
