<svg xmlns="http://www.w3.org/2000/svg" width="174.381" height="41.61" viewBox="0 0 174.381 41.61">
  <g id="Group_317" data-name="Group 317" transform="translate(-34 -33)">
    <rect id="Rectangle_539" data-name="Rectangle 539" width="160" height="32" rx="8" transform="translate(34 33)" fill="#664332"/>
    <text id="Introduction" transform="translate(114 55)" fill="#fcfbfa" font-size="16" font-family="League Spartan" font-weight="600" letter-spacing="0.024em"><tspan x="-64.576" y="0">CHANGE PHOTOS</tspan></text>
    <path id="Hand_-_Stroke" data-name="Hand - Stroke" d="M8.816.15C6.048.762,3.785,5.671,3.772,9.868,2.419,11.457.388,14.346.043,15.926a1.5,1.5,0,0,0,2.551,1.344c.833-.82,3.03-4.2,3.45-4.123.841.726-1.011,7.192-.629,8.534a1.829,1.829,0,0,0,3.314.481c.627-1,1.237-7.53,1.621-7.392.536.139.855,7.476,1.113,8.419a1.838,1.838,0,0,0,3.514-.289c.3-2.2-1.045-8.327-.751-8.168.5.075,1.117,5.84,1.575,7.006.521,1.327,3.368,1.595,3.472-.537a53.527,53.527,0,0,0-1.6-8.048c-.574-1.947-.156-4.672.136-4.769.75-.292,1.556,2.266,2.905,3,1.728.947,3.659.344,3.23-1.486-.6-2.581-3.279-4.541-4.208-5.256-.759-.584-1.022-1.869-2.453-2.861C16.081.954,11.588-.464,8.816.15Z" transform="matrix(-0.921, 0.391, -0.391, -0.921, 207.711, 64.566)" fill="#fcfbfa" stroke="#664332" stroke-linecap="round" stroke-linejoin="round" stroke-width="1"/>
  </g>
</svg>
