<svg id="Layer_1" data-name="Layer 1" xmlns="http://www.w3.org/2000/svg" viewBox="0 0 195.46 68.52"><defs><style>.cls-1{fill:#fff;}.cls-2{fill:#929496;}</style></defs><g id="Cloud_2c" data-name="Cloud 2c"><path class="cls-1" d="M715.07,792.86c3.74.21,8.16,2.93,6.41,8.88-2.05,6.93-13.31,6.13-15.54,1.18a16.91,16.91,0,0,1-11.13-.39h0c-8.41,7.67-33.78,12.4-49.57,8.19h0c-10.36,5.43-36.61,7-40.67,2.33v-.13c-7.27.72-13.61-2.31-14.3-5.32-6.83,4.1-16.61,3.83-22,.08-6.62,4.44-21.67,4.45-28.63-1.72-2.41,1.18-8.68.31-11.2-3.41-4.5-6.66,7.18-9.85,14.1-6.4h0c-.46-2.89,3.19-7.06,7.2-6.15h0a4.82,4.82,0,0,1,.6-6.55c4-3.72,12.56-4.68,18.74-2.28l0-.1c1.74-2.55,5-4,8.61-4,.11-5.64,9.41-7.87,18.06-5.11h0a8.14,8.14,0,0,1,4.06-2.91l0-.08c1.87-7.62,7.2-11.67,17.12-11.53l.15,0c4.2-10.08,20.65-9.74,24.08.13a8.58,8.58,0,0,1,8,1.75h0c6.58-15.56,27.89-13.75,33.18-.82h0c6.86,1.54,13.67,9.92,12.23,17.23h0c5.41,1.15,8.71,5.24,6.83,10.23l0,.09a10.18,10.18,0,0,1,3.74,2.39C709.42,786.77,715.07,788.66,715.07,792.86Z" transform="translate(-526.88 -747.75)"/><path class="cls-2" d="M649.1,759.34a16,16,0,0,0-8.13-1.71c2.57-1.46,6.49-.88,8.13,1.71Z" transform="translate(-526.88 -747.75)"/><path class="cls-2" d="M694.55,775.74c.45-7.6-5.33-14.63-12.23-17.23,7.53,1.17,14.24,9.57,12.23,17.23Z" transform="translate(-526.88 -747.75)"/><path class="cls-2" d="M701.38,786c1.56-5.33-2.91-9.26-7.82-10a23.34,23.34,0,0,0-5-.34,14,14,0,0,1,5.08-.44c5.37.29,10.6,5.33,7.71,10.77Z" transform="translate(-526.88 -747.75)"/><path class="cls-2" d="M715.07,792.86c-.58-3.23-4-4.49-6.88-4.62a14.32,14.32,0,0,0-3.11.21c3.44-2.32,10.63-.6,10,4.41Z" transform="translate(-526.88 -747.75)"/><path class="cls-2" d="M683.18,768.34c1.71-11.15-6.65-19.8-17.68-19.58-11.34.1-17.87,9.66-18.32,20.26-.36-11.1,6.57-21.06,18.3-21.26,11.36-.18,20.34,9.1,17.7,20.58Z" transform="translate(-526.88 -747.75)"/><path class="cls-2" d="M641.5,764.27c1.08-7.25-3.55-13-10.76-13.64-6.66-.84-13.54,3.29-14.56,10.26.23-7.39,7.71-12.17,14.67-11.26,7.54.67,12.65,7.16,10.65,14.64Z" transform="translate(-526.88 -747.75)"/><path class="cls-2" d="M616.91,757.44c-8.14.57-14.45,3.29-17.13,11.53,1-8.7,9-12.63,17.13-11.53Z" transform="translate(-526.88 -747.75)"/><path class="cls-2" d="M603.65,768.91a9.05,9.05,0,0,0-9.17,6.34c-.37-4.45,5.15-8.28,9.17-6.34Z" transform="translate(-526.88 -747.75)"/><path class="cls-2" d="M595.74,772c-5.4-1.05-16.72-1.92-18.06,5.22a4.74,4.74,0,0,1,.52-2.65c3.45-5.45,12.35-4.82,17.54-2.57Z" transform="translate(-526.88 -747.75)"/><path class="cls-2" d="M583.57,778.35c-5-1.37-10.7-1.25-14.5,2.72,2.63-5.08,10.07-5.56,14.5-2.72Z" transform="translate(-526.88 -747.75)"/><path class="cls-2" d="M588.93,789c-2.9-4.69-9.41-7-13-1.85a12.8,12.8,0,0,0-1.93,5,10.12,10.12,0,0,1,1.27-5.45c3.59-6,11.52-3.62,13.68,2.28Z" transform="translate(-526.88 -747.75)"/><path class="cls-2" d="M598.6,791.81c-3-4.18-10-4.15-12.28.52a11.32,11.32,0,0,0-.93,4.89,8.85,8.85,0,0,1,.22-5.21c2-5.52,10.79-5.52,13-.2Z" transform="translate(-526.88 -747.75)"/><path class="cls-2" d="M577.68,795.18a5.28,5.28,0,0,0-8.41-.88,11.26,11.26,0,0,0-1.79,2.92,6.85,6.85,0,0,1,1.18-3.41c2.19-3.41,8.08-2.66,9,1.37Z" transform="translate(-526.88 -747.75)"/><path class="cls-2" d="M549.69,790a7.46,7.46,0,0,0-7.21,6.15c-1.12-3.76,3.67-7.79,7.21-6.15Z" transform="translate(-526.88 -747.75)"/><path class="cls-2" d="M545.27,798.23c-3.33-3.12-8.4-3.62-12.67-2.61-2.63.56-5.81,2.66-4.39,5.64,1.8,4,7.31,5.83,11.38,4.71-4.13,1.79-10.29-.1-12.25-4.33-1.74-3.64,1.82-6.32,5-6.93,4.45-.94,9.88-.14,12.9,3.52Z" transform="translate(-526.88 -747.75)"/><path class="cls-2" d="M572,782.76c-5-2.89-11.38-3.1-16.83-1.45-2.5.85-5.56,2.27-6.09,5.08s1.93,5.44,4.49,6.5c-2.89-.74-5.57-3.39-5.26-6.6s3.78-5,6.55-5.93c5.64-1.7,12.37-1.24,17.14,2.4Z" transform="translate(-526.88 -747.75)"/><path class="cls-2" d="M565.35,804.72c6.73,8.52,24.19,6.41,30.17-2.18a14.29,14.29,0,0,1-2.65,3.45c-6.77,6.56-22.23,7.5-27.52-1.27Z" transform="translate(-526.88 -747.75)"/><path class="cls-2" d="M537,802.57c5.12,8.19,18.76,8.93,27.27,6.72a17.54,17.54,0,0,0,4-1.6c-8.1,5.89-26.71,5-31.25-5.12Z" transform="translate(-526.88 -747.75)"/><path class="cls-2" d="M590.19,807.07c1.32,5.19,11.87,6,16.28,5.2a27,27,0,0,0,5.95-1.68,19,19,0,0,1-2.78,1.48,19.33,19.33,0,0,1-15.51-.33c-1.77-1-4-2.44-3.94-4.67Z" transform="translate(-526.88 -747.75)"/><path class="cls-2" d="M604.56,813.06c5.9,4.6,28.43,1.48,35.75-.62a35.07,35.07,0,0,0,4.93-1.71,36.58,36.58,0,0,1-9.85,3.64,71.11,71.11,0,0,1-20.92,1.74c-3.36-.41-7.38-.53-9.91-3.05Z" transform="translate(-526.88 -747.75)"/><path class="cls-2" d="M636.09,806.25c12.18,9.14,38.65,5.68,52.06.13a27.61,27.61,0,0,0,6.66-3.84,25.87,25.87,0,0,1-6.45,4.28c-13.38,6.3-40.36,9.77-52.27-.57Z" transform="translate(-526.88 -747.75)"/><path class="cls-2" d="M688.59,798.23a18.91,18.91,0,0,0,21.49,2.83c-6.37,5-16.72,3.83-21.49-2.83Z" transform="translate(-526.88 -747.75)"/><path class="cls-2" d="M705.93,802.91c2.39,3.81,8.1,4.31,11.86,2.46s5-7.91,1.49-10.63c-2.21-1.67-5.81-2.49-8.2-.71,3.48-3.2,10.56-.67,11.16,4.11.81,5.34-3.42,9.29-8.61,9-3-.08-6.49-1.32-7.7-4.25Z" transform="translate(-526.88 -747.75)"/><path class="cls-2" d="M706.56,791.24c-1.47-3.61-6.6-6-10.36-5.44,3.61-2.13,10.29,1.1,10.36,5.44Z" transform="translate(-526.88 -747.75)"/><path class="cls-2" d="M642,788.87c2.23-8.08-6-13.38-12.9-9.24-.7.37-1.38.94-2.07,1.35s-1.27,1.12-1.9,1.63a15.44,15.44,0,0,1,5.12-4.4c7-3.68,15.28,3.21,11.75,10.66Z" transform="translate(-526.88 -747.75)"/><path class="cls-2" d="M667.37,787.14c-6.19-5.56-19.92-3.79-18.56,6.52a8.85,8.85,0,0,1-.35-3.29c1.14-8.79,14.16-9.31,18.91-3.23Z" transform="translate(-526.88 -747.75)"/><path class="cls-2" d="M649.1,799.77c1.26-4.48-1.7-9.49-6.3-10.15-3.34-.57-6.72,1.25-9.09,3.56a30.61,30.61,0,0,0-2.4,2.55,16.51,16.51,0,0,1,4.7-5.29c6.79-5.22,16.36,1.1,13.09,9.33Z" transform="translate(-526.88 -747.75)"/><path class="cls-2" d="M681,788.33c-.71-3.7-2.45-3.59-5.51-2.31a4.54,4.54,0,0,1,1.67-1.4c2.7-1.37,4.78,1.09,3.84,3.71Z" transform="translate(-526.88 -747.75)"/><path class="cls-2" d="M626.08,787.56c.93-2.78-1.3-5.43-3.87-6.06-2.81-.76-5.23,1.16-6.87,3.35a7.94,7.94,0,0,1,2.64-3.51,5.72,5.72,0,0,1,8.1,1.92,4,4,0,0,1,0,4.3Z" transform="translate(-526.88 -747.75)"/><path class="cls-2" d="M689,789.45c.5-3.39-2.4-5.7-5.61-5a15.73,15.73,0,0,0-3,1,7.4,7.4,0,0,1,2.8-1.79c3.6-1.41,7.69,2,5.81,5.72Z" transform="translate(-526.88 -747.75)"/><path class="cls-2" d="M622.22,795.18c.69-5.49-5.82-5.55-8.49-2.11a5,5,0,0,1,2.18-2.6c3.42-2.15,8.34.54,6.31,4.71Z" transform="translate(-526.88 -747.75)"/><path class="cls-2" d="M692,793.89c.23-3.26-2.6-4.55-5.41-3.72a14.12,14.12,0,0,0-2.63,1.07,6.29,6.29,0,0,1,2.38-1.81c3.11-1.53,7.29.8,5.66,4.46Z" transform="translate(-526.88 -747.75)"/><path class="cls-2" d="M618.41,790.2c1.18-5.13-4.83-6-8.09-3.58a4.69,4.69,0,0,1,2.63-2c3.66-1.27,7.77,1.7,5.46,5.53Z" transform="translate(-526.88 -747.75)"/><path class="cls-2" d="M611,789.94c.53-3.86-3.85-4.39-6.46-2.85a3.62,3.62,0,0,1,2.08-1.51c2.86-1,6.15,1.33,4.38,4.36Z" transform="translate(-526.88 -747.75)"/><path class="cls-2" d="M624.34,764.19c-4.42.12-7.26,2.41-5.3,7a4.27,4.27,0,0,1-1.39-2.7c-.53-3.75,3.65-5.45,6.69-4.26Z" transform="translate(-526.88 -747.75)"/><path class="cls-2" d="M618.88,765.68c-4.46.05-8.3,1.76-6,6.82a4.52,4.52,0,0,1-1.42-2.88c-.36-4,4.48-5.12,7.47-3.94Z" transform="translate(-526.88 -747.75)"/><path class="cls-2" d="M616.48,772.26c-4.42.12-7.26,2.41-5.3,7a4.32,4.32,0,0,1-1.39-2.71c-.53-3.75,3.64-5.44,6.69-4.25Z" transform="translate(-526.88 -747.75)"/><path class="cls-2" d="M673.18,766.51c-1.41-2.19-3.89-1.31-5.47.15a5.73,5.73,0,0,0-1.37,1.79,3.52,3.52,0,0,1,.79-2.32c1.48-2.17,5.53-2.89,6,.38Z" transform="translate(-526.88 -747.75)"/><path class="cls-2" d="M667.29,764c-1.42-2.19-3.89-1.31-5.48.15a5.8,5.8,0,0,0-1.37,1.8,3.48,3.48,0,0,1,.79-2.32c1.49-2.18,5.54-2.9,6.06.37Z" transform="translate(-526.88 -747.75)"/><path class="cls-2" d="M663,768.5c-1.42-2.19-3.89-1.31-5.48.15a5.92,5.92,0,0,0-1.37,1.8,3.46,3.46,0,0,1,.8-2.32c1.48-2.17,5.53-2.9,6,.37Z" transform="translate(-526.88 -747.75)"/></g></svg>