<svg id="Layer_1" data-name="Layer 1" xmlns="http://www.w3.org/2000/svg" viewBox="0 0 206.55 90.92"><defs><style>.cls-1{fill:#fff;}.cls-2{fill:#929496;}</style></defs><g id="Cloud_1c" data-name="Cloud 1c"><g id="Clod_2" data-name="Clod 2"><path class="cls-1" d="M714.23,323.6c-14,12.76-45.77,14.58-66.17,9.76-26,11.08-65,9.48-81.12-8.32-3.72,4.45-14.56,2.1-16-2.09v0c-3,.46-6.13-.52-5.92-4.37.52-10.13,12.59-11.86,18-10h0c2-6.8,9.1-9.31,14.45-8.7v-.09a11.58,11.58,0,0,1,4.21-5.19c-1.86-5.64,2.06-11.41,4.16-11.51H586c-1-9.54,7.08-22.8,23.3-20.22,6.24-14.13,27.48-12.25,32.42.26,4.45-1.16,8.57,0,10.95,2.29,6.81-20.58,37.41-19.14,44.75-1.12,9.25,2.08,18.42,13.38,16.47,23.22h0c7.3,1.55,11.75,7.06,9.21,13.79l-.05.12a13.63,13.63,0,0,1,5,3.22c5.85-2.26,13.46.27,13.46,5.94,5,.28,11,3.94,8.63,12-2.76,9.33-17.94,8.25-20.93,1.59A22.86,22.86,0,0,1,714.23,323.6Z" transform="translate(-544.61 -249.88)"/></g><g id="Cloud_1" data-name="Cloud 1"><path class="cls-2" d="M652.65,265.4c-3.38-2.13-7-2.53-11-2.29,3.53-1.71,8.57-1,11,2.29Z" transform="translate(-544.61 -249.88)"/><path class="cls-2" d="M713.87,287.5c.87-9-5.36-17.43-12.93-21.7a23.59,23.59,0,0,0-3.54-1.52,18.26,18.26,0,0,1,3.75,1.08c8.17,3.63,14.9,13,12.72,22.14Z" transform="translate(-544.61 -249.88)"/><path class="cls-2" d="M723.08,301.28c2.56-8.57-5.43-13.54-13-13.93-1.4-.07-2.81-.05-4.23,0a24.15,24.15,0,0,1,4.24-.57c8.12-.38,16.93,5.67,13,14.49Z" transform="translate(-544.61 -249.88)"/><path class="cls-2" d="M741.53,310.57c-.58-4.44-5.32-6.28-9.28-6.36a16.58,16.58,0,0,0-4.18.42c4.7-2.83,14-.72,13.46,5.94Z" transform="translate(-544.61 -249.88)"/><path class="cls-2" d="M698.56,277.53c.91-6.4-.33-13.29-4.62-18.25-8.33-9.85-24.92-11.35-34.81-3-5.06,4.18-7.42,10.73-7.81,17.17-.2-10.31,5.82-19.72,16-22.49,17.32-4.93,35.33,7.75,31.24,26.58Z" transform="translate(-544.61 -249.88)"/><path class="cls-2" d="M642.41,272.05c1.8-11.05-7.26-19-17.87-18.56-11.34.27-17.39,9.53-16.93,20.23-1.33-11.17,5.17-20.84,16.9-21.22,11-.36,20.61,8.13,17.9,19.55Z" transform="translate(-544.61 -249.88)"/><path class="cls-2" d="M609.27,262.84c-10.25-1.27-19.74,4.25-22.47,14.41a15.83,15.83,0,0,0,.2,9.65,12.84,12.84,0,0,1-1.34-4.81,18.85,18.85,0,0,1,23.61-19.25Z" transform="translate(-544.61 -249.88)"/><path class="cls-2" d="M585.91,283.08a4.82,4.82,0,0,0-2.26,2.2,14.3,14.3,0,0,0-2,6,16.48,16.48,0,0,0,.09,3.28,7.93,7.93,0,0,1-.87-3.29c-.17-2.94,1.7-7.9,5-8.21Z" transform="translate(-544.61 -249.88)"/><path class="cls-2" d="M595.91,294.58c-6-4.72-15-1-18.37,5.19,2.06-7.24,13.06-11.42,18.37-5.19Z" transform="translate(-544.61 -249.88)"/><path class="cls-2" d="M583.65,303.42c-3.95-5.85-15.66-3-19,2.36a14.19,14.19,0,0,0-1.54,2.78,11.07,11.07,0,0,1,1.13-3c2.74-4.89,9-7.09,14.36-5.88,2.07.49,4.37,1.63,5.08,3.78Z" transform="translate(-544.61 -249.88)"/><path class="cls-2" d="M565.57,310.38c-1.89-2.59-6.61-2.29-9.47-1.92-5.76.76-11.24,5.11-10.51,11.37.83,4.32,8,3.27,10.14.57-2.2,3.4-9.89,4.53-11-.4-1.06-6.76,4.95-11.8,11.27-12.3,3-.24,7.88-.25,9.57,2.68Z" transform="translate(-544.61 -249.88)"/><path class="cls-2" d="M551,323c2.64,4.21,12.26,5.46,16,2.09-3.16,4.77-14.18,3.33-16-2.09Z" transform="translate(-544.61 -249.88)"/><path class="cls-2" d="M562.13,317.8c14.49,27.7,65.39,25.77,89.77,13.48a51.63,51.63,0,0,0,11.76-7.7C656.82,330.15,648,334.25,639,337c-23.38,7.11-64.86,6.19-76.83-19.17Z" transform="translate(-544.61 -249.88)"/><path class="cls-2" d="M648.06,333.36c18.15,3.4,42.12,3,58.94-5.15a14.3,14.3,0,0,0,1.9-1,27.68,27.68,0,0,0,3.6-2.33l1.73-1.29c-15.42,14.14-46.81,14.86-66.17,9.76Z" transform="translate(-544.61 -249.88)"/><path class="cls-2" d="M705.85,317.8A24.58,24.58,0,0,0,733,322.46l1.79-.85a26.67,26.67,0,0,1-3.44,2c-8.57,4.07-19.67,1.79-25.51-5.82Z" transform="translate(-544.61 -249.88)"/><path class="cls-2" d="M729.21,324.1c3.14,5.27,10.95,5.94,16.08,3.51,3.62-1.72,5.3-5.95,4.86-9.77-.6-5.84-9.52-9.21-14-5.7,1.4-1.57,3.72-1.86,5.73-1.79,4.17.18,8.6,2.92,9.17,7.36,1,7.2-4.45,12.26-11.46,12-4-.1-8.71-1.69-10.38-5.61Z" transform="translate(-544.61 -249.88)"/><path class="cls-2" d="M730.07,308.38c-1.64-4.92-9-8.4-14-7.33,4.87-2.59,13.63,1.62,14,7.33Z" transform="translate(-544.61 -249.88)"/><path class="cls-2" d="M640.09,294.49c-6.57-7.23-26.35-4.7-25.06,7.35a9.16,9.16,0,0,1,0-4.2c2.63-9.53,19.82-10.78,25.1-3.15Z" transform="translate(-544.61 -249.88)"/><path class="cls-2" d="M661,296.32c-6-5.51-20-5.82-23.73,2.35-1.17,2.83-.32,6,.9,8.74-2.73-4-3-9.8,1.17-12.91,6.24-4.71,16.37-4,21.66,1.82Z" transform="translate(-544.61 -249.88)"/><path class="cls-2" d="M681.67,307.11c3.52-5.71-3.82-9.39-8.76-8.65a12.62,12.62,0,0,0-5.07,1.71,9.88,9.88,0,0,1,4.95-2.48c5.44-1.38,13.85,3.62,8.88,9.42Z" transform="translate(-544.61 -249.88)"/><path class="cls-2" d="M695.53,304.32c.74-5.53-6.12-8.49-10.72-7.17a10.85,10.85,0,0,0-4.46,2.5,8.75,8.75,0,0,1,4.23-3.25c4.87-2,13,2,10.95,7.92Z" transform="translate(-544.61 -249.88)"/><path class="cls-2" d="M700.6,309.54c.41-4-3.55-5.18-6.79-4.62a7.6,7.6,0,0,0-3.14,1.19,5.38,5.38,0,0,1,3-1.95c3.56-1.21,8.75,1,7,5.38Z" transform="translate(-544.61 -249.88)"/></g></g></svg>