<svg xmlns="http://www.w3.org/2000/svg" width="58.081" height="45.843" viewBox="0 0 58.081 45.843">
  <g id="Union_1" data-name="Union 1" transform="translate(32 -522)" fill="rgba(0,0,0,0)" stroke-linecap="round" stroke-linejoin="round">
    <path d="M 19.0817985534668 566.3427124023438 C 16.04880905151367 566.3427124023438 13.58129787445068 563.8756103515625 13.58129787445068 560.8431396484375 C 13.58129787445068 557.8101196289062 16.04880905151367 555.3425903320312 19.0817985534668 555.3425903320312 C 22.11428833007812 555.3425903320312 24.58139801025391 557.8101196289062 24.58139801025391 560.8431396484375 C 24.58139801025391 563.8756103515625 22.11428833007812 566.3427124023438 19.0817985534668 566.3427124023438 Z M -0.918901801109314 562.3431396484375 C -5.054081916809082 562.3431396484375 -8.418301582336426 558.978515625 -8.418301582336426 554.8428344726562 C -8.418301582336426 550.7071533203125 -5.054081916809082 547.342529296875 -0.918901801109314 547.342529296875 C 3.21677827835083 547.342529296875 6.581398010253906 550.7071533203125 6.581398010253906 554.8428344726562 C 6.581398010253906 558.978515625 3.21677827835083 562.3431396484375 -0.918901801109314 562.3431396484375 Z M -18.99990272521973 546.5004272460938 C -22.07186126708984 546.5004272460938 -24.95983123779297 545.3040771484375 -27.13181114196777 543.1318359375 C -29.30369186401367 540.9596557617188 -30.49980163574219 538.0715942382812 -30.49980163574219 534.9996337890625 C -30.49980163574219 531.927978515625 -29.30368232727051 529.0401611328125 -27.13178253173828 526.8681640625 C -24.95976257324219 524.6959838867188 -22.07180213928223 523.4996948242188 -18.99990272521973 523.4996948242188 C -15.9283618927002 523.4996948242188 -13.04053211212158 524.6959838867188 -10.86839199066162 526.8681030273438 C -8.69625186920166 529.040283203125 -7.500001907348633 531.9281005859375 -7.500001907348633 534.9996337890625 C -7.500001907348633 538.071533203125 -8.69624137878418 540.9595947265625 -10.8683614730835 543.1318969726562 C -13.04046154022217 545.3041381835938 -15.92830181121826 546.5004272460938 -18.99990272521973 546.5004272460938 Z" stroke="none"/>
    <path d="M 19.0817985534668 564.8427124023438 C 21.29039764404297 564.8427124023438 23.08139801025391 563.0516967773438 23.08139801025391 560.8431396484375 C 23.08139801025391 558.6336059570312 21.29039764404297 556.8425903320312 19.0817985534668 556.8425903320312 C 16.8722972869873 556.8425903320312 15.08129787445068 558.6336059570312 15.08129787445068 560.8431396484375 C 15.08129787445068 563.0516967773438 16.8722972869873 564.8427124023438 19.0817985534668 564.8427124023438 M -0.918901801109314 560.8431396484375 C 2.394898176193237 560.8431396484375 5.081398010253906 558.1566162109375 5.081398010253906 554.8428344726562 C 5.081398010253906 551.5289916992188 2.394898176193237 548.842529296875 -0.918901801109314 548.842529296875 C -4.231801986694336 548.842529296875 -6.918301582336426 551.5289916992188 -6.918301582336426 554.8428344726562 C -6.918301582336426 558.1566162109375 -4.231801986694336 560.8431396484375 -0.918901801109314 560.8431396484375 M -18.99990272521973 545.0004272460938 C -13.47750186920166 545.0004272460938 -9.000001907348633 540.5228881835938 -9.000001907348633 534.9996337890625 C -9.000001907348633 529.4772338867188 -13.47750186920166 524.9996948242188 -18.99990272521973 524.9996948242188 C -24.52320098876953 524.9996948242188 -28.99980163574219 529.4772338867188 -28.99980163574219 534.9996337890625 C -28.99980163574219 540.5228881835938 -24.52320098876953 545.0004272460938 -18.99990272521973 545.0004272460938 M 19.0817985534668 567.8427124023438 C 15.22170829772949 567.8427124023438 12.08129787445068 564.7026977539062 12.08129787445068 560.8431396484375 C 12.08129787445068 556.9830322265625 15.22170829772949 553.8425903320312 19.0817985534668 553.8425903320312 C 22.9413890838623 553.8425903320312 26.08139801025391 556.9830322265625 26.08139801025391 560.8431396484375 C 26.08139801025391 564.7026977539062 22.9413890838623 567.8427124023438 19.0817985534668 567.8427124023438 Z M -0.918901801109314 563.8431396484375 C -5.881191730499268 563.8431396484375 -9.918301582336426 559.8056030273438 -9.918301582336426 554.8428344726562 C -9.918301582336426 549.8800659179688 -5.881191730499268 545.842529296875 -0.918901801109314 545.842529296875 C 4.043878078460693 545.842529296875 8.081398010253906 549.8800659179688 8.081398010253906 554.8428344726562 C 8.081398010253906 559.8056030273438 4.043878078460693 563.8431396484375 -0.918901801109314 563.8431396484375 Z M -18.99990272521973 548.0004272460938 C -22.47256088256836 548.0004272460938 -25.73723220825195 546.6480712890625 -28.19254112243652 544.1924438476562 C -30.64769172668457 541.7369995117188 -31.99980163574219 538.4722290039062 -31.99980163574219 534.9996337890625 C -31.99980163574219 531.52734375 -30.64767265319824 528.2628784179688 -28.19248199462891 525.8074951171875 C -25.73713111877441 523.3519897460938 -22.47248268127441 521.9996948242188 -18.99990272521973 521.9996948242188 C -15.52769184112549 521.9996948242188 -12.26318168640137 523.3519897460938 -9.807722091674805 525.8074340820312 C -7.352282047271729 528.262939453125 -6.000001907348633 531.5274047851562 -6.000001907348633 534.9996337890625 C -6.000001907348633 538.47216796875 -7.352252006530762 541.7369384765625 -9.807662010192871 544.1925048828125 C -12.26308155059814 546.6480712890625 -15.52761173248291 548.0004272460938 -18.99990272521973 548.0004272460938 Z" stroke="none" fill="#c0e7ff"/>
  </g>
</svg>
