<svg xmlns="http://www.w3.org/2000/svg" width="1921.195" height="232.449" viewBox="0 0 1921.195 232.449">
  <g id="Group_433" data-name="Group 433" transform="translate(0.613 -2471.55)">
    <path id="Union_1" data-name="Union 1" d="M0,211H0Zm.5,0V-21h1920V211Z" transform="translate(-0.5 2493)" fill="#fcfbfa"/>
    <path id="Floor_2" data-name="Floor 2" d="M1158.59,57.06l44.46,169.11M1489.36,57.05,1622.66,226m32.13-168.86L1832.49,226M1324,57.09,1412.84,226M994.67,57.11V225.92M1820.6,57,1955,159.25M786.4,226.17,830.85,57.06m-330.77,0L366.78,226M334.66,57.09,157,226M665.46,57.09,576.6,226M168.85,57,34.41,159.26M34.22,57.05h1921M34.22,225.92h1921" transform="translate(-34.72 2415)" fill="none" stroke="#664332" stroke-width="1"/>
  </g>
</svg>
