<svg id="Layer_1" data-name="Layer 1" xmlns="http://www.w3.org/2000/svg" viewBox="0 0 79.32 297.2"><defs><style>.cls-1{fill:#4fc1b7;}</style></defs><path class="cls-1" d="M895.94,1671.25c.68-.65.47-1.83-.55-2.56a2,2,0,0,0-2.71.06c-.65.82,0,1.89.7,2.45A2,2,0,0,0,895.94,1671.25Z" transform="translate(-817.01 -1644.23)"/><path class="cls-1" d="M892.17,1675.44a2,2,0,0,0,.14-2.78c-.65-1-1.83-1.51-2.71-.84a2.05,2.05,0,0,0,0,2.7A2,2,0,0,0,892.17,1675.44Z" transform="translate(-817.01 -1644.23)"/><path class="cls-1" d="M877.1,1680c-1.32,2.22-3.63,2.75-5.12,1.83-1.29-.81-2-2.51-1-4.63a4.07,4.07,0,0,1,4.78-2.43C877.34,1675.37,878.5,1677.59,877.1,1680Z" transform="translate(-817.01 -1644.23)"/><path class="cls-1" d="M882.17,1680.38a2.43,2.43,0,0,0,1.64-2.84c-.13-1.31-1.1-2.37-2.19-2.15a2.43,2.43,0,0,0-1.68,2.79C880.09,1679.41,881,1680.57,882.17,1680.38Z" transform="translate(-817.01 -1644.23)"/><path class="cls-1" d="M886.38,1674.17c-1.11.28-1.42,1.67-1.21,2.62.29,1.28,1.23,2,2.07,1.78a2.2,2.2,0,0,0,1.34-2.34C888.51,1675.15,887.56,1673.86,886.38,1674.17Z" transform="translate(-817.01 -1644.23)"/><path class="cls-1" d="M881.43,1644.31a5.36,5.36,0,0,0-5.06,1.85c-2.42,3,1,7.32,2,9.49,2.45,5.63-5.51,5.63-4.1,14,.6,3.64,5.37,5.47,10.12,4.06a11.43,11.43,0,0,0,6.74-4.69,12.22,12.22,0,0,0,2-8.2c-.39-4.71-2.5-9.74-5.29-12.54C885.89,1646.39,883.79,1644.64,881.43,1644.31Z" transform="translate(-817.01 -1644.23)"/><path class="cls-1" d="M835.14,1707.35c.78-.49,1.46-1.52.87-2.39a2,2,0,0,0-2.7-.25c-1.07.65-1.36,1.81-.74,2.51A2,2,0,0,0,835.14,1707.35Z" transform="translate(-817.01 -1644.23)"/><path class="cls-1" d="M838.69,1711a2.08,2.08,0,0,0,.18-2.7c-.84-.73-2.06-.26-2.78.64s-.85,2.17-.05,2.78A2,2,0,0,0,838.69,1711Z" transform="translate(-817.01 -1644.23)"/><path class="cls-1" d="M852.5,1712.18a4.06,4.06,0,0,1,4.58,2.77c.81,2.18,0,3.82-1.37,4.54-1.55.81-3.82.12-5-2.19C849.51,1714.81,850.83,1712.67,852.5,1712.18Z" transform="translate(-817.01 -1644.23)"/><path class="cls-1" d="M848,1715.29a2.42,2.42,0,0,0-1.47-2.9c-1.07-.3-2.11.69-2.34,2a2.43,2.43,0,0,0,1.43,2.94C846.86,1717.6,847.8,1716.51,848,1715.29Z" transform="translate(-817.01 -1644.23)"/><path class="cls-1" d="M839.56,1712.72a2.2,2.2,0,0,0,1.16,2.43c.83.26,1.82-.36,2.2-1.63.28-.92.07-2.33-1-2.69S839.71,1711.65,839.56,1712.72Z" transform="translate(-817.01 -1644.23)"/><path class="cls-1" d="M842.35,1684.93c-3,2.59-5.45,7.46-6.17,12.12a12.23,12.23,0,0,0,1.35,8.32,11.42,11.42,0,0,0,6.39,5.17c4.63,1.76,9.53.27,10.39-3.31,2-8.29-5.93-8.86-3.07-14.3,1.1-2.09,4.87-6.14,2.67-9.31a5.35,5.35,0,0,0-4.91-2.22C846.62,1681.56,844.41,1683.15,842.35,1684.93Z" transform="translate(-817.01 -1644.23)"/><path class="cls-1" d="M893.54,1744.31c.7-.65.51-1.85-.51-2.61a2,2,0,0,0-2.75,0c-.68.83-.09,1.93.66,2.51A2,2,0,0,0,893.54,1744.31Z" transform="translate(-817.01 -1644.23)"/><path class="cls-1" d="M889.62,1748.48a2,2,0,0,0,.21-2.81c-.65-1-1.83-1.57-2.75-.91a2.11,2.11,0,0,0-.07,2.75A2,2,0,0,0,889.62,1748.48Z" transform="translate(-817.01 -1644.23)"/><path class="cls-1" d="M874.23,1752.8c-1.38,2.23-3.74,2.71-5.23,1.74-1.3-.84-2-2.58-1-4.71a4.13,4.13,0,0,1,4.9-2.37C874.57,1748.12,875.7,1750.4,874.23,1752.8Z" transform="translate(-817.01 -1644.23)"/><path class="cls-1" d="M879.38,1753.3a2.48,2.48,0,0,0,1.72-2.84c-.11-1.34-1.07-2.43-2.19-2.23a2.46,2.46,0,0,0-1.75,2.79C877.28,1752.28,878.13,1753.47,879.38,1753.3Z" transform="translate(-817.01 -1644.23)"/><path class="cls-1" d="M883.77,1747.08c-1.13.27-1.48,1.67-1.28,2.63.27,1.32,1.21,2,2.07,1.85a2.2,2.2,0,0,0,1.4-2.34C885.91,1748.12,885,1746.79,883.77,1747.08Z" transform="translate(-817.01 -1644.23)"/><path class="cls-1" d="M879.35,1716.67a5.45,5.45,0,0,0-5.18,1.78c-2.51,3,.92,7.45,1.84,9.67,2.37,5.77-5.7,5.6-4.45,14.16.54,3.7,5.35,5.66,10.2,4.33a11.6,11.6,0,0,0,6.94-4.63,12.45,12.45,0,0,0,2.15-8.29c-.3-4.78-2.34-9.94-5.11-12.83C883.83,1718.87,881.74,1717.05,879.35,1716.67Z" transform="translate(-817.01 -1644.23)"/><path class="cls-1" d="M831.09,1779.74c.8-.49,1.51-1.52.93-2.42a2,2,0,0,0-2.73-.31c-1.1.64-1.42,1.82-.8,2.54A2,2,0,0,0,831.09,1779.74Z" transform="translate(-817.01 -1644.23)"/><path class="cls-1" d="M834.62,1783.46a2.11,2.11,0,0,0,.23-2.74c-.83-.76-2.08-.3-2.82.59a2,2,0,0,0-.11,2.83A2,2,0,0,0,834.62,1783.46Z" transform="translate(-817.01 -1644.23)"/><path class="cls-1" d="M848.61,1785a4.12,4.12,0,0,1,4.6,2.9c.78,2.23-.1,3.88-1.48,4.58-1.59.79-3.89,0-5-2.33C845.53,1787.6,846.91,1785.45,848.61,1785Z" transform="translate(-817.01 -1644.23)"/><path class="cls-1" d="M844,1788.05a2.47,2.47,0,0,0-1.44-3c-1.08-.32-2.16.65-2.42,2a2.49,2.49,0,0,0,1.4,3C842.77,1790.37,843.76,1789.29,844,1788.05Z" transform="translate(-817.01 -1644.23)"/><path class="cls-1" d="M835.47,1785.27a2.22,2.22,0,0,0,1.13,2.49c.84.28,1.85-.33,2.27-1.6.3-.94.11-2.37-1-2.76S835.64,1784.19,835.47,1785.27Z" transform="translate(-817.01 -1644.23)"/><path class="cls-1" d="M838.86,1757.12c-3.08,2.57-5.68,7.46-6.51,12.18a12.34,12.34,0,0,0,1.21,8.47,11.59,11.59,0,0,0,6.38,5.38c4.67,1.87,9.66.46,10.61-3.16,2.21-8.36-5.84-9.1-2.83-14.57,1.16-2.1,5.07-6.14,2.9-9.4a5.45,5.45,0,0,0-4.94-2.35C843.26,1753.78,841,1755.36,838.86,1757.12Z" transform="translate(-817.01 -1644.23)"/><path class="cls-1" d="M890.34,1818.13c.72-.64.56-1.87-.45-2.66a2.05,2.05,0,0,0-2.79-.07c-.72.82-.14,1.95.6,2.56A2,2,0,0,0,890.34,1818.13Z" transform="translate(-817.01 -1644.23)"/><path class="cls-1" d="M886.25,1822.26c.89-.53.91-1.85.28-2.85s-1.81-1.64-2.76-1a2.14,2.14,0,0,0-.14,2.79A2.07,2.07,0,0,0,886.25,1822.26Z" transform="translate(-817.01 -1644.23)"/><path class="cls-1" d="M870.53,1826.25c-1.46,2.22-3.87,2.66-5.36,1.64-1.29-.89-1.94-2.68-.85-4.81a4.18,4.18,0,0,1,5-2.28C871,1821.51,872.08,1823.85,870.53,1826.25Z" transform="translate(-817.01 -1644.23)"/><path class="cls-1" d="M875.73,1826.89a2.51,2.51,0,0,0,1.82-2.84c-.07-1.36-1-2.49-2.16-2.32a2.5,2.5,0,0,0-1.85,2.79C873.63,1825.8,874.47,1827,875.73,1826.89Z" transform="translate(-817.01 -1644.23)"/><path class="cls-1" d="M880.35,1820.69c-1.15.24-1.54,1.66-1.37,2.64.24,1.34,1.18,2.1,2.06,1.93a2.27,2.27,0,0,0,1.48-2.35C882.5,1821.8,881.59,1820.43,880.35,1820.69Z" transform="translate(-817.01 -1644.23)"/><path class="cls-1" d="M876.65,1789.72a5.52,5.52,0,0,0-5.3,1.67c-2.63,3,.73,7.58,1.61,9.86,2.27,5.91-5.93,5.54-4.87,14.26.45,3.77,5.28,5.88,10.23,4.65a11.83,11.83,0,0,0,7.17-4.52,12.59,12.59,0,0,0,2.39-8.35c-.18-4.87-2.12-10.15-4.86-13.16C881.14,1792.07,879.06,1790.17,876.65,1789.72Z" transform="translate(-817.01 -1644.23)"/><path class="cls-1" d="M826.06,1852.48c.82-.48,1.58-1.5,1-2.43a2.05,2.05,0,0,0-2.76-.38c-1.13.62-1.49,1.8-.88,2.55A2,2,0,0,0,826.06,1852.48Z" transform="translate(-817.01 -1644.23)"/><path class="cls-1" d="M829.54,1856.34a2.12,2.12,0,0,0,.31-2.77c-.83-.79-2.1-.35-2.88.53s-1,2.2-.19,2.86A2.05,2.05,0,0,0,829.54,1856.34Z" transform="translate(-817.01 -1644.23)"/><path class="cls-1" d="M843.7,1858.25a4.2,4.2,0,0,1,4.6,3.07c.73,2.28-.2,3.93-1.63,4.6-1.63.77-3.94-.05-5-2.48C840.51,1860.82,842,1858.69,843.7,1858.25Z" transform="translate(-817.01 -1644.23)"/><path class="cls-1" d="M839,1861.25a2.49,2.49,0,0,0-1.37-3c-1.1-.36-2.22.6-2.51,1.93a2.51,2.51,0,0,0,1.34,3.1C837.64,1863.57,838.67,1862.49,839,1861.25Z" transform="translate(-817.01 -1644.23)"/><path class="cls-1" d="M830.36,1858.21a2.25,2.25,0,0,0,1.08,2.55c.85.31,1.89-.28,2.35-1.57.33-.94.17-2.4-.93-2.82S830.56,1857.12,830.36,1858.21Z" transform="translate(-817.01 -1644.23)"/><path class="cls-1" d="M834.53,1829.73c-3.2,2.52-6,7.42-6.93,12.19a12.69,12.69,0,0,0,1,8.63,11.8,11.8,0,0,0,6.34,5.62c4.69,2,9.8.72,10.85-2.93,2.46-8.44-5.69-9.39-2.5-14.86,1.24-2.11,5.3-6.1,3.19-9.47a5.53,5.53,0,0,0-5-2.5C839.08,1826.46,836.72,1828,834.53,1829.73Z" transform="translate(-817.01 -1644.23)"/><path id="Path_140-49" data-name="Path 140-49" class="cls-1" d="M885.55,1893.1c.74-.65.59-1.89-.43-2.71a2.08,2.08,0,0,0-2.83-.1c-.73.83-.16,2,.58,2.6A2.07,2.07,0,0,0,885.55,1893.1Z" transform="translate(-817.01 -1644.23)"/><path id="Path_139-49" data-name="Path 139-49" class="cls-1" d="M881.36,1897.25a2.07,2.07,0,0,0,.32-2.89c-.63-1-1.82-1.68-2.79-1a2.19,2.19,0,0,0-.18,2.83A2.1,2.1,0,0,0,881.36,1897.25Z" transform="translate(-817.01 -1644.23)"/><path id="Path_136-49" data-name="Path 136-49" class="cls-1" d="M865.37,1901.13c-1.5,2.25-4,2.66-5.45,1.61-1.31-.92-1.95-2.73-.82-4.89a4.25,4.25,0,0,1,5.13-2.26C865.89,1896.33,867,1898.72,865.37,1901.13Z" transform="translate(-817.01 -1644.23)"/><path id="Path_137-49" data-name="Path 137-49" class="cls-1" d="M870.64,1901.84a2.56,2.56,0,0,0,1.88-2.87c-.06-1.38-1-2.54-2.17-2.37a2.54,2.54,0,0,0-1.91,2.81C868.52,1900.71,869.36,1902,870.64,1901.84Z" transform="translate(-817.01 -1644.23)"/><path id="Path_138-49" data-name="Path 138-49" class="cls-1" d="M875.39,1895.59c-1.17.24-1.58,1.67-1.41,2.67.23,1.36,1.17,2.14,2.06,2a2.28,2.28,0,0,0,1.53-2.37C877.56,1896.74,876.65,1895.34,875.39,1895.59Z" transform="translate(-817.01 -1644.23)"/><path id="Path_141-49" data-name="Path 141-49" class="cls-1" d="M872,1864.13a5.61,5.61,0,0,0-5.4,1.64c-2.7,3,.67,7.7,1.54,10,2.24,6-6.07,5.56-5.09,14.42.42,3.83,5.3,6,10.34,4.82a11.91,11.91,0,0,0,7.31-4.51,12.77,12.77,0,0,0,2.52-8.45c-.14-4.94-2-10.32-4.8-13.4C876.48,1866.55,874.39,1864.61,872,1864.13Z" transform="translate(-817.01 -1644.23)"/><path id="Path_140-49-2" data-name="Path 140-49" class="cls-1" d="M820,1927.3c.85-.47,1.62-1.5,1-2.45a2.09,2.09,0,0,0-2.8-.42c-1.16.62-1.53,1.82-.92,2.59A2.06,2.06,0,0,0,820,1927.3Z" transform="translate(-817.01 -1644.23)"/><path id="Path_139-49-2" data-name="Path 139-49" class="cls-1" d="M823.47,1931.26a2.17,2.17,0,0,0,.34-2.81c-.83-.81-2.13-.38-2.93.51s-1,2.22-.21,2.9A2.09,2.09,0,0,0,823.47,1931.26Z" transform="translate(-817.01 -1644.23)"/><path id="Path_136-49-2" data-name="Path 136-49" class="cls-1" d="M837.82,1933.34a4.24,4.24,0,0,1,4.63,3.16c.72,2.32-.24,4-1.69,4.66-1.67.76-4-.1-5.07-2.58C834.56,1935.92,836.05,1933.76,837.82,1933.34Z" transform="translate(-817.01 -1644.23)"/><path id="Path_137-49-2" data-name="Path 137-49" class="cls-1" d="M833,1936.33a2.53,2.53,0,0,0-1.37-3.11c-1.1-.37-2.25.6-2.56,1.94a2.56,2.56,0,0,0,1.33,3.16C831.62,1938.68,832.67,1937.59,833,1936.33Z" transform="translate(-817.01 -1644.23)"/><path id="Path_138-49-2" data-name="Path 138-49" class="cls-1" d="M824.28,1933.16a2.3,2.3,0,0,0,1.07,2.61c.86.31,1.92-.28,2.4-1.58.34-1,.2-2.43-.91-2.87S824.49,1932.05,824.28,1933.16Z" transform="translate(-817.01 -1644.23)"/><path id="Path_141-49-2" data-name="Path 141-49" class="cls-1" d="M828.8,1904.3c-3.27,2.53-6.12,7.47-7.15,12.3a12.78,12.78,0,0,0,.94,8.77,11.92,11.92,0,0,0,6.37,5.77c4.74,2.09,9.93.82,11-2.87,2.58-8.53-5.68-9.58-2.39-15.1,1.28-2.12,5.45-6.14,3.33-9.57a5.57,5.57,0,0,0-5-2.6C833.45,1901,831,1902.56,828.8,1904.3Z" transform="translate(-817.01 -1644.23)"/></svg>