<svg xmlns="http://www.w3.org/2000/svg" width="80.339" height="298.216" viewBox="0 0 80.339 298.216">
  <path id="Union_2" data-name="Union 2" d="M-249.394,530.236c-1.134-2.666.361-4.821,2.13-5.241a4.247,4.247,0,0,1,4.63,3.154c.72,2.321-.241,3.993-1.692,4.658a3.036,3.036,0,0,1-1.262.268A4.3,4.3,0,0,1-249.394,530.236Zm-5.315-.264a2.55,2.55,0,0,1-1.324-3.158c.312-1.346,1.459-2.314,2.562-1.94a2.531,2.531,0,0,1,1.368,3.11,2.465,2.465,0,0,1-2.128,2.057A1.731,1.731,0,0,1-254.709,529.972Zm-5.021-2.553a2.289,2.289,0,0,1-1.071-2.605c.212-1.105,1.365-2.325,2.556-1.843,1.112.444,1.253,1.923.907,2.876a2.234,2.234,0,0,1-1.92,1.657A1.344,1.344,0,0,1-259.73,527.419Zm-4.689-3.9c-.8-.686-.586-2.009.214-2.9s2.1-1.321,2.933-.508a2.168,2.168,0,0,1-.341,2.808,2.1,2.1,0,0,1-1.726.9A2.09,2.09,0,0,1-264.419,523.515Zm8.294-.723a11.953,11.953,0,0,1-6.372-5.768,12.8,12.8,0,0,1-.941-8.768c1.029-4.83,3.885-9.773,7.151-12.3,2.247-1.738,4.652-3.273,7.141-3.3a5.6,5.6,0,0,1,5.007,2.6c2.111,3.434-2.057,7.45-3.331,9.572-3.293,5.518,4.963,6.571,2.387,15.107-.745,2.486-3.347,3.874-6.415,3.874A11.52,11.52,0,0,1-256.125,522.792Zm-11.658-4.121c-.612-.768-.239-1.965.914-2.587a2.09,2.09,0,0,1,2.8.422c.571.946-.2,1.976-1.048,2.451a2.054,2.054,0,0,1-1.167.363A2.058,2.058,0,0,1-267.782,518.671Zm42.616-24.277c-1.306-.916-1.949-2.734-.818-4.887a4.246,4.246,0,0,1,5.125-2.262c1.663.733,2.743,3.124,1.144,5.54a4.472,4.472,0,0,1-3.643,2.158A3.133,3.133,0,0,1-225.167,494.393Zm8.523-3.332a2.531,2.531,0,0,1,1.91-2.81c1.153-.167,2.105.993,2.167,2.373a2.549,2.549,0,0,1-1.874,2.865q-.09.009-.177.009C-215.805,493.5-216.567,492.3-216.644,491.062Zm5.536-1.152c-.167-1,.24-2.429,1.414-2.664,1.259-.256,2.173,1.152,2.179,2.278a2.288,2.288,0,0,1-1.525,2.367,1.332,1.332,0,0,1-.233.021C-210.094,491.911-210.9,491.155-211.108,489.91Zm4.736-2.109a2.17,2.17,0,0,1,.176-2.823c.967-.647,2.165.009,2.792,1.033s.592,2.362-.316,2.892a2.092,2.092,0,0,1-.738.135A2.1,2.1,0,0,1-206.372,487.8Zm-15.711-5.936c-.985-8.861,7.326-8.4,5.089-14.422-.869-2.318-4.238-7.025-1.538-10.018a5.6,5.6,0,0,1,5.394-1.643c2.444.477,4.531,2.423,6.424,4.54,2.752,3.082,4.664,8.461,4.8,13.4a12.8,12.8,0,0,1-2.516,8.451,11.959,11.959,0,0,1-7.314,4.516,11.953,11.953,0,0,1-2.765.329C-218.444,487.015-221.742,484.983-222.083,481.865Zm19.874,2.68c-.745-.619-1.318-1.772-.585-2.6a2.088,2.088,0,0,1,2.831.094c1.022.821,1.172,2.065.43,2.71a2.053,2.053,0,0,1-1.218.4A2.055,2.055,0,0,1-202.209,484.545Zm-41.219-29.452c-1.144-2.615.308-4.755,2.047-5.186a4.183,4.183,0,0,1,4.592,3.064c.734,2.281-.2,3.937-1.621,4.607a2.994,2.994,0,0,1-1.272.277A4.248,4.248,0,0,1-243.428,455.092Zm-5.241-.209a2.511,2.511,0,0,1-1.335-3.1c.294-1.329,1.414-2.294,2.5-1.937a2.5,2.5,0,0,1,1.379,3.051,2.421,2.421,0,0,1-2.091,2.048A1.71,1.71,0,0,1-248.669,454.883Zm-4.972-2.466a2.253,2.253,0,0,1-1.08-2.556c.2-1.092,1.322-2.3,2.5-1.842,1.1.427,1.253,1.884.922,2.826a2.194,2.194,0,0,1-1.888,1.652A1.324,1.324,0,0,1-253.642,452.417Zm-4.658-3.8c-.792-.668-.6-1.973.184-2.861s2.055-1.322,2.884-.53a2.138,2.138,0,0,1-.308,2.77,2.068,2.068,0,0,1-1.713.907A2.06,2.06,0,0,1-258.3,448.617Zm8.166-.793a11.785,11.785,0,0,1-6.335-5.621,12.616,12.616,0,0,1-1.013-8.63c.966-4.77,3.732-9.669,6.924-12.194,2.2-1.734,4.552-3.272,7.006-3.32a5.519,5.519,0,0,1,4.958,2.507c2.114,3.362-1.953,7.361-3.19,9.464-3.19,5.47,4.956,6.427,2.5,14.861-.718,2.484-3.317,3.881-6.384,3.881A11.378,11.378,0,0,1-250.134,447.824Zm-11.527-3.947c-.611-.75-.256-1.932.876-2.557a2.056,2.056,0,0,1,2.764.389c.572.925-.179,1.948-1.007,2.424a2.023,2.023,0,0,1-1.167.37A2.027,2.027,0,0,1-261.661,443.876Zm41.752-24.338c-1.3-.891-1.946-2.677-.854-4.808a4.183,4.183,0,0,1,5.028-2.279c1.646.706,2.732,3.052,1.181,5.448a4.4,4.4,0,0,1-3.6,2.162A3.081,3.081,0,0,1-219.91,419.539Zm8.365-3.367a2.5,2.5,0,0,1,1.855-2.788c1.134-.176,2.084.958,2.158,2.318a2.511,2.511,0,0,1-1.819,2.841,1.779,1.779,0,0,1-.192.01C-210.7,418.553-211.457,417.384-211.545,416.172Zm5.443-1.189c-.173-.983.213-2.4,1.368-2.639,1.238-.266,2.152,1.112,2.169,2.222a2.254,2.254,0,0,1-1.48,2.348,1.313,1.313,0,0,1-.241.022C-205.09,416.936-205.882,416.2-206.1,414.983Zm4.647-2.125a2.137,2.137,0,0,1,.144-2.783c.948-.648,2.136-.013,2.761.99s.608,2.321-.283,2.853a2.064,2.064,0,0,1-.745.139A2.069,2.069,0,0,1-201.455,412.858Zm-15.539-5.7c-1.057-8.721,7.136-8.346,4.874-14.26-.878-2.276-4.244-6.88-1.614-9.855a5.513,5.513,0,0,1,5.3-1.673c2.412.445,4.486,2.343,6.374,4.411,2.741,3.009,4.678,8.291,4.858,13.154a12.612,12.612,0,0,1-2.4,8.351,11.784,11.784,0,0,1-7.162,4.523,11.753,11.753,0,0,1-2.833.352C-213.421,412.164-216.632,410.2-216.995,407.163Zm19.607,2.446c-.74-.6-1.316-1.733-.6-2.555a2.058,2.058,0,0,1,2.791.065c1.014.8,1.174,2.024.45,2.665a2.023,2.023,0,0,1-1.218.406A2.026,2.026,0,0,1-197.387,409.609ZM-238.362,381.8c-1.192-2.547.185-4.689,1.887-5.157a4.123,4.123,0,0,1,4.6,2.9c.779,2.227-.1,3.882-1.481,4.576a2.965,2.965,0,0,1-1.328.306A4.207,4.207,0,0,1-238.362,381.8Zm-5.165-.076a2.472,2.472,0,0,1-1.392-3.018c.256-1.316,1.336-2.294,2.419-1.97a2.456,2.456,0,0,1,1.433,2.971,2.366,2.366,0,0,1-2.048,2.069A1.693,1.693,0,0,1-243.527,381.721Zm-4.959-2.3a2.224,2.224,0,0,1-1.128-2.491c.167-1.081,1.245-2.3,2.417-1.876,1.093.394,1.28,1.825.978,2.76a2.147,2.147,0,0,1-1.855,1.674A1.3,1.3,0,0,1-248.486,379.417Zm-4.683-3.627a2.016,2.016,0,0,1,.11-2.822c.747-.895,1.991-1.354,2.828-.594a2.107,2.107,0,0,1-.235,2.736,2.036,2.036,0,0,1-1.716.936A2.033,2.033,0,0,1-253.169,375.79Zm8.023-.985a11.608,11.608,0,0,1-6.379-5.379,12.423,12.423,0,0,1-1.212-8.473c.833-4.721,3.434-9.614,6.516-12.181,2.121-1.763,4.4-3.335,6.816-3.443a5.435,5.435,0,0,1,4.946,2.346c2.165,3.258-1.74,7.3-2.905,9.4-3.006,5.466,5.04,6.206,2.832,14.574-.663,2.533-3.312,3.984-6.443,3.984A11.273,11.273,0,0,1-245.146,374.805Zm-11.45-3.6c-.621-.725-.3-1.9.8-2.542a2.028,2.028,0,0,1,2.732.314c.586.9-.129,1.923-.932,2.412a1.992,1.992,0,0,1-1.191.394A1.994,1.994,0,0,1-256.6,371.205Zm40.513-25.008c-1.3-.845-1.984-2.587-.961-4.712a4.123,4.123,0,0,1,4.9-2.371c1.639.655,2.768,2.939,1.3,5.336a4.309,4.309,0,0,1-3.58,2.22A3.021,3.021,0,0,1-216.084,346.2Zm8.154-3.523a2.458,2.458,0,0,1,1.758-2.792c1.112-.2,2.075.891,2.183,2.228a2.474,2.474,0,0,1-1.721,2.843,1.738,1.738,0,0,1-.233.016C-207.06,344.969-207.815,343.85-207.93,342.673Zm5.332-1.307c-.2-.964.15-2.364,1.282-2.632,1.211-.293,2.146,1.043,2.191,2.135a2.221,2.221,0,0,1-1.4,2.349,1.294,1.294,0,0,1-.27.029C-201.576,343.246-202.354,342.544-202.6,341.366Zm4.522-2.208a2.107,2.107,0,0,1,.073-2.745c.917-.661,2.1-.065,2.744.906a2.014,2.014,0,0,1-.207,2.817,2.03,2.03,0,0,1-.782.157A2.039,2.039,0,0,1-198.076,339.159Zm-15.445-5.222c-1.258-8.562,6.82-8.4,4.445-14.165-.923-2.22-4.352-6.67-1.835-9.666a5.436,5.436,0,0,1,5.177-1.779c2.387.379,4.477,2.2,6.387,4.185,2.776,2.9,4.814,8.05,5.113,12.834a12.427,12.427,0,0,1-2.153,8.284,11.607,11.607,0,0,1-6.942,4.63,11.52,11.52,0,0,1-3.058.421C-210.034,338.681-213.1,336.847-213.521,333.937Zm19.371,1.921c-.742-.576-1.339-1.674-.656-2.5a2.028,2.028,0,0,1,2.75-.005c1.02.761,1.207,1.964.509,2.614a2,2,0,0,1-1.239.43A2,2,0,0,1-194.15,335.858Zm-40.2-26.909c-1.223-2.485.091-4.621,1.758-5.115A4.061,4.061,0,0,1-228,306.6c.81,2.178-.021,3.825-1.371,4.536a2.929,2.929,0,0,1-1.364.327A4.16,4.16,0,0,1-234.347,308.948Zm-5.089.027a2.435,2.435,0,0,1-1.429-2.945c.227-1.3,1.271-2.285,2.344-1.987a2.422,2.422,0,0,1,1.47,2.9,2.318,2.318,0,0,1-2.009,2.077A1.675,1.675,0,0,1-239.435,308.975Zm-4.928-2.172a2.189,2.189,0,0,1-1.159-2.431c.143-1.067,1.181-2.291,2.343-1.9,1.085.366,1.3,1.771,1.019,2.7a2.1,2.1,0,0,1-1.82,1.685A1.28,1.28,0,0,1-244.363,306.8Zm-4.682-3.481a1.983,1.983,0,0,1,.053-2.781c.716-.895,1.933-1.372,2.773-.64a2.074,2.074,0,0,1-.178,2.7,2.005,2.005,0,0,1-1.71.955A2,2,0,0,1-249.044,303.323Zm7.88-1.126a11.43,11.43,0,0,1-6.386-5.171,12.232,12.232,0,0,1-1.359-8.32c.726-4.665,3.194-9.534,6.178-12.122,2.054-1.777,4.269-3.37,6.644-3.524a5.354,5.354,0,0,1,4.917,2.214c2.2,3.166-1.571,7.221-2.677,9.313-2.853,5.441,5.085,6.012,3.074,14.3-.617,2.561-3.3,4.051-6.467,4.05A11.152,11.152,0,0,1-241.164,302.2Zm-11.345-3.321c-.626-.7-.332-1.863.737-2.518a2,2,0,0,1,2.7.257c.595.873-.089,1.9-.87,2.393a1.966,1.966,0,0,1-1.205.412A1.962,1.962,0,0,1-252.509,298.876Zm39.406-25.417c-1.3-.807-2-2.509-1.038-4.623a4.058,4.058,0,0,1,4.774-2.428c1.626.613,2.782,2.838,1.383,5.229a4.228,4.228,0,0,1-3.549,2.256A2.964,2.964,0,0,1-213.1,273.459Zm7.961-3.63a2.419,2.419,0,0,1,1.676-2.783c1.092-.22,2.061.837,2.193,2.151a2.438,2.438,0,0,1-1.64,2.834,1.706,1.706,0,0,1-.259.02C-204.255,272.051-205.008,270.975-205.142,269.829Zm5.224-1.391c-.211-.946.1-2.332,1.211-2.618,1.189-.31,2.135.986,2.2,2.059a2.187,2.187,0,0,1-1.332,2.341,1.274,1.274,0,0,1-.29.033A2.059,2.059,0,0,1-199.919,268.439Zm4.411-2.263a2.075,2.075,0,0,1,.018-2.7c.89-.669,2.069-.105,2.72.839a1.984,1.984,0,0,1-.148,2.778,2,2,0,0,1-.807.17A2.008,2.008,0,0,1-195.508,266.176Zm-15.311-4.841c-1.406-8.407,6.552-8.4,4.1-14.035-.952-2.168-4.416-6.484-2-9.483a5.355,5.355,0,0,1,5.063-1.853c2.357.327,4.451,2.076,6.371,4,2.789,2.8,4.9,7.832,5.286,12.538a12.243,12.243,0,0,1-1.958,8.2,11.431,11.431,0,0,1-6.744,4.7,11.317,11.317,0,0,1-3.215.476C-207.412,265.871-210.356,264.137-210.819,261.335Zm19.112,1.514c-.743-.553-1.352-1.623-.7-2.45a2,2,0,0,1,2.708-.06c1.019.73,1.228,1.912.553,2.564a1.965,1.965,0,0,1-1.251.449A1.967,1.967,0,0,1-191.706,262.849Z" transform="translate(268.584 -235.36)" fill="#4fc1b7" stroke="rgba(0,0,0,0)" stroke-miterlimit="10" stroke-width="1"/>
</svg>
