<svg xmlns="http://www.w3.org/2000/svg" width="71.841" height="222.923" viewBox="0 0 71.841 222.923">
  <path id="Union_2" data-name="Union 2" d="M-647.069-599.4c-1.306-.917-1.948-2.735-.818-4.887a4.245,4.245,0,0,1,5.125-2.262c1.663.733,2.743,3.124,1.144,5.539a4.472,4.472,0,0,1-3.644,2.159A3.132,3.132,0,0,1-647.069-599.4Zm8.523-3.332a2.531,2.531,0,0,1,1.91-2.81c1.153-.167,2.105.993,2.167,2.372a2.55,2.55,0,0,1-1.874,2.866q-.09.009-.177.009C-637.707-600.3-638.469-601.5-638.546-602.736Zm5.536-1.152c-.166-1,.24-2.429,1.414-2.664,1.259-.257,2.173,1.152,2.179,2.278a2.288,2.288,0,0,1-1.525,2.367,1.336,1.336,0,0,1-.233.021C-632-601.887-632.8-602.643-633.01-603.888Zm4.736-2.11a2.168,2.168,0,0,1,.175-2.822c.968-.647,2.165.009,2.792,1.033s.592,2.362-.316,2.892a2.1,2.1,0,0,1-.737.134A2.1,2.1,0,0,1-628.274-606Zm-15.711-5.935c-.985-8.861,7.326-8.4,5.089-14.422-.869-2.318-4.238-7.024-1.538-10.018a5.6,5.6,0,0,1,5.394-1.642c2.444.477,4.531,2.423,6.424,4.54,2.752,3.083,4.664,8.461,4.8,13.4a12.806,12.806,0,0,1-2.516,8.451,11.963,11.963,0,0,1-7.314,4.516,11.95,11.95,0,0,1-2.764.329C-640.346-606.783-643.644-608.816-643.985-611.933Zm19.874,2.68c-.745-.619-1.318-1.772-.585-2.6a2.089,2.089,0,0,1,2.83.094c1.022.822,1.172,2.066.43,2.711a2.055,2.055,0,0,1-1.218.4A2.055,2.055,0,0,1-624.111-609.253Zm-41.219-29.453c-1.144-2.615.308-4.754,2.047-5.185a4.182,4.182,0,0,1,4.592,3.063c.734,2.281-.2,3.938-1.621,4.607a2.993,2.993,0,0,1-1.272.277A4.248,4.248,0,0,1-665.33-638.707Zm-5.241-.208a2.512,2.512,0,0,1-1.335-3.1c.294-1.329,1.414-2.294,2.5-1.938a2.5,2.5,0,0,1,1.379,3.051,2.422,2.422,0,0,1-2.092,2.049A1.708,1.708,0,0,1-670.571-638.914Zm-4.973-2.466a2.253,2.253,0,0,1-1.08-2.556c.2-1.092,1.322-2.3,2.5-1.843,1.1.427,1.253,1.885.922,2.826a2.193,2.193,0,0,1-1.889,1.652A1.325,1.325,0,0,1-675.544-641.38Zm-4.658-3.8c-.792-.669-.6-1.974.184-2.861s2.055-1.322,2.885-.53a2.138,2.138,0,0,1-.308,2.77,2.068,2.068,0,0,1-1.713.907A2.062,2.062,0,0,1-680.2-645.181Zm8.166-.793a11.786,11.786,0,0,1-6.335-5.621,12.616,12.616,0,0,1-1.013-8.63c.966-4.77,3.732-9.668,6.924-12.194,2.2-1.733,4.552-3.271,7.006-3.32a5.52,5.52,0,0,1,4.958,2.508c2.114,3.362-1.953,7.361-3.19,9.464-3.19,5.469,4.956,6.427,2.5,14.861-.718,2.484-3.317,3.881-6.384,3.881A11.378,11.378,0,0,1-672.036-645.974Zm-11.527-3.947c-.611-.75-.255-1.933.876-2.557a2.056,2.056,0,0,1,2.764.388c.572.926-.179,1.948-1.007,2.424a2.024,2.024,0,0,1-1.167.37A2.028,2.028,0,0,1-683.564-649.922Zm41.752-24.338c-1.3-.891-1.946-2.677-.854-4.808a4.184,4.184,0,0,1,5.028-2.28c1.646.706,2.732,3.052,1.181,5.449a4.4,4.4,0,0,1-3.6,2.162A3.084,3.084,0,0,1-641.812-674.259Zm8.365-3.367a2.5,2.5,0,0,1,1.855-2.788c1.134-.176,2.083.958,2.158,2.317a2.51,2.51,0,0,1-1.819,2.841,1.773,1.773,0,0,1-.192.01C-632.6-675.246-633.359-676.414-633.447-677.626Zm5.443-1.189c-.173-.984.213-2.4,1.368-2.64,1.238-.265,2.152,1.113,2.169,2.222a2.253,2.253,0,0,1-1.48,2.348,1.313,1.313,0,0,1-.242.022C-626.993-676.862-627.784-677.6-628-678.815Zm4.647-2.126a2.137,2.137,0,0,1,.144-2.783c.948-.648,2.136-.013,2.761.99s.607,2.321-.283,2.853a2.06,2.06,0,0,1-.745.14A2.069,2.069,0,0,1-623.357-680.941Zm-15.539-5.694c-1.057-8.721,7.136-8.347,4.874-14.26-.878-2.276-4.244-6.88-1.614-9.855a5.517,5.517,0,0,1,5.3-1.673c2.412.446,4.486,2.344,6.374,4.412,2.741,3.009,4.678,8.291,4.858,13.154a12.612,12.612,0,0,1-2.4,8.351,11.787,11.787,0,0,1-7.162,4.522,11.754,11.754,0,0,1-2.833.352C-635.324-681.634-638.534-683.6-638.9-686.635Zm19.607,2.446c-.74-.6-1.316-1.733-.6-2.555a2.058,2.058,0,0,1,2.791.065c1.014.8,1.174,2.024.45,2.665a2.024,2.024,0,0,1-1.218.406A2.027,2.027,0,0,1-619.289-684.189ZM-660.264-712c-1.192-2.547.185-4.689,1.887-5.157a4.123,4.123,0,0,1,4.6,2.9c.779,2.227-.1,3.882-1.481,4.576a2.965,2.965,0,0,1-1.328.306A4.207,4.207,0,0,1-660.264-712Zm-5.165-.075a2.473,2.473,0,0,1-1.392-3.018c.256-1.317,1.336-2.294,2.419-1.97a2.456,2.456,0,0,1,1.433,2.971,2.366,2.366,0,0,1-2.048,2.069A1.7,1.7,0,0,1-665.429-712.077Zm-4.959-2.3a2.224,2.224,0,0,1-1.128-2.491c.167-1.081,1.245-2.3,2.417-1.877,1.093.394,1.28,1.825.978,2.76a2.147,2.147,0,0,1-1.855,1.675A1.3,1.3,0,0,1-670.388-714.381Zm-4.683-3.627a2.017,2.017,0,0,1,.11-2.823c.747-.894,1.991-1.353,2.828-.594a2.107,2.107,0,0,1-.235,2.736,2.036,2.036,0,0,1-1.716.937A2.033,2.033,0,0,1-675.071-718.008Zm8.023-.986a11.6,11.6,0,0,1-6.379-5.378,12.426,12.426,0,0,1-1.212-8.474c.833-4.721,3.434-9.614,6.516-12.181,2.121-1.763,4.4-3.335,6.816-3.444a5.436,5.436,0,0,1,4.945,2.347c2.165,3.258-1.74,7.3-2.905,9.4-3.006,5.467,5.04,6.206,2.832,14.575-.663,2.533-3.311,3.983-6.443,3.983A11.274,11.274,0,0,1-667.049-718.994Zm-11.45-3.6c-.621-.724-.3-1.9.8-2.541a2.028,2.028,0,0,1,2.732.314c.586.9-.129,1.923-.932,2.412a1.994,1.994,0,0,1-1.191.394A1.992,1.992,0,0,1-678.5-722.594Zm40.513-25.007c-1.3-.845-1.984-2.588-.961-4.713a4.121,4.121,0,0,1,4.9-2.37c1.639.654,2.768,2.938,1.3,5.336a4.31,4.31,0,0,1-3.581,2.22A3.022,3.022,0,0,1-637.986-747.6Zm8.154-3.524a2.458,2.458,0,0,1,1.758-2.791c1.112-.2,2.075.891,2.183,2.228a2.475,2.475,0,0,1-1.721,2.843,1.734,1.734,0,0,1-.232.016C-628.962-748.829-629.717-749.948-629.832-751.126Zm5.332-1.306c-.2-.964.15-2.365,1.282-2.633,1.211-.292,2.146,1.042,2.191,2.135a2.222,2.222,0,0,1-1.4,2.349,1.3,1.3,0,0,1-.27.028C-623.478-750.552-624.256-751.253-624.5-752.432Zm4.523-2.208a2.107,2.107,0,0,1,.073-2.745c.917-.661,2.1-.065,2.744.905a2.014,2.014,0,0,1-.207,2.817,2.032,2.032,0,0,1-.783.157A2.038,2.038,0,0,1-619.978-754.639Zm-15.445-5.222c-1.258-8.563,6.82-8.4,4.445-14.165-.922-2.22-4.352-6.671-1.835-9.666a5.434,5.434,0,0,1,5.177-1.779c2.387.379,4.477,2.2,6.387,4.185,2.776,2.9,4.814,8.049,5.113,12.834a12.424,12.424,0,0,1-2.153,8.284,11.6,11.6,0,0,1-6.942,4.631,11.526,11.526,0,0,1-3.058.42C-631.936-755.117-635-756.951-635.422-759.861Zm19.371,1.921c-.742-.576-1.339-1.674-.656-2.5a2.028,2.028,0,0,1,2.75-.006c1.02.762,1.207,1.965.509,2.615a2,2,0,0,1-1.239.43A2,2,0,0,1-616.052-757.94Zm-40.2-26.909c-1.223-2.485.091-4.621,1.758-5.115a4.06,4.06,0,0,1,4.586,2.768c.81,2.178-.021,3.825-1.371,4.536a2.927,2.927,0,0,1-1.364.328A4.16,4.16,0,0,1-656.249-784.85Zm-5.089.027a2.435,2.435,0,0,1-1.429-2.945c.227-1.3,1.271-2.285,2.344-1.987a2.422,2.422,0,0,1,1.47,2.9,2.318,2.318,0,0,1-2.009,2.077A1.674,1.674,0,0,1-661.337-784.823Zm-4.927-2.172a2.19,2.19,0,0,1-1.159-2.431c.143-1.067,1.181-2.291,2.343-1.9,1.085.366,1.3,1.771,1.019,2.7a2.1,2.1,0,0,1-1.821,1.685A1.281,1.281,0,0,1-666.265-786.994Zm-4.682-3.481a1.983,1.983,0,0,1,.053-2.781c.716-.9,1.933-1.372,2.773-.64a2.074,2.074,0,0,1-.178,2.7,2.005,2.005,0,0,1-1.71.955A2,2,0,0,1-670.946-790.475Zm7.88-1.126a11.428,11.428,0,0,1-6.386-5.172,12.229,12.229,0,0,1-1.359-8.32c.726-4.666,3.194-9.535,6.178-12.122,2.054-1.778,4.269-3.37,6.644-3.525a5.358,5.358,0,0,1,4.917,2.214c2.2,3.167-1.571,7.221-2.677,9.314-2.853,5.441,5.085,6.012,3.074,14.295-.617,2.561-3.3,4.051-6.468,4.051A11.155,11.155,0,0,1-663.066-791.6Zm-11.345-3.321c-.625-.7-.332-1.863.737-2.518a2,2,0,0,1,2.7.256c.595.872-.089,1.9-.87,2.392a1.967,1.967,0,0,1-1.206.412A1.963,1.963,0,0,1-674.411-794.922Z" transform="translate(684.369 821.278)" fill="#4fc1b7" stroke="rgba(0,0,0,0)" stroke-miterlimit="10" stroke-width="1"/>
</svg>
