<svg xmlns="http://www.w3.org/2000/svg" width="766.671" height="932.953" viewBox="0 0 766.671 932.953">
  <g data-name="Group 1448">
    <g fill="rgba(79,193,183,0.3)" data-name="Group 943">
      <g data-name="Group 941">
        <path d="M136.305 13.313c.392-.017.654-.445.537-.956a.836.836 0 0 0-.864-.733c-.436.078-.542.582-.462.961a.823.823 0 0 0 .789.728Z" data-name="Path 140-49"/>
        <path d="M133.96 13.577c.417.059.759-.353.817-.829s-.155-.98-.619-1.017a.867.867 0 0 0-.756.842.841.841 0 0 0 .558 1.004Z" data-name="Path 139-49"/>
        <path d="M127.978 10.824a1.587 1.587 0 0 1-2.11-.849 1.438 1.438 0 0 1 .957-1.736 1.7 1.7 0 0 1 2.169.563 1.459 1.459 0 0 1-1.016 2.022Z" data-name="Path 136-49"/>
        <path d="M129.459 12.354a1.02 1.02 0 0 0 1.3-.433.879.879 0 0 0-.09-1.282 1.012 1.012 0 0 0-1.3.407.911.911 0 0 0 .09 1.308Z" data-name="Path 137-49"/>
        <path d="M132.498 11.574a.9.9 0 0 0-1.105.485.806.806 0 0 0 .157 1.134.915.915 0 0 0 1.066-.363c.278-.355.341-1.024-.118-1.256Z" data-name="Path 138-49"/>
        <path d="M139.228.85a2.239 2.239 0 0 0-2.1-.823c-1.589.269-1.7 2.581-2 3.524-.794 2.445-3.285.236-5.176 3.26-.82 1.3.166 3.2 2.045 4.078a4.781 4.781 0 0 0 3.415.4 5.119 5.119 0 0 0 2.887-2.026 8.948 8.948 0 0 0 1.821-5.393 5.092 5.092 0 0 0-.892-3.02Z" data-name="Path 141-49"/>
      </g>
      <g data-name="Group 942">
        <path d="M107.244 7.763c.383.061.881-.07.936-.508a.834.834 0 0 0-.774-.828c-.516-.091-.93.192-.928.584a.823.823 0 0 0 .766.752Z" data-name="Path 140-49"/>
        <path d="M107.36 9.874a.869.869 0 0 0 .8-.8c-.06-.462-.573-.65-1.046-.568s-.868.444-.788.857a.841.841 0 0 0 1.034.511Z" data-name="Path 139-49"/>
        <path d="M111.343 14.088a1.7 1.7 0 0 1 .669 2.139 1.436 1.436 0 0 1-1.686 1.041 1.586 1.586 0 0 1-.952-2.065 1.46 1.46 0 0 1 1.969-1.115Z" data-name="Path 136-49"/>
        <path d="M109.084 13.825a1.014 1.014 0 0 0 .343-1.316.879.879 0 0 0-1.285-.027 1.019 1.019 0 0 0-.369 1.319.911.911 0 0 0 1.311.024Z" data-name="Path 137-49"/>
        <path d="M107.142 10.671a.915.915 0 0 0-.31 1.083.806.806 0 0 0 1.14.1.9.9 0 0 0 .43-1.128c-.254-.445-.919-.349-1.26-.055Z" data-name="Path 138-49"/>
        <path d="M115.722 2.744a8.948 8.948 0 0 0-5.3 2.084 5.123 5.123 0 0 0-1.882 2.984 4.782 4.782 0 0 0 .567 3.391c.966 1.833 2.911 2.725 4.174 1.842 2.927-2.038.6-4.417 3-5.331.927-.349 3.231-.574 3.421-2.175a2.237 2.237 0 0 0-.926-2.057 5.1 5.1 0 0 0-3.054-.738Z" data-name="Path 141-49"/>
      </g>
    </g>
    <g fill="rgba(79,193,183,0.3)" data-name="Group 946">
      <g data-name="Group 944">
        <path d="M114.978 37.323c.406.026.724-.385.661-.925a.865.865 0 0 0-.808-.852c-.457.031-.624.538-.584.938a.854.854 0 0 0 .731.839Z" data-name="Path 1538"/>
        <path d="M112.535 37.331c.423.107.822-.278.936-.763s-.05-1.027-.524-1.117a.9.9 0 0 0-.874.783.871.871 0 0 0 .462 1.097Z" data-name="Path 1539"/>
        <path d="M106.678 33.821a1.644 1.644 0 0 1-2.078-1.111 1.49 1.49 0 0 1 1.181-1.681 1.76 1.76 0 0 1 2.172.823 1.512 1.512 0 0 1-1.275 1.969Z" data-name="Path 1540"/>
        <path d="M108.035 35.565a1.057 1.057 0 0 0 1.387-.3.911.911 0 0 0 .051-1.331 1.049 1.049 0 0 0-1.382.274.944.944 0 0 0-.056 1.357Z" data-name="Path 1541"/>
        <path d="M111.254 35.103a.935.935 0 0 0-1.193.375.836.836 0 0 0 .034 1.187.949.949 0 0 0 1.139-.255c.326-.335.466-1.017.02-1.307Z" data-name="Path 1542"/>
        <path d="M119.395 24.809a2.322 2.322 0 0 0-2.071-1.085c-1.669.1-2.044 2.469-2.462 3.406-1.093 2.43-3.412-.125-5.7 2.778-.992 1.252-.189 3.32 1.649 4.432a4.958 4.958 0 0 0 3.474.8 5.306 5.306 0 0 0 3.2-1.764 9.286 9.286 0 0 0 2.483-5.352 5.286 5.286 0 0 0-.573-3.215Z" data-name="Path 1543"/>
      </g>
      <g data-name="Group 945">
        <path d="M85.659 28.336c.388.105.915.026 1.022-.419a.866.866 0 0 0-.7-.94c-.522-.152-.981.093-1.023.5a.854.854 0 0 0 .701.859Z" data-name="Path 1544"/>
        <path d="M85.541 30.523a.9.9 0 0 0 .918-.73c-.01-.482-.518-.734-1.014-.7s-.944.36-.908.794a.869.869 0 0 0 1.004.636Z" data-name="Path 1545"/>
        <path d="M89.172 35.315a1.76 1.76 0 0 1 .449 2.279 1.491 1.491 0 0 1-1.855.883 1.644 1.644 0 0 1-.748-2.233 1.512 1.512 0 0 1 2.154-.929Z" data-name="Path 1546"/>
        <path d="M86.878 34.789a1.05 1.05 0 0 0 .5-1.317.912.912 0 0 0-1.322-.173 1.057 1.057 0 0 0-.528 1.318.945.945 0 0 0 1.35.172Z" data-name="Path 1547"/>
        <path d="M85.227 31.321a.949.949 0 0 0-.442 1.081.837.837 0 0 0 1.164.232c.38-.181.769-.659.57-1.114-.212-.488-.907-.464-1.292-.199Z" data-name="Path 1548"/>
        <path d="M94.961 24.112a9.284 9.284 0 0 0-5.693 1.552 5.307 5.307 0 0 0-2.274 2.863 4.953 4.953 0 0 0 .2 3.558c.789 2 2.693 3.135 4.094 2.367 3.245-1.77 1.113-4.484 3.692-5.155.994-.256 3.394-.229 3.77-1.857a2.322 2.322 0 0 0-.723-2.224 5.285 5.285 0 0 0-3.066-1.104Z" data-name="Path 1549"/>
      </g>
    </g>
    <g fill="rgba(79,193,183,0.3)" data-name="Group 949">
      <g data-name="Group 947">
        <path d="M91.57 59.215c.422.011.735-.427.649-.983a.9.9 0 0 0-.87-.85c-.472.05-.624.581-.568.993a.886.886 0 0 0 .789.84Z" data-name="Path 1550"/>
        <path d="M89.041 59.318c.441.1.839-.319.937-.825s-.091-1.061-.585-1.136a.931.931 0 0 0-.873.844.9.9 0 0 0 .521 1.117Z" data-name="Path 1551"/>
        <path d="M82.848 55.915a1.7 1.7 0 0 1-2.193-1.068 1.544 1.544 0 0 1 1.157-1.786 1.823 1.823 0 0 1 2.279.768 1.566 1.566 0 0 1-1.243 2.086Z" data-name="Path 1552"/>
        <path d="M84.316 57.666a1.093 1.093 0 0 0 1.423-.364.943.943 0 0 0 0-1.38 1.087 1.087 0 0 0-1.419.337.977.977 0 0 0-.004 1.407Z" data-name="Path 1553"/>
        <path d="M87.628 57.063a.969.969 0 0 0-1.22.435.866.866 0 0 0 .082 1.226.982.982 0 0 0 1.169-.308c.324-.359.442-1.072-.031-1.353Z" data-name="Path 1554"/>
        <path d="M95.65 46.097a2.4 2.4 0 0 0-2.185-1.042c-1.723.167-2.018 2.633-2.414 3.62-1.036 2.556-3.535 0-5.79 3.1-.976 1.334-.066 3.442 1.879 4.522a5.135 5.135 0 0 0 3.625.687 5.5 5.5 0 0 0 3.245-1.949 9.606 9.606 0 0 0 2.36-5.634 5.465 5.465 0 0 0-.72-3.304Z" data-name="Path 1555"/>
      </g>
      <g data-name="Group 948">
        <path d="M60.885 51.059c.405.094.948-.008 1.041-.473a.9.9 0 0 0-.765-.945c-.546-.137-1.011.134-1.039.555a.884.884 0 0 0 .763.863Z" data-name="Path 1556"/>
        <path d="M60.848 53.327a.932.932 0 0 0 .922-.791c-.029-.5-.564-.739-1.077-.688s-.962.409-.908.857a.9.9 0 0 0 1.063.622Z" data-name="Path 1557"/>
        <path d="M64.791 58.144a1.824 1.824 0 0 1 .554 2.341 1.544 1.544 0 0 1-1.885.986 1.7 1.7 0 0 1-.861-2.283 1.566 1.566 0 0 1 2.192-1.044Z" data-name="Path 1558"/>
        <path d="M62.393 57.688a1.087 1.087 0 0 0 .467-1.382.944.944 0 0 0-1.374-.127 1.1 1.1 0 0 0-.495 1.384.978.978 0 0 0 1.402.125Z" data-name="Path 1559"/>
        <path d="M60.555 54.164a.982.982 0 0 0-.415 1.136.866.866 0 0 0 1.213.2c.385-.2.77-.712.546-1.175-.238-.502-.957-.45-1.344-.161Z" data-name="Path 1560"/>
        <path d="M70.344 46.327a9.606 9.606 0 0 0-5.829 1.828 5.491 5.491 0 0 0-2.241 3.05 5.13 5.13 0 0 0 .348 3.673c.9 2.036 2.909 3.139 4.328 2.29 3.288-1.958.977-4.683 3.619-5.478 1.018-.3 3.5-.368 3.827-2.068a2.4 2.4 0 0 0-.834-2.272 5.466 5.466 0 0 0-3.218-1.023Z" data-name="Path 1561"/>
      </g>
    </g>
    <g fill="rgba(79,193,183,0.3)" data-name="Group 952">
      <g data-name="Group 950">
        <path d="M70.391 83.119c.434-.037.706-.522.554-1.084a.928.928 0 0 0-.992-.774c-.479.1-.574.668-.469 1.085a.914.914 0 0 0 .907.773Z" data-name="Path 1562"/>
        <path d="M67.803 83.515c.464.047.826-.425.869-.955s-.215-1.08-.732-1.1a.964.964 0 0 0-.8.968.931.931 0 0 0 .663 1.087Z" data-name="Path 1563"/>
        <path d="M61.049 80.727a1.76 1.76 0 0 1-2.376-.848 1.6 1.6 0 0 1 .984-1.967 1.885 1.885 0 0 1 2.43.528 1.619 1.619 0 0 1-1.038 2.287Z" data-name="Path 1564"/>
        <path d="M62.758 82.358a1.13 1.13 0 0 0 1.421-.538.976.976 0 0 0-.157-1.418 1.124 1.124 0 0 0-1.42.509 1.011 1.011 0 0 0 .156 1.447Z" data-name="Path 1565"/>
        <path d="M66.093 81.359c-.483-.222-1 .184-1.2.586-.273.55-.139 1.074.224 1.251a1.014 1.014 0 0 0 1.166-.45c.288-.402.329-1.15-.19-1.387Z" data-name="Path 1566"/>
        <path d="M73.078 69.17a2.485 2.485 0 0 0-2.365-.82c-1.751.368-1.772 2.937-2.067 4-.772 2.746-3.633.408-5.6 3.844-.85 1.483.327 3.545 2.449 4.432a5.313 5.313 0 0 0 3.8.292 5.682 5.682 0 0 0 3.112-2.375 9.937 9.937 0 0 0 1.781-6.061 5.661 5.661 0 0 0-1.11-3.312Z" data-name="Path 1567"/>
      </g>
      <g data-name="Group 951">
        <path d="M37.921 78.25c.427.05.974-.117 1.016-.606a.927.927 0 0 0-.895-.883c-.576-.079-1.023.253-1 .689a.915.915 0 0 0 .879.8Z" data-name="Path 1568"/>
        <path d="M38.143 80.585a.964.964 0 0 0 .856-.919c-.087-.509-.664-.695-1.185-.584s-.942.53-.836.985a.933.933 0 0 0 1.165.518Z" data-name="Path 1569"/>
        <path d="M42.746 85.082a1.884 1.884 0 0 1 .837 2.342 1.6 1.6 0 0 1-1.825 1.229 1.761 1.761 0 0 1-1.146-2.247 1.619 1.619 0 0 1 2.134-1.324Z" data-name="Path 1570"/>
        <path d="M40.229 84.89a1.124 1.124 0 0 0 .322-1.474.975.975 0 0 0-1.426.027 1.13 1.13 0 0 0-.351 1.478 1.011 1.011 0 0 0 1.455-.031Z" data-name="Path 1571"/>
        <path d="M37.937 81.479a1.015 1.015 0 0 0-.3 1.214.9.9 0 0 0 1.27.061 1 1 0 0 0 .426-1.269c-.298-.484-1.031-.348-1.396-.006Z" data-name="Path 1572"/>
        <path d="M47.101 72.303a9.943 9.943 0 0 0-5.782 2.546 5.682 5.682 0 0 0-1.954 3.395 5.309 5.309 0 0 0 .778 3.736c1.153 1.99 3.349 2.892 4.71 1.858 3.156-2.389.469-4.925 3.092-6.044 1.013-.428 3.558-.78 3.7-2.564a2.483 2.483 0 0 0-1.118-2.239 5.652 5.652 0 0 0-3.426-.688Z" data-name="Path 1573"/>
      </g>
    </g>
    <g fill="rgba(79,193,183,0.3)" data-name="Group 955">
      <g data-name="Group 953">
        <path d="M52.943 109.344c.433-.124.612-.67.347-1.209a.956.956 0 0 0-1.157-.589c-.465.2-.451.791-.262 1.193a.944.944 0 0 0 1.072.605Z" data-name="Path 1574"/>
        <path d="M50.397 110.253c.48-.043.754-.593.693-1.14s-.431-1.052-.959-.971a1 1 0 0 0-.621 1.139.961.961 0 0 0 .887.972Z" data-name="Path 1575"/>
        <path d="M42.999 108.758a1.818 1.818 0 0 1-2.577-.39 1.649 1.649 0 0 1 .61-2.189 1.946 1.946 0 0 1 2.568.056 1.671 1.671 0 0 1-.601 2.523Z" data-name="Path 1576"/>
        <path d="M45.053 110.076a1.168 1.168 0 0 0 1.335-.826 1.009 1.009 0 0 0-.439-1.407 1.16 1.16 0 0 0-1.339.8 1.044 1.044 0 0 0 .443 1.433Z" data-name="Path 1577"/>
        <path d="M48.238 108.405c-.533-.131-.98.384-1.1.832-.169.611.071 1.116.474 1.224a1.048 1.048 0 0 0 1.093-.687c.212-.469.105-1.23-.467-1.369Z" data-name="Path 1578"/>
        <path d="M52.92 94.667a2.568 2.568 0 0 0-2.56-.365c-1.7.719-1.218 3.328-1.307 4.46-.242 2.936-3.6 1.13-4.916 5-.57 1.671 1.03 3.53 3.357 4.011a5.48 5.48 0 0 0 3.915-.455 5.873 5.873 0 0 0 2.687-3.021 10.269 10.269 0 0 0 .61-6.5 5.848 5.848 0 0 0-1.786-3.13Z" data-name="Path 1579"/>
      </g>
      <g data-name="Group 954">
        <path d="M19.059 110.809c.443-.033.964-.31.911-.814a.957.957 0 0 0-1.081-.719c-.6.034-.988.458-.883.9a.945.945 0 0 0 1.053.633Z" data-name="Path 1580"/>
        <path d="M19.745 113.133a1 1 0 0 0 .687-1.1.946.946 0 0 0-1.317-.358c-.506.215-.85.724-.653 1.164a.963.963 0 0 0 1.283.294Z" data-name="Path 1581"/>
        <path d="M25.3 116.785a1.948 1.948 0 0 1 1.31 2.21 1.649 1.649 0 0 1-1.608 1.606 1.818 1.818 0 0 1-1.6-2.053 1.673 1.673 0 0 1 1.898-1.763Z" data-name="Path 1582"/>
        <path d="M22.71 117.086a1.159 1.159 0 0 0 .035-1.557 1.006 1.006 0 0 0-1.44.308 1.168 1.168 0 0 0-.064 1.569 1.044 1.044 0 0 0 1.469-.32Z" data-name="Path 1583"/>
        <path d="M19.713 114.08a1.049 1.049 0 0 0-.062 1.29.925.925 0 0 0 1.3-.188 1.034 1.034 0 0 0 .183-1.371c-.403-.432-1.119-.15-1.421.269Z" data-name="Path 1584"/>
        <path d="M27.194 102.969a10.261 10.261 0 0 0-5.36 3.722 5.868 5.868 0 0 0-1.313 3.824 5.49 5.49 0 0 0 1.526 3.634c1.562 1.79 3.967 2.272 5.143.954 2.728-3.044-.5-5.085 1.943-6.738.942-.633 3.453-1.492 3.243-3.328a2.568 2.568 0 0 0-1.575-2.051 5.843 5.843 0 0 0-3.607-.017Z" data-name="Path 1585"/>
      </g>
    </g>
    <g fill="rgba(79,193,183,0.3)" data-name="Group 958">
      <g data-name="Group 956">
        <path d="M39.996 139.701a.838.838 0 0 0 .131-1.291.989.989 0 0 0-1.284-.386c-.435.29-.312.887-.047 1.26a.976.976 0 0 0 1.2.417Z" data-name="Path 1586"/>
        <path d="M37.578 141.095a.983.983 0 0 0 .494-1.285c-.163-.544-.632-.989-1.153-.81a1.027 1.027 0 0 0-.421 1.271.993.993 0 0 0 1.08.824Z" data-name="Path 1587"/>
        <path d="M29.792 140.937a1.876 1.876 0 0 1-2.688.077 1.7 1.7 0 0 1 .217-2.334 2.01 2.01 0 0 1 2.618-.416 1.726 1.726 0 0 1-.147 2.673Z" data-name="Path 1588"/>
        <path d="M32.12 141.897a1.207 1.207 0 0 0 1.2-1.084 1.039 1.039 0 0 0-.705-1.347 1.2 1.2 0 0 0-1.213 1.054 1.077 1.077 0 0 0 .718 1.377Z" data-name="Path 1589"/>
        <path d="M35.047 139.615c-.566-.034-.925.571-.97 1.048-.058.651.277 1.12.707 1.156a1.084 1.084 0 0 0 .984-.9c.133-.515-.115-1.269-.721-1.304Z" data-name="Path 1590"/>
        <path d="M37.278 124.805a2.649 2.649 0 0 0-2.667.1c-1.6 1.043-.624 3.6-.507 4.768.3 3.027-3.451 1.81-4.072 5.982-.271 1.8 1.695 3.4 4.146 3.456a5.658 5.658 0 0 0 3.892-1.182 6.06 6.06 0 0 0 2.173-3.562 10.59 10.59 0 0 0-.576-6.709 6.02 6.02 0 0 0-2.389-2.853Z" data-name="Path 1591"/>
      </g>
      <g data-name="Group 957">
        <path d="M5.861 147.421c.444-.115.922-.492.775-.994a.988.988 0 0 0-1.231-.531c-.6.145-.918.647-.731 1.072a.975.975 0 0 0 1.187.453Z" data-name="Path 1592"/>
        <path d="M6.984 149.655a1.027 1.027 0 0 0 .5-1.244 1.133 1.133 0 0 0-1.853 1.18.993.993 0 0 0 1.353.064Z" data-name="Path 1593"/>
        <path d="M13.296 152.344a2.01 2.01 0 0 1 1.737 2 1.7 1.7 0 0 1-1.337 1.926 1.876 1.876 0 0 1-2.008-1.789 1.726 1.726 0 0 1 1.608-2.137Z" data-name="Path 1594"/>
        <path d="M10.722 153.124a1.2 1.2 0 0 0-.25-1.588 1.04 1.04 0 0 0-1.407.578 1.207 1.207 0 0 0 .224 1.605 1.079 1.079 0 0 0 1.433-.595Z" data-name="Path 1595"/>
        <path d="M7.126 150.623a1.083 1.083 0 0 0 .174 1.321c.352.249.911.106 1.285-.43a1.068 1.068 0 0 0-.067-1.426c-.487-.364-1.162.056-1.392.535Z" data-name="Path 1596"/>
        <path d="M12.678 137.965a10.59 10.59 0 0 0-4.758 4.764 6.058 6.058 0 0 0-.63 4.125 5.658 5.658 0 0 0 2.218 3.409c1.915 1.531 4.445 1.578 5.4.024 2.211-3.593-1.439-5.073.734-7.2.84-.817 3.232-2.15 2.681-3.976a2.65 2.65 0 0 0-1.976-1.793 6.033 6.033 0 0 0-3.669.647Z" data-name="Path 1597"/>
      </g>
    </g>
    <g fill="rgba(79,193,183,0.3)" data-name="Group 961">
      <g data-name="Group 959">
        <path d="M33.749 171.431a.863.863 0 0 0-.183-1.325 1.018 1.018 0 0 0-1.38-.074c-.366.4-.1.964.26 1.274a1 1 0 0 0 1.303.125Z" data-name="Path 1598"/>
        <path d="M31.667 173.416a1.167 1.167 0 0 0-1.17-1.938 1.058 1.058 0 0 0-.112 1.375 1.023 1.023 0 0 0 1.282.563Z" data-name="Path 1599"/>
        <path d="M23.828 175.154a1.933 1.933 0 0 1-2.674.732 1.753 1.753 0 0 1-.351-2.392 2.07 2.07 0 0 1 2.521-1.053 1.779 1.779 0 0 1 .504 2.713Z" data-name="Path 1600"/>
        <path d="M26.394 175.544a1.243 1.243 0 0 0 .942-1.379c-.017-.674-.47-1.249-1.034-1.179a1.235 1.235 0 0 0-.959 1.352c.026.639.422 1.26 1.051 1.206Z" data-name="Path 1601"/>
        <path d="M28.77 172.55c-.575.1-.787.8-.716 1.286.1.666.55 1.054.989.986a1.116 1.116 0 0 0 .767-1.14c.008-.549-.424-1.245-1.04-1.132Z" data-name="Path 1602"/>
        <path d="M27.396 157.171a2.731 2.731 0 0 0-2.647.75c-1.345 1.433.252 3.761.653 4.9 1.032 2.96-3.016 2.653-2.622 6.984.166 1.872 2.525 2.989 4.994 2.452a5.831 5.831 0 0 0 3.611-2.131 6.239 6.239 0 0 0 1.309-4.1 10.918 10.918 0 0 0-2.209-6.581 6.217 6.217 0 0 0-3.089-2.274Z" data-name="Path 1603"/>
      </g>
      <g data-name="Group 960">
        <path d="M1.433 187.476c.417-.223.8-.718.535-1.185a1.018 1.018 0 0 0-1.362-.232c-.569.292-.763.872-.472 1.252a1.006 1.006 0 0 0 1.299.165Z" data-name="Path 1604"/>
        <path d="M3.102 189.444a1.058 1.058 0 0 0 .194-1.366 1.166 1.166 0 0 0-1.568 1.632 1.023 1.023 0 0 0 1.374-.266Z" data-name="Path 1605"/>
        <path d="M10.078 190.595a2.07 2.07 0 0 1 2.227 1.584 1.753 1.753 0 0 1-.87 2.255 1.934 1.934 0 0 1-2.447-1.3 1.779 1.779 0 0 1 1.09-2.539Z" data-name="Path 1606"/>
        <path d="M7.691 192.005a1.235 1.235 0 0 0-.637-1.53c-.535-.193-1.1.268-1.268.922a1.243 1.243 0 0 0 .614 1.553c.603.186 1.125-.332 1.291-.945Z" data-name="Path 1607"/>
        <path d="M3.478 190.375a1.117 1.117 0 0 0 .5 1.281c.413.164.938-.115 1.183-.744a1.1 1.1 0 0 0-.415-1.412c-.578-.246-1.153.338-1.268.875Z" data-name="Path 1608"/>
        <path d="M5.961 176.344a10.913 10.913 0 0 0-3.606 5.931 6.243 6.243 0 0 0 .373 4.285 5.83 5.83 0 0 0 3.052 2.875c2.29 1.068 4.837.5 5.412-1.29 1.34-4.137-2.677-4.731-1.017-7.39.642-1.023 2.714-2.941 1.717-4.636a2.729 2.729 0 0 0-2.416-1.314 6.212 6.212 0 0 0-3.515 1.539Z" data-name="Path 1609"/>
      </g>
    </g>
    <g fill="rgba(79,193,183,0.3)" data-name="Group 964">
      <g data-name="Group 962">
        <path d="M33.854 204.97c.283-.4.058-.993-.54-1.268a1.049 1.049 0 0 0-1.392.3c-.256.492.164.984.6 1.2a1.034 1.034 0 0 0 1.332-.232Z" data-name="Path 1610"/>
        <path d="M32.32 207.505a1.2 1.2 0 0 0-1.686-1.611 1.091 1.091 0 0 0 .26 1.4 1.054 1.054 0 0 0 1.426.211Z" data-name="Path 1611"/>
        <path d="M24.998 211.35a1.991 1.991 0 0 1-2.46 1.449 1.806 1.806 0 0 1-.995-2.282 2.132 2.132 0 0 1 2.222-1.728 1.832 1.832 0 0 1 1.233 2.561Z" data-name="Path 1612"/>
        <path d="M27.655 211.044a1.28 1.28 0 0 0 .564-1.625c-.2-.665-.8-1.114-1.346-.892a1.272 1.272 0 0 0-.588 1.6c.198.631.758 1.141 1.37.917Z" data-name="Path 1613"/>
        <path d="M29.207 207.427a1.132 1.132 0 0 0-.364 1.471c.279.636.831.9 1.249.713a1.15 1.15 0 0 0 .455-1.34c-.141-.548-.758-1.127-1.34-.844Z" data-name="Path 1614"/>
        <path d="M23.688 192.512a2.816 2.816 0 0 0-2.429 1.459c-.95 1.789 1.266 3.671 1.973 4.7 1.825 2.663-2.282 3.452-.72 7.65.671 1.815 3.316 2.289 5.626 1.089a6.01 6.01 0 0 0 3.014-3.094 6.428 6.428 0 0 0 .194-4.426 11.246 11.246 0 0 0-3.968-5.946 6.4 6.4 0 0 0-3.69-1.432Z" data-name="Path 1615"/>
      </g>
      <g data-name="Group 963">
        <path d="M6.067 229.644c.354-.335.6-.931.211-1.322a1.05 1.05 0 0 0-1.417.136.89.89 0 0 0-.13 1.372 1.035 1.035 0 0 0 1.336-.186Z" data-name="Path 1616"/>
        <path d="M8.256 231.144a1.09 1.09 0 0 0-.176-1.41 1.2 1.2 0 0 0-1.118 2.046 1.055 1.055 0 0 0 1.294-.636Z" data-name="Path 1617"/>
        <path d="M15.504 230.411a2.133 2.133 0 0 1 2.641.972 1.806 1.806 0 0 1-.256 2.477 1.991 1.991 0 0 1-2.784-.635 1.832 1.832 0 0 1 .399-2.814Z" data-name="Path 1618"/>
        <path d="M13.51 232.458a1.272 1.272 0 0 0-1.046-1.349c-.584-.048-1.024.564-1.012 1.258a1.281 1.281 0 0 0 1.03 1.378c.65.022 1.029-.634 1.028-1.287Z" data-name="Path 1619"/>
        <path d="M8.884 231.974a1.148 1.148 0 0 0 .84 1.139c.454.052.9-.367.974-1.058.052-.506-.2-1.21-.793-1.291-.64-.089-1.054.646-1.021 1.21Z" data-name="Path 1620"/>
        <path d="M7.561 217.357a11.24 11.24 0 0 0-1.983 6.869 6.433 6.433 0 0 0 1.528 4.159 6.01 6.01 0 0 0 3.81 2.033c2.565.443 4.943-.81 5.031-2.744.214-4.474-3.938-3.979-3.007-7.071.363-1.19 1.9-3.656.455-5.072a2.816 2.816 0 0 0-2.757-.654 6.406 6.406 0 0 0-3.077 2.48Z" data-name="Path 1621"/>
      </g>
    </g>
    <g fill="rgba(79,193,183,0.3)" data-name="Group 967">
      <g data-name="Group 965">
        <path d="M43.694 236.663c.156-.483-.243-.994-.915-1.083a1.079 1.079 0 0 0-1.278.717c-.1.562.46.918.955.993a1.065 1.065 0 0 0 1.238-.627Z" data-name="Path 1622"/>
        <path d="M42.955 239.622a1.237 1.237 0 0 0-2.146-1.073 1.119 1.119 0 0 0 .679 1.3 1.085 1.085 0 0 0 1.467-.227Z" data-name="Path 1623"/>
        <path d="M36.92 245.623a2.049 2.049 0 0 1-1.98 2.171 1.857 1.857 0 0 1-1.67-1.942 2.2 2.2 0 0 1 1.661-2.374 1.886 1.886 0 0 1 1.989 2.145Z" data-name="Path 1624"/>
        <path d="M39.442 244.522a1.319 1.319 0 0 0 .062-1.77 1.136 1.136 0 0 0-1.594-.469 1.309 1.309 0 0 0-.092 1.755 1.178 1.178 0 0 0 1.624.484Z" data-name="Path 1625"/>
        <path d="M39.869 240.488a1.167 1.167 0 0 0 .089 1.558 1.044 1.044 0 0 0 1.445.322 1.185 1.185 0 0 0 .04-1.456c-.304-.496-1.085-.874-1.574-.424Z" data-name="Path 1626"/>
        <path d="M29.919 227.495a2.9 2.9 0 0 0-1.946 2.171c-.392 2.047 2.359 3.226 3.364 4.019 2.6 2.065-1.2 4.087 1.611 7.742 1.211 1.581 3.956 1.245 5.864-.636a6.181 6.181 0 0 0 2.025-3.957 6.618 6.618 0 0 0-1.151-4.411 11.567 11.567 0 0 0-5.71-4.641 6.581 6.581 0 0 0-4.057-.287Z" data-name="Path 1627"/>
      </g>
      <g data-name="Group 966">
        <path d="M23.851 269.357c.247-.436.313-1.1-.193-1.364a1.08 1.08 0 0 0-1.352.564.915.915 0 0 0 .288 1.388 1.065 1.065 0 0 0 1.257-.588Z" data-name="Path 1628"/>
        <path d="M26.459 270.169a1.12 1.12 0 0 0-.6-1.333c-.586-.136-1.046.4-1.161 1.01a1.073 1.073 0 0 0 .682 1.341 1.084 1.084 0 0 0 1.079-1.018Z" data-name="Path 1629"/>
        <path d="M33.363 267.244a2.2 2.2 0 0 1 2.893.155 1.859 1.859 0 0 1 .5 2.514 2.049 2.049 0 0 1-2.93.219 1.885 1.885 0 0 1-.463-2.888Z" data-name="Path 1630"/>
        <path d="M32.024 269.865a1.309 1.309 0 0 0-1.439-1.009 1.136 1.136 0 0 0-.613 1.544 1.317 1.317 0 0 0 1.431 1.042 1.178 1.178 0 0 0 .621-1.577Z" data-name="Path 1631"/>
        <path d="M27.328 270.793a1.182 1.182 0 0 0 1.171.865c.462-.088.774-.635.637-1.336-.1-.514-.561-1.131-1.172-1.03-.655.107-.84.952-.636 1.501Z" data-name="Path 1632"/>
        <path d="M21.593 256.819a11.577 11.577 0 0 0 .134 7.357 6.614 6.614 0 0 0 2.764 3.625 6.18 6.18 0 0 0 4.363.845c2.657-.343 4.615-2.3 4.116-4.224-1.146-4.465-5.08-2.72-5.1-6.042 0-1.28.763-4.173-1.09-5.126a2.9 2.9 0 0 0-2.91.193 6.59 6.59 0 0 0-2.277 3.372Z" data-name="Path 1633"/>
      </g>
    </g>
    <g fill="rgba(79,193,183,0.3)" data-name="Group 970">
      <g data-name="Group 968">
        <path d="M63.312 262.41c-.031-.521-.6-.861-1.281-.7a1.11 1.11 0 0 0-.957 1.163c.111.577.783.709 1.286.6a1.094 1.094 0 0 0 .952-1.063Z" data-name="Path 1634"/>
        <path d="M63.708 265.521c.07-.555-.483-1-1.118-1.07s-1.3.225-1.339.843a1.154 1.154 0 0 0 1.134.988 1.117 1.117 0 0 0 1.323-.761Z" data-name="Path 1635"/>
        <path d="M60.165 273.523a2.108 2.108 0 0 1-1.087 2.82 1.912 1.912 0 0 1-2.326-1.238 2.259 2.259 0 0 1 .706-2.894 1.939 1.939 0 0 1 2.707 1.312Z" data-name="Path 1636"/>
        <path d="M62.17 271.527a1.353 1.353 0 0 0-.6-1.718 1.168 1.168 0 0 0-1.7.145 1.345 1.345 0 0 0 .566 1.715 1.21 1.21 0 0 0 1.734-.142Z" data-name="Path 1637"/>
        <path d="M61.078 267.503a1.2 1.2 0 0 0 .665 1.459 1.073 1.073 0 0 0 1.505-.23 1.218 1.218 0 0 0-.5-1.411c-.484-.361-1.37-.432-1.67.182Z" data-name="Path 1638"/>
        <path d="M46.691 258.765a2.98 2.98 0 0 0-1.054 2.807c.388 2.108 3.464 2.211 4.723 2.6 3.265 1.008.378 4.362 4.433 6.817 1.75 1.063 4.255-.284 5.381-2.8a6.357 6.357 0 0 0 .465-4.546 6.806 6.806 0 0 0-2.749-3.8 11.9 11.9 0 0 0-7.2-2.316 6.772 6.772 0 0 0-3.999 1.238Z" data-name="Path 1639"/>
      </g>
      <g data-name="Group 969">
        <path d="M56.499 301.144c.073-.51-.111-1.169-.694-1.235a1.11 1.11 0 0 0-1.085 1.045c-.112.688.272 1.233.794 1.223a1.1 1.1 0 0 0 .985-1.033Z" data-name="Path 1640"/>
        <path d="M59.301 300.944a1.152 1.152 0 0 0-1.074-1.053c-.612.089-.852.774-.735 1.4s.607 1.144 1.154 1.031a1.116 1.116 0 0 0 .655-1.378Z" data-name="Path 1641"/>
        <path d="M64.826 295.571a2.258 2.258 0 0 1 2.83-.931 1.911 1.911 0 0 1 1.416 2.222 2.107 2.107 0 0 1-2.726 1.3 1.939 1.939 0 0 1-1.52-2.591Z" data-name="Path 1642"/>
        <path d="M64.519 298.579a1.345 1.345 0 0 0-1.754-.43 1.168 1.168 0 0 0-.012 1.708 1.355 1.355 0 0 0 1.76.465 1.21 1.21 0 0 0 .006-1.743Z" data-name="Path 1643"/>
        <path d="M60.366 301.221a1.217 1.217 0 0 0 1.445.392 1.073 1.073 0 0 0 .112-1.518 1.2 1.2 0 0 0-1.507-.55c-.589.347-.449 1.228-.05 1.676Z" data-name="Path 1644"/>
        <path d="M49.657 289.97a11.9 11.9 0 0 0 2.873 7 6.8 6.8 0 0 0 4 2.443 6.358 6.358 0 0 0 4.5-.819c2.418-1.32 3.564-3.922 2.367-5.584-2.765-3.85-5.883-.71-7.143-3.885-.482-1.225-.826-4.283-2.958-4.505a2.979 2.979 0 0 0-2.716 1.271 6.768 6.768 0 0 0-.923 4.079Z" data-name="Path 1645"/>
      </g>
    </g>
    <g fill="rgba(79,193,183,0.3)" data-name="Group 973">
      <g data-name="Group 971">
        <path d="M92.961 284.235c-.16-.512-.815-.71-1.45-.378a1.139 1.139 0 0 0-.667 1.4c.253.548.955.514 1.428.277a1.125 1.125 0 0 0 .689-1.299Z" data-name="Path 1646"/>
        <path d="M94.123 287.244c-.067-.571-.73-.881-1.379-.792s-1.24.545-1.129 1.171a1.186 1.186 0 0 0 1.375.706 1.148 1.148 0 0 0 1.133-1.085Z" data-name="Path 1647"/>
        <path d="M92.561 296.096a2.166 2.166 0 0 1-.389 3.081 1.963 1.963 0 0 1-2.625-.661 2.32 2.32 0 0 1-.009-3.061 1.993 1.993 0 0 1 3.023.641Z" data-name="Path 1648"/>
        <path d="M94.069 293.611a1.392 1.392 0 0 0-1.023-1.566 1.2 1.2 0 0 0-1.662.565 1.381 1.381 0 0 0 .988 1.571 1.243 1.243 0 0 0 1.697-.57Z" data-name="Path 1649"/>
        <path d="M91.985 289.867c-.14.639.487 1.156 1.023 1.291.733.183 1.327-.117 1.445-.6a1.252 1.252 0 0 0-.851-1.283c-.565-.243-1.47-.094-1.617.592Z" data-name="Path 1650"/>
        <path d="M75.483 284.697a3.06 3.06 0 0 0-.359 3.06c.906 2.007 4 1.352 5.35 1.425 3.505.2 1.453 4.258 6.1 5.707 2.008.629 4.175-1.332 4.678-4.118a6.53 6.53 0 0 0-.658-4.649 6.994 6.994 0 0 0-3.678-3.111 12.234 12.234 0 0 0-7.757-.534 6.959 6.959 0 0 0-3.676 2.22Z" data-name="Path 1651"/>
      </g>
      <g data-name="Group 972">
        <path d="M95.713 324.55c-.052-.526-.4-1.139-1-1.06a1.14 1.14 0 0 0-.825 1.309c.058.714.576 1.163 1.094 1.025a1.125 1.125 0 0 0 .731-1.274Z" data-name="Path 1652"/>
        <path d="M98.461 323.665a1.185 1.185 0 0 0-1.331-.786 1.307 1.307 0 0 0 1.017 2.323 1.146 1.146 0 0 0 .314-1.537Z" data-name="Path 1653"/>
        <path d="M102.647 316.944a2.32 2.32 0 0 1 2.593-1.626 1.963 1.963 0 0 1 1.96 1.867 2.164 2.164 0 0 1-2.4 1.973 1.992 1.992 0 0 1-2.153-2.214Z" data-name="Path 1654"/>
        <path d="M103.078 320.016a1.383 1.383 0 0 0-1.856 0 1.2 1.2 0 0 0 .41 1.707 1.392 1.392 0 0 0 1.87.03 1.246 1.246 0 0 0-.424-1.737Z" data-name="Path 1655"/>
        <path d="M99.59 323.675a1.251 1.251 0 0 0 1.539.035 1.1 1.1 0 0 0-.263-1.542 1.233 1.233 0 0 0-1.639-.176c-.501.491-.149 1.336.363 1.683Z" data-name="Path 1656"/>
        <path d="M86.134 315.094a12.228 12.228 0 0 0 4.592 6.274 6.993 6.993 0 0 0 4.594 1.45 6.533 6.533 0 0 0 4.283-1.926c2.087-1.912 2.589-4.791.985-6.153-3.707-3.159-6.043.742-8.084-2.115-.782-1.1-1.88-4.069-4.061-3.764a3.057 3.057 0 0 0-2.4 1.937 6.96 6.96 0 0 0 .091 4.297Z" data-name="Path 1657"/>
      </g>
    </g>
    <g fill="rgba(79,193,183,0.3)" data-name="Group 976">
      <g data-name="Group 974">
        <path d="M129.426 301.2a.994.994 0 0 0-1.516-.266 1.172 1.172 0 0 0-.566 1.485c.3.54 1.021.446 1.486.164a1.156 1.156 0 0 0 .596-1.383Z" data-name="Path 1658"/>
        <path d="M130.866 304.178a1.164 1.164 0 0 0-1.477-.694c-.657.145-1.224.661-1.057 1.293a1.217 1.217 0 0 0 1.466.607 1.178 1.178 0 0 0 1.068-1.206Z" data-name="Path 1659"/>
        <path d="M130.01 313.372a2.223 2.223 0 0 1-.14 3.185 2.016 2.016 0 0 1-2.742-.457 2.382 2.382 0 0 1-.266-3.131 2.046 2.046 0 0 1 3.148.403Z" data-name="Path 1660"/>
        <path d="M131.345 310.702a1.43 1.43 0 0 0-1.178-1.517 1.233 1.233 0 0 0-1.654.717 1.42 1.42 0 0 0 1.143 1.526 1.278 1.278 0 0 0 1.689-.726Z" data-name="Path 1661"/>
        <path d="M128.898 307.044c-.089.666.6 1.142 1.156 1.236.765.126 1.348-.231 1.428-.736a1.285 1.285 0 0 0-.978-1.241c-.599-.201-1.512.028-1.606.741Z" data-name="Path 1662"/>
        <path d="M111.578 303.137a3.14 3.14 0 0 0-.111 3.161c1.095 1.978 4.206 1.049 5.595 1.01 3.6-.088 1.843 4.236 6.723 5.329 2.107.476 4.16-1.712 4.442-4.605a6.707 6.707 0 0 0-1.062-4.7 7.184 7.184 0 0 0-4.025-2.876 12.554 12.554 0 0 0-7.982.1 7.143 7.143 0 0 0-3.58 2.581Z" data-name="Path 1663"/>
      </g>
      <g data-name="Group 975">
        <path d="M135.619 342.227c-.1-.535-.5-1.133-1.109-1a1.171 1.171 0 0 0-.734 1.409c.119.726.686 1.142 1.205.957a1.156 1.156 0 0 0 .638-1.366Z" data-name="Path 1664"/>
        <path d="M138.356 341.091a1.215 1.215 0 0 0-1.427-.693 1.341 1.341 0 0 0 1.235 2.291 1.175 1.175 0 0 0 .192-1.598Z" data-name="Path 1665"/>
        <path d="M142.078 333.858a2.382 2.382 0 0 1 2.517-1.881 2.016 2.016 0 0 1 2.163 1.746 2.224 2.224 0 0 1-2.288 2.22 2.046 2.046 0 0 1-2.392-2.085Z" data-name="Path 1666"/>
        <path d="M142.778 336.97a1.418 1.418 0 0 0-1.9.159 1.231 1.231 0 0 0 .562 1.712 1.429 1.429 0 0 0 1.917-.126 1.277 1.277 0 0 0-.579-1.745Z" data-name="Path 1667"/>
        <path d="M139.513 341.007a1.283 1.283 0 0 0 1.577-.094c.325-.394.2-1.067-.4-1.556a1.265 1.265 0 0 0-1.691-.043c-.471.545-.035 1.379.514 1.693Z" data-name="Path 1668"/>
        <path d="M125.024 333.351a12.554 12.554 0 0 0 5.224 6.036 7.184 7.184 0 0 0 4.823 1.1 6.713 6.713 0 0 0 4.222-2.33c1.975-2.132 2.248-5.12.492-6.379-4.058-2.923-6.122 1.265-8.449-1.487-.894-1.064-2.265-4.007-4.471-3.513a3.144 3.144 0 0 0-2.29 2.183 7.143 7.143 0 0 0 .449 4.39Z" data-name="Path 1669"/>
      </g>
    </g>
    <g fill="rgba(79,193,183,0.3)" data-name="Group 979">
      <g data-name="Group 977">
        <path d="M167.409 315.544a1.018 1.018 0 0 0-1.575-.1 1.2 1.2 0 0 0-.41 1.578c.371.516 1.091.339 1.533 0a1.185 1.185 0 0 0 .452-1.478Z" data-name="Path 1670"/>
        <path d="M169.214 318.419a1.2 1.2 0 0 0-1.585-.543c-.654.222-1.174.813-.932 1.438a1.248 1.248 0 0 0 1.563.454 1.209 1.209 0 0 0 .954-1.349Z" data-name="Path 1671"/>
        <path d="M169.378 327.892a2.281 2.281 0 0 1 .216 3.264 2.069 2.069 0 0 1-2.848-.158 2.443 2.443 0 0 1-.623-3.163 2.1 2.1 0 0 1 3.255.057Z" data-name="Path 1672"/>
        <path d="M170.437 325.018a1.468 1.468 0 0 0-1.373-1.414c-.782-.139-1.554.249-1.606.917a1.458 1.458 0 0 0 1.337 1.428 1.312 1.312 0 0 0 1.642-.931Z" data-name="Path 1673"/>
        <path d="M167.529 321.564c-.016.689.736 1.1 1.318 1.13.795.042 1.349-.387 1.373-.911a1.316 1.316 0 0 0-1.137-1.155c-.633-.139-1.539.197-1.554.936Z" data-name="Path 1674"/>
        <path d="M149.424 319.528a3.223 3.223 0 0 0 .243 3.237c1.34 1.893 4.408.6 5.82.4 3.665-.5 2.357 4.113 7.457 4.678 2.2.248 4.05-2.215 4.012-5.2a6.879 6.879 0 0 0-1.613-4.677 7.368 7.368 0 0 0-4.429-2.48 12.884 12.884 0 0 0-8.129 1 7.34 7.34 0 0 0-3.361 3.042Z" data-name="Path 1675"/>
      </g>
      <g data-name="Group 978">
        <path d="M178.344 356.689c-.16-.535-.64-1.1-1.243-.9a1.2 1.2 0 0 0-.591 1.52c.2.726.829 1.087 1.337.84a1.184 1.184 0 0 0 .497-1.46Z" data-name="Path 1676"/>
        <path d="M181.008 355.222a1.249 1.249 0 0 0-1.534-.546 1.377 1.377 0 0 0 1.518 2.2 1.208 1.208 0 0 0 .016-1.654Z" data-name="Path 1677"/>
        <path d="M183.988 347.427a2.445 2.445 0 0 1 2.356-2.2 2.069 2.069 0 0 1 2.4 1.537 2.282 2.282 0 0 1-2.084 2.522 2.1 2.1 0 0 1-2.672-1.859Z" data-name="Path 1678"/>
        <path d="M185.056 350.521a1.457 1.457 0 0 0-1.919.376 1.265 1.265 0 0 0 .766 1.684 1.468 1.468 0 0 0 1.941-.345 1.313 1.313 0 0 0-.788-1.715Z" data-name="Path 1679"/>
        <path d="M182.178 355.006a1.318 1.318 0 0 0 1.6-.273c.286-.438.087-1.111-.582-1.542a1.3 1.3 0 0 0-1.73.147c-.421.606.118 1.406.712 1.668Z" data-name="Path 1680"/>
        <path d="M166.539 348.83a12.879 12.879 0 0 0 6.008 5.567 7.369 7.369 0 0 0 5.042.579 6.881 6.881 0 0 0 4.044-2.851c1.775-2.4 1.717-5.475-.216-6.562-4.468-2.524-6.1 1.98-8.785-.566-1.03-.984-2.76-3.831-4.955-3.078a3.222 3.222 0 0 0-2.089 2.484 7.336 7.336 0 0 0 .951 4.427Z" data-name="Path 1681"/>
      </g>
    </g>
    <g fill="rgba(79,193,183,0.3)" data-name="Group 982">
      <g data-name="Group 980">
        <path d="M210.669 327.604a1.045 1.045 0 0 0-1.606-.206 1.233 1.233 0 0 0-.523 1.588c.346.552 1.094.419 1.569.1a1.216 1.216 0 0 0 .56-1.482Z" data-name="Path 1682"/>
        <path d="M212.326 330.665a1.225 1.225 0 0 0-1.586-.659c-.683.184-1.254.754-1.048 1.41a1.281 1.281 0 0 0 1.57.568 1.239 1.239 0 0 0 1.064-1.319Z" data-name="Path 1683"/>
        <path d="M211.868 340.37a2.339 2.339 0 0 1 .006 3.354 2.121 2.121 0 0 1-2.9-.348 2.507 2.507 0 0 1-.43-3.279 2.153 2.153 0 0 1 3.324.273Z" data-name="Path 1684"/>
        <path d="M213.143 337.499a1.5 1.5 0 0 0-1.311-1.537 1.3 1.3 0 0 0-1.7.833 1.494 1.494 0 0 0 1.274 1.548 1.344 1.344 0 0 0 1.737-.844Z" data-name="Path 1685"/>
        <path d="M210.396 333.773c-.062.7.68 1.172 1.274 1.244.81.1 1.406-.308 1.465-.842a1.352 1.352 0 0 0-1.088-1.258c-.638-.183-1.588.101-1.651.856Z" data-name="Path 1686"/>
        <path d="M192.003 330.498a3.3 3.3 0 0 0 .035 3.328c1.247 2.026 4.472.9 5.929.793 3.784-.266 2.141 4.363 7.323 5.278 2.238.4 4.291-2 4.448-5.054a7.058 7.058 0 0 0-1.343-4.893 7.551 7.551 0 0 0-4.369-2.828 13.21 13.21 0 0 0-8.385.492 7.516 7.516 0 0 0-3.638 2.884Z" data-name="Path 1687"/>
      </g>
      <g data-name="Group 981">
        <path d="M219.15 370.429c-.128-.558-.583-1.166-1.213-1a1.232 1.232 0 0 0-.7 1.516c.16.758.776 1.167 1.313.948a1.216 1.216 0 0 0 .6-1.464Z" data-name="Path 1688"/>
        <path d="M221.973 369.103a1.281 1.281 0 0 0-1.534-.66 1.412 1.412 0 0 0 1.409 2.35 1.239 1.239 0 0 0 .125-1.69Z" data-name="Path 1689"/>
        <path d="M225.536 361.322a2.507 2.507 0 0 1 2.556-2.1 2.122 2.122 0 0 1 2.357 1.732 2.34 2.34 0 0 1-2.3 2.443 2.152 2.152 0 0 1-2.613-2.075Z" data-name="Path 1690"/>
        <path d="M226.425 364.559a1.494 1.494 0 0 0-1.989.258 1.3 1.3 0 0 0 .673 1.774 1.506 1.506 0 0 0 2.009-.225 1.346 1.346 0 0 0-.693-1.807Z" data-name="Path 1691"/>
        <path d="M223.185 368.959a1.35 1.35 0 0 0 1.653-.174c.322-.43.163-1.131-.493-1.616a1.332 1.332 0 0 0-1.78.036c-.47.595.028 1.451.62 1.754Z" data-name="Path 1692"/>
        <path d="M207.588 361.609a13.2 13.2 0 0 0 5.781 6.093 7.551 7.551 0 0 0 5.122.924 7.058 7.058 0 0 0 4.325-2.651c1.974-2.336 2.117-5.49.211-6.729-4.406-2.877-6.374 1.624-8.952-1.157-.99-1.075-2.573-4.1-4.868-3.477a3.307 3.307 0 0 0-2.3 2.4 7.513 7.513 0 0 0 .681 4.597Z" data-name="Path 1693"/>
      </g>
    </g>
    <g fill="rgba(79,193,183,0.3)" data-name="Group 985">
      <g data-name="Group 983">
        <path d="M253.521 343.391a1.07 1.07 0 0 0-1.638-.26 1.262 1.262 0 0 0-.585 1.61c.338.577 1.109.463 1.6.151a1.246 1.246 0 0 0 .623-1.501Z" data-name="Path 1694"/>
        <path d="M255.126 346.577a1.255 1.255 0 0 0-1.6-.723c-.705.168-1.307.734-1.116 1.412a1.311 1.311 0 0 0 1.591.629 1.269 1.269 0 0 0 1.125-1.318Z" data-name="Path 1695"/>
        <path d="M254.362 356.504a2.4 2.4 0 0 1-.095 3.436 2.176 2.176 0 0 1-2.965-.445 2.568 2.568 0 0 1-.34-3.372 2.205 2.205 0 0 1 3.4.381Z" data-name="Path 1696"/>
        <path d="M255.756 353.602a1.543 1.543 0 0 0-1.3-1.615 1.329 1.329 0 0 0-1.771.8 1.532 1.532 0 0 0 1.259 1.625 1.378 1.378 0 0 0 1.812-.81Z" data-name="Path 1697"/>
        <path d="M253.054 349.702c-.085.719.662 1.221 1.267 1.312.827.122 1.45-.272 1.527-.818a1.385 1.385 0 0 0-1.076-1.321c-.649-.207-1.63.055-1.718.827Z" data-name="Path 1698"/>
        <path d="M234.313 345.788a3.387 3.387 0 0 0-.065 3.411c1.215 2.113 4.553 1.057 6.049.992 3.884-.158 2.061 4.535 7.341 5.628 2.281.477 4.456-1.918 4.71-5.042a7.234 7.234 0 0 0-1.227-5.052 7.743 7.743 0 0 0-4.389-3.03 13.542 13.542 0 0 0-8.605.249 7.711 7.711 0 0 0-3.814 2.844Z" data-name="Path 1699"/>
      </g>
      <g data-name="Group 984">
        <path d="M260.909 387.515c-.114-.574-.561-1.212-1.212-1.061a1.265 1.265 0 0 0-.768 1.532c.142.781.76 1.219 1.317 1.011a1.247 1.247 0 0 0 .663-1.482Z" data-name="Path 1700"/>
        <path d="M263.841 386.244a1.312 1.312 0 0 0-1.551-.722 1.447 1.447 0 0 0 1.372 2.449 1.27 1.27 0 0 0 .179-1.727Z" data-name="Path 1701"/>
        <path d="M267.727 378.381a2.569 2.569 0 0 1 2.681-2.072 2.175 2.175 0 0 1 2.362 1.846 2.4 2.4 0 0 1-2.428 2.433 2.206 2.206 0 0 1-2.615-2.207Z" data-name="Path 1702"/>
        <path d="M268.539 381.724a1.53 1.53 0 0 0-2.045.2 1.329 1.329 0 0 0 .636 1.837 1.542 1.542 0 0 0 2.064-.17 1.377 1.377 0 0 0-.655-1.867Z" data-name="Path 1703"/>
        <path d="M265.086 386.132a1.384 1.384 0 0 0 1.7-.127c.343-.431.2-1.155-.456-1.671a1.364 1.364 0 0 0-1.824-.017c-.501.595-.016 1.487.58 1.815Z" data-name="Path 1704"/>
        <path d="M249.333 378.13a13.537 13.537 0 0 0 5.737 6.417 7.742 7.742 0 0 0 5.218 1.1 7.236 7.236 0 0 0 4.512-2.585c2.092-2.332 2.335-5.559.42-6.886-4.426-3.081-6.578 1.47-9.135-1.457-.982-1.131-2.511-4.28-4.881-3.709a3.388 3.388 0 0 0-2.431 2.393 7.707 7.707 0 0 0 .56 4.727Z" data-name="Path 1705"/>
      </g>
    </g>
    <g fill="rgba(79,193,183,0.3)" data-name="Group 988">
      <g data-name="Group 986">
        <path d="M297.055 366.275c-.131-.594-.852-.882-1.6-.568a1.293 1.293 0 0 0-.889 1.512c.232.644 1.029.673 1.587.452a1.276 1.276 0 0 0 .902-1.396Z" data-name="Path 1706"/>
        <path d="M298.078 369.783c-.02-.651-.738-1.065-1.48-1.028s-1.455.5-1.389 1.213a1.344 1.344 0 0 0 1.485.931 1.3 1.3 0 0 0 1.384-1.116Z" data-name="Path 1707"/>
        <path d="M295.45 379.636a2.456 2.456 0 0 1-.738 3.443 2.227 2.227 0 0 1-2.9-1 2.632 2.632 0 0 1 .287-3.459 2.259 2.259 0 0 1 3.351 1.016Z" data-name="Path 1708"/>
        <path d="M297.396 376.975a1.579 1.579 0 0 0-1-1.869 1.362 1.362 0 0 0-1.933.477 1.567 1.567 0 0 0 .964 1.871 1.411 1.411 0 0 0 1.969-.479Z" data-name="Path 1709"/>
        <path d="M295.405 372.544c-.22.708.438 1.353 1.031 1.558.809.278 1.51 0 1.69-.538a1.42 1.42 0 0 0-.837-1.532c-.611-.331-1.651-.25-1.884.512Z" data-name="Path 1710"/>
        <path d="M277.264 365.099a3.468 3.468 0 0 0-.7 3.422c.829 2.355 4.387 1.916 5.906 2.129 3.941.567 1.228 4.952 6.34 7.041 2.208.906 4.846-1.1 5.685-4.2a7.4 7.4 0 0 0-.291-5.317 7.925 7.925 0 0 0-3.853-3.872 13.867 13.867 0 0 0-8.711-1.357 7.894 7.894 0 0 0-4.376 2.154Z" data-name="Path 1711"/>
      </g>
      <g data-name="Group 987">
        <path d="M296.247 412.089c-.008-.6-.339-1.326-1.023-1.295a1.294 1.294 0 0 0-1.059 1.4c0 .812.538 1.37 1.137 1.264a1.276 1.276 0 0 0 .945-1.369Z" data-name="Path 1712"/>
        <path d="M299.437 411.356a1.343 1.343 0 0 0-1.427-1.018 1.279 1.279 0 0 0-.592 1.747c.249.7.906 1.206 1.516.976a1.3 1.3 0 0 0 .503-1.705Z" data-name="Path 1713"/>
        <path d="M304.82 404.165a2.629 2.629 0 0 1 3.087-1.585 2.226 2.226 0 0 1 2.034 2.3 2.457 2.457 0 0 1-2.9 2 2.26 2.26 0 0 1-2.221-2.715Z" data-name="Path 1714"/>
        <path d="M305.013 407.683a1.568 1.568 0 0 0-2.1-.177 1.362 1.362 0 0 0 .3 1.969 1.582 1.582 0 0 0 2.111.215 1.411 1.411 0 0 0-.311-2.007Z" data-name="Path 1715"/>
        <path d="M300.712 411.477a1.42 1.42 0 0 0 1.735.189 1.251 1.251 0 0 0-.147-1.768 1.4 1.4 0 0 0-1.834-.358c-.615.504-.288 1.495.246 1.937Z" data-name="Path 1716"/>
        <path d="M286.344 400.474a13.86 13.86 0 0 0 4.578 7.534 7.93 7.93 0 0 0 5.049 2.085 7.409 7.409 0 0 0 5.026-1.759c2.543-1.958 3.39-5.162 1.71-6.856-3.881-3.93-6.9.251-8.927-3.175-.777-1.322-1.728-4.779-4.222-4.647a3.469 3.469 0 0 0-2.894 1.955 7.889 7.889 0 0 0-.32 4.863Z" data-name="Path 1717"/>
      </g>
    </g>
    <g fill="rgba(79,193,183,0.3)" data-name="Group 991">
      <g data-name="Group 989">
        <path d="M334.789 390.319c-.175-.6-.932-.841-1.676-.468a1.323 1.323 0 0 0-.8 1.607c.283.641 1.1.615 1.653.35a1.307 1.307 0 0 0 .823-1.489Z" data-name="Path 1718"/>
        <path d="M336.078 393.83c-.066-.664-.829-1.037-1.584-.947s-1.451.608-1.333 1.337a1.376 1.376 0 0 0 1.581.847 1.331 1.331 0 0 0 1.336-1.237Z" data-name="Path 1719"/>
        <path d="M334.088 404.076a2.515 2.515 0 0 1-.512 3.568 2.28 2.28 0 0 1-3.034-.82 2.692 2.692 0 0 1 .05-3.552 2.313 2.313 0 0 1 3.496.804Z" data-name="Path 1720"/>
        <path d="M335.888 401.222a1.616 1.616 0 0 0-1.156-1.838 1.394 1.394 0 0 0-1.941.622 1.606 1.606 0 0 0 1.116 1.844 1.444 1.444 0 0 0 1.981-.628Z" data-name="Path 1721"/>
        <path d="M333.543 396.835c-.174.739.543 1.351 1.162 1.519.847.227 1.543-.109 1.689-.668a1.452 1.452 0 0 0-.962-1.505c-.654-.294-1.704-.137-1.889.654Z" data-name="Path 1722"/>
        <path d="M314.495 390.507a3.552 3.552 0 0 0-.478 3.544c1.012 2.347 4.616 1.648 6.182 1.76 4.063.3 1.6 4.971 6.969 6.744 2.317.771 4.871-1.462 5.51-4.685a7.582 7.582 0 0 0-.67-5.409 8.117 8.117 0 0 0-4.207-3.683 14.2 14.2 0 0 0-8.991-.775 8.08 8.08 0 0 0-4.315 2.504Z" data-name="Path 1723"/>
      </g>
      <g data-name="Group 990">
        <path d="M337.178 437.161c-.051-.612-.44-1.33-1.136-1.251a1.325 1.325 0 0 0-.983 1.5c.053.83.645 1.361 1.249 1.21a1.306 1.306 0 0 0 .87-1.459Z" data-name="Path 1724"/>
        <path d="M340.386 436.188a1.377 1.377 0 0 0-1.529-.938 1.308 1.308 0 0 0-.482 1.825c.3.7 1.01 1.168 1.616.891a1.332 1.332 0 0 0 .395-1.778Z" data-name="Path 1725"/>
        <path d="M345.378 428.467a2.691 2.691 0 0 1 3.041-1.835 2.28 2.28 0 0 1 2.239 2.206 2.515 2.515 0 0 1-2.822 2.242 2.312 2.312 0 0 1-2.458-2.613Z" data-name="Path 1726"/>
        <path d="M345.822 432.044a1.606 1.606 0 0 0-2.155-.033 1.394 1.394 0 0 0 .442 1.99 1.617 1.617 0 0 0 2.17.071 1.445 1.445 0 0 0-.457-2.028Z" data-name="Path 1727"/>
        <path d="M341.696 436.223a1.451 1.451 0 0 0 1.785.071 1.28 1.28 0 0 0-.274-1.795 1.43 1.43 0 0 0-1.9-.237c-.59.56-.193 1.547.389 1.961Z" data-name="Path 1728"/>
        <path d="M326.251 425.995a14.2 14.2 0 0 0 5.2 7.373 8.115 8.115 0 0 0 5.3 1.775 7.579 7.579 0 0 0 5.009-2.15c2.46-2.178 3.1-5.509 1.266-7.122-4.239-3.74-7.028.741-9.339-2.615-.887-1.3-2.1-4.759-4.638-4.449a3.55 3.55 0 0 0-2.819 2.2 8.078 8.078 0 0 0 .021 4.988Z" data-name="Path 1729"/>
      </g>
    </g>
    <g fill="rgba(79,193,183,0.3)" data-name="Group 994">
      <g data-name="Group 992">
        <path d="M374.658 412.111a1.15 1.15 0 0 0-1.757-.287 1.355 1.355 0 0 0-.633 1.725c.36.62 1.187.5 1.72.169a1.336 1.336 0 0 0 .67-1.607Z" data-name="Path 1730"/>
        <path d="M376.365 415.535a1.346 1.346 0 0 0-1.718-.783c-.757.177-1.406.782-1.2 1.51a1.409 1.409 0 0 0 1.7.682 1.362 1.362 0 0 0 1.218-1.409Z" data-name="Path 1731"/>
        <path d="M375.503 426.179a2.57 2.57 0 0 1-.117 3.685 2.331 2.331 0 0 1-3.177-.49 2.755 2.755 0 0 1-.351-3.618 2.366 2.366 0 0 1 3.645.423Z" data-name="Path 1732"/>
        <path d="M377.011 423.072a1.654 1.654 0 0 0-1.384-1.737 1.426 1.426 0 0 0-1.9.852 1.642 1.642 0 0 0 1.343 1.748 1.478 1.478 0 0 0 1.941-.863Z" data-name="Path 1733"/>
        <path d="M374.13 418.877c-.094.772.7 1.313 1.353 1.414.887.134 1.556-.287 1.641-.871a1.485 1.485 0 0 0-1.146-1.422c-.7-.225-1.75.052-1.848.879Z" data-name="Path 1734"/>
        <path d="M354.045 414.6a3.63 3.63 0 0 0-.084 3.657c1.294 2.272 4.879 1.154 6.484 1.09 4.166-.153 2.191 4.873 7.85 6.069 2.443.521 4.787-2.039 5.073-5.388a7.76 7.76 0 0 0-1.3-5.424 8.3 8.3 0 0 0-4.695-3.269 14.513 14.513 0 0 0-9.229.231c-1.685.736-3.308 1.625-4.099 3.034Z" data-name="Path 1735"/>
      </g>
      <g data-name="Group 993">
        <path d="M382.393 459.469c-.12-.617-.6-1.3-1.3-1.143a1.355 1.355 0 0 0-.83 1.64c.149.837.81 1.31 1.408 1.089a1.337 1.337 0 0 0 .722-1.586Z" data-name="Path 1736"/>
        <path d="M385.543 458.117a1.407 1.407 0 0 0-1.661-.781 1.552 1.552 0 0 0 1.461 2.632 1.361 1.361 0 0 0 .2-1.851Z" data-name="Path 1737"/>
        <path d="M389.744 449.701a2.756 2.756 0 0 1 2.885-2.211 2.333 2.333 0 0 1 2.526 1.99 2.572 2.572 0 0 1-2.615 2.6 2.367 2.367 0 0 1-2.796-2.379Z" data-name="Path 1738"/>
        <path d="M390.601 453.289a1.642 1.642 0 0 0-2.194.211 1.426 1.426 0 0 0 .674 1.973 1.655 1.655 0 0 0 2.215-.173 1.479 1.479 0 0 0-.695-2.011Z" data-name="Path 1739"/>
        <path d="M386.878 458.003a1.485 1.485 0 0 0 1.823-.129c.37-.461.221-1.238-.482-1.794a1.464 1.464 0 0 0-1.957-.026c-.537.636-.021 1.595.616 1.949Z" data-name="Path 1740"/>
        <path d="M370.017 449.353a14.52 14.52 0 0 0 6.125 6.907 8.3 8.3 0 0 0 5.593 1.2 7.755 7.755 0 0 0 4.85-2.752c2.254-2.494 2.528-5.953.48-7.385-4.734-3.323-7.062 1.549-9.792-1.6-1.048-1.217-2.674-4.6-5.219-4a3.633 3.633 0 0 0-2.617 2.556c-.491 1.542-.034 3.336.58 5.074Z" data-name="Path 1741"/>
      </g>
    </g>
    <g fill="rgba(79,193,183,0.3)" data-name="Group 997">
      <g data-name="Group 995">
        <path d="M419.134 429.965a1.173 1.173 0 0 0-1.81-.184 1.386 1.386 0 0 0-.541 1.8c.406.61 1.242.438 1.766.065a1.365 1.365 0 0 0 .585-1.681Z" data-name="Path 1742"/>
        <path d="M421.088 433.354a1.378 1.378 0 0 0-1.8-.693c-.762.228-1.387.885-1.135 1.616a1.438 1.438 0 0 0 1.781.59 1.391 1.391 0 0 0 1.154-1.513Z" data-name="Path 1743"/>
        <path d="M420.865 444.271a2.631 2.631 0 0 1 .108 3.769 2.385 2.385 0 0 1-3.274-.3 2.816 2.816 0 0 1-.581-3.671 2.42 2.42 0 0 1 3.747.202Z" data-name="Path 1744"/>
        <path d="M422.212 441.008a1.691 1.691 0 0 0-1.52-1.688 1.458 1.458 0 0 0-1.89.987 1.681 1.681 0 0 0 1.479 1.7 1.512 1.512 0 0 0 1.931-.999Z" data-name="Path 1745"/>
        <path d="M419.012 436.904c-.048.793.8 1.3 1.469 1.359.913.083 1.571-.388 1.621-.99a1.517 1.517 0 0 0-1.26-1.38c-.723-.187-1.781.16-1.83 1.011Z" data-name="Path 1746"/>
        <path d="M398.248 433.776a3.715 3.715 0 0 0 .14 3.739c1.461 2.239 5.051.876 6.685.712 4.243-.412 2.537 4.839 8.387 5.71 2.526.382 4.76-2.375 4.845-5.812a7.924 7.924 0 0 0-1.656-5.456 8.489 8.489 0 0 0-4.993-3.047 14.845 14.845 0 0 0-9.406.8c-1.679.86-3.282 1.868-4.002 3.354Z" data-name="Path 1747"/>
      </g>
      <g data-name="Group 996">
        <path d="M429.95 477.826c-.161-.622-.69-1.293-1.393-1.087a1.385 1.385 0 0 0-.746 1.725c.2.846.908 1.288 1.5 1.025a1.366 1.366 0 0 0 .639-1.663Z" data-name="Path 1748"/>
        <path d="M433.078 476.251a1.44 1.44 0 0 0-1.743-.7 1.587 1.587 0 0 0 1.653 2.6 1.393 1.393 0 0 0 .09-1.9Z" data-name="Path 1749"/>
        <path d="M436.851 467.402a2.817 2.817 0 0 1 2.809-2.434 2.384 2.384 0 0 1 2.7 1.875 2.63 2.63 0 0 1-2.509 2.814 2.42 2.42 0 0 1-3-2.255Z" data-name="Path 1750"/>
        <path d="M437.947 471.012a1.68 1.68 0 0 0-2.227.35 1.458 1.458 0 0 0 .81 1.972 1.691 1.691 0 0 0 2.25-.313 1.512 1.512 0 0 0-.833-2.009Z" data-name="Path 1751"/>
        <path d="M434.439 476.053a1.519 1.519 0 0 0 1.852-.244c.349-.494.149-1.277-.6-1.8a1.5 1.5 0 0 0-2 .094c-.513.681.074 1.628.748 1.95Z" data-name="Path 1752"/>
        <path d="M416.694 468.264a14.848 14.848 0 0 0 6.678 6.672 8.486 8.486 0 0 0 5.783.884 7.931 7.931 0 0 0 4.78-3.109c2.148-2.683 2.214-6.231.035-7.567-5.037-3.1-7.112 2.017-10.093-1.03-1.145-1.178-3.014-4.532-5.574-3.76a3.713 3.713 0 0 0-2.514 2.77c-.406 1.601.171 3.404.905 5.14Z" data-name="Path 1753"/>
      </g>
    </g>
    <g fill="rgba(79,193,183,0.3)" data-name="Group 1000">
      <g data-name="Group 998">
        <path d="M465.899 444.923a1.2 1.2 0 0 0-1.859-.077 1.416 1.416 0 0 0-.442 1.869c.451.6 1.294.371 1.806-.04a1.4 1.4 0 0 0 .495-1.752Z" data-name="Path 1754"/>
        <path d="M468.097 448.263a1.407 1.407 0 0 0-1.88-.6c-.764.279-1.361.987-1.061 1.717a1.47 1.47 0 0 0 1.853.495 1.422 1.422 0 0 0 1.088-1.612Z" data-name="Path 1755"/>
        <path d="M468.531 459.415a2.688 2.688 0 0 1 .338 3.839 2.437 2.437 0 0 1-3.358-.112 2.88 2.88 0 0 1-.816-3.71 2.473 2.473 0 0 1 3.836-.017Z" data-name="Path 1756"/>
        <path d="M469.707 456.004a1.727 1.727 0 0 0-1.653-1.63c-.925-.144-1.824.333-1.868 1.121a1.717 1.717 0 0 0 1.612 1.647 1.544 1.544 0 0 0 1.909-1.138Z" data-name="Path 1757"/>
        <path d="M466.195 452.011c0 .812.894 1.274 1.58 1.3.937.029 1.579-.491 1.594-1.108a1.552 1.552 0 0 0-1.368-1.332c-.75-.15-1.808.273-1.806 1.14Z" data-name="Path 1758"/>
        <path d="M444.82 450.077a3.8 3.8 0 0 0 .369 3.806c1.627 2.2 5.207.588 6.864.322 4.3-.678 2.881 4.783 8.9 5.318 2.6.236 4.714-2.712 4.592-6.223a8.1 8.1 0 0 0-2.02-5.467 8.678 8.678 0 0 0-5.279-2.807 15.181 15.181 0 0 0-9.548 1.391c-1.659.975-3.233 2.1-3.878 3.66Z" data-name="Path 1759"/>
      </g>
      <g data-name="Group 999">
        <path d="M479.832 493.1c-.2-.625-.783-1.277-1.488-1.025a1.416 1.416 0 0 0-.656 1.8c.258.851 1 1.259 1.6.955a1.4 1.4 0 0 0 .544-1.73Z" data-name="Path 1760"/>
        <path d="M482.932 491.304a1.472 1.472 0 0 0-1.821-.6 1.622 1.622 0 0 0 1.844 2.55 1.423 1.423 0 0 0-.023-1.95Z" data-name="Path 1761"/>
        <path d="M486.241 482.044a2.881 2.881 0 0 1 2.718-2.654 2.437 2.437 0 0 1 2.869 1.75 2.687 2.687 0 0 1-2.389 3.023 2.474 2.474 0 0 1-3.198-2.119Z" data-name="Path 1762"/>
        <path d="M487.578 485.664a1.717 1.717 0 0 0-2.251.492 1.491 1.491 0 0 0 .946 1.963 1.729 1.729 0 0 0 2.277-.456 1.545 1.545 0 0 0-.972-1.999Z" data-name="Path 1763"/>
        <path d="M484.304 491.02a1.553 1.553 0 0 0 1.875-.362c.327-.525.075-1.312-.724-1.8a1.529 1.529 0 0 0-2.033.217c-.48.725.175 1.656.882 1.945Z" data-name="Path 1764"/>
        <path d="M465.728 484.144a15.172 15.172 0 0 0 7.218 6.4 8.679 8.679 0 0 0 5.953.552 8.106 8.106 0 0 0 4.689-3.462c2.029-2.868 1.881-6.492-.423-7.722-5.326-2.858-7.134 2.488-10.36-.441-1.239-1.132-3.349-4.441-5.915-3.5a3.8 3.8 0 0 0-2.4 2.979c-.312 1.666.388 3.47 1.238 5.194Z" data-name="Path 1765"/>
      </g>
    </g>
    <g fill="rgba(79,193,183,0.3)" data-name="Group 1003">
      <g data-name="Group 1001">
        <path d="M514.426 457.472a1.226 1.226 0 0 0-1.9.013 1.447 1.447 0 0 0-.359 1.929c.49.588 1.339.315 1.841-.13a1.427 1.427 0 0 0 .418-1.812Z" data-name="Path 1766"/>
        <path d="M516.835 460.772a1.439 1.439 0 0 0-1.948-.518c-.766.322-1.34 1.075-1 1.8a1.5 1.5 0 0 0 1.916.413 1.454 1.454 0 0 0 1.032-1.695Z" data-name="Path 1767"/>
        <path d="M517.829 472.13a2.746 2.746 0 0 1 .535 3.9 2.491 2.491 0 0 1-3.433.051 2.94 2.94 0 0 1-1.015-3.745 2.526 2.526 0 0 1 3.913-.206Z" data-name="Path 1768"/>
        <path d="M518.86 468.591a1.764 1.764 0 0 0-1.767-1.582c-.951-.1-1.845.43-1.85 1.237a1.753 1.753 0 0 0 1.725 1.6c.898.081 1.845-.361 1.892-1.255Z" data-name="Path 1769"/>
        <path d="M515.078 464.69c.038.828.975 1.255 1.677 1.245.957-.016 1.587-.579 1.572-1.209a1.587 1.587 0 0 0-1.463-1.292c-.771-.112-1.83.367-1.786 1.256Z" data-name="Path 1770"/>
        <path d="M493.173 463.774a3.879 3.879 0 0 0 .564 3.865c1.769 2.16 5.343.343 7.021-.011 4.358-.9 3.176 4.738 9.346 4.986 2.666.112 4.675-3 4.378-6.577a8.284 8.284 0 0 0-2.331-5.479 8.872 8.872 0 0 0-5.526-2.6 15.5 15.5 0 0 0-9.674 1.891c-1.647 1.075-3.197 2.301-3.778 3.925Z" data-name="Path 1771"/>
      </g>
      <g data-name="Group 1002">
        <path d="M531.026 505.944c-.237-.627-.861-1.264-1.568-.971a1.446 1.446 0 0 0-.581 1.874c.306.855 1.087 1.235 1.676.9a1.426 1.426 0 0 0 .473-1.803Z" data-name="Path 1772"/>
        <path d="M534.101 503.956a1.5 1.5 0 0 0-1.888-.526 1.657 1.657 0 0 0 2.008 2.51 1.453 1.453 0 0 0-.12-1.984Z" data-name="Path 1773"/>
        <path d="M537.02 494.344a2.942 2.942 0 0 1 2.642-2.842 2.49 2.49 0 0 1 3.014 1.643 2.746 2.746 0 0 1-2.289 3.2 2.526 2.526 0 0 1-3.367-2.001Z" data-name="Path 1774"/>
        <path d="M538.563 497.971a1.754 1.754 0 0 0-2.273.613 1.523 1.523 0 0 0 1.063 1.956 1.765 1.765 0 0 0 2.3-.577 1.578 1.578 0 0 0-1.09-1.992Z" data-name="Path 1775"/>
        <path d="M535.487 503.598a1.586 1.586 0 0 0 1.9-.462c.307-.551.012-1.342-.827-1.8a1.564 1.564 0 0 0-2.065.322c-.458.763.256 1.68.992 1.94Z" data-name="Path 1776"/>
        <path d="M516.192 497.504a15.5 15.5 0 0 0 7.682 6.176 8.863 8.863 0 0 0 6.1.269 8.285 8.285 0 0 0 4.613-3.764c1.928-3.027 1.6-6.718-.813-7.859-5.577-2.652-7.157 2.892-10.593.063-1.321-1.094-3.638-4.366-6.209-3.277a3.877 3.877 0 0 0-2.3 3.158c-.238 1.707.563 3.514 1.52 5.234Z" data-name="Path 1777"/>
      </g>
    </g>
    <g fill="rgba(79,193,183,0.3)" data-name="Group 1006">
      <g data-name="Group 1004">
        <path d="M566.334 468.444a1.253 1.253 0 0 0-1.94.01 1.476 1.476 0 0 0-.37 1.969c.5.6 1.367.325 1.88-.129a1.459 1.459 0 0 0 .43-1.85Z" data-name="Path 1778"/>
        <path d="M568.788 471.819a1.468 1.468 0 0 0-1.988-.532c-.783.328-1.371 1.095-1.022 1.841a1.533 1.533 0 0 0 1.955.425 1.483 1.483 0 0 0 1.055-1.734Z" data-name="Path 1779"/>
        <path d="M569.784 483.418c1.408 1.29 1.435 3.047.54 3.984a2.543 2.543 0 0 1-3.505.046 3 3 0 0 1-1.031-3.826 2.579 2.579 0 0 1 3.996-.204Z" data-name="Path 1780"/>
        <path d="M570.843 479.806a1.8 1.8 0 0 0-1.8-1.618c-.972-.1-1.885.436-1.892 1.26a1.79 1.79 0 0 0 1.759 1.637c.916.084 1.883-.365 1.933-1.279Z" data-name="Path 1781"/>
        <path d="M566.988 475.816c.039.846.995 1.284 1.711 1.275.977-.015 1.621-.588 1.607-1.232a1.618 1.618 0 0 0-1.492-1.321c-.787-.117-1.87.371-1.826 1.278Z" data-name="Path 1782"/>
        <path d="M544.621 474.844a3.959 3.959 0 0 0 .57 3.947c1.8 2.209 5.455.359 7.169 0 4.452-.917 3.235 4.843 9.535 5.107 2.722.119 4.779-3.056 4.482-6.709a8.464 8.464 0 0 0-2.372-5.6 9.05 9.05 0 0 0-5.638-2.667 15.83 15.83 0 0 0-9.881 1.915c-1.684 1.101-3.269 2.351-3.865 4.007Z" data-name="Path 1783"/>
      </g>
      <g data-name="Group 1005">
        <path d="M583.204 517.966c-.241-.641-.878-1.292-1.6-.995a1.477 1.477 0 0 0-.6 1.913c.311.874 1.108 1.263 1.71.918a1.457 1.457 0 0 0 .49-1.836Z" data-name="Path 1784"/>
        <path d="M586.347 515.944a1.535 1.535 0 0 0-1.927-.54 1.692 1.692 0 0 0 2.046 2.567 1.485 1.485 0 0 0-.119-2.027Z" data-name="Path 1785"/>
        <path d="M589.344 506.136a3 3 0 0 1 2.7-2.9 2.542 2.542 0 0 1 3.075 1.682c.352 1.248-.494 2.786-2.342 3.267a2.579 2.579 0 0 1-3.433-2.049Z" data-name="Path 1786"/>
        <path d="M590.913 509.844a1.789 1.789 0 0 0-2.321.623c-.38.731.174 1.636 1.081 2a1.8 1.8 0 0 0 2.35-.586 1.611 1.611 0 0 0-1.11-2.037Z" data-name="Path 1787"/>
        <path d="M587.763 515.581a1.619 1.619 0 0 0 1.936-.469c.314-.562.014-1.37-.842-1.842a1.6 1.6 0 0 0-2.109.325c-.464.782.264 1.719 1.015 1.986Z" data-name="Path 1788"/>
        <path d="M568.07 509.325a15.832 15.832 0 0 0 7.834 6.32 9.054 9.054 0 0 0 6.231.285 8.462 8.462 0 0 0 4.717-3.836c1.973-3.087 1.643-6.857-.818-8.026-5.689-2.718-7.313 2.941-10.817.046-1.346-1.119-3.707-4.464-6.334-3.356a3.96 3.96 0 0 0-2.352 3.221c-.253 1.743.565 3.589 1.539 5.346Z" data-name="Path 1789"/>
      </g>
    </g>
    <g fill="rgba(79,193,183,0.3)" data-name="Group 1009">
      <g data-name="Group 1007">
        <path d="M619.122 481.989a1.278 1.278 0 0 0-1.979-.064 1.505 1.505 0 0 0-.452 1.994c.486.633 1.381.383 1.922-.06a1.487 1.487 0 0 0 .509-1.87Z" data-name="Path 1790"/>
        <path d="M621.497 485.524a1.5 1.5 0 0 0-2.008-.618c-.811.3-1.44 1.064-1.113 1.838a1.565 1.565 0 0 0 1.978.509 1.516 1.516 0 0 0 1.143-1.729Z" data-name="Path 1791"/>
        <path d="M622.069 497.393c1.387 1.37 1.348 3.162.4 4.084a2.6 2.6 0 0 1-3.576-.087 3.064 3.064 0 0 1-.9-3.941 2.632 2.632 0 0 1 4.076-.056Z" data-name="Path 1792"/>
        <path d="M623.288 493.749a1.84 1.84 0 0 0-1.776-1.719c-.987-.144-1.939.372-1.978 1.213a1.827 1.827 0 0 0 1.732 1.737 1.645 1.645 0 0 0 2.022-1.231Z" data-name="Path 1793"/>
        <path d="M619.508 489.532c.007.865.965 1.348 1.7 1.366 1 .022 1.676-.538 1.686-1.2a1.651 1.651 0 0 0-1.471-1.4c-.803-.149-1.925.307-1.915 1.234Z" data-name="Path 1794"/>
        <path d="M596.731 487.687a4.042 4.042 0 0 0 .431 4.048c1.754 2.322 5.55.575 7.312.275 4.575-.765 3.115 5.064 9.531 5.573 2.771.225 4.991-2.935 4.827-6.672a8.635 8.635 0 0 0-2.2-5.8 9.244 9.244 0 0 0-5.649-2.936 16.162 16.162 0 0 0-10.152 1.576c-1.764 1.055-3.429 2.269-4.1 3.936Z" data-name="Path 1795"/>
      </g>
      <g data-name="Group 1008">
        <path d="M634.438 533.144c-.221-.664-.846-1.352-1.594-1.076a1.507 1.507 0 0 0-.681 1.928c.284.9 1.082 1.331 1.709 1a1.486 1.486 0 0 0 .566-1.852Z" data-name="Path 1796"/>
        <path d="M637.72 531.201a1.565 1.565 0 0 0-1.944-.625 1.727 1.727 0 0 0 1.989 2.7 1.514 1.514 0 0 0-.045-2.075Z" data-name="Path 1797"/>
        <path d="M641.152 521.312a3.066 3.066 0 0 1 2.867-2.853 2.6 2.6 0 0 1 3.072 1.834c.312 1.286-.611 2.823-2.514 3.243a2.633 2.633 0 0 1-3.425-2.224Z" data-name="Path 1798"/>
        <path d="M642.611 525.15a1.826 1.826 0 0 0-2.391.546 1.586 1.586 0 0 0 1.026 2.08 1.838 1.838 0 0 0 2.419-.508 1.643 1.643 0 0 0-1.054-2.118Z" data-name="Path 1799"/>
        <path d="M639.178 530.884a1.652 1.652 0 0 0 1.993-.4c.342-.561.066-1.4-.789-1.91a1.627 1.627 0 0 0-2.163.251c-.502.775.204 1.759.959 2.059Z" data-name="Path 1800"/>
        <path d="M619.332 523.752a16.156 16.156 0 0 0 7.749 6.746 9.239 9.239 0 0 0 6.344.528 8.638 8.638 0 0 0 4.958-3.732c2.131-3.074 1.938-6.931-.527-8.218-5.7-2.99-7.572 2.72-11.035-.366-1.331-1.193-3.611-4.7-6.333-3.666a4.042 4.042 0 0 0-2.522 3.2c-.321 1.764.44 3.678 1.366 5.508Z" data-name="Path 1801"/>
      </g>
    </g>
    <g fill="rgba(79,193,183,0.3)" data-name="Group 1012">
      <g data-name="Group 1010">
        <path d="M673.229 500.898c-.206-.693-1.086-.972-1.948-.536a1.537 1.537 0 0 0-.925 1.87c.331.743 1.279.71 1.921.4a1.518 1.518 0 0 0 .952-1.734Z" data-name="Path 1802"/>
        <path d="M674.74 504.971c-.079-.771-.967-1.2-1.844-1.093s-1.682.712-1.542 1.559a1.6 1.6 0 0 0 1.84.976 1.545 1.545 0 0 0 1.546-1.442Z" data-name="Path 1803"/>
        <path d="M672.478 516.881c1.048 1.69.582 3.458-.58 4.146a2.647 2.647 0 0 1-3.527-.939 3.129 3.129 0 0 1 .043-4.127 2.687 2.687 0 0 1 4.064.92Z" data-name="Path 1804"/>
        <path d="M674.553 513.557a1.876 1.876 0 0 0-1.351-2.129 1.619 1.619 0 0 0-2.251.731 1.865 1.865 0 0 0 1.3 2.137 1.678 1.678 0 0 0 2.302-.739Z" data-name="Path 1805"/>
        <path d="M671.811 508.472c-.2.859.635 1.567 1.356 1.76.985.26 1.791-.134 1.958-.784a1.685 1.685 0 0 0-1.124-1.744c-.757-.338-1.979-.154-2.19.768Z" data-name="Path 1806"/>
        <path d="M649.658 501.205a4.122 4.122 0 0 0-.54 4.118c1.186 2.722 5.368 1.9 7.188 2.018 4.721.334 1.881 5.767 8.124 7.8 2.695.885 5.652-1.72 6.381-5.466a8.806 8.806 0 0 0-.8-6.28 9.429 9.429 0 0 0-4.9-4.261 16.488 16.488 0 0 0-10.446-.86c-2.003.63-3.943 1.437-5.007 2.931Z" data-name="Path 1807"/>
      </g>
      <g data-name="Group 1011">
        <path d="M676.21 555.297c-.061-.711-.516-1.543-1.325-1.448a1.537 1.537 0 0 0-1.135 1.75c.066.964.755 1.578 1.456 1.4a1.517 1.517 0 0 0 1.004-1.702Z" data-name="Path 1808"/>
        <path d="M679.93 554.153a1.6 1.6 0 0 0-1.78-1.084 1.762 1.762 0 0 0 1.33 3.15 1.546 1.546 0 0 0 .45-2.066Z" data-name="Path 1809"/>
        <path d="M685.694 545.163a3.128 3.128 0 0 1 3.526-2.145 2.647 2.647 0 0 1 2.609 2.552c0 1.35-1.28 2.655-3.268 2.617a2.687 2.687 0 0 1-2.867-3.024Z" data-name="Path 1810"/>
        <path d="M686.226 549.318a1.865 1.865 0 0 0-2.5-.029 1.619 1.619 0 0 0 .522 2.309 1.877 1.877 0 0 0 2.521.073 1.677 1.677 0 0 0-.543-2.353Z" data-name="Path 1811"/>
        <path d="M681.452 554.187a1.684 1.684 0 0 0 2.073.075 1.485 1.485 0 0 0-.326-2.083 1.662 1.662 0 0 0-2.206-.268c-.685.653-.215 1.798.459 2.276Z" data-name="Path 1812"/>
        <path d="M663.467 542.375a16.493 16.493 0 0 0 6.077 8.541 9.43 9.43 0 0 0 6.167 2.038 8.807 8.807 0 0 0 5.808-2.519c2.848-2.54 3.577-6.412 1.439-8.277-4.94-4.326-8.16.891-10.859-3-1.035-1.5-2.46-5.519-5.406-5.148a4.124 4.124 0 0 0-3.265 2.568c-.74 1.68-.443 3.76.039 5.797Z" data-name="Path 1813"/>
      </g>
    </g>
    <g fill="rgba(79,193,183,0.3)" data-name="Group 1015">
      <g data-name="Group 1013">
        <path d="M719.839 540.811c.052-.736-.688-1.318-1.668-1.212a1.57 1.57 0 0 0-1.554 1.454c.05.828.966 1.136 1.691 1.07a1.548 1.548 0 0 0 1.531-1.312Z" data-name="Path 1814"/>
        <path d="M719.819 545.244c.2-.764-.492-1.493-1.368-1.705s-1.861.076-2.032.934a1.63 1.63 0 0 0 1.407 1.593 1.576 1.576 0 0 0 1.993-.822Z" data-name="Path 1815"/>
        <path d="M713.378 555.797c.394 1.99-.686 3.511-2.042 3.75a2.7 2.7 0 0 1-3.03-2.163 3.191 3.191 0 0 1 1.523-3.924 2.74 2.74 0 0 1 3.549 2.337Z" data-name="Path 1816"/>
        <path d="M716.558 553.371a1.914 1.914 0 0 0-.525-2.518 1.651 1.651 0 0 0-2.412-.11 1.9 1.9 0 0 0 .478 2.507 1.71 1.71 0 0 0 2.459.121Z" data-name="Path 1817"/>
        <path d="M715.766 547.532a1.7 1.7 0 0 0 .663 2.167 1.515 1.515 0 0 0 2.15-.046 1.717 1.717 0 0 0-.446-2.068c-.602-.595-1.835-.858-2.367-.053Z" data-name="Path 1818"/>
        <path d="M697.228 532.644a4.206 4.206 0 0 0-1.994 3.737c.155 3.025 4.444 3.736 6.137 4.507 4.387 2.013-.274 6.18 4.954 10.366 2.255 1.812 6.012.387 8.053-2.927a8.982 8.982 0 0 0 1.488-6.284 9.612 9.612 0 0 0-3.15-5.826 16.815 16.815 0 0 0-9.664-4.572c-2.13-.121-4.274-.047-5.824.999Z" data-name="Path 1819"/>
      </g>
      <g data-name="Group 1014">
        <path d="M703.155 593.81c.2-.7.061-1.659-.744-1.858a1.569 1.569 0 0 0-1.713 1.263c-.283.944.155 1.778.888 1.86a1.546 1.546 0 0 0 1.569-1.265Z" data-name="Path 1820"/>
        <path d="M707.117 594.053a1.63 1.63 0 0 0-1.31-1.673c-.875.011-1.337.928-1.288 1.828s.638 1.714 1.426 1.656a1.577 1.577 0 0 0 1.172-1.811Z" data-name="Path 1821"/>
        <path d="M715.847 587.544a3.189 3.189 0 0 1 4.135-.782 2.7 2.7 0 0 1 1.575 3.373c-.482 1.289-2.175 2.074-4.059 1.324a2.739 2.739 0 0 1-1.651-3.915Z" data-name="Path 1822"/>
        <path d="M714.863 591.698a1.9 1.9 0 0 0-2.379-.926 1.651 1.651 0 0 0-.331 2.391 1.914 1.914 0 0 0 2.38.975 1.71 1.71 0 0 0 .33-2.44Z" data-name="Path 1823"/>
        <path d="M708.558 594.632a1.718 1.718 0 0 0 1.952.816c.622-.283.873-1.164.436-2.106-.322-.689-1.183-1.4-2.009-1.047-.889.377-.859 1.638-.379 2.337Z" data-name="Path 1824"/>
        <path d="M695.63 576.9a16.818 16.818 0 0 0 2.734 10.334 9.616 9.616 0 0 0 5.156 4.16 8.981 8.981 0 0 0 6.449-.319c3.63-1.4 5.716-4.837 4.345-7.385-3.163-5.9-8.109-2.079-9.29-6.759-.449-1.8-.367-6.152-3.313-6.855a4.2 4.2 0 0 0-4.038 1.279c-1.309 1.335-1.772 3.428-2.043 5.545Z" data-name="Path 1825"/>
      </g>
    </g>
    <g fill="rgba(79,193,183,0.3)" data-name="Group 1018">
      <g data-name="Group 1016">
        <path d="M749.628 594.771c.283-.7-.25-1.494-1.233-1.7a1.6 1.6 0 0 0-1.966.917c-.214.819.577 1.407 1.3 1.572a1.577 1.577 0 0 0 1.899-.789Z" data-name="Path 1826"/>
        <path d="M748.207 599.059a1.832 1.832 0 0 0-3.051-1.823 1.662 1.662 0 0 0 .859 1.989 1.608 1.608 0 0 0 2.192-.166Z" data-name="Path 1827"/>
        <path d="M738.628 607.253c-.247 2.053-1.776 3.185-3.165 2.988a2.753 2.753 0 0 1-2.252-3.055 3.251 3.251 0 0 1 2.716-3.321 2.794 2.794 0 0 1 2.701 3.388Z" data-name="Path 1828"/>
        <path d="M742.478 605.907a1.953 1.953 0 0 0 .287-2.607 1.683 1.683 0 0 0-2.3-.87 1.939 1.939 0 0 0-.331 2.581 1.745 1.745 0 0 0 2.344.896Z" data-name="Path 1829"/>
        <path d="M743.554 599.997a1.728 1.728 0 0 0-.043 2.31c.63.85 1.541 1.055 2.1.636a1.754 1.754 0 0 0 .221-2.146c-.395-.766-1.507-1.411-2.278-.8Z" data-name="Path 1830"/>
        <path d="M730.299 579.701a4.29 4.29 0 0 0-3.115 2.992c-.807 2.98 3.125 5.027 4.522 6.309 3.615 3.339-2.221 5.9 1.521 11.613 1.613 2.47 5.7 2.277 8.731-.289a9.157 9.157 0 0 0 3.431-5.618 9.8 9.8 0 0 0-1.211-6.644 17.138 17.138 0 0 0-7.919-7.488c-2.027-.789-4.126-1.396-5.96-.875Z" data-name="Path 1831"/>
      </g>
      <g data-name="Group 1017">
        <path d="M716.692 640.858c.413-.617.584-1.588-.134-2.036a1.6 1.6 0 0 0-2.059.683 1.355 1.355 0 0 0 .272 2.083 1.577 1.577 0 0 0 1.921-.73Z" data-name="Path 1832"/>
        <path d="M720.455 642.344a1.663 1.663 0 0 0-.741-2.036c-.851-.266-1.589.476-1.827 1.364a1.59 1.59 0 0 0 .859 2.056 1.609 1.609 0 0 0 1.709-1.384Z" data-name="Path 1833"/>
        <path d="M730.978 638.797a3.252 3.252 0 0 1 4.255.551 2.753 2.753 0 0 1 .459 3.767c-.876 1.1-2.764 1.322-4.353 0a2.792 2.792 0 0 1-.361-4.318Z" data-name="Path 1834"/>
        <path d="M728.707 642.515a1.94 1.94 0 0 0-2.013-1.65 1.683 1.683 0 0 0-1.077 2.213 1.951 1.951 0 0 0 2 1.7 1.746 1.746 0 0 0 1.09-2.263Z" data-name="Path 1835"/>
        <path d="M721.667 643.364a1.753 1.753 0 0 0 1.634 1.408c.694-.078 1.215-.852 1.09-1.9-.095-.77-.7-1.732-1.617-1.65-.98.081-1.346 1.314-1.107 2.142Z" data-name="Path 1836"/>
        <path d="M714.749 622.089a17.142 17.142 0 0 0-.62 10.881 9.81 9.81 0 0 0 3.68 5.662 9.162 9.162 0 0 0 6.352 1.731c3.962-.211 7.07-2.88 6.547-5.783-1.2-6.721-7.2-4.58-6.865-9.489.136-1.892 1.59-6.079-1.042-7.692a4.286 4.286 0 0 0-4.318-.038c-1.692.883-2.805 2.762-3.734 4.728Z" data-name="Path 1837"/>
      </g>
    </g>
    <g fill="rgba(79,193,183,0.3)" data-name="Group 1021">
      <g data-name="Group 1019">
        <path d="M764.989 654.868c.455-.617.128-1.539-.791-1.99a1.63 1.63 0 0 0-2.172.413c-.417.755.217 1.534.89 1.879a1.608 1.608 0 0 0 2.073-.302Z" data-name="Path 1838"/>
        <path d="M762.511 658.744a1.867 1.867 0 0 0-2.557-2.566 1.694 1.694 0 0 0 .35 2.18 1.638 1.638 0 0 0 2.207.386Z" data-name="Path 1839"/>
        <path d="M750.994 664.444c-.759 1.965-2.552 2.7-3.875 2.158a2.807 2.807 0 0 1-1.459-3.582 3.314 3.314 0 0 1 3.516-2.6 2.847 2.847 0 0 1 1.818 4.024Z" data-name="Path 1840"/>
        <path d="M755.132 664.073a1.988 1.988 0 0 0 .937-2.5c-.283-1.04-1.206-1.761-2.056-1.437a1.977 1.977 0 0 0-.974 2.467c.283.973 1.134 1.787 2.093 1.47Z" data-name="Path 1841"/>
        <path d="M757.678 658.507a1.761 1.761 0 0 0-.621 2.27c.409 1 1.258 1.429 1.913 1.155a1.787 1.787 0 0 0 .757-2.064c-.196-.856-1.133-1.772-2.049-1.361Z" data-name="Path 1842"/>
        <path d="M749.678 635.135a4.369 4.369 0 0 0-3.826 2.175c-1.544 2.741 1.826 5.748 2.885 7.365 2.733 4.2-3.675 5.274-1.41 11.853.973 2.844 5.064 3.68 8.7 1.9a9.332 9.332 0 0 0 4.8-4.69 9.992 9.992 0 0 0 .471-6.866 17.478 17.478 0 0 0-5.945-9.382c-1.814-1.284-3.735-2.409-5.675-2.355Z" data-name="Path 1843"/>
      </g>
      <g data-name="Group 1020">
        <path d="M720.9 692.132c.562-.506.975-1.422.378-2.044a1.628 1.628 0 0 0-2.205.158 1.382 1.382 0 0 0-.254 2.126 1.608 1.608 0 0 0 2.081-.24Z" data-name="Path 1844"/>
        <path d="M724.243 694.544a1.692 1.692 0 0 0-.221-2.2 1.867 1.867 0 0 0-1.813 3.136 1.639 1.639 0 0 0 2.034-.936Z" data-name="Path 1845"/>
        <path d="M735.526 693.679a3.315 3.315 0 0 1 4.065 1.61 2.806 2.806 0 0 1-.492 3.837c-1.139.864-3.061.613-4.3-1.092a2.846 2.846 0 0 1 .727-4.355Z" data-name="Path 1846"/>
        <path d="M732.352 696.782a1.977 1.977 0 0 0-1.574-2.135c-.9-.1-1.611.838-1.619 1.916a1.991 1.991 0 0 0 1.548 2.179c1.008.059 1.622-.945 1.645-1.96Z" data-name="Path 1847"/>
        <path d="M725.186 695.856a1.787 1.787 0 0 0 1.261 1.8c.7.1 1.414-.538 1.553-1.607.1-.784-.26-1.888-1.183-2.036-.989-.161-1.66.964-1.631 1.843Z" data-name="Path 1848"/>
        <path d="M723.687 673.105a17.473 17.473 0 0 0-3.341 10.593 9.993 9.993 0 0 0 2.216 6.516 9.341 9.341 0 0 0 5.839 3.3c3.967.785 7.707-1.072 7.918-4.071.5-6.94-5.965-6.33-4.4-11.1.608-1.834 3.1-5.6.9-7.859a4.368 4.368 0 0 0-4.256-1.12c-1.894.453-3.462 2.034-4.876 3.741Z" data-name="Path 1849"/>
      </g>
    </g>
    <g fill="rgba(79,193,183,0.3)" data-name="Group 1024">
      <g data-name="Group 1022">
        <path d="M766.308 717.532a1.408 1.408 0 0 0-.358-2.152 1.661 1.661 0 0 0-2.251-.058c-.578.662-.116 1.575.48 2.063a1.637 1.637 0 0 0 2.129.147Z" data-name="Path 1850"/>
        <path d="M763.004 720.859a1.9 1.9 0 0 0-1.992-3.106 1.724 1.724 0 0 0-.122 2.246 1.669 1.669 0 0 0 2.114.86Z" data-name="Path 1851"/>
        <path d="M750.309 724.044c-1.18 1.793-3.124 2.138-4.324 1.312a2.858 2.858 0 0 1-.68-3.881 3.376 3.376 0 0 1 4.062-1.829 2.9 2.9 0 0 1 .942 4.398Z" data-name="Path 1852"/>
        <path d="M754.507 724.57a2.028 2.028 0 0 0 1.474-2.29c-.058-1.1-.821-2.013-1.737-1.874a2.013 2.013 0 0 0-1.5 2.246c.069 1.032.74 2.025 1.763 1.918Z" data-name="Path 1853"/>
        <path d="M758.245 719.577c-.932.194-1.247 1.333-1.109 2.127.192 1.082.944 1.694 1.656 1.562a1.818 1.818 0 0 0 1.2-1.891c-.014-.895-.748-2.009-1.747-1.798Z" data-name="Path 1854"/>
        <path d="M755.32 694.58a4.453 4.453 0 0 0-4.279 1.339c-2.129 2.4.578 6.118 1.283 7.956 1.813 4.777-4.8 4.458-3.962 11.5.355 3.042 4.248 4.757 8.248 3.772a9.505 9.505 0 0 0 5.788-3.633 10.176 10.176 0 0 0 1.951-6.735 17.8 17.8 0 0 0-3.894-10.624c-1.519-1.675-3.189-3.211-5.135-3.575Z" data-name="Path 1855"/>
      </g>
      <g data-name="Group 1023">
        <path d="M714.369 745.117c.669-.382 1.278-1.2.818-1.954a1.661 1.661 0 0 0-2.23-.318c-.914.5-1.2 1.455-.711 2.062a1.637 1.637 0 0 0 2.123.21Z" data-name="Path 1856"/>
        <path d="M717.178 748.244a1.725 1.725 0 0 0 .255-2.235 1.9 1.9 0 0 0-2.483 2.731 1.669 1.669 0 0 0 2.228-.496Z" data-name="Path 1857"/>
        <path d="M728.597 749.814a3.376 3.376 0 0 1 3.7 2.481 2.858 2.858 0 0 1-1.317 3.713c-1.322.614-3.181-.05-4.045-2.015a2.9 2.9 0 0 1 1.662-4.179Z" data-name="Path 1858"/>
        <path d="M724.768 752.218a2.012 2.012 0 0 0-1.107-2.464c-.879-.291-1.785.486-2.025 1.558a2.027 2.027 0 0 0 1.071 2.5c.99.28 1.818-.588 2.061-1.594Z" data-name="Path 1859"/>
        <path d="M717.833 749.75a1.82 1.82 0 0 0 .867 2.065c.68.248 1.523-.23 1.893-1.265a1.794 1.794 0 0 0-.739-2.282c-.95-.375-1.86.601-2.021 1.482Z" data-name="Path 1860"/>
        <path d="M721.25 726.775a17.8 17.8 0 0 0-5.612 9.826 10.176 10.176 0 0 0 .8 6.965 9.509 9.509 0 0 0 5.1 4.549c3.78 1.637 7.9.6 8.761-2.344 2-6.8-4.573-7.59-1.987-12 1-1.694 4.291-4.912 2.591-7.63a4.451 4.451 0 0 0-3.995-2.034c-1.978.037-3.881 1.273-5.658 2.668Z" data-name="Path 1861"/>
      </g>
    </g>
    <g fill="rgba(79,193,183,0.3)" data-name="Group 1027">
      <g data-name="Group 1025">
        <path d="M751.893 780.637a1.434 1.434 0 0 0 .283-2.2 1.691 1.691 0 0 0-2.178-.718c-.758.475-.575 1.5-.138 2.153a1.667 1.667 0 0 0 2.033.765Z" data-name="Path 1862"/>
        <path d="M747.693 782.911a1.682 1.682 0 0 0 .905-2.176c-.253-.938-1.035-1.721-1.935-1.438a1.756 1.756 0 0 0-.778 2.154 1.7 1.7 0 0 0 1.808 1.46Z" data-name="Path 1863"/>
        <path d="M734.378 782.282c-1.678 1.4-3.675 1.167-4.6.009a2.91 2.91 0 0 1 .478-3.984 3.438 3.438 0 0 1 4.5-.59 2.953 2.953 0 0 1-.378 4.565Z" data-name="Path 1864"/>
        <path d="M738.318 784.032a2.063 2.063 0 0 0 2.109-1.8 1.78 1.78 0 0 0-1.143-2.338 2.049 2.049 0 0 0-2.124 1.749 1.844 1.844 0 0 0 1.158 2.389Z" data-name="Path 1865"/>
        <path d="M743.43 780.262c-.966-.085-1.608.934-1.706 1.748-.131 1.112.422 1.929 1.155 2.01a1.852 1.852 0 0 0 1.725-1.492c.251-.876-.138-2.178-1.174-2.266Z" data-name="Path 1866"/>
        <path d="M747.923 755.029a4.533 4.533 0 0 0-4.566.048c-2.78 1.71-1.234 6.135-1.087 8.134.365 5.191-5.987 2.938-7.241 10.047-.548 3.07 2.743 5.886 6.933 6.1a9.681 9.681 0 0 0 6.712-1.843 10.363 10.363 0 0 0 3.881-5.993c1.021-3.867.761-8.482-.675-11.5-.99-2.078-2.167-4.066-3.957-4.993Z" data-name="Path 1867"/>
      </g>
      <g data-name="Group 1026">
        <path d="M693.142 792.274c.764-.176 1.6-.8 1.371-1.665a1.69 1.69 0 0 0-2.08-.966c-1.039.22-1.6 1.065-1.3 1.8a1.669 1.669 0 0 0 2.009.831Z" data-name="Path 1868"/>
        <path d="M694.961 796.144a1.756 1.756 0 0 0 .9-2.1 1.937 1.937 0 0 0-3.223 1.933 1.7 1.7 0 0 0 2.323.167Z" data-name="Path 1869"/>
        <path d="M705.635 801.034a3.438 3.438 0 0 1 2.879 3.506 2.911 2.911 0 0 1-2.376 3.234c-1.469.211-3.087-.983-3.352-3.153a2.954 2.954 0 0 1 2.849-3.587Z" data-name="Path 1870"/>
        <path d="M701.194 802.253a2.048 2.048 0 0 0-.354-2.728 1.779 1.779 0 0 0-2.433.924 2.064 2.064 0 0 0 .309 2.755 1.843 1.843 0 0 0 2.478-.951Z" data-name="Path 1871"/>
        <path d="M695.158 797.808a1.855 1.855 0 0 0 .238 2.269c.591.442 1.553.223 2.218-.677a1.826 1.826 0 0 0-.05-2.442c-.816-.645-1.986.039-2.406.85Z" data-name="Path 1872"/>
        <path d="M705.241 776.41c-3.114 1.223-6.46 4.413-8.359 7.932a10.361 10.361 0 0 0-1.267 7.027 9.684 9.684 0 0 0 3.637 5.934c3.2 2.708 7.532 2.9 9.232.289 3.946-6.044-2.229-8.744 1.587-12.281 1.474-1.359 5.628-3.53 4.769-6.679a4.533 4.533 0 0 0-3.3-3.158c-1.938-.547-4.157.098-6.299.936Z" data-name="Path 1873"/>
      </g>
    </g>
    <g fill="rgba(79,193,183,0.3)" data-name="Group 1030">
      <g data-name="Group 1028">
        <path d="M720.993 837.299c.8-.137 1.224-1.079.854-2.094a1.722 1.722 0 0 0-1.957-1.275c-.87.27-.957 1.328-.7 2.083a1.7 1.7 0 0 0 1.803 1.286Z" data-name="Path 1874"/>
        <path d="M716.268 838.444c.867.014 1.461-.916 1.457-1.905s-.569-1.964-1.528-1.92a1.789 1.789 0 0 0-1.329 1.917 1.731 1.731 0 0 0 1.4 1.908Z" data-name="Path 1875"/>
        <path d="M703.33 834.351c-2.017.942-3.921.19-4.532-1.191a2.963 2.963 0 0 1 1.51-3.8 3.5 3.5 0 0 1 4.58.592 3.006 3.006 0 0 1-1.558 4.399Z" data-name="Path 1876"/>
        <path d="M706.749 837.1a2.1 2.1 0 0 0 2.545-1.22 1.812 1.812 0 0 0-.515-2.6 2.087 2.087 0 0 0-2.547 1.167 1.877 1.877 0 0 0 .517 2.653Z" data-name="Path 1877"/>
        <path d="M712.763 834.723c-.929-.335-1.826.5-2.135 1.275-.419 1.06-.088 2.009.613 2.28a1.887 1.887 0 0 0 2.086-1.019c.476-.797.433-2.18-.564-2.536Z" data-name="Path 1878"/>
        <path d="M723.764 811.062a4.614 4.614 0 0 0-4.506-1.143c-3.182.958-2.814 5.716-3.191 7.722-.994 5.2-6.658 1.329-9.746 8-1.339 2.879 1.166 6.509 5.233 7.813a9.85 9.85 0 0 0 7.086-.063 10.546 10.546 0 0 0 5.381-4.886c2.013-3.539 2.961-8.149 2.336-11.5-.433-2.3-1.073-4.561-2.593-5.943Z" data-name="Path 1879"/>
      </g>
      <g data-name="Group 1029">
        <path d="M660.141 833.431c.8.026 1.783-.37 1.784-1.281a1.721 1.721 0 0 0-1.8-1.493c-1.08-.054-1.854.631-1.749 1.434a1.7 1.7 0 0 0 1.765 1.34Z" data-name="Path 1880"/>
        <path d="M660.921 837.716a1.787 1.787 0 0 0 1.44-1.835 1.7 1.7 0 0 0-2.286-.893c-.946.288-1.659 1.131-1.39 1.955a1.73 1.73 0 0 0 2.236.773Z" data-name="Path 1881"/>
        <path d="M670.152 845.31a3.5 3.5 0 0 1 1.919 4.2 2.964 2.964 0 0 1-3.182 2.563c-1.5-.176-2.781-1.773-2.476-3.977a3.007 3.007 0 0 1 3.739-2.786Z" data-name="Path 1882"/>
        <path d="M665.464 845.352a2.088 2.088 0 0 0 .363-2.778 1.812 1.812 0 0 0-2.635.275 2.1 2.1 0 0 0-.415 2.792 1.878 1.878 0 0 0 2.687-.289Z" data-name="Path 1883"/>
        <path d="M660.678 839.404a1.887 1.887 0 0 0-.357 2.294 1.663 1.663 0 0 0 2.359-.088 1.858 1.858 0 0 0 .588-2.416c-.631-.85-1.965-.481-2.59.21Z" data-name="Path 1884"/>
        <path d="M676.185 820.975c-3.383.391-7.508 2.658-10.3 5.626a10.547 10.547 0 0 0-3.079 6.584 9.863 9.863 0 0 0 2.032 6.789c2.448 3.5 6.655 4.822 9.01 2.692 5.46-4.92.087-9.187 4.764-11.673 1.806-.953 6.459-2.006 6.435-5.329a4.616 4.616 0 0 0-2.422-3.968c-1.762-1.044-4.113-.988-6.44-.721Z" data-name="Path 1885"/>
      </g>
    </g>
    <g fill="rgba(79,193,183,0.3)" data-name="Group 1033">
      <g data-name="Group 1031">
        <path d="M673.715 884.852c.818.1 1.507-.7 1.44-1.795a1.752 1.752 0 0 0-1.539-1.811c-.927.011-1.319 1.017-1.284 1.829a1.727 1.727 0 0 0 1.383 1.777Z" data-name="Path 1886"/>
        <path d="M668.778 884.596c.842.265 1.691-.47 1.974-1.436a1.73 1.73 0 0 0-.934-2.316 1.82 1.82 0 0 0-1.852 1.485 1.761 1.761 0 0 0 .812 2.267Z" data-name="Path 1887"/>
        <path d="M657.338 876.854c-2.241.334-3.88-.952-4.075-2.476a3.014 3.014 0 0 1 2.573-3.266 3.563 3.563 0 0 1 4.3 1.906 3.06 3.06 0 0 1-2.798 3.836Z" data-name="Path 1888"/>
        <path d="M659.878 880.527a2.138 2.138 0 0 0 2.837-.452 1.844 1.844 0 0 0 .251-2.685 2.124 2.124 0 0 0-2.823.4 1.911 1.911 0 0 0-.265 2.737Z" data-name="Path 1889"/>
        <path d="M666.432 879.952a1.893 1.893 0 0 0-2.452.625 1.693 1.693 0 0 0-.063 2.4 1.92 1.92 0 0 0 2.331-.389c.695-.637 1.054-1.999.184-2.636Z" data-name="Path 1890"/>
        <path d="M684.027 860.06a4.7 4.7 0 0 0-4.064-2.422c-3.383.012-4.4 4.76-5.353 6.608-2.479 4.787-6.881-.634-11.827 4.977-2.142 2.42-.751 6.687 2.839 9.139a10.033 10.033 0 0 0 6.931 1.994 10.742 10.742 0 0 0 6.667-3.207c2.99-2.868 5.251-7.091 5.612-10.538.246-2.367.277-4.767-.805-6.551Z" data-name="Path 1891"/>
      </g>
      <g data-name="Group 1032">
        <path d="M615.472 863.432c.771.257 1.847.156 2.112-.733a1.752 1.752 0 0 0-1.319-1.977c-1.038-.366-1.991.078-2.122.892a1.728 1.728 0 0 0 1.329 1.818Z" data-name="Path 1892"/>
        <path d="M614.99 867.839a1.82 1.82 0 0 0 1.936-1.373c.034-.977-.964-1.541-1.97-1.534s-1.947.622-1.924 1.5a1.763 1.763 0 0 0 1.958 1.407Z" data-name="Path 1893"/>
        <path d="M621.793 877.923a3.562 3.562 0 0 1 .653 4.655 3.015 3.015 0 0 1-3.846 1.578c-1.413-.606-2.2-2.536-1.263-4.6a3.06 3.06 0 0 1 4.456-1.633Z" data-name="Path 1894"/>
        <path d="M617.207 876.605a2.124 2.124 0 0 0 1.16-2.605 1.845 1.845 0 0 0-2.651-.5 2.139 2.139 0 0 0-1.214 2.6 1.911 1.911 0 0 0 2.705.505Z" data-name="Path 1895"/>
        <path d="M614.268 869.415a1.92 1.92 0 0 0-1.014 2.135c.284.71 1.253 1.036 2.327.6.786-.323 1.626-1.245 1.274-2.186-.377-1.013-1.782-1.042-2.587-.549Z" data-name="Path 1896"/>
        <path d="M634.736 855.932c-3.414-.6-8.1.416-11.675 2.5a10.742 10.742 0 0 0-4.913 5.531 10.032 10.032 0 0 0 .013 7.212c1.373 4.125 5.094 6.634 8.009 5.239 6.754-3.216 2.749-8.937 8.033-10.006 2.038-.4 6.883-.084 7.824-3.333a4.7 4.7 0 0 0-1.213-4.573c-1.421-1.528-3.736-2.158-6.078-2.57Z" data-name="Path 1897"/>
      </g>
    </g>
    <g fill="rgba(79,193,183,0.3)" data-name="Group 1036">
      <g data-name="Group 1034">
        <path d="M612.193 916.58c.64.541 1.671.251 2.229-.719a1.782 1.782 0 0 0-.293-2.4c-.794-.51-1.691.125-2.116.835a1.759 1.759 0 0 0 .18 2.284Z" data-name="Path 1898"/>
        <path d="M608.139 913.595a2.042 2.042 0 0 0 2.985-2.6 1.851 1.851 0 0 0-2.4.224 1.792 1.792 0 0 0-.585 2.376Z" data-name="Path 1899"/>
        <path d="M602.762 900.613c-2.09-.971-2.762-2.981-2.074-4.386a3.068 3.068 0 0 1 4.015-1.332 3.625 3.625 0 0 1 2.582 4.025 3.113 3.113 0 0 1-4.523 1.693Z" data-name="Path 1900"/>
        <path d="M602.861 905.155a2.176 2.176 0 0 0 2.663 1.2c1.156-.234 2.009-1.19 1.717-2.14a2.161 2.161 0 0 0-2.621-1.242c-1.085.243-2.034 1.113-1.759 2.182Z" data-name="Path 1901"/>
        <path d="M608.752 908.339a1.927 1.927 0 0 0-2.434-.843c-1.118.375-1.65 1.269-1.4 2.005a1.953 1.953 0 0 0 2.2.975c.948-.153 2.015-1.109 1.634-2.137Z" data-name="Path 1902"/>
        <path d="M634.838 901.297a4.778 4.778 0 0 0-2.095-4.333c-2.88-1.884-6.407 1.576-8.248 2.614-4.787 2.678-5.489-4.392-12.833-2.4-3.175.856-4.383 5.26-2.708 9.353a10.2 10.2 0 0 0 4.77 5.575 10.927 10.927 0 0 0 7.459 1.012c4.147-.763 8.433-3.082 10.67-5.808 1.537-1.874 2.904-3.889 2.985-6.013Z" data-name="Path 1903"/>
      </g>
      <g data-name="Group 1035">
        <path d="M574.72 865.763c.511.65 1.481 1.166 2.2.561a1.782 1.782 0 0 0-.013-2.418 1.512 1.512 0 0 0-2.3-.432 1.76 1.76 0 0 0 .113 2.289Z" data-name="Path 1904"/>
        <path d="M571.842 869.236a1.853 1.853 0 0 0 2.414-.082 2.042 2.042 0 0 0-3.291-2.206 1.793 1.793 0 0 0 .877 2.288Z" data-name="Path 1905"/>
        <path d="M571.972 881.612a3.624 3.624 0 0 1-2.052 4.32c-1.863.913-3.4.322-4.151-.814-.861-1.307-.448-3.386 1.5-4.613a3.113 3.113 0 0 1 4.703 1.107Z" data-name="Path 1906"/>
        <path d="M568.815 877.924a2.162 2.162 0 0 0 2.444-1.563c.17-.98-.8-1.82-1.973-1.906a2.176 2.176 0 0 0-2.49 1.532c-.138 1.095.913 1.838 2.019 1.937Z" data-name="Path 1907"/>
        <path d="M570.346 870.17a1.955 1.955 0 0 0-2.057 1.246c-.157.761.484 1.581 1.641 1.811.849.166 2.078-.147 2.307-1.143.249-1.068-.931-1.881-1.891-1.914Z" data-name="Path 1908"/>
        <path d="M595.283 870.183c-2.564-2.422-7.109-4.181-11.318-4.413a10.93 10.93 0 0 0-7.272 1.945 10.207 10.207 0 0 0-4.027 6.134c-1.145 4.272.61 8.488 3.868 8.936 7.537 1.051 7.34-6.052 12.427-4 1.958.8 5.894 3.784 8.512 1.551a4.778 4.778 0 0 0 1.531-4.563c-.349-2.097-1.96-3.923-3.721-5.59Z" data-name="Path 1909"/>
      </g>
    </g>
    <g fill="rgba(79,193,183,0.3)" data-name="Group 1039">
      <g data-name="Group 1037">
        <path d="M543.715 909.507c.279.806 1.33 1.088 2.322.529a1.812 1.812 0 0 0 .991-2.251c-.429-.858-1.543-.768-2.283-.369a1.789 1.789 0 0 0-1.03 2.091Z" data-name="Path 1910"/>
        <path d="M541.721 904.791a1.8 1.8 0 0 0 2.229 1.189c1.027-.173 1.943-.927 1.734-1.916a1.884 1.884 0 0 0-2.219-1.054 1.823 1.823 0 0 0-1.744 1.781Z" data-name="Path 1911"/>
        <path d="M543.762 890.644c-1.324-1.934-.867-4.042.464-4.913 1.161-.756 2.835-.685 4.2.921a3.687 3.687 0 0 1 .166 4.861c-1.124 1.105-3.4 1.202-4.83-.869Z" data-name="Path 1912"/>
        <path d="M541.489 894.669a2.212 2.212 0 0 0 1.7 2.436 1.908 1.908 0 0 0 2.613-.979 2.2 2.2 0 0 0-1.647-2.448 1.978 1.978 0 0 0-2.666.991Z" data-name="Path 1913"/>
        <path d="M544.987 900.513c.189-1.023-.832-1.812-1.691-2-1.172-.254-2.1.252-2.264 1.026a1.988 1.988 0 0 0 1.415 1.995c.909.357 2.339.076 2.54-1.021Z" data-name="Path 1914"/>
        <path d="M571.457 907.905a4.859 4.859 0 0 0 .418-4.878c-1.539-3.143-6.421-1.949-8.57-2-5.578-.144-2.519-6.692-9.978-8.762-3.221-.9-6.565 2.323-7.226 6.772a10.382 10.382 0 0 0 1.275 7.354 11.115 11.115 0 0 0 6 4.759c4.022 1.487 8.975 1.685 12.348.463 2.316-.84 4.559-1.892 5.733-3.708Z" data-name="Path 1915"/>
      </g>
      <g data-name="Group 1038">
        <path d="M537.342 845.602c.109.834.689 1.79 1.636 1.635a1.813 1.813 0 0 0 1.245-2.121c-.128-1.131-.973-1.818-1.789-1.573a1.787 1.787 0 0 0-1.092 2.059Z" data-name="Path 1916"/>
        <path d="M533.021 847.144a1.884 1.884 0 0 0 2.153 1.182 2.077 2.077 0 0 0-1.731-3.639 1.823 1.823 0 0 0-.422 2.457Z" data-name="Path 1917"/>
        <path d="M526.706 858.035a3.688 3.688 0 0 1-4.039 2.712c-2.1-.17-3.14-1.485-3.207-2.869-.074-1.589 1.367-3.193 3.711-3.253 2.515-.053 3.769 1.849 3.535 3.41Z" data-name="Path 1918"/>
        <path d="M525.861 853.17a2.2 2.2 0 0 0 2.949-.1 1.907 1.907 0 0 0-.736-2.691 2.211 2.211 0 0 0-2.972.046 1.977 1.977 0 0 0 .759 2.745Z" data-name="Path 1919"/>
        <path d="M531.227 847.184a1.988 1.988 0 0 0-2.446.021 1.753 1.753 0 0 0 .494 2.437 1.96 1.96 0 0 0 2.612.2c.772-.806.163-2.13-.66-2.658Z" data-name="Path 1920"/>
        <path d="M553.028 860.149c-.984-3.45-4.045-7.349-7.605-9.739a11.112 11.112 0 0 0-7.37-2.075 10.382 10.382 0 0 0-6.708 3.271c-3.22 3.142-3.875 7.74-1.259 9.824 6.046 4.834 9.563-1.479 12.946 2.958 1.3 1.713 3.188 6.37 6.637 5.778a4.863 4.863 0 0 0 3.71-3.2c.784-2.01.324-4.445-.351-6.817Z" data-name="Path 1921"/>
      </g>
    </g>
    <g fill="rgba(79,193,183,0.3)" data-name="Group 1042">
      <g data-name="Group 1040">
        <path d="M483.89 877.619c.191.846 1.222 1.249 2.287.8a1.843 1.843 0 0 0 1.255-2.164c-.337-.915-1.473-.95-2.266-.63a1.819 1.819 0 0 0-1.276 1.994Z" data-name="Path 1922"/>
        <path d="M482.406 872.628c.034.928 1.061 1.513 2.119 1.453s2.068-.718 1.969-1.741a1.916 1.916 0 0 0-2.124-1.314 1.853 1.853 0 0 0-1.964 1.602Z" data-name="Path 1923"/>
        <path d="M486.062 858.563c-1.119-2.1-.421-4.183 1.023-4.913 1.259-.633 2.942-.373 4.144 1.4a3.749 3.749 0 0 1-.379 4.932c-1.265.992-3.572.834-4.788-1.419Z" data-name="Path 1924"/>
        <path d="M483.312 862.373a2.251 2.251 0 0 0 1.447 2.654 1.94 1.94 0 0 0 2.751-.7 2.234 2.234 0 0 0-1.39-2.659 2.011 2.011 0 0 0-2.808.705Z" data-name="Path 1925"/>
        <path d="M486.188 868.673c.307-1.012-.635-1.925-1.482-2.213-1.157-.388-2.153.018-2.4.782a2.022 2.022 0 0 0 1.205 2.176c.875.465 2.351.341 2.677-.745Z" data-name="Path 1926"/>
        <path d="M512.106 879.126a4.944 4.944 0 0 0 .972-4.882c-1.2-3.35-6.27-2.693-8.436-2.984-5.621-.775-1.792-7.047-9.1-9.98-3.153-1.273-6.9 1.608-8.066 6.03a10.559 10.559 0 0 0 .461 7.576 11.306 11.306 0 0 0 5.525 5.485c3.9 1.956 8.88 2.714 12.426 1.859 2.442-.586 4.827-1.402 6.218-3.104Z" data-name="Path 1927"/>
      </g>
      <g data-name="Group 1041">
        <path d="M484.649 812.319c.016.855.495 1.886 1.469 1.837a1.842 1.842 0 0 0 1.5-2c0-1.158-.778-1.948-1.63-1.791a1.817 1.817 0 0 0-1.339 1.954Z" data-name="Path 1928"/>
        <path d="M480.109 813.391a1.916 1.916 0 0 0 2.042 1.438 1.822 1.822 0 0 0 .829-2.495c-.361-1-1.3-1.711-2.168-1.378a1.853 1.853 0 0 0-.703 2.435Z" data-name="Path 1929"/>
        <path d="M472.5 823.686a3.75 3.75 0 0 1-4.387 2.285c-2.107-.408-3.007-1.854-2.918-3.26.1-1.615 1.741-3.073 4.116-2.87 2.548.23 3.6 2.294 3.189 3.845Z" data-name="Path 1930"/>
        <path d="M472.194 818.674a2.234 2.234 0 0 0 2.991.233 1.941 1.941 0 0 0-.44-2.8 2.251 2.251 0 0 0-3.01-.288 2.012 2.012 0 0 0 .459 2.855Z" data-name="Path 1931"/>
        <path d="M478.291 813.229a2.021 2.021 0 0 0-2.474-.254 1.781 1.781 0 0 0 .225 2.518 1.992 1.992 0 0 0 2.617.495c.871-.726.405-2.133-.368-2.759Z" data-name="Path 1932"/>
        <path d="M498.863 828.787c-.606-3.6-3.26-7.882-6.589-10.7a11.3 11.3 0 0 0-7.214-2.928 10.558 10.558 0 0 0-7.148 2.55c-3.608 2.813-4.788 7.386-2.379 9.786 5.565 5.567 9.831-.417 12.75 4.448 1.118 1.878 2.5 6.8 6.057 6.587a4.942 4.942 0 0 0 4.108-2.812c1.02-1.945.83-4.457.415-6.931Z" data-name="Path 1933"/>
      </g>
    </g>
    <g fill="rgba(79,193,183,0.3)" data-name="Group 1045">
      <g data-name="Group 1043">
        <path d="M455.505 860.458c.754.457 1.776-.012 2.2-1.111a1.873 1.873 0 0 0-.7-2.445c-.908-.4-1.736.406-2.061 1.213a1.848 1.848 0 0 0 .561 2.343Z" data-name="Path 1934"/>
        <path d="M450.807 858.019a2.148 2.148 0 0 0 2.676-3.193 1.947 1.947 0 0 0-2.461.625 1.885 1.885 0 0 0-.215 2.568Z" data-name="Path 1935"/>
        <path d="M443.103 845.413c-2.33-.667-3.356-2.645-2.871-4.217.426-1.367 1.8-2.415 3.953-2.039a3.811 3.811 0 0 1 3.339 3.76c-.171 1.622-1.918 3.201-4.421 2.496Z" data-name="Path 1936"/>
        <path d="M443.947 850.115a2.287 2.287 0 0 0 2.963.816c1.162-.432 1.892-1.563 1.434-2.5a2.272 2.272 0 0 0-2.926-.861c-1.088.421-1.932 1.474-1.471 2.545Z" data-name="Path 1937"/>
        <path d="M450.585 852.46a2.025 2.025 0 0 0-2.665-.478c-1.1.571-1.507 1.587-1.125 2.31a2.052 2.052 0 0 0 2.441.655c.961-.315 1.914-1.482 1.349-2.487Z" data-name="Path 1938"/>
        <path d="M476.531 840.887a5.024 5.024 0 0 0-2.884-4.159c-3.3-1.487-6.4 2.683-8.14 4.062-4.535 3.563-6.419-3.666-13.721-.4-3.158 1.408-3.694 6.179-1.286 10.157a10.736 10.736 0 0 0 5.866 5.012 11.489 11.489 0 0 0 7.912-.167c4.183-1.469 8.256-4.578 10.134-7.775 1.29-2.195 2.381-4.511 2.119-6.73Z" data-name="Path 1939"/>
      </g>
      <g data-name="Group 1044">
        <path d="M408.285 813.794c.638.591 1.729.97 2.381.222a1.874 1.874 0 0 0-.408-2.509 1.589 1.589 0 0 0-2.461-.072 1.849 1.849 0 0 0 .488 2.359Z" data-name="Path 1940"/>
        <path d="M405.864 817.871a1.946 1.946 0 0 0 2.493-.479c.466-.935-.256-1.927-1.239-2.367a1.863 1.863 0 0 0-2.539.613 1.884 1.884 0 0 0 1.285 2.233Z" data-name="Path 1941"/>
        <path d="M408.019 830.705a3.811 3.811 0 0 1-1.426 4.822c-1.786 1.252-3.479.889-4.445-.168-1.107-1.217-1.017-3.444.808-5.037 1.967-1.701 4.222-1.014 5.063.383Z" data-name="Path 1942"/>
        <path d="M404.138 827.389a2.272 2.272 0 0 0 2.283-2.022c.017-1.046-1.125-1.76-2.361-1.657a2.287 2.287 0 0 0-2.336 2c.036 1.157 1.249 1.757 2.414 1.679Z" data-name="Path 1943"/>
        <path d="M404.462 819.086a2.054 2.054 0 0 0-1.933 1.63c-.039.816.76 1.563 2 1.613.909.034 2.135-.492 2.21-1.564.084-1.15-1.274-1.802-2.277-1.679Z" data-name="Path 1944"/>
        <path d="M430.365 815.027c-3.058-2.1-8.066-3.182-12.476-2.736a11.486 11.486 0 0 0-7.235 3.209 10.733 10.733 0 0 0-3.182 7.028c-.491 4.624 2.02 8.716 5.477 8.65 8-.139 6.636-7.484 12.255-6.184 2.163.508 6.739 2.968 9.094.222a5.024 5.024 0 0 0 .845-4.99c-.704-2.121-2.676-3.755-4.778-5.199Z" data-name="Path 1945"/>
      </g>
    </g>
    <g fill="rgba(79,193,183,0.3)" data-name="Group 1048">
      <g data-name="Group 1046">
        <path d="M414.144 876.966c.9.008 1.546-.933 1.343-2.112a1.9 1.9 0 0 0-1.878-1.774c-1 .122-1.3 1.256-1.17 2.129a1.878 1.878 0 0 0 1.705 1.757Z" data-name="Path 1946"/>
        <path d="M408.778 877.276c.941.185 1.772-.71 1.963-1.787s-.232-2.25-1.285-2.392a1.979 1.979 0 0 0-1.825 1.824 1.916 1.916 0 0 0 1.147 2.355Z" data-name="Path 1947"/>
        <path d="M395.496 870.266c-2.382.628-4.306-.567-4.7-2.192-.339-1.416.321-3.047 2.393-3.835a3.874 3.874 0 0 1 4.87 1.55c.695 1.506-.011 3.792-2.563 4.477Z" data-name="Path 1948"/>
        <path d="M398.678 873.935a2.325 2.325 0 0 0 3.012-.826c.791-.981.842-2.349-.047-2.931a2.308 2.308 0 0 0-3 .767c-.736.935-.924 2.299.035 2.99Z" data-name="Path 1949"/>
        <path d="M405.692 872.535c-.944-.549-2.086.183-2.576.967-.665 1.071-.492 2.169.217 2.6a2.087 2.087 0 0 0 2.473-.7c.672-.768.901-2.282-.114-2.867Z" data-name="Path 1950"/>
        <path d="M422.345 848.944a5.108 5.108 0 0 0-4.68-2.135c-3.654.415-4.194 5.667-5 7.776-2.111 5.469-7.511.133-12.191 6.783-2.027 2.87-.017 7.316 4.153 9.541a10.91 10.91 0 0 0 7.727 1.335 11.676 11.676 0 0 0 6.825-4.257c2.89-3.455 4.833-8.287 4.814-12.055-.015-2.588-.266-5.182-1.648-6.988Z" data-name="Path 1951"/>
      </g>
      <g data-name="Group 1047">
        <path d="M348.657 860.732c.864.186 2.014-.051 2.2-1.042a1.905 1.905 0 0 0-1.66-1.981c-1.164-.272-2.142.321-2.187 1.216a1.879 1.879 0 0 0 1.647 1.807Z" data-name="Path 1952"/>
        <path d="M348.66 865.552a1.979 1.979 0 0 0 1.929-1.714c-.08-1.059-1.225-1.551-2.312-1.424s-2.03.9-1.9 1.854a1.916 1.916 0 0 0 2.283 1.284Z" data-name="Path 1953"/>
        <path d="M357.209 875.644a3.874 3.874 0 0 1 1.259 4.953c-.91 2.022-2.577 2.584-3.97 2.162-1.6-.487-2.678-2.479-1.91-4.819.834-2.51 3.159-3.079 4.621-2.296Z" data-name="Path 1954"/>
        <path d="M352.097 874.762a2.309 2.309 0 0 0 .943-2.952c-.529-.922-1.9-.953-2.923-.222a2.326 2.326 0 0 0-1 2.958c.631.998 2.002.889 2.98.216Z" data-name="Path 1955"/>
        <path d="M348.066 867.344a2.089 2.089 0 0 0-.842 2.428c.391.733 1.477.97 2.585.37.811-.443 1.61-1.539 1.118-2.514-.524-1.051-2.049-.916-2.861-.284Z" data-name="Path 1956"/>
        <path d="M368.585 850.344c-3.761-.243-8.7 1.41-12.319 4.091a11.674 11.674 0 0 0-4.654 6.561 10.911 10.911 0 0 0 .871 7.792c1.974 4.294 6.293 6.565 9.278 4.711 6.916-4.278 1.909-9.985 7.493-11.768 2.154-.68 7.428-.908 8.059-4.53a5.107 5.107 0 0 0-1.854-4.8c-1.717-1.489-4.288-1.892-6.874-2.057Z" data-name="Path 1957"/>
      </g>
    </g>
    <g data-name="Group 1051">
      <g fill="rgba(79,193,183,0.3)" data-name="Group 1049">
        <path d="M362.5197 925.903c.9069.0809 1.641-.8192 1.5323-2.0295a1.936 1.936 0 0 0-1.7586-1.95c-1.0225.0418-1.4258 1.1646-1.3588 2.062a1.909 1.909 0 0 0 1.5851 1.9176Z" data-name="Path 1958"/>
        <path d="M357.0552 925.779a1.925 1.925 0 0 0 2.1354-1.6523c.2806-1.0752-.052-2.2973-1.1066-2.5275a2.012 2.012 0 0 0-1.9972 1.6991 1.946 1.946 0 0 0 .9684 2.4807Z" data-name="Path 1959"/>
        <path d="M344.1784 917.5975c-2.4624.4417-4.3134-.9245-4.579-2.603-.2278-1.4612.5737-3.0592 2.7366-3.6892a3.936 3.936 0 0 1 4.8062 1.9665c.5792 1.583-.321 3.8379-2.9638 4.3257Z" data-name="Path 1960"/>
        <path d="M347.1001 921.5727a2.363 2.363 0 0 0 3.1182-.5916c.8756-.9312 1.0428-2.3097.19-2.9722a2.346 2.346 0 0 0-3.1038.5322c-.8159.8884-1.1168 2.253-.2044 3.0316Z" data-name="Path 1961"/>
        <path d="M354.3201 920.7268c-.912-.6328-2.1278.0151-2.6879.769-.7606 1.0301-.6747 2.157.008 2.652a2.123 2.123 0 0 0 2.5623-.5045c.7506-.7247 1.0984-2.2418.1176-2.9165Z" data-name="Path 1962"/>
        <path d="M373.1074 898.1956a5.187 5.187 0 0 0-4.5648-2.5434c-3.7345.1221-4.7093 5.3974-5.6978 7.4676-2.5833 5.3671-7.6176-.4781-12.899 5.8763-2.2867 2.7414-.6144 7.4084 3.4287 10.001a11.078 11.078 0 0 0 7.7172 1.9777 11.863 11.863 0 0 0 7.2586-3.754c3.2085-3.265 5.5689-7.9957 5.8573-11.818.1949-2.6256.1535-5.2698-1.1002-7.2072Z" data-name="Path 1963"/>
      </g>
      <g data-name="Group 1050">
        <path fill="rgba(79,193,183,0.3)" stroke="rgba(0,0,0,0)" stroke-miterlimit="10" d="M300.0975 921.8705c1.05-2.4719 3.4513-2.8583 4.8675-1.9485a3.937 3.937 0 0 1 .8713 5.1188c-1.0855 1.9731-2.8207 2.4075-4.1968 1.8662l-.146-.068c-1.4902-.6895-2.333-2.7342-1.396-4.9685Zm-3.2413-3.7182a2.363 2.363 0 0 1 1.2576-2.9146c1.097-.6559 2.4819-.5143 2.942.4627a2.346 2.346 0 0 1-1.1958 2.9125 2.568 2.568 0 0 1-2.2785.2318 1.548 1.548 0 0 1-.728-.6937Zm-1.525-4.9923a2.121 2.121 0 0 1 1.0504-2.39c.8743-.571 2.4294-.584 2.8743.5205.4187 1.0283-.4788 2.0729-1.3377 2.4547a2.339 2.339 0 0 1-1.9147.0836 1.322 1.322 0 0 1-.6724-.6688Zm5.4067-.5683a11.082 11.082 0 0 1-.248-7.9628 11.87 11.87 0 0 1 5.25-6.2685c3.8866-2.4192 9.0204-3.6918 12.81-3.1395 2.6053.383 5.1763 1.0003 6.7933 2.6459a5.186 5.186 0 0 1 1.4875 5.009c-.9337 3.6184-6.2947 3.419-8.531 3.932-5.8 1.3503-1.1975 7.537-8.5483 11.3066a4.84 4.84 0 0 1-4.3422-.0607 9.621 9.621 0 0 1-4.6705-5.4638Zm-5.8172-5.0705a1.924 1.924 0 0 1 2.0754-1.7223c1.111-.0402 2.2309.5516 2.2255 1.6303a2.01 2.01 0 0 1-2.0931 1.5783 1.945 1.945 0 0 1-2.2078-1.4863Zm1.0714-5.3593c.1185-.9025 1.157-1.4234 2.3146-1.0524a1.935 1.935 0 0 1 1.5188 2.1426c-.266.9893-1.4489 1.1361-2.3096.876a1.908 1.908 0 0 1-1.526-1.964Z" data-name="Union 1"/>
      </g>
    </g>
  </g>
</svg>
