<svg xmlns="http://www.w3.org/2000/svg" width="15.34" height="14.59" viewBox="0 0 15.34 14.59">
  <path id="Union_1" data-name="Union 1" d="M181.5,114.333a.841.841,0,0,1-.558-1,.866.866,0,0,1,.756-.841c.464.037.677.54.619,1.017a.864.864,0,0,1-.738.834A.57.57,0,0,1,181.5,114.333Zm1.556-.993c-.08-.379.026-.883.462-.96a.835.835,0,0,1,.864.733c.117.511-.145.939-.536.956A.823.823,0,0,1,183.059,113.341Zm-3.966.608c-.32-.172-.421-.649-.157-1.134a.9.9,0,0,1,1.105-.485c.459.232.4.9.118,1.256a.916.916,0,0,1-1.066.363ZM177,113.11a.912.912,0,0,1-.088-1.309,1.013,1.013,0,0,1,1.3-.407.879.879,0,0,1,.09,1.282,1.02,1.02,0,0,1-1.3.433Zm2.534-1.465c-1.879-.874-2.866-2.773-2.046-4.078,1.892-3.024,4.382-.815,5.177-3.26.3-.943.415-3.255,2-3.524a2.239,2.239,0,0,1,2.1.823,5.087,5.087,0,0,1,.887,3.019,8.949,8.949,0,0,1-1.821,5.393,5.116,5.116,0,0,1-2.887,2.026,4.78,4.78,0,0,1-3.415-.4Zm-6.124-.914A1.438,1.438,0,0,1,174.37,109a1.7,1.7,0,0,1,2.169.563,1.46,1.46,0,0,1-1.016,2.022,2.145,2.145,0,0,1-.658.107A1.456,1.456,0,0,1,173.413,110.731Z" transform="translate(-172.832 -100.249)" fill="rgba(79,193,183,0.3)" stroke="rgba(0,0,0,0)" stroke-miterlimit="10" stroke-width="1"/>
</svg>
