<svg xmlns="http://www.w3.org/2000/svg" width="32.952" height="33.137" viewBox="0 0 32.952 33.137">
  <path id="Hand_-_Stroke" data-name="Hand - Stroke" d="M8.816.15C6.048.762,3.785,5.671,3.772,9.868,2.419,11.457.388,14.346.043,15.926a1.5,1.5,0,0,0,2.551,1.344c.833-.82,3.03-4.2,3.45-4.123.841.726-1.011,7.192-.629,8.534a1.829,1.829,0,0,0,3.314.481c.627-1,1.237-7.53,1.621-7.392.536.139.855,7.476,1.113,8.419a1.838,1.838,0,0,0,3.514-.289c.3-2.2-1.045-8.327-.751-8.168.5.075,1.117,5.84,1.575,7.006.521,1.327,3.368,1.595,3.472-.537a53.527,53.527,0,0,0-1.6-8.048c-.574-1.947-.156-4.672.136-4.769.75-.292,1.556,2.266,2.905,3,1.728.947,3.659.344,3.23-1.486-.6-2.581-3.279-4.541-4.208-5.256-.759-.584-1.022-1.869-2.453-2.861C16.081.954,11.588-.464,8.816.15Z" transform="matrix(-0.921, 0.391, -0.391, -0.921, 32.282, 23.093)" fill="#fcfbfa" stroke="#664332" stroke-linecap="round" stroke-linejoin="round" stroke-width="1"/>
</svg>
