<svg id="Layer_1" data-name="Layer 1" xmlns="http://www.w3.org/2000/svg" viewBox="0 0 115 64.95"><defs><style>.cls-1{fill:#fcfbfa;}.cls-1,.cls-2{stroke:#664332;stroke-linecap:round;stroke-linejoin:round;}.cls-2{fill:none;}.cls-3{fill:#664332;}.cls-4{fill:#4fc1b7;}.cls-5{fill:#eacbb7;}</style></defs><g id="Home_Small" data-name="Home Small"><rect class="cls-1" x="0.5" y="0.5" width="114" height="63.95" rx="8"/><path id="Wave_2" data-name="Wave 2" class="cls-2" d="M20.93,226.8h5.19c5.18,0,5.18-5.18,10.36-5.18s5.18,5.18,10.37,5.18,5.18-5.18,10.36-5.18,5.18,5.18,10.37,5.18,5.18-5.18,10.36-5.18,5.18,5.18,10.36,5.18,5.18-5.18,10.37-5.18,5.18,5.18,10.36,5.18,5.18-5.18,10.36-5.18,5.18,5.18,10.36,5.18h5.18" transform="translate(-20.43 -215.18)"/><path class="cls-3" d="M55.85,232.68a1.71,1.71,0,0,0,.54,2.43,2.11,2.11,0,0,0,1.36.34,2.93,2.93,0,0,0,.13.53,3.21,3.21,0,0,0,2.29,2c.53.17.53.17.57.46a2.17,2.17,0,0,1,0,.4c0,.81.12,2.27,1.4,2.7a2.36,2.36,0,0,0,1.51,0,2.61,2.61,0,0,0,1.5-1.36,5.71,5.71,0,0,0,.52-3.31,7.11,7.11,0,0,0-.68-2.13,4.1,4.1,0,0,0-.78-1.13,1.48,1.48,0,0,0,.14-1.29A1.22,1.22,0,0,0,63,231.6a1.27,1.27,0,0,0-1.69-.34,1.29,1.29,0,0,0-1.66.14,1.31,1.31,0,0,0-1.69.69A1.94,1.94,0,0,0,55.85,232.68Z" transform="translate(-20.43 -215.18)"/><path class="cls-4" d="M58,233a1,1,0,0,0-1.43.3.93.93,0,0,0,.41,1.2,1.1,1.1,0,0,0,1.44-.11A.94.94,0,0,0,58,233Z" transform="translate(-20.43 -215.18)"/><path class="cls-4" d="M58.91,233a.63.63,0,0,0,.77.4.56.56,0,0,0,.21-.8.67.67,0,0,0-.78-.41A.58.58,0,0,0,58.91,233Z" transform="translate(-20.43 -215.18)"/><path class="cls-4" d="M60.94,233.05c-.29.09-.55-.18-.64-.43s0-.63.23-.7a.56.56,0,0,1,.63.36C61.29,232.53,61.26,233,60.94,233.05Z" transform="translate(-20.43 -215.18)"/><path class="cls-4" d="M61.62,232.52a.55.55,0,0,0,.38.61c.3,0,.49-.26.51-.57s-.14-.6-.42-.61A.55.55,0,0,0,61.62,232.52Z" transform="translate(-20.43 -215.18)"/><path class="cls-4" d="M63,232.75c-.09.23-.08.56.18.65a.52.52,0,0,0,.62-.37c.13-.3,0-.61-.23-.66A.54.54,0,0,0,63,232.75Z" transform="translate(-20.43 -215.18)"/><path class="cls-4" d="M64.9,238.76a5.73,5.73,0,0,0-.56-3.61,3.32,3.32,0,0,0-1.59-1.6,3.05,3.05,0,0,0-2.21-.13c-1.28.34-2.11,1.43-1.74,2.35.86,2.12,2.67,1,2.9,2.63.09.63-.1,2.1.88,2.45a1.41,1.41,0,0,0,1.41-.29A3.2,3.2,0,0,0,64.9,238.76Z" transform="translate(-20.43 -215.18)"/><path class="cls-5" d="M118.39,239.75a.66.66,0,0,0,.55-.32.48.48,0,0,0-.09-.59c-.11-.13-.29-.18-.63-.18h-.84v2h.32v-.85a1,1,0,0,1,.49.07,4,4,0,0,1,.55.78h.41a7.5,7.5,0,0,0-.57-.79A.41.41,0,0,0,118.39,239.75Zm-.27-.23h-.42v-.6h.41a1,1,0,0,1,.34,0,.26.26,0,0,1,.19.26.25.25,0,0,1-.1.21A.73.73,0,0,1,118.12,239.52Zm.11-1.73a1.84,1.84,0,1,0,2,1.83A1.87,1.87,0,0,0,118.23,237.79Zm0,3.36a1.53,1.53,0,1,1,1.65-1.53A1.6,1.6,0,0,1,118.23,241.15Z" transform="translate(-20.43 -215.18)"/><path class="cls-5" d="M78.68,257.91c-2.93-1.7-3.49-3.62-1.69-5.72a8.07,8.07,0,0,1,7.39-2.71q-3.22-2.91-7.47-.64l-1.82-3q5.58-4.19,11.28-.69c10,6.17,2.65,18.76-7.69,12.74Zm7.4-3-.47-2.34c-3.19-.79-4.55-.35-4.08,1.34s2,2,4.55,1Z" transform="translate(-20.43 -215.18)"/><path class="cls-3" d="M79.88,258.23q-4.39-2.55-1.69-5.74a8.06,8.06,0,0,1,7.39-2.69q-3.22-2.93-7.47-.65l-1.83-3c3.73-2.8,7.48-3,11.29-.69,10,6.17,2.65,18.75-7.69,12.74Zm7.4-3-.47-2.36q-4.78-1.17-4.08,1.36c.49,1.69,2,2,4.55,1Z" transform="translate(-20.43 -215.18)"/><path class="cls-5" d="M105.19,257.91c-2.93-1.7-3.5-3.62-1.69-5.72a8.07,8.07,0,0,1,7.39-2.71q-3.23-2.91-7.47-.64l-1.83-3c3.73-2.79,7.48-3,11.29-.69,10,6.17,2.65,18.76-7.69,12.74Zm7.4-3-.47-2.34c-3.19-.79-4.55-.35-4.08,1.34s2,2,4.55,1Z" transform="translate(-20.43 -215.18)"/><path class="cls-3" d="M106.4,258.23q-4.41-2.55-1.69-5.74a8,8,0,0,1,7.37-2.69q-3.19-2.93-7.46-.65l-1.83-3q5.58-4.2,11.28-.69c10.05,6.17,2.66,18.75-7.67,12.74Zm7.4-3-.49-2.36q-4.77-1.17-4.07,1.36c.48,1.69,2,2,4.56,1Z" transform="translate(-20.43 -215.18)"/><path class="cls-5" d="M58.85,246.05a14.67,14.67,0,0,1-3.1,9.49,10.76,10.76,0,0,1-16.85,0,14.75,14.75,0,0,1-3-9.46q0-6,3.32-9.41a11,11,0,0,1,8.22-3.22,10.79,10.79,0,0,1,8.13,3.24c2.22,2.29,3.33,5.41,3.33,9.39Zm-8.21,2.8c0-2.95-1.08-4.42-3.21-4.42s-3.13,1.49-3.13,4.45a7.15,7.15,0,0,0,.81,3.32c.63,1.16,1.39,1.73,2.28,1.73s1.66-.58,2.32-1.76a6.42,6.42,0,0,0,.93-3.32Z" transform="translate(-20.43 -215.18)"/><polygon class="cls-5" points="53.48 42.42 46.81 44.42 47.42 21.27 52.59 21.72 53.48 42.42"/><polygon class="cls-3" points="54.91 42.98 48.23 44.62 48.84 21.47 54.02 21.92 54.91 42.98"/><polygon class="cls-5" points="79.99 42.42 73.32 44.42 73.94 21.27 79.11 21.72 79.99 42.42"/><path class="cls-3" d="M114.44,267.41a.36.36,0,0,0-.27.12,6.73,6.73,0,0,1-1.53,1.24,36.5,36.5,0,0,1,1.26-3.5c0-.17.15-.3-.13-.34a1.25,1.25,0,0,0-1.09.49,1.12,1.12,0,0,0-.14.32,22.17,22.17,0,0,0-.79,2.24,2.53,2.53,0,0,1-1.19.77c-.11,0-.17-.07-.17-.2a1.35,1.35,0,0,1,.07-.27c.19-.6.45-1.32.69-1.89l.44-1.12c.06-.17.17-.3-.11-.34a1.29,1.29,0,0,0-1.1.49,1.08,1.08,0,0,0-.13.32c-.23.56-.53,1.27-.79,2a1.31,1.31,0,0,1-1.17.27,3,3,0,0,0,.51-1.61,1.54,1.54,0,0,0-1.52-1.51,1,1,0,0,0-.3,0c-1.79.41-1.67,2.79.27,3.42a1.32,1.32,0,0,1-.87.4c-1.2.06-1.2-1.24-1-2.05.37-1.69,1.85-4.85,3.21-6,.11-.1,0-.22-.2-.36a1.56,1.56,0,0,0-.63-.29c-.93,0-3.34,4.38-3.45,7.53a1.45,1.45,0,0,0,0,.3c-.59.59-1,.86-1.24.86s-.16-.06-.16-.18a1.21,1.21,0,0,1,.07-.29,15.77,15.77,0,0,1,.92-2.15,3.06,3.06,0,0,0,.34-.84c0-.15-.1-.23-.32-.23a1.53,1.53,0,0,0-.7.31,1.07,1.07,0,0,0-.94-.41,3.23,3.23,0,0,0-2.81,2.19,3.88,3.88,0,0,0-.15.61,1.35,1.35,0,0,1-1.19.28,3,3,0,0,0,.51-1.61,1.55,1.55,0,0,0-1.53-1.51,1,1,0,0,0-.29,0c-1.8.41-1.68,2.79.26,3.42a1.29,1.29,0,0,1-.86.4c-1.21.06-1.21-1.24-1-2.05.38-1.69,1.84-4.85,3.2-6,.12-.1,0-.22-.18-.36a1.75,1.75,0,0,0-.63-.29c-1,0-3.34,4.38-3.45,7.53,0,1.29.7,1.83,1.55,1.83a3,3,0,0,0,1.93-.81,2.32,2.32,0,0,0,1.71-.27,1.3,1.3,0,0,0,1.29,1.08,1.66,1.66,0,0,0,1.21-.55.72.72,0,0,0,.81.55,3.06,3.06,0,0,0,1.79-1,1.43,1.43,0,0,0,1.45,1,3,3,0,0,0,1.92-.81,2.28,2.28,0,0,0,1.52-.16,1.5,1.5,0,0,0,0,.2.75.75,0,0,0,.84.82,2.58,2.58,0,0,0,1.39-.63c-.06.26-.13.51-.2.8l-.3.2c-1.5,1-2.72,2.2-2.72,3.38a1.29,1.29,0,0,0,1.22,1.42c1.86,0,2.47-3.6,2.92-5a10.72,10.72,0,0,0,2.2-1.78A.22.22,0,0,0,114.44,267.41Zm-17,.4a1.88,1.88,0,0,1-.9-.73C95.8,265.33,98.39,265.59,97.45,267.81Zm5.2-1.56a11.26,11.26,0,0,0-.81,1.8,1.31,1.31,0,0,1-.9.7c-.41,0-.57-.4-.57-.82a2.51,2.51,0,0,1,1.8-2.34c.26,0,.48.15.52.57Zm5,1.56c-.33-.18-.75-.39-.89-.73C106,265.33,108.59,265.59,107.63,267.81Zm2.2,6.19c-.23,0-.47-.27-.47-.8a3.85,3.85,0,0,1,1.32-2.3,1.64,1.64,0,0,1,.37-.32C110.93,271.07,110.29,274,109.83,274Z" transform="translate(-20.43 -215.18)"/><polygon class="cls-3" points="81.42 42.98 74.74 44.62 75.35 21.47 80.52 21.92 81.42 42.98"/><path class="cls-3" d="M60.62,246.82a14.77,14.77,0,0,1-3.11,9.51,10.75,10.75,0,0,1-16.85-.05,14.75,14.75,0,0,1-3-9.46c0-4,1.1-7.13,3.34-9.41a10.94,10.94,0,0,1,8.2-3.2,10.87,10.87,0,0,1,8.14,3.22c2.21,2.29,3.33,5.42,3.33,9.39Zm-8.22,2.81c0-2.95-1.08-4.43-3.21-4.43s-3.12,1.49-3.12,4.45a6.93,6.93,0,0,0,.82,3.33,2.66,2.66,0,0,0,2.26,1.73c.89,0,1.66-.59,2.33-1.76a6.51,6.51,0,0,0,.92-3.32Z" transform="translate(-20.43 -215.18)"/><path class="cls-4" d="M114.17,267.51a.3.3,0,0,0-.29-.16.43.43,0,0,0-.3.14,6.42,6.42,0,0,1-1.39,1.14c.34-1.09.71-2.12,1.2-3.34l0-.05c0-.09.08-.18,0-.25s-.1-.1-.23-.12a1.29,1.29,0,0,0-1.13.51,1,1,0,0,0-.13.25l0,.09c-.31.79-.55,1.47-.79,2.23a2.36,2.36,0,0,1-1.14.74s-.1,0-.1-.14a.74.74,0,0,1,0-.18l0-.07c.19-.63.48-1.38.68-1.89l.46-1.12,0-.07c0-.09.06-.17,0-.24s-.1-.09-.21-.11a1.31,1.31,0,0,0-1.16.52,2,2,0,0,0-.13.33l0,0c-.23.55-.52,1.23-.76,1.94a1.35,1.35,0,0,1-1,.27,3.14,3.14,0,0,0,.48-1.58,1.61,1.61,0,0,0-1.58-1.57,1,1,0,0,0-.3,0,1.6,1.6,0,0,0-1.33,1.51,2.08,2.08,0,0,0,1.49,2,1.26,1.26,0,0,1-.76.32.92.92,0,0,1-.79-.29,2.21,2.21,0,0,1-.19-1.68c.38-1.65,1.81-4.81,3.19-6a.18.18,0,0,0,.06-.13c0-.1-.1-.2-.26-.32a1.5,1.5,0,0,0-.66-.29c-1,0-3.39,4.4-3.5,7.58a1.92,1.92,0,0,0,0,.24v0c-.59.58-1,.84-1.19.84s-.1,0-.1-.13a1.15,1.15,0,0,1,0-.2s0,0,0-.07a14.6,14.6,0,0,1,.9-2.14l.12-.25a1.71,1.71,0,0,0,.24-.62c0-.11,0-.29-.38-.29a1.49,1.49,0,0,0-.69.29,1.13,1.13,0,0,0-1-.39,3.28,3.28,0,0,0-2.87,2.23,3.49,3.49,0,0,0-.15.6,1.38,1.38,0,0,1-1,.28,3,3,0,0,0,.48-1.58,1.59,1.59,0,0,0-1.57-1.57,1.75,1.75,0,0,0-.32,0,1.6,1.6,0,0,0-1.31,1.5,2.09,2.09,0,0,0,1.49,2,1.27,1.27,0,0,1-.77.32.92.92,0,0,1-.78-.28,2.23,2.23,0,0,1-.19-1.69c.35-1.6,1.8-4.8,3.19-6a.16.16,0,0,0,.06-.14c0-.1-.11-.19-.27-.31A1.66,1.66,0,0,0,97,260c-1,0-3.41,4.4-3.53,7.58a1.93,1.93,0,0,0,.46,1.44,1.56,1.56,0,0,0,1.16.45,3.07,3.07,0,0,0,2-.81,2.27,2.27,0,0,0,1.64-.24,1.39,1.39,0,0,0,1.34,1.05,1.7,1.7,0,0,0,1.18-.5.77.77,0,0,0,.83.5,3.09,3.09,0,0,0,1.78-.95,1.46,1.46,0,0,0,1.46.95,3.07,3.07,0,0,0,2-.81,2.23,2.23,0,0,0,1.42-.13s0,.08,0,.11a.82.82,0,0,0,.92.88,2.51,2.51,0,0,0,1.3-.55c0,.18-.1.37-.18.62l-.26.19c-1.83,1.23-2.75,2.39-2.75,3.43a1.35,1.35,0,0,0,1.27,1.47c1.62,0,2.29-2.57,2.74-4.27.08-.3.15-.57.22-.79a10.54,10.54,0,0,0,2.21-1.77A.29.29,0,0,0,114.17,267.51Zm-7.12.22a1.61,1.61,0,0,1-.8-.68c-.2-.44-.18-.81,0-1a.5.5,0,0,1,.27-.08.59.59,0,0,1,.36.13C107.2,266.35,107.39,266.89,107.05,267.73Zm-5.42-2.09c.25,0,.4.17.44.51l0,.07h0c0,.08-.09.19-.15.31a8.8,8.8,0,0,0-.63,1.5,1.28,1.28,0,0,1-.85.66c-.48,0-.52-.58-.52-.76A2.49,2.49,0,0,1,101.63,265.64Zm-4.77,2.09c-.31-.17-.68-.37-.8-.68s-.18-.81,0-1a.5.5,0,0,1,.26-.08.6.6,0,0,1,.37.13C97,266.35,97.21,266.89,96.86,267.73Zm13.56,3c-.68,2.92-1,3.24-1.15,3.24s-.4-.23-.4-.75a3.79,3.79,0,0,1,1.31-2.26A1.31,1.31,0,0,1,110.42,270.71Z" transform="translate(-20.43 -215.18)"/></g></svg>