<svg xmlns="http://www.w3.org/2000/svg" width="115" height="65" viewBox="0 0 115 65">
  <g id="O_lala_-_Logo_Small" data-name="O&apos;lala - Logo Small" transform="translate(0.5 0.5)">
    <rect id="Rectangle_489" data-name="Rectangle 489" width="114" height="64" rx="8" fill="#fcfbfa" stroke="#664332" stroke-width="1"/>
    <g id="Group_183" data-name="Group 183" transform="translate(14.896 14.968)">
      <path id="Path_53" data-name="Path 53" d="M211.094,43.016a.669.669,0,0,0,.555-.316.494.494,0,0,0-.092-.6.807.807,0,0,0-.642-.173h-.846v1.992h.331v-.861a.97.97,0,0,1,.489.071,3.956,3.956,0,0,1,.55.779h.418a7.548,7.548,0,0,0-.576-.795A.452.452,0,0,0,211.094,43.016Zm-.275-.229H210.4v-.606h.4a.955.955,0,0,1,.346.046.252.252,0,0,1,.188.26.272.272,0,0,1-.1.219A.793.793,0,0,1,210.819,42.787Zm.112-1.747a1.853,1.853,0,1,0,1.981,1.849A1.879,1.879,0,0,0,210.931,41.04Zm0,3.392a1.59,1.59,0,0,1-1.661-1.543,1.665,1.665,0,1,1,1.661,1.543Z" transform="translate(-128.847 -34.224)" fill="#eacbb7"/>
      <g id="Group_181" data-name="Group 181" transform="translate(0 2.405)">
        <g id="Group_175" data-name="Group 175">
          <path id="Path_58" data-name="Path 58" d="M72.922,45.12a14.757,14.757,0,0,1-3.133,9.571A10.853,10.853,0,0,1,52.8,54.66a14.852,14.852,0,0,1-3.077-9.546q0-6.044,3.352-9.485a11.088,11.088,0,0,1,8.288-3.25,10.908,10.908,0,0,1,8.2,3.265c2.236,2.313,3.362,5.461,3.362,9.474Zm-8.288,2.832c0-2.975-1.085-4.462-3.235-4.462-2.109,0-3.163,1.5-3.163,4.493a7.234,7.234,0,0,0,.825,3.352c.637,1.172,1.4,1.747,2.3,1.747.881,0,1.676-.591,2.338-1.778a6.5,6.5,0,0,0,.937-3.352Z" transform="translate(-49.72 -32.38)" fill="#eacbb7"/>
          <path id="Path_64" data-name="Path 64" d="M76.412,46.664a14.829,14.829,0,0,1-3.133,9.587,10.84,10.84,0,0,1-16.993-.046,14.851,14.851,0,0,1-3.077-9.546c0-4.029,1.11-7.192,3.362-9.485a11.019,11.019,0,0,1,8.272-3.235,11,11,0,0,1,8.216,3.25c2.226,2.313,3.352,5.476,3.352,9.474ZM68.125,49.5c0-2.975-1.085-4.462-3.235-4.462-2.109,0-3.148,1.5-3.148,4.493a7.022,7.022,0,0,0,.825,3.352c.621,1.172,1.386,1.747,2.282,1.747s1.676-.591,2.353-1.778a6.64,6.64,0,0,0,.922-3.352Z" transform="translate(-51.432 -33.145)" fill="#664332"/>
        </g>
      </g>
      <g id="Group_182" data-name="Group 182" transform="translate(19.596 0)">
        <path id="Path_46" data-name="Path 46" d="M89.024,29.32a1.728,1.728,0,0,0,.55,2.455,2.108,2.108,0,0,0,1.37.346,3.042,3.042,0,0,0,.132.535,3.262,3.262,0,0,0,2.313,2.007c.535.173.535.173.576.464.015.1.02.245.031.4.036.815.117,2.282,1.406,2.725a2.4,2.4,0,0,0,1.523.005,2.572,2.572,0,0,0,1.513-1.37,5.737,5.737,0,0,0,.525-3.336,6.885,6.885,0,0,0-.677-2.15,4.12,4.12,0,0,0-.795-1.141,1.45,1.45,0,0,0,.143-1.3,1.221,1.221,0,0,0-1.38-.718,1.278,1.278,0,0,0-1.7-.346,1.3,1.3,0,0,0-1.676.143,1.316,1.316,0,0,0-1.7.693A1.955,1.955,0,0,0,89.024,29.32Z" transform="translate(-88.717 -27.659)" fill="#664332"/>
        <path id="Path_47" data-name="Path 47" d="M92.125,31.445a1.027,1.027,0,0,0-1.442.306.932.932,0,0,0,.413,1.212,1.093,1.093,0,0,0,1.442-.117A.934.934,0,0,0,92.125,31.445Z" transform="translate(-89.623 -29.437)" fill="#4fc1b7"/>
        <path id="Path_48" data-name="Path 48" d="M95.313,30.8a.647.647,0,0,0,.779.4.571.571,0,0,0,.2-.81.664.664,0,0,0-.779-.418A.591.591,0,0,0,95.313,30.8Z" transform="translate(-91.924 -28.778)" fill="#4fc1b7"/>
        <path id="Path_49" data-name="Path 49" d="M98.741,30.538c-.3.092-.565-.173-.652-.433-.112-.336.005-.632.234-.7a.567.567,0,0,1,.632.357C99.092,30.019,99.056,30.441,98.741,30.538Z" transform="translate(-93.321 -28.505)" fill="#4fc1b7"/>
        <path id="Path_50" data-name="Path 50" d="M100.739,30.045a.558.558,0,0,0,.387.621c.3.031.494-.27.509-.576s-.143-.611-.418-.621A.554.554,0,0,0,100.739,30.045Z" transform="translate(-94.658 -28.547)" fill="#4fc1b7"/>
        <path id="Path_51" data-name="Path 51" d="M103.357,30.687c-.1.229-.082.565.173.662a.542.542,0,0,0,.632-.372c.127-.306.01-.616-.234-.667A.521.521,0,0,0,103.357,30.687Z" transform="translate(-95.932 -28.955)" fill="#4fc1b7"/>
        <path id="Path_52" data-name="Path 52" d="M101.221,37.636A5.717,5.717,0,0,0,100.656,34a3.283,3.283,0,0,0-1.6-1.615,3.122,3.122,0,0,0-2.226-.132c-1.3.346-2.139,1.442-1.762,2.369.866,2.139,2.7,1.009,2.929,2.659.087.637-.1,2.119.881,2.47a1.447,1.447,0,0,0,1.431-.29A3.232,3.232,0,0,0,101.221,37.636Z" transform="translate(-91.813 -29.842)" fill="#4fc1b7"/>
      </g>
      <g id="Group_180" data-name="Group 180" transform="translate(31.255 5.471)">
        <path id="Path_59" data-name="Path 59" d="M118.609,59.728,111.88,61.75,112.5,38.4l5.216.448Z" transform="translate(-111.88 -38.4)" fill="#eacbb7"/>
        <path id="Path_60" data-name="Path 60" d="M121.434,60.484l-6.744,1.661.621-23.345,5.226.448Z" transform="translate(-113.277 -38.596)" fill="#664332"/>
      </g>
      <g id="Group_179" data-name="Group 179" transform="translate(38.998 12.65)">
        <path id="Path_54" data-name="Path 54" d="M131.042,66.958c-2.96-1.717-3.525-3.652-1.7-5.776a8.123,8.123,0,0,1,7.452-2.73q-3.247-2.949-7.539-.652l-1.834-3.005q5.631-4.225,11.38-.693c10.121,6.23,2.669,18.924-7.758,12.857Zm7.468-3.046-.479-2.369q-4.829-1.192-4.116,1.355c.494,1.706,2.022,2.038,4.595,1.014Z" transform="translate(-127.42 -52.493)" fill="#eacbb7"/>
        <path id="Path_55" data-name="Path 55" d="M133.407,67.578c-2.96-1.717-3.535-3.652-1.7-5.792a8.151,8.151,0,0,1,7.452-2.715q-3.247-2.949-7.539-.652l-1.849-3.005c3.769-2.817,7.554-3.046,11.395-.693,10.121,6.23,2.669,18.924-7.758,12.857Zm7.468-3.046-.479-2.384c-3.219-.779-4.59-.331-4.116,1.37q.741,2.56,4.595,1.014Z" transform="translate(-128.591 -52.798)" fill="#664332"/>
      </g>
      <g id="Group_178" data-name="Group 178" transform="translate(57.652 5.471)">
        <path id="Path_61" data-name="Path 61" d="M171.109,59.728,164.38,61.75,165,38.4l5.211.448Z" transform="translate(-164.38 -38.4)" fill="#eacbb7"/>
        <path id="Path_63" data-name="Path 63" d="M173.934,60.484l-6.744,1.661.621-23.345,5.211.448Z" transform="translate(-165.777 -38.596)" fill="#664332"/>
      </g>
      <g id="Group_177" data-name="Group 177" transform="translate(65.295 12.65)">
        <path id="Path_56" data-name="Path 56" d="M183.527,66.958c-2.96-1.717-3.535-3.652-1.7-5.776a8.123,8.123,0,0,1,7.452-2.73q-3.247-2.949-7.539-.652l-1.849-3.005c3.769-2.817,7.554-3.046,11.395-.693,10.116,6.23,2.669,18.924-7.758,12.857Zm7.468-3.046-.479-2.369q-4.829-1.192-4.116,1.355c.489,1.706,2.022,2.038,4.595,1.014Z" transform="translate(-179.89 -52.493)" fill="#eacbb7"/>
        <path id="Path_57" data-name="Path 57" d="M185.907,67.578c-2.96-1.717-3.535-3.652-1.7-5.792a8.123,8.123,0,0,1,7.437-2.715c-2.15-1.966-4.666-2.18-7.524-.652l-1.849-3.005q5.631-4.225,11.38-.693c10.132,6.23,2.684,18.924-7.743,12.857Zm7.468-3.046-.489-2.384c-3.2-.779-4.579-.331-4.1,1.37s2,2.043,4.59,1.014Z" transform="translate(-181.058 -52.798)" fill="#664332"/>
      </g>
      <g id="Group_176" data-name="Group 176" transform="translate(57.108 29.183)">
        <path id="Path_62" data-name="Path 62" d="M185.566,92.517a.343.343,0,0,0-.275.132,6.738,6.738,0,0,1-1.543,1.243c.377-1.228.779-2.338,1.268-3.525.056-.173.158-.306-.132-.346a1.242,1.242,0,0,0-1.1.489,1.548,1.548,0,0,0-.143.331,23.281,23.281,0,0,0-.795,2.251,2.574,2.574,0,0,1-1.2.779c-.117,0-.173-.071-.173-.2a2.015,2.015,0,0,1,.071-.275c.188-.606.448-1.329.693-1.905l.448-1.126c.056-.173.173-.306-.117-.346a1.3,1.3,0,0,0-1.11.489,1.8,1.8,0,0,0-.132.331c-.224.565-.535,1.273-.795,2.017a1.325,1.325,0,0,1-1.187.265,2.892,2.892,0,0,0,.52-1.615,1.555,1.555,0,0,0-1.528-1.528,1.059,1.059,0,0,0-.306.046c-1.8.418-1.691,2.817.275,3.449a1.346,1.346,0,0,1-.881.4c-1.212.056-1.212-1.258-1.039-2.063.377-1.7,1.864-4.9,3.235-6.077.117-.1,0-.219-.2-.362a1.517,1.517,0,0,0-.637-.29c-.937,0-3.362,4.416-3.479,7.595a2.015,2.015,0,0,0,.015.306c-.6.591-1.044.866-1.253.866-.1,0-.158-.056-.158-.188a1.7,1.7,0,0,1,.071-.29A15.707,15.707,0,0,1,174.9,91.2a3.045,3.045,0,0,0,.346-.851c0-.143-.1-.229-.316-.229a1.47,1.47,0,0,0-.708.316,1.071,1.071,0,0,0-.953-.418,3.261,3.261,0,0,0-2.832,2.211,3.978,3.978,0,0,0-.158.611,1.337,1.337,0,0,1-1.2.285,3.017,3.017,0,0,0,.52-1.615,1.568,1.568,0,0,0-1.543-1.528.96.96,0,0,0-.29.046c-1.818.418-1.7,2.817.26,3.449a1.311,1.311,0,0,1-.866.4c-1.228.056-1.228-1.258-1.054-2.063.392-1.7,1.864-4.9,3.235-6.077.117-.1,0-.219-.189-.362a1.7,1.7,0,0,0-.637-.29c-.953,0-3.362,4.416-3.479,7.595-.046,1.3.708,1.849,1.559,1.849a3.043,3.043,0,0,0,1.951-.825,2.338,2.338,0,0,0,1.727-.27,1.327,1.327,0,0,0,1.3,1.1,1.645,1.645,0,0,0,1.212-.565.739.739,0,0,0,.825.565,3.082,3.082,0,0,0,1.8-1,1.449,1.449,0,0,0,1.467,1,2.974,2.974,0,0,0,1.936-.825,2.274,2.274,0,0,0,1.533-.163,1.442,1.442,0,0,0-.015.209.756.756,0,0,0,.851.825,2.6,2.6,0,0,0,1.4-.637c-.056.26-.132.52-.2.81l-.306.2c-1.518,1.024-2.746,2.226-2.746,3.408a1.306,1.306,0,0,0,1.228,1.431c1.88,0,2.5-3.622,2.944-5.084a10.912,10.912,0,0,0,2.226-1.788A.232.232,0,0,0,185.566,92.517Zm-17.141.408a1.882,1.882,0,0,1-.912-.739C166.765,90.423,169.383,90.683,168.426,92.924Zm5.242-1.574a11.616,11.616,0,0,0-.81,1.818,1.332,1.332,0,0,1-.912.708c-.418,0-.576-.4-.576-.825a2.532,2.532,0,0,1,1.819-2.369c.26,0,.479.158.52.576Zm5.028,1.574a1.843,1.843,0,0,1-.9-.739C177.049,90.423,179.662,90.683,178.695,92.924Zm2.221,6.25c-.229,0-.479-.275-.479-.81a3.893,3.893,0,0,1,1.329-2.323,1.534,1.534,0,0,1,.377-.316C182.031,96.215,181.379,99.175,180.916,99.175Z" transform="translate(-164.415 -85.014)" fill="#664332"/>
        <path id="Path_65" data-name="Path 65" d="M184.693,92.565a.3.3,0,0,0-.29-.168.409.409,0,0,0-.3.148,6.806,6.806,0,0,1-1.4,1.146c.341-1.1.718-2.144,1.207-3.367a.6.6,0,0,1,.025-.056c.041-.092.082-.178.036-.255-.036-.061-.107-.1-.234-.117a1.287,1.287,0,0,0-1.141.514.875.875,0,0,0-.132.255c-.01.025-.02.056-.036.092-.306.79-.55,1.482-.79,2.241-.591.555-.988.754-1.146.754-.051,0-.1-.01-.1-.143a.809.809,0,0,1,.036-.183l.02-.076c.194-.632.484-1.386.693-1.9l.464-1.131c.01-.025.015-.051.025-.071a.282.282,0,0,0,.025-.245c-.031-.056-.1-.087-.214-.107a1.325,1.325,0,0,0-1.172.52,1.483,1.483,0,0,0-.132.336l-.02.046c-.234.55-.52,1.238-.769,1.956a1.327,1.327,0,0,1-1.044.27,3.131,3.131,0,0,0,.484-1.584,1.64,1.64,0,0,0-1.6-1.589,1.051,1.051,0,0,0-.3.046,1.615,1.615,0,0,0-1.335,1.518,2.107,2.107,0,0,0,1.5,2.012,1.246,1.246,0,0,1-.759.321.955.955,0,0,1-.8-.3,2.25,2.25,0,0,1-.2-1.7c.382-1.661,1.824-4.844,3.214-6.046a.178.178,0,0,0,.066-.138c-.005-.1-.1-.194-.26-.316a1.635,1.635,0,0,0-.667-.3c-1,0-3.423,4.447-3.535,7.651a1.8,1.8,0,0,0,.01.239v.031a2.68,2.68,0,0,1-1.2.846c-.051,0-.1-.01-.1-.132a.936.936,0,0,1,.046-.194c.01-.025.015-.051.025-.076a15.673,15.673,0,0,1,.907-2.16c.041-.087.082-.168.122-.25a1.758,1.758,0,0,0,.245-.627c0-.107-.051-.29-.392-.29a1.484,1.484,0,0,0-.693.3,1.144,1.144,0,0,0-.953-.392,3.306,3.306,0,0,0-2.9,2.246,3.976,3.976,0,0,0-.158.606,1.339,1.339,0,0,1-1.054.275,3.021,3.021,0,0,0,.484-1.584,1.61,1.61,0,0,0-1.589-1.589,1.314,1.314,0,0,0-.316.046,1.615,1.615,0,0,0-1.324,1.513,2.113,2.113,0,0,0,1.5,2.017,1.306,1.306,0,0,1-.769.326.921.921,0,0,1-.784-.29,2.232,2.232,0,0,1-.194-1.706c.357-1.61,1.818-4.839,3.214-6.046a.178.178,0,0,0,.066-.138c-.005-.1-.112-.2-.275-.316a1.714,1.714,0,0,0-.652-.3c-1,0-3.433,4.447-3.55,7.651a1.943,1.943,0,0,0,.458,1.452,1.593,1.593,0,0,0,1.172.453,3.1,3.1,0,0,0,1.961-.815,2.341,2.341,0,0,0,1.661-.245,1.4,1.4,0,0,0,1.345,1.06,1.7,1.7,0,0,0,1.2-.509.78.78,0,0,0,.84.509,3.079,3.079,0,0,0,1.788-.963,1.491,1.491,0,0,0,1.477.963,3.1,3.1,0,0,0,1.961-.815,2.31,2.31,0,0,0,1.436-.132.791.791,0,0,0-.005.112.821.821,0,0,0,.922.881A2.491,2.491,0,0,0,181.341,94c-.046.183-.1.382-.173.632l-.27.188c-1.839,1.243-2.771,2.4-2.771,3.454a1.36,1.36,0,0,0,1.284,1.487c1.63,0,2.313-2.593,2.761-4.309.081-.306.153-.576.219-.795a10.681,10.681,0,0,0,2.231-1.788A.245.245,0,0,0,184.693,92.565Zm-7.177.214a1.637,1.637,0,0,1-.815-.677c-.194-.448-.183-.82.036-.988a.446.446,0,0,1,.265-.087.625.625,0,0,1,.362.127C177.668,91.389,177.862,91.934,177.516,92.779Zm-5.471-2.1c.255,0,.408.173.448.509l-.036.071h0c-.041.082-.092.188-.153.306a8.533,8.533,0,0,0-.642,1.513,1.278,1.278,0,0,1-.856.672c-.484,0-.52-.586-.52-.764A2.483,2.483,0,0,1,172.045,90.681Zm-4.809,2.1a1.691,1.691,0,0,1-.815-.677c-.194-.448-.173-.82.046-.988a.446.446,0,0,1,.265-.087.612.612,0,0,1,.367.132C167.4,91.389,167.583,91.934,167.236,92.779Zm13.672,3.01c-.677,2.944-1.034,3.265-1.151,3.265-.168,0-.4-.234-.4-.749a3.869,3.869,0,0,1,1.314-2.287A1.453,1.453,0,0,1,180.908,95.79Z" transform="translate(-163.817 -84.95)" fill="#4fc1b7"/>
      </g>
    </g>
    <path id="Wave_2" data-name="Wave 2" d="M9.255,44.032H14.42c5.166,0,5.166-5.165,10.331-5.165s5.166,5.165,10.331,5.165,5.165-5.165,10.331-5.165,5.165,5.165,10.329,5.165,5.165-5.165,10.329-5.165,5.165,5.165,10.33,5.165,5.164-5.165,10.328-5.165,5.164,5.165,10.328,5.165,5.163-5.165,10.327-5.165,5.164,5.165,10.328,5.165h5.165" transform="translate(-9.255 -32.946)" fill="none" stroke="#664332" stroke-width="1"/>
  </g>
</svg>
