<svg id="Layer_1" data-name="Layer 1" xmlns="http://www.w3.org/2000/svg" viewBox="0 0 329 185"><defs><style>.cls-1{fill:#fcfbfa;}.cls-1,.cls-2{stroke:#664332;stroke-linecap:round;stroke-linejoin:round;}.cls-2{fill:none;}.cls-3,.cls-6{fill:#664332;}.cls-4{fill:#4fc1b7;}.cls-5{fill:#eacbb7;}</style></defs><g id="Home_Big" data-name="Home Big"><rect class="cls-1" x="0.5" y="0.5" width="328" height="184" rx="8"/><path id="Wave_2" data-name="Wave 2" class="cls-2" d="M15.91,44.19H30.82c14.91,0,14.91-14.91,29.83-14.91S75.56,44.19,90.47,44.19s14.91-14.91,29.82-14.91,14.91,14.91,29.82,14.91S165,29.28,179.93,29.28s14.91,14.91,29.82,14.91,14.91-14.91,29.81-14.91,14.91,14.91,29.82,14.91,14.9-14.91,29.81-14.91S314.1,44.19,329,44.19h14.91" transform="translate(-15.41 -11.69)"/><path class="cls-3" d="M116.37,61.09a4.93,4.93,0,0,0,1.56,7,6,6,0,0,0,3.92,1,8.44,8.44,0,0,0,.37,1.52,9.3,9.3,0,0,0,6.59,5.73c1.52.49,1.52.49,1.65,1.31,0,.29.06.7.08,1.16.1,2.32.33,6.51,4,7.77a6.86,6.86,0,0,0,4.34,0,7.4,7.4,0,0,0,4.33-3.91,16.44,16.44,0,0,0,1.49-9.52A20.25,20.25,0,0,0,142.77,67a11.91,11.91,0,0,0-2.26-3.26,4.15,4.15,0,0,0,.4-3.71A3.49,3.49,0,0,0,137,58a3.65,3.65,0,0,0-4.86-1,3.68,3.68,0,0,0-4.77.41,3.77,3.77,0,0,0-4.86,2A5.6,5.6,0,0,0,116.37,61.09Z" transform="translate(-15.41 -11.69)"/><path class="cls-4" d="M122.59,62.08c-1.77-.93-3.5-.35-4.11.86a2.67,2.67,0,0,0,1.18,3.46,3.12,3.12,0,0,0,4.12-.33A2.68,2.68,0,0,0,122.59,62.08Z" transform="translate(-15.41 -11.69)"/><path class="cls-4" d="M125.18,62.12a1.87,1.87,0,0,0,2.23,1.15A1.62,1.62,0,0,0,128,61a1.91,1.91,0,0,0-2.22-1.19A1.69,1.69,0,0,0,125.18,62.12Z" transform="translate(-15.41 -11.69)"/><path class="cls-4" d="M131,62.16c-.84.26-1.61-.5-1.85-1.24-.32-1,0-1.8.67-2a1.62,1.62,0,0,1,1.8,1C132,60.67,131.93,61.88,131,62.16Z" transform="translate(-15.41 -11.69)"/><path class="cls-4" d="M133,60.63a1.58,1.58,0,0,0,1.1,1.77c.85.09,1.41-.76,1.45-1.64s-.4-1.74-1.19-1.77A1.58,1.58,0,0,0,133,60.63Z" transform="translate(-15.41 -11.69)"/><path class="cls-4" d="M136.84,61.29c-.27.66-.24,1.61.5,1.89a1.54,1.54,0,0,0,1.81-1.06c.36-.87,0-1.76-.67-1.91A1.52,1.52,0,0,0,136.84,61.29Z" transform="translate(-15.41 -11.69)"/><path class="cls-4" d="M142.4,78.59a16.34,16.34,0,0,0-1.61-10.38,9.44,9.44,0,0,0-4.57-4.61,8.79,8.79,0,0,0-6.34-.37c-3.71,1-6.1,4.12-5,6.75,2.48,6.1,7.71,2.89,8.37,7.58.24,1.81-.29,6,2.51,7a4.14,4.14,0,0,0,4.08-.83C141.24,82.63,141.92,80.64,142.4,78.59Z" transform="translate(-15.41 -11.69)"/><path class="cls-5" d="M296.32,81.43a1.89,1.89,0,0,0,1.58-.9,1.43,1.43,0,0,0-.26-1.72,2.3,2.3,0,0,0-1.83-.5H293.4V84h.94V81.56a2.78,2.78,0,0,1,1.4.2A11,11,0,0,1,297.31,84h1.19a20.12,20.12,0,0,0-1.64-2.27A1.3,1.3,0,0,0,296.32,81.43Zm-.78-.66h-1.2V79h1.16a2.83,2.83,0,0,1,1,.13.72.72,0,0,1,.54.74.74.74,0,0,1-.29.62A2.09,2.09,0,0,1,295.54,80.77Zm.33-5a5.29,5.29,0,1,0,5.64,5.27A5.36,5.36,0,0,0,295.87,75.79Zm0,9.68a4.53,4.53,0,0,1-4.74-4.41,4.59,4.59,0,0,1,4.74-4.4,4.54,4.54,0,0,1,4.73,4.4A4.6,4.6,0,0,1,295.87,85.47Z" transform="translate(-15.41 -11.69)"/><path class="cls-5" d="M182.06,133.7c-8.44-4.9-10.05-10.42-4.86-16.47s12.28-8.69,21.26-7.79q-9.27-8.4-21.5-1.85L171.73,99q16.07-12,32.45-2c28.88,17.76,7.62,54-22.12,36.66Zm21.3-8.69L202,118.26q-13.78-3.41-11.74,3.87t13.1,2.88Z" transform="translate(-15.41 -11.69)"/><path class="cls-3" d="M185.52,134.61c-8.44-4.9-10.09-10.42-4.86-16.52s12.28-8.65,21.26-7.74q-9.27-8.4-21.5-1.86l-5.28-8.56c10.75-8,21.55-8.69,32.5-2,28.87,17.75,7.62,54-22.12,36.66Zm21.3-8.69-1.36-6.8c-9.19-2.22-13.1-1-11.74,3.91s5.77,5.81,13.1,2.89Z" transform="translate(-15.41 -11.69)"/><text class="cls-6" transform="translate(13.19 170.51)">Since 2008</text><path class="cls-5" d="M258.34,133.7c-8.44-4.9-10.09-10.42-4.86-16.47s12.28-8.69,21.26-7.79q-9.27-8.4-21.5-1.85L248,99c10.75-8,21.54-8.69,32.49-2,28.88,17.76,7.62,54-22.12,36.66Zm21.3-8.69-1.36-6.75q-13.78-3.41-11.74,3.87t13.1,2.88Z" transform="translate(-15.41 -11.69)"/><path class="cls-3" d="M261.8,134.61c-8.44-4.9-10.09-10.42-4.86-16.52s12.28-8.65,21.22-7.74q-9.21-8.4-21.46-1.86l-5.28-8.56q16.07-12,32.46-2c28.92,17.75,7.66,54-22.08,36.66Zm21.3-8.69-1.4-6.8c-9.15-2.22-13.06-1-11.7,3.91s5.73,5.81,13.1,2.89Z" transform="translate(-15.41 -11.69)"/><path class="cls-5" d="M125,99.56q0,16.18-8.94,27.3-9.39,11.69-24,11.66A29.73,29.73,0,0,1,67.6,126.78q-8.77-11.06-8.77-27.22,0-17.24,9.56-27.06Q77.47,63.23,92,63.23c9.55,0,17.38,3.09,23.39,9.31,6.39,6.59,9.6,15.57,9.6,27Zm-23.64,8.07c0-8.49-3.09-12.73-9.23-12.73s-9,4.29-9,12.81a20.58,20.58,0,0,0,2.35,9.56c1.81,3.33,4,5,6.55,5s4.78-1.69,6.67-5.07a18.55,18.55,0,0,0,2.68-9.55Z" transform="translate(-15.41 -11.69)"/><polygon class="cls-5" points="152.94 121.11 133.74 126.87 135.51 60.27 150.38 61.55 152.94 121.11"/><polygon class="cls-3" points="157.05 122.71 137.82 127.45 139.59 60.85 154.5 62.12 157.05 122.71"/><polygon class="cls-5" points="229.22 121.11 210.02 126.87 211.79 60.27 226.66 61.55 229.22 121.11"/><path class="cls-3" d="M285,161a1,1,0,0,0-.78.37,19.06,19.06,0,0,1-4.41,3.54c1.07-3.5,2.23-6.67,3.63-10,.16-.49.45-.86-.37-1a3.56,3.56,0,0,0-3.13,1.4,5.21,5.21,0,0,0-.42.95c-.9,2.23-1.6,4.2-2.26,6.43-1.61,1.52-2.88,2.22-3.42,2.22-.33,0-.49-.21-.49-.58a4.7,4.7,0,0,1,.2-.78c.54-1.73,1.28-3.79,2-5.44l1.28-3.21c.16-.49.49-.86-.33-1a3.74,3.74,0,0,0-3.18,1.4,5.63,5.63,0,0,0-.37.95c-.64,1.61-1.52,3.63-2.26,5.75a3.8,3.8,0,0,1-3.38.76,8.25,8.25,0,0,0,1.48-4.61,4.44,4.44,0,0,0-4.36-4.37,3.26,3.26,0,0,0-.87.12c-5.15,1.2-4.82,8,.79,9.85a3.93,3.93,0,0,1-2.52,1.15c-3.46.17-3.46-3.58-3-5.89,1.07-4.86,5.31-14,9.22-17.34.33-.29,0-.62-.57-1a4.33,4.33,0,0,0-1.82-.82c-2.67,0-9.59,12.6-9.92,21.66a8.07,8.07,0,0,0,0,.87c-1.7,1.68-3,2.47-3.58,2.47-.29,0-.46-.17-.46-.54a4.3,4.3,0,0,1,.21-.82,43.27,43.27,0,0,1,2.64-6.18,8.65,8.65,0,0,0,1-2.43c0-.41-.28-.66-.9-.66a4.11,4.11,0,0,0-2,.91,3.05,3.05,0,0,0-2.72-1.2c-2.76,0-6.63,2.19-8.07,6.31a11.1,11.1,0,0,0-.45,1.74,3.79,3.79,0,0,1-3.42.81,8.58,8.58,0,0,0,1.48-4.61,4.48,4.48,0,0,0-4.41-4.37,2.91,2.91,0,0,0-.82.12c-5.19,1.2-4.86,8,.74,9.85a3.81,3.81,0,0,1-2.47,1.15c-3.5.17-3.5-3.58-3-5.89,1.11-4.86,5.31-14,9.23-17.34.33-.29,0-.62-.54-1a4.83,4.83,0,0,0-1.81-.82c-2.72,0-9.6,12.6-9.93,21.66-.12,3.71,2,5.27,4.45,5.27a8.64,8.64,0,0,0,5.56-2.34,6.7,6.7,0,0,0,4.93-.78,3.77,3.77,0,0,0,3.72,3.12,4.7,4.7,0,0,0,3.46-1.6,2.09,2.09,0,0,0,2.35,1.6c1.26,0,3.14-1,5.13-2.86a4.14,4.14,0,0,0,4.18,2.86,8.49,8.49,0,0,0,5.52-2.34,6.52,6.52,0,0,0,4.37-.47c0,.2,0,.4,0,.59a2.15,2.15,0,0,0,2.43,2.35,7.42,7.42,0,0,0,4-1.81c-.17.74-.37,1.48-.58,2.3l-.86.58c-4.33,2.92-7.83,6.34-7.83,9.72,0,2.1,1.28,4.08,3.5,4.08,5.36,0,7.13-10.34,8.4-14.5a30.54,30.54,0,0,0,6.35-5.11A.65.65,0,0,0,285,161Zm-48.89,1.15a5.22,5.22,0,0,1-2.59-2.1C231.33,155,238.78,155.78,236.06,162.16ZM251,157.67a34.23,34.23,0,0,0-2.3,5.19,3.83,3.83,0,0,1-2.6,2c-1.19,0-1.65-1.15-1.65-2.35,0-3.42,3.22-6.75,5.19-6.75.75,0,1.36.45,1.49,1.65Zm14.34,4.49a5.15,5.15,0,0,1-2.56-2.1C260.65,155,268.11,155.78,265.35,162.16ZM271.69,180c-.66,0-1.36-.79-1.36-2.31,0-2.18,2-4.9,3.79-6.63a4.77,4.77,0,0,1,1.07-.91C274.86,171.55,273,180,271.69,180Z" transform="translate(-15.41 -11.69)"/><polygon class="cls-3" points="233.33 122.71 214.1 127.45 215.87 60.85 230.74 62.12 233.33 122.71"/><path class="cls-3" d="M130.09,101.78q0,16.18-8.94,27.35c-6.26,7.74-14.29,11.66-24.06,11.66A29.66,29.66,0,0,1,72.67,129q-8.78-11.07-8.77-27.23c0-11.49,3.17-20.51,9.59-27.06,6-6.18,13.88-9.23,23.6-9.23s17.38,3.09,23.44,9.27c6.34,6.59,9.56,15.61,9.56,27Zm-23.65,8.07c0-8.48-3.09-12.72-9.22-12.72s-9,4.28-9,12.81a20,20,0,0,0,2.35,9.55c1.77,3.34,4,5,6.5,5s4.78-1.69,6.72-5.07a18.81,18.81,0,0,0,2.63-9.56Z" transform="translate(-15.41 -11.69)"/><path class="cls-4" d="M284.17,161.32a.84.84,0,0,0-.82-.48,1.17,1.17,0,0,0-.87.43,19.78,19.78,0,0,1-4,3.27c1-3.13,2-6.12,3.44-9.6,0-.06.05-.12.07-.17.12-.26.23-.5.11-.72s-.3-.28-.68-.33a3.68,3.68,0,0,0-3.25,1.47,2.9,2.9,0,0,0-.37.72l-.1.26c-.87,2.26-1.57,4.23-2.25,6.4-1.68,1.58-2.81,2.15-3.28,2.15-.15,0-.28,0-.28-.42a2.19,2.19,0,0,1,.1-.52l.05-.21c.56-1.8,1.38-3.95,2-5.42l1.32-3.23c0-.07,0-.14.07-.2.1-.25.19-.49.07-.69a.77.77,0,0,0-.61-.31,3.76,3.76,0,0,0-3.34,1.49,4.28,4.28,0,0,0-.37,1l-.06.13c-.67,1.58-1.49,3.53-2.2,5.58a3.72,3.72,0,0,1-3,.77,8.9,8.9,0,0,0,1.38-4.52,4.68,4.68,0,0,0-4.57-4.54,3,3,0,0,0-.86.13,4.6,4.6,0,0,0-3.81,4.33,6,6,0,0,0,4.28,5.74,3.61,3.61,0,0,1-2.17.93,2.74,2.74,0,0,1-2.28-.84c-1.18-1.4-.73-4.07-.56-4.85,1.09-4.74,5.2-13.82,9.18-17.26a.45.45,0,0,0,.18-.38c0-.29-.28-.56-.74-.91a4.58,4.58,0,0,0-1.9-.85c-2.84,0-9.76,12.68-10.09,21.83,0,.24,0,.46,0,.67v.09c-1.67,1.67-2.92,2.41-3.41,2.41-.14,0-.29,0-.29-.37a2.63,2.63,0,0,1,.13-.55c0-.08.05-.15.07-.22a43.9,43.9,0,0,1,2.59-6.16l.35-.71a5,5,0,0,0,.69-1.79c0-.31-.14-.82-1.11-.82a4.21,4.21,0,0,0-2,.83,3.27,3.27,0,0,0-2.72-1.12,9.42,9.42,0,0,0-8.27,6.41,11.21,11.21,0,0,0-.45,1.74,3.82,3.82,0,0,1-3,.78,8.58,8.58,0,0,0,1.38-4.52,4.6,4.6,0,0,0-4.53-4.54,3.83,3.83,0,0,0-.9.13,4.59,4.59,0,0,0-3.78,4.32,6,6,0,0,0,4.27,5.75,3.68,3.68,0,0,1-2.2.93,2.66,2.66,0,0,1-2.23-.83c-1.19-1.4-.73-4.08-.56-4.86,1-4.59,5.18-13.81,9.17-17.26a.46.46,0,0,0,.19-.39c0-.29-.32-.57-.78-.9a4.72,4.72,0,0,0-1.86-.85c-2.86,0-9.8,12.68-10.14,21.83A5.52,5.52,0,0,0,226,165.6a4.51,4.51,0,0,0,3.34,1.3,8.83,8.83,0,0,0,5.6-2.33,6.66,6.66,0,0,0,4.73-.7,4,4,0,0,0,3.84,3,4.84,4.84,0,0,0,3.41-1.45,2.22,2.22,0,0,0,2.39,1.45c1.35,0,3.2-1,5.1-2.75a4.25,4.25,0,0,0,4.21,2.75,8.83,8.83,0,0,0,5.6-2.33,6.66,6.66,0,0,0,4.1-.37c0,.1,0,.21,0,.31a2.34,2.34,0,0,0,2.64,2.51,7.17,7.17,0,0,0,3.73-1.58c-.13.53-.28,1.09-.5,1.81l-.77.54c-5.24,3.55-7.9,6.86-7.9,9.86,0,2.11,1.26,4.24,3.67,4.24,4.64,0,6.59-7.39,7.87-12.29.23-.87.43-1.63.63-2.26a30.65,30.65,0,0,0,6.36-5.11A.84.84,0,0,0,284.17,161.32Zm-20.47.62a4.64,4.64,0,0,1-2.32-1.94c-.56-1.28-.52-2.34.1-2.82a1.22,1.22,0,0,1,.76-.25,1.76,1.76,0,0,1,1,.37C264.13,158,264.67,159.52,263.7,161.94Zm-15.61-6c.73,0,1.16.49,1.27,1.46l-.1.2h0c-.11.24-.26.54-.44.88a26.17,26.17,0,0,0-1.83,4.31,3.67,3.67,0,0,1-2.44,1.93c-1.38,0-1.49-1.68-1.49-2.19C243.06,159.2,246.24,155.94,248.09,155.94Zm-13.72,6a4.8,4.8,0,0,1-2.32-1.93c-.54-1.28-.49-2.34.14-2.82a1.17,1.17,0,0,1,.75-.25,1.71,1.71,0,0,1,1,.38C234.83,158,235.36,159.52,234.37,161.93Zm39,8.59c-1.94,8.4-2.94,9.31-3.29,9.31s-1.15-.66-1.15-2.14c0-2.17,2-4.87,3.75-6.52A4.71,4.71,0,0,1,273.37,170.52Z" transform="translate(-15.41 -11.69)"/></g></svg>