<svg id="Layer_1" data-name="Layer 1" xmlns="http://www.w3.org/2000/svg" viewBox="0 0 164.34 86.42"><defs><style>.cls-1{fill:#664332;}.cls-2{fill:#4fc1b7;}.cls-3{fill:#eacbb7;}</style></defs><g id="Olala_-_Logo_Mini" data-name="Olala - Logo Mini"><path class="cls-1" d="M89.32,30.92a3.39,3.39,0,0,0,1.08,4.82,4.14,4.14,0,0,0,2.69.68,7.17,7.17,0,0,0,.25,1,6.39,6.39,0,0,0,4.54,3.94c1.05.34,1.05.34,1.13.91a7.33,7.33,0,0,1,.06.8c.07,1.59.23,4.48,2.76,5.35a4.78,4.78,0,0,0,3,0,5.16,5.16,0,0,0,3-2.69,11.31,11.31,0,0,0,1-6.56A13.52,13.52,0,0,0,107.49,35a8.09,8.09,0,0,0-1.56-2.24,2.86,2.86,0,0,0,.28-2.56,2.41,2.41,0,0,0-2.72-1.41,2.51,2.51,0,0,0-3.34-.68,2.54,2.54,0,0,0-3.29.28,2.61,2.61,0,0,0-3.35,1.36A3.85,3.85,0,0,0,89.32,30.92Z" transform="translate(-49.72 -27.64)"/><path class="cls-2" d="M93.6,31.6a2,2,0,0,0-2.83.59,1.82,1.82,0,0,0,.82,2.38,2.15,2.15,0,0,0,2.83-.22A1.84,1.84,0,0,0,93.6,31.6Z" transform="translate(-49.72 -27.64)"/><path class="cls-2" d="M95.39,31.62a1.28,1.28,0,0,0,1.53.8,1.12,1.12,0,0,0,.39-1.59A1.31,1.31,0,0,0,95.78,30,1.15,1.15,0,0,0,95.39,31.62Z" transform="translate(-49.72 -27.64)"/><path class="cls-2" d="M99.41,31.65c-.58.18-1.11-.34-1.27-.85-.23-.66,0-1.23.46-1.38a1.13,1.13,0,0,1,1.24.7C100.1,30.63,100,31.46,99.41,31.65Z" transform="translate(-49.72 -27.64)"/><path class="cls-2" d="M100.74,30.6a1.1,1.1,0,0,0,.76,1.22c.59.06,1-.52,1-1.13s-.28-1.2-.82-1.22A1.09,1.09,0,0,0,100.74,30.6Z" transform="translate(-49.72 -27.64)"/><path class="cls-2" d="M103.41,31.06c-.19.45-.16,1.11.34,1.3a1.07,1.07,0,0,0,1.25-.74.91.91,0,0,0-.47-1.31A1,1,0,0,0,103.41,31.06Z" transform="translate(-49.72 -27.64)"/><path class="cls-2" d="M107.24,43a11.29,11.29,0,0,0-1.11-7.14A6.45,6.45,0,0,0,103,32.65a6,6,0,0,0-4.36-.26c-2.55.68-4.2,2.83-3.46,4.65,1.7,4.19,5.3,2,5.75,5.21.17,1.25-.2,4.17,1.73,4.85a2.85,2.85,0,0,0,2.81-.56A6.4,6.4,0,0,0,107.24,43Z" transform="translate(-49.72 -27.64)"/><path class="cls-3" d="M134.53,80.89c-5.81-3.37-6.91-7.17-3.34-11.34s8.44-6,14.62-5.36q-6.37-5.77-14.79-1.27l-3.6-5.9c7.37-5.52,14.79-6,22.33-1.36C169.63,67.88,155,92.8,134.53,80.89Zm14.66-6-.94-4.65q-9.48-2.34-8.08,2.67c1,3.34,4,4,9,2Z" transform="translate(-49.72 -27.64)"/><path class="cls-1" d="M136.91,81.51c-5.81-3.37-6.94-7.17-3.34-11.36s8.45-6,14.63-5.33q-6.39-5.79-14.8-1.28l-3.63-5.89c7.4-5.53,14.83-6,22.37-1.36C172,68.5,157.38,93.42,136.91,81.51Zm14.66-6-.94-4.67c-6.32-1.53-9-.66-8.08,2.69s4,4,9,2Z" transform="translate(-49.72 -27.64)"/><path class="cls-3" d="M187,80.89c-5.81-3.37-6.94-7.17-3.34-11.34s8.44-6,14.62-5.36q-6.37-5.77-14.8-1.27L179.89,57c7.4-5.52,14.82-6,22.36-1.36C222.12,67.88,207.5,92.8,187,80.89Zm14.66-6-.94-4.65q-9.48-2.34-8.08,2.67c1,3.34,4,4,9,2Z" transform="translate(-49.72 -27.64)"/><path class="cls-1" d="M189.41,81.51c-5.81-3.37-6.94-7.17-3.34-11.36s8.44-6,14.59-5.33Q194.33,59,185.9,63.54l-3.63-5.89q11.05-8.3,22.33-1.36c19.9,12.21,5.28,37.13-15.19,25.22Zm14.66-6-1-4.67c-6.29-1.53-9-.66-8,2.69s3.94,4,9,2Z" transform="translate(-49.72 -27.64)"/><path class="cls-3" d="M95.27,57.39q0,11.14-6.15,18.8a20.32,20.32,0,0,1-16.55,8,20.47,20.47,0,0,1-16.81-8.08c-4-5.08-6-11.31-6-18.74q0-11.87,6.58-18.62,6.24-6.37,16.27-6.38c6.57,0,12,2.13,16.1,6.41,4.39,4.53,6.6,10.71,6.6,18.59ZM79,63q0-8.76-6.35-8.76c-4.14,0-6.21,3-6.21,8.81a14.17,14.17,0,0,0,1.62,6.58c1.25,2.3,2.75,3.43,4.51,3.43s3.29-1.16,4.59-3.49A12.7,12.7,0,0,0,79,63Z" transform="translate(-49.72 -27.64)"/><polygon class="cls-3" points="75.37 52.63 62.16 56.59 63.38 10.76 73.62 11.64 75.37 52.63"/><polygon class="cls-1" points="78.21 53.73 64.97 56.99 66.19 11.15 76.45 12.03 78.21 53.73"/><polygon class="cls-3" points="127.87 52.63 114.66 56.59 115.88 10.76 126.11 11.64 127.87 52.63"/><path class="cls-2" d="M205.34,99.68a.72.72,0,0,0-.54.26,13.23,13.23,0,0,1-3,2.44c.74-2.41,1.53-4.59,2.49-6.92.12-.34.32-.59-.25-.68a2.46,2.46,0,0,0-2.15,1,3.79,3.79,0,0,0-.29.66c-.62,1.53-1.1,2.89-1.56,4.42a5,5,0,0,1-2.35,1.53c-.23,0-.34-.14-.34-.4a2.87,2.87,0,0,1,.14-.54c.37-1.19.88-2.6,1.36-3.74l.88-2.21c.11-.34.34-.59-.23-.68a2.59,2.59,0,0,0-2.18,1,3,3,0,0,0-.25.66c-.45,1.1-1,2.49-1.56,3.95a2.61,2.61,0,0,1-2.33.53,5.68,5.68,0,0,0,1-3.18,3.05,3.05,0,0,0-3-3,2.06,2.06,0,0,0-.6.08c-3.54.82-3.31,5.53.54,6.78a2.69,2.69,0,0,1-1.73.79c-2.38.11-2.38-2.47-2-4,.74-3.35,3.66-9.61,6.35-11.94.23-.2,0-.42-.4-.71a3,3,0,0,0-1.24-.56c-1.85,0-6.61,8.67-6.83,14.91a5.62,5.62,0,0,0,0,.59c-1.16,1.16-2.05,1.7-2.46,1.7-.2,0-.31-.11-.31-.37a2.53,2.53,0,0,1,.14-.56,30.83,30.83,0,0,1,1.81-4.25,6,6,0,0,0,.68-1.68c0-.28-.2-.45-.62-.45a2.85,2.85,0,0,0-1.39.62,2.13,2.13,0,0,0-1.87-.82,6.4,6.4,0,0,0-5.56,4.34,6.58,6.58,0,0,0-.3,1.2,2.65,2.65,0,0,1-2.36.56,5.93,5.93,0,0,0,1-3.18,3.08,3.08,0,0,0-3-3,1.87,1.87,0,0,0-.57.08c-3.57.82-3.35,5.53.51,6.78a2.62,2.62,0,0,1-1.7.79c-2.41.11-2.41-2.47-2.07-4,.76-3.35,3.66-9.61,6.35-11.94.23-.2,0-.42-.37-.71a3.26,3.26,0,0,0-1.25-.56c-1.87,0-6.6,8.67-6.83,14.91-.08,2.55,1.39,3.62,3.06,3.62A5.94,5.94,0,0,0,172,102a4.6,4.6,0,0,0,3.39-.53,2.6,2.6,0,0,0,2.56,2.14,3.22,3.22,0,0,0,2.38-1.1,1.44,1.44,0,0,0,1.62,1.1,6,6,0,0,0,3.53-2,2.84,2.84,0,0,0,2.88,2A5.8,5.8,0,0,0,192.1,102a4.52,4.52,0,0,0,3-.32c0,.14,0,.27,0,.4a1.48,1.48,0,0,0,1.67,1.62,5.07,5.07,0,0,0,2.75-1.25c-.11.51-.25,1-.39,1.59l-.6.4c-3,2-5.39,4.36-5.39,6.69a2.56,2.56,0,0,0,2.41,2.8c3.69,0,4.91-7.11,5.79-10a20.77,20.77,0,0,0,4.36-3.52A.45.45,0,0,0,205.34,99.68Zm-33.65.8A3.62,3.62,0,0,1,169.91,99C168.43,95.57,173.57,96.08,171.69,100.48ZM182,97.39A23,23,0,0,0,180.4,101a2.64,2.64,0,0,1-1.79,1.39c-.82,0-1.13-.79-1.13-1.62,0-2.35,2.21-4.65,3.57-4.65.51,0,.93.32,1,1.14Zm9.87,3.09A3.57,3.57,0,0,1,190.09,99C188.62,95.57,193.75,96.08,191.85,100.48Zm4.36,12.27c-.45,0-.93-.54-.93-1.58,0-1.51,1.36-3.38,2.61-4.57a3.15,3.15,0,0,1,.73-.62C198.4,106.94,197.12,112.75,196.21,112.75Z" transform="translate(-49.72 -27.64)"/><polygon class="cls-1" points="130.71 53.73 117.47 56.99 118.69 11.15 128.92 12.03 130.71 53.73"/><path class="cls-1" d="M98.76,58.92q0,11.14-6.15,18.82a20.4,20.4,0,0,1-16.56,8,20.43,20.43,0,0,1-16.81-8.11q-6-7.6-6-18.74c0-7.91,2.18-14.11,6.6-18.62C64,36.05,69.36,34,76.05,34s12,2.13,16.13,6.38c4.37,4.53,6.58,10.74,6.58,18.59ZM82.49,64.48c0-5.84-2.13-8.76-6.35-8.76S70,58.67,70,64.54a13.83,13.83,0,0,0,1.61,6.57c1.22,2.3,2.73,3.43,4.48,3.43s3.29-1.16,4.62-3.49a12.89,12.89,0,0,0,1.82-6.57Z" transform="translate(-49.72 -27.64)"/><path class="cls-1" d="M204.8,99.9a.58.58,0,0,0-.56-.33.82.82,0,0,0-.6.29,13.39,13.39,0,0,1-2.75,2.26c.67-2.16,1.41-4.22,2.37-6.62a.37.37,0,0,0,.05-.11c.08-.18.16-.35.08-.5s-.21-.18-.47-.22a2.54,2.54,0,0,0-2.24,1,1.92,1.92,0,0,0-.25.5l-.07.18c-.6,1.55-1.08,2.91-1.55,4.4-1.16,1.09-1.94,1.48-2.26,1.48-.1,0-.19,0-.19-.29a1.59,1.59,0,0,1,.07-.36l0-.14c.39-1.24,1-2.72,1.36-3.74l.91-2.21a1.21,1.21,0,0,0,.05-.14c.07-.18.13-.34.05-.48a.53.53,0,0,0-.42-.21,2.62,2.62,0,0,0-2.3,1,4.72,4.72,0,0,0-.26.66l0,.1c-.45,1.08-1,2.42-1.51,3.83a2.51,2.51,0,0,1-2,.53,6.15,6.15,0,0,0,1-3.11,3.22,3.22,0,0,0-3.15-3.12,2.17,2.17,0,0,0-.59.09,3.17,3.17,0,0,0-2.62,3,4.12,4.12,0,0,0,2.94,3.95,2.52,2.52,0,0,1-1.49.64,1.9,1.9,0,0,1-1.57-.58c-.81-1-.5-2.8-.38-3.34.74-3.26,3.57-9.51,6.31-11.87a.35.35,0,0,0,.13-.27c0-.2-.2-.38-.51-.62A3.21,3.21,0,0,0,191,85c-2,0-6.72,8.73-6.94,15a3.61,3.61,0,0,0,0,.47v.06c-1.16,1.15-2,1.66-2.35,1.66-.1,0-.2,0-.2-.26a2,2,0,0,1,.09-.38.88.88,0,0,0,0-.15,30.77,30.77,0,0,1,1.78-4.24l.24-.49a3.45,3.45,0,0,0,.48-1.23c0-.21-.1-.56-.77-.56a3,3,0,0,0-1.36.57,2.23,2.23,0,0,0-1.87-.77,6.47,6.47,0,0,0-5.69,4.41,7.61,7.61,0,0,0-.31,1.2,2.61,2.61,0,0,1-2.06.53A5.9,5.9,0,0,0,173,97.7a3.17,3.17,0,0,0-3.12-3.12,2.58,2.58,0,0,0-.62.09,3.16,3.16,0,0,0-2.6,3,4.14,4.14,0,0,0,2.94,4,2.56,2.56,0,0,1-1.51.64,1.84,1.84,0,0,1-1.54-.57c-.82-1-.5-2.81-.39-3.35.7-3.16,3.57-9.5,6.32-11.87a.31.31,0,0,0,.12-.27c0-.21-.22-.4-.53-.62a3.36,3.36,0,0,0-1.28-.59c-2,0-6.75,8.73-7,15a3.82,3.82,0,0,0,.91,2.85,3.08,3.08,0,0,0,2.3.9,6.1,6.1,0,0,0,3.85-1.6,4.7,4.7,0,0,0,3.26-.48,2.76,2.76,0,0,0,2.64,2.08,3.37,3.37,0,0,0,2.35-1,1.53,1.53,0,0,0,1.64,1,6,6,0,0,0,3.51-1.89,2.94,2.94,0,0,0,2.9,1.89,6.13,6.13,0,0,0,3.86-1.6,4.5,4.5,0,0,0,2.81-.26c0,.07,0,.14,0,.21a1.62,1.62,0,0,0,1.82,1.73,5,5,0,0,0,2.57-1.08c-.09.36-.2.75-.35,1.24l-.53.37c-3.61,2.44-5.44,4.72-5.44,6.79a2.67,2.67,0,0,0,2.53,2.92c3.19,0,4.53-5.09,5.42-8.46.16-.6.29-1.13.43-1.56a21.24,21.24,0,0,0,4.38-3.51A.59.59,0,0,0,204.8,99.9Zm-14.09.42A3.14,3.14,0,0,1,189.12,99c-.38-.88-.36-1.61.07-1.94a.87.87,0,0,1,.52-.17,1.23,1.23,0,0,1,.71.25C191,97.59,191.39,98.66,190.71,100.32ZM180,96.2c.51,0,.8.34.88,1l-.07.14h0l-.3.61a17,17,0,0,0-1.26,3,2.56,2.56,0,0,1-1.69,1.33c-.94,0-1-1.15-1-1.51C176.51,98.44,178.7,96.2,180,96.2Zm-9.44,4.12A3.29,3.29,0,0,1,168.94,99c-.38-.88-.35-1.61.09-1.94a.85.85,0,0,1,.52-.17,1.17,1.17,0,0,1,.71.26C170.85,97.59,171.21,98.66,170.53,100.32Zm26.84,5.91c-1.33,5.78-2,6.41-2.26,6.41s-.8-.46-.8-1.47c0-1.5,1.39-3.35,2.59-4.49A2.85,2.85,0,0,1,197.37,106.23Z" transform="translate(-49.72 -27.64)"/></g><g id="Olala_-_Logo_Mini-2" data-name="Olala - Logo Mini"><path class="cls-1" d="M89.32,30.92a3.39,3.39,0,0,0,1.08,4.82,4.14,4.14,0,0,0,2.69.68,7.17,7.17,0,0,0,.25,1,6.39,6.39,0,0,0,4.54,3.94c1.05.34,1.05.34,1.13.91a7.33,7.33,0,0,1,.06.8c.07,1.59.23,4.48,2.76,5.35a4.78,4.78,0,0,0,3,0,5.16,5.16,0,0,0,3-2.69,11.31,11.31,0,0,0,1-6.56A13.52,13.52,0,0,0,107.49,35a8.09,8.09,0,0,0-1.56-2.24,2.86,2.86,0,0,0,.28-2.56,2.41,2.41,0,0,0-2.72-1.41,2.51,2.51,0,0,0-3.34-.68,2.54,2.54,0,0,0-3.29.28,2.61,2.61,0,0,0-3.35,1.36A3.85,3.85,0,0,0,89.32,30.92Z" transform="translate(-49.72 -27.64)"/><path class="cls-2" d="M93.6,31.6a2,2,0,0,0-2.83.59,1.82,1.82,0,0,0,.82,2.38,2.15,2.15,0,0,0,2.83-.22A1.84,1.84,0,0,0,93.6,31.6Z" transform="translate(-49.72 -27.64)"/><path class="cls-2" d="M95.39,31.62a1.28,1.28,0,0,0,1.53.8,1.12,1.12,0,0,0,.39-1.59A1.31,1.31,0,0,0,95.78,30,1.15,1.15,0,0,0,95.39,31.62Z" transform="translate(-49.72 -27.64)"/><path class="cls-2" d="M99.41,31.65c-.58.18-1.11-.34-1.27-.85-.23-.66,0-1.23.46-1.38a1.13,1.13,0,0,1,1.24.7C100.1,30.63,100,31.46,99.41,31.65Z" transform="translate(-49.72 -27.64)"/><path class="cls-2" d="M100.74,30.6a1.1,1.1,0,0,0,.76,1.22c.59.06,1-.52,1-1.13s-.28-1.2-.82-1.22A1.09,1.09,0,0,0,100.74,30.6Z" transform="translate(-49.72 -27.64)"/><path class="cls-2" d="M103.41,31.06c-.19.45-.16,1.11.34,1.3a1.07,1.07,0,0,0,1.25-.74.91.91,0,0,0-.47-1.31A1,1,0,0,0,103.41,31.06Z" transform="translate(-49.72 -27.64)"/><path class="cls-2" d="M107.24,43a11.29,11.29,0,0,0-1.11-7.14A6.45,6.45,0,0,0,103,32.65a6,6,0,0,0-4.36-.26c-2.55.68-4.2,2.83-3.46,4.65,1.7,4.19,5.3,2,5.75,5.21.17,1.25-.2,4.17,1.73,4.85a2.85,2.85,0,0,0,2.81-.56A6.4,6.4,0,0,0,107.24,43Z" transform="translate(-49.72 -27.64)"/><path class="cls-3" d="M134.53,80.89c-5.81-3.37-6.91-7.17-3.34-11.34s8.44-6,14.62-5.36q-6.37-5.77-14.79-1.27l-3.6-5.9c7.37-5.52,14.79-6,22.33-1.36C169.63,67.88,155,92.8,134.53,80.89Zm14.66-6-.94-4.65q-9.48-2.34-8.08,2.67c1,3.34,4,4,9,2Z" transform="translate(-49.72 -27.64)"/><path class="cls-1" d="M136.91,81.51c-5.81-3.37-6.94-7.17-3.34-11.36s8.45-6,14.63-5.33q-6.39-5.79-14.8-1.28l-3.63-5.89c7.4-5.53,14.83-6,22.37-1.36C172,68.5,157.38,93.42,136.91,81.51Zm14.66-6-.94-4.67c-6.32-1.53-9-.66-8.08,2.69s4,4,9,2Z" transform="translate(-49.72 -27.64)"/><path class="cls-3" d="M187,80.89c-5.81-3.37-6.94-7.17-3.34-11.34s8.44-6,14.62-5.36q-6.37-5.77-14.8-1.27L179.89,57c7.4-5.52,14.82-6,22.36-1.36C222.12,67.88,207.5,92.8,187,80.89Zm14.66-6-.94-4.65q-9.48-2.34-8.08,2.67c1,3.34,4,4,9,2Z" transform="translate(-49.72 -27.64)"/><path class="cls-1" d="M189.41,81.51c-5.81-3.37-6.94-7.17-3.34-11.36s8.44-6,14.59-5.33Q194.33,59,185.9,63.54l-3.63-5.89q11.05-8.3,22.33-1.36c19.9,12.21,5.28,37.13-15.19,25.22Zm14.66-6-1-4.67c-6.29-1.53-9-.66-8,2.69s3.94,4,9,2Z" transform="translate(-49.72 -27.64)"/><path class="cls-3" d="M95.27,57.39q0,11.14-6.15,18.8a20.32,20.32,0,0,1-16.55,8,20.47,20.47,0,0,1-16.81-8.08c-4-5.08-6-11.31-6-18.74q0-11.87,6.58-18.62,6.24-6.37,16.27-6.38c6.57,0,12,2.13,16.1,6.41,4.39,4.53,6.6,10.71,6.6,18.59ZM79,63q0-8.76-6.35-8.76c-4.14,0-6.21,3-6.21,8.81a14.17,14.17,0,0,0,1.62,6.58c1.25,2.3,2.75,3.43,4.51,3.43s3.29-1.16,4.59-3.49A12.7,12.7,0,0,0,79,63Z" transform="translate(-49.72 -27.64)"/><polygon class="cls-3" points="75.37 52.63 62.16 56.59 63.38 10.76 73.62 11.64 75.37 52.63"/><polygon class="cls-1" points="78.21 53.73 64.97 56.99 66.19 11.15 76.45 12.03 78.21 53.73"/><polygon class="cls-3" points="127.87 52.63 114.66 56.59 115.88 10.76 126.11 11.64 127.87 52.63"/><path class="cls-1" d="M205.34,99.68a.72.72,0,0,0-.54.26,13.23,13.23,0,0,1-3,2.44c.74-2.41,1.53-4.59,2.49-6.92.12-.34.32-.59-.25-.68a2.46,2.46,0,0,0-2.15,1,3.79,3.79,0,0,0-.29.66c-.62,1.53-1.1,2.89-1.56,4.42a5,5,0,0,1-2.35,1.53c-.23,0-.34-.14-.34-.4a2.87,2.87,0,0,1,.14-.54c.37-1.19.88-2.6,1.36-3.74l.88-2.21c.11-.34.34-.59-.23-.68a2.59,2.59,0,0,0-2.18,1,3,3,0,0,0-.25.66c-.45,1.1-1,2.49-1.56,3.95a2.61,2.61,0,0,1-2.33.53,5.68,5.68,0,0,0,1-3.18,3.05,3.05,0,0,0-3-3,2.06,2.06,0,0,0-.6.08c-3.54.82-3.31,5.53.54,6.78a2.69,2.69,0,0,1-1.73.79c-2.38.11-2.38-2.47-2-4,.74-3.35,3.66-9.61,6.35-11.94.23-.2,0-.42-.4-.71a3,3,0,0,0-1.24-.56c-1.85,0-6.61,8.67-6.83,14.91a5.62,5.62,0,0,0,0,.59c-1.16,1.16-2.05,1.7-2.46,1.7-.2,0-.31-.11-.31-.37a2.53,2.53,0,0,1,.14-.56,30.83,30.83,0,0,1,1.81-4.25,6,6,0,0,0,.68-1.68c0-.28-.2-.45-.62-.45a2.85,2.85,0,0,0-1.39.62,2.13,2.13,0,0,0-1.87-.82,6.4,6.4,0,0,0-5.56,4.34,6.58,6.58,0,0,0-.3,1.2,2.65,2.65,0,0,1-2.36.56,5.93,5.93,0,0,0,1-3.18,3.08,3.08,0,0,0-3-3,1.87,1.87,0,0,0-.57.08c-3.57.82-3.35,5.53.51,6.78a2.62,2.62,0,0,1-1.7.79c-2.41.11-2.41-2.47-2.07-4,.76-3.35,3.66-9.61,6.35-11.94.23-.2,0-.42-.37-.71a3.26,3.26,0,0,0-1.25-.56c-1.87,0-6.6,8.67-6.83,14.91-.08,2.55,1.39,3.62,3.06,3.62A5.94,5.94,0,0,0,172,102a4.6,4.6,0,0,0,3.39-.53,2.6,2.6,0,0,0,2.56,2.14,3.22,3.22,0,0,0,2.38-1.1,1.44,1.44,0,0,0,1.62,1.1,6,6,0,0,0,3.53-2,2.84,2.84,0,0,0,2.88,2A5.8,5.8,0,0,0,192.1,102a4.52,4.52,0,0,0,3-.32c0,.14,0,.27,0,.4a1.48,1.48,0,0,0,1.67,1.62,5.07,5.07,0,0,0,2.75-1.25c-.11.51-.25,1-.39,1.59l-.6.4c-3,2-5.39,4.36-5.39,6.69a2.56,2.56,0,0,0,2.41,2.8c3.69,0,4.91-7.11,5.79-10a20.77,20.77,0,0,0,4.36-3.52A.45.45,0,0,0,205.34,99.68Zm-33.65.8A3.62,3.62,0,0,1,169.91,99C168.43,95.57,173.57,96.08,171.69,100.48ZM182,97.39A23,23,0,0,0,180.4,101a2.64,2.64,0,0,1-1.79,1.39c-.82,0-1.13-.79-1.13-1.62,0-2.35,2.21-4.65,3.57-4.65.51,0,.93.32,1,1.14Zm9.87,3.09A3.57,3.57,0,0,1,190.09,99C188.62,95.57,193.75,96.08,191.85,100.48Zm4.36,12.27c-.45,0-.93-.54-.93-1.58,0-1.51,1.36-3.38,2.61-4.57a3.15,3.15,0,0,1,.73-.62C198.4,106.94,197.12,112.75,196.21,112.75Z" transform="translate(-49.72 -27.64)"/><polygon class="cls-1" points="130.71 53.73 117.47 56.99 118.69 11.15 128.92 12.03 130.71 53.73"/><path class="cls-1" d="M98.76,58.92q0,11.14-6.15,18.82a20.4,20.4,0,0,1-16.56,8,20.43,20.43,0,0,1-16.81-8.11q-6-7.6-6-18.74c0-7.91,2.18-14.11,6.6-18.62C64,36.05,69.36,34,76.05,34s12,2.13,16.13,6.38c4.37,4.53,6.58,10.74,6.58,18.59ZM82.49,64.48c0-5.84-2.13-8.76-6.35-8.76S70,58.67,70,64.54a13.83,13.83,0,0,0,1.61,6.57c1.22,2.3,2.73,3.43,4.48,3.43s3.29-1.16,4.62-3.49a12.89,12.89,0,0,0,1.82-6.57Z" transform="translate(-49.72 -27.64)"/><path class="cls-2" d="M204.8,99.9a.58.58,0,0,0-.56-.33.82.82,0,0,0-.6.29,13.39,13.39,0,0,1-2.75,2.26c.67-2.16,1.41-4.22,2.37-6.62a.37.37,0,0,0,.05-.11c.08-.18.16-.35.08-.5s-.21-.18-.47-.22a2.54,2.54,0,0,0-2.24,1,1.92,1.92,0,0,0-.25.5l-.07.18c-.6,1.55-1.08,2.91-1.55,4.4-1.16,1.09-1.94,1.48-2.26,1.48-.1,0-.19,0-.19-.29a1.59,1.59,0,0,1,.07-.36l0-.14c.39-1.24,1-2.72,1.36-3.74l.91-2.21a1.21,1.21,0,0,0,.05-.14c.07-.18.13-.34.05-.48a.53.53,0,0,0-.42-.21,2.62,2.62,0,0,0-2.3,1,4.72,4.72,0,0,0-.26.66l0,.1c-.45,1.08-1,2.42-1.51,3.83a2.51,2.51,0,0,1-2,.53,6.15,6.15,0,0,0,1-3.11,3.22,3.22,0,0,0-3.15-3.12,2.17,2.17,0,0,0-.59.09,3.17,3.17,0,0,0-2.62,3,4.12,4.12,0,0,0,2.94,3.95,2.52,2.52,0,0,1-1.49.64,1.9,1.9,0,0,1-1.57-.58c-.81-1-.5-2.8-.38-3.34.74-3.26,3.57-9.51,6.31-11.87a.35.35,0,0,0,.13-.27c0-.2-.2-.38-.51-.62A3.21,3.21,0,0,0,191,85c-2,0-6.72,8.73-6.94,15a3.61,3.61,0,0,0,0,.47v.06c-1.16,1.15-2,1.66-2.35,1.66-.1,0-.2,0-.2-.26a2,2,0,0,1,.09-.38.88.88,0,0,0,0-.15,30.77,30.77,0,0,1,1.78-4.24l.24-.49a3.45,3.45,0,0,0,.48-1.23c0-.21-.1-.56-.77-.56a3,3,0,0,0-1.36.57,2.23,2.23,0,0,0-1.87-.77,6.47,6.47,0,0,0-5.69,4.41,7.61,7.61,0,0,0-.31,1.2,2.61,2.61,0,0,1-2.06.53A5.9,5.9,0,0,0,173,97.7a3.17,3.17,0,0,0-3.12-3.12,2.58,2.58,0,0,0-.62.09,3.16,3.16,0,0,0-2.6,3,4.14,4.14,0,0,0,2.94,4,2.56,2.56,0,0,1-1.51.64,1.84,1.84,0,0,1-1.54-.57c-.82-1-.5-2.81-.39-3.35.7-3.16,3.57-9.5,6.32-11.87a.31.31,0,0,0,.12-.27c0-.21-.22-.4-.53-.62a3.36,3.36,0,0,0-1.28-.59c-2,0-6.75,8.73-7,15a3.82,3.82,0,0,0,.91,2.85,3.08,3.08,0,0,0,2.3.9,6.1,6.1,0,0,0,3.85-1.6,4.7,4.7,0,0,0,3.26-.48,2.76,2.76,0,0,0,2.64,2.08,3.37,3.37,0,0,0,2.35-1,1.53,1.53,0,0,0,1.64,1,6,6,0,0,0,3.51-1.89,2.94,2.94,0,0,0,2.9,1.89,6.13,6.13,0,0,0,3.86-1.6,4.5,4.5,0,0,0,2.81-.26c0,.07,0,.14,0,.21a1.62,1.62,0,0,0,1.82,1.73,5,5,0,0,0,2.57-1.08c-.09.36-.2.75-.35,1.24l-.53.37c-3.61,2.44-5.44,4.72-5.44,6.79a2.67,2.67,0,0,0,2.53,2.92c3.19,0,4.53-5.09,5.42-8.46.16-.6.29-1.13.43-1.56a21.24,21.24,0,0,0,4.38-3.51A.59.59,0,0,0,204.8,99.9Zm-14.09.42A3.14,3.14,0,0,1,189.12,99c-.38-.88-.36-1.61.07-1.94a.87.87,0,0,1,.52-.17,1.23,1.23,0,0,1,.71.25C191,97.59,191.39,98.66,190.71,100.32ZM180,96.2c.51,0,.8.34.88,1l-.07.14h0l-.3.61a17,17,0,0,0-1.26,3,2.56,2.56,0,0,1-1.69,1.33c-.94,0-1-1.15-1-1.51C176.51,98.44,178.7,96.2,180,96.2Zm-9.44,4.12A3.29,3.29,0,0,1,168.94,99c-.38-.88-.35-1.61.09-1.94a.85.85,0,0,1,.52-.17,1.17,1.17,0,0,1,.71.26C170.85,97.59,171.21,98.66,170.53,100.32Zm26.84,5.91c-1.33,5.78-2,6.41-2.26,6.41s-.8-.46-.8-1.47c0-1.5,1.39-3.35,2.59-4.49A2.85,2.85,0,0,1,197.37,106.23Z" transform="translate(-49.72 -27.64)"/></g><g id="Olala"><path class="cls-1" d="M89.32,30.92a3.39,3.39,0,0,0,1.08,4.82,4.14,4.14,0,0,0,2.69.68,7.17,7.17,0,0,0,.25,1,6.39,6.39,0,0,0,4.54,3.94c1.05.34,1.05.34,1.13.91a7.33,7.33,0,0,1,.06.8c.07,1.59.23,4.48,2.76,5.35a4.78,4.78,0,0,0,3,0,5.16,5.16,0,0,0,3-2.69,11.31,11.31,0,0,0,1-6.56A13.52,13.52,0,0,0,107.49,35a8.09,8.09,0,0,0-1.56-2.24,2.86,2.86,0,0,0,.28-2.56,2.41,2.41,0,0,0-2.72-1.41,2.51,2.51,0,0,0-3.34-.68,2.54,2.54,0,0,0-3.29.28,2.61,2.61,0,0,0-3.35,1.36A3.85,3.85,0,0,0,89.32,30.92Z" transform="translate(-49.72 -27.64)"/><path class="cls-2" d="M93.6,31.6a2,2,0,0,0-2.83.59,1.82,1.82,0,0,0,.82,2.38,2.15,2.15,0,0,0,2.83-.22A1.84,1.84,0,0,0,93.6,31.6Z" transform="translate(-49.72 -27.64)"/><path class="cls-2" d="M95.39,31.62a1.28,1.28,0,0,0,1.53.8,1.12,1.12,0,0,0,.39-1.59A1.31,1.31,0,0,0,95.78,30,1.15,1.15,0,0,0,95.39,31.62Z" transform="translate(-49.72 -27.64)"/><path class="cls-2" d="M99.41,31.65c-.58.18-1.11-.34-1.27-.85-.23-.66,0-1.23.46-1.38a1.13,1.13,0,0,1,1.24.7C100.1,30.63,100,31.46,99.41,31.65Z" transform="translate(-49.72 -27.64)"/><path class="cls-2" d="M100.74,30.6a1.1,1.1,0,0,0,.76,1.22c.59.06,1-.52,1-1.13s-.28-1.2-.82-1.22A1.09,1.09,0,0,0,100.74,30.6Z" transform="translate(-49.72 -27.64)"/><path class="cls-2" d="M103.41,31.06c-.19.45-.16,1.11.34,1.3a1.07,1.07,0,0,0,1.25-.74.91.91,0,0,0-.47-1.31A1,1,0,0,0,103.41,31.06Z" transform="translate(-49.72 -27.64)"/><path class="cls-2" d="M107.24,43a11.29,11.29,0,0,0-1.11-7.14A6.45,6.45,0,0,0,103,32.65a6,6,0,0,0-4.36-.26c-2.55.68-4.2,2.83-3.46,4.65,1.7,4.19,5.3,2,5.75,5.21.17,1.25-.2,4.17,1.73,4.85a2.85,2.85,0,0,0,2.81-.56A6.4,6.4,0,0,0,107.24,43Z" transform="translate(-49.72 -27.64)"/><path class="cls-3" d="M134.53,80.89c-5.81-3.37-6.91-7.17-3.34-11.34s8.44-6,14.62-5.36q-6.37-5.77-14.79-1.27l-3.6-5.9c7.37-5.52,14.79-6,22.33-1.36C169.63,67.88,155,92.8,134.53,80.89Zm14.66-6-.94-4.65q-9.48-2.34-8.08,2.67c1,3.34,4,4,9,2Z" transform="translate(-49.72 -27.64)"/><path class="cls-1" d="M136.91,81.51c-5.81-3.37-6.94-7.17-3.34-11.36s8.45-6,14.63-5.33q-6.39-5.79-14.8-1.28l-3.63-5.89c7.4-5.53,14.83-6,22.37-1.36C172,68.5,157.38,93.42,136.91,81.51Zm14.66-6-.94-4.67c-6.32-1.53-9-.66-8.08,2.69s4,4,9,2Z" transform="translate(-49.72 -27.64)"/><path class="cls-3" d="M187,80.89c-5.81-3.37-6.94-7.17-3.34-11.34s8.44-6,14.62-5.36q-6.37-5.77-14.8-1.27L179.89,57c7.4-5.52,14.82-6,22.36-1.36C222.12,67.88,207.5,92.8,187,80.89Zm14.66-6-.94-4.65q-9.48-2.34-8.08,2.67c1,3.34,4,4,9,2Z" transform="translate(-49.72 -27.64)"/><path class="cls-1" d="M189.41,81.51c-5.81-3.37-6.94-7.17-3.34-11.36s8.44-6,14.59-5.33Q194.33,59,185.9,63.54l-3.63-5.89q11.05-8.3,22.33-1.36c19.9,12.21,5.28,37.13-15.19,25.22Zm14.66-6-1-4.67c-6.29-1.53-9-.66-8,2.69s3.94,4,9,2Z" transform="translate(-49.72 -27.64)"/><path class="cls-3" d="M95.27,57.39q0,11.14-6.15,18.8a20.32,20.32,0,0,1-16.55,8,20.47,20.47,0,0,1-16.81-8.08c-4-5.08-6-11.31-6-18.74q0-11.87,6.58-18.62,6.24-6.37,16.27-6.38c6.57,0,12,2.13,16.1,6.41,4.39,4.53,6.6,10.71,6.6,18.59ZM79,63q0-8.76-6.35-8.76c-4.14,0-6.21,3-6.21,8.81a14.17,14.17,0,0,0,1.62,6.58c1.25,2.3,2.75,3.43,4.51,3.43s3.29-1.16,4.59-3.49A12.7,12.7,0,0,0,79,63Z" transform="translate(-49.72 -27.64)"/><polygon class="cls-3" points="75.37 52.63 62.16 56.59 63.38 10.76 73.62 11.64 75.37 52.63"/><polygon class="cls-1" points="78.21 53.73 64.97 56.99 66.19 11.15 76.45 12.03 78.21 53.73"/><polygon class="cls-3" points="127.87 52.63 114.66 56.59 115.88 10.76 126.11 11.64 127.87 52.63"/><polygon class="cls-1" points="130.71 53.73 117.47 56.99 118.69 11.15 128.92 12.03 130.71 53.73"/><path class="cls-1" d="M98.76,58.92q0,11.14-6.15,18.82a20.4,20.4,0,0,1-16.56,8,20.43,20.43,0,0,1-16.81-8.11q-6-7.6-6-18.74c0-7.91,2.18-14.11,6.6-18.62C64,36.05,69.36,34,76.05,34s12,2.13,16.13,6.38c4.37,4.53,6.58,10.74,6.58,18.59ZM82.49,64.48c0-5.84-2.13-8.76-6.35-8.76S70,58.67,70,64.54a13.83,13.83,0,0,0,1.61,6.57c1.22,2.3,2.73,3.43,4.48,3.43s3.29-1.16,4.62-3.49a12.89,12.89,0,0,0,1.82-6.57Z" transform="translate(-49.72 -27.64)"/></g></svg>