<svg xmlns="http://www.w3.org/2000/svg" width="329" height="185" viewBox="0 0 329 185">
  <g id="Home_Big" data-name="Home Big" transform="translate(0.5 0.5)">
    <g id="Group_168" data-name="Group 168" transform="translate(-796)">
      <rect id="Rectangle_489" data-name="Rectangle 489" width="328" height="184" rx="8" transform="translate(796)" fill="#fcfbfa" stroke="#664332" stroke-width="1"/>
      <path id="Wave_2" data-name="Wave 2" d="M9.255,53.776H24.164c14.913,0,14.913-14.909,29.824-14.909S68.9,53.776,83.812,53.776s14.911-14.909,29.822-14.909,14.909,14.909,29.818,14.909,14.909-14.909,29.818-14.909,14.911,14.909,29.82,14.909S218,38.867,232.905,38.867s14.907,14.909,29.814,14.909,14.9-14.909,29.811-14.909,14.907,14.909,29.816,14.909h14.909" transform="translate(786.745 -21.776)" fill="#fcfbfa" stroke="#664332" stroke-width="1"/>
    </g>
    <text id="Est._in_2008" data-name="Est. in 2008" transform="translate(66 170)" fill="#664332" font-size="32" font-family="VI-TiGon, VI Ti Gon"><tspan x="-54.432" y="0">Est. in 2008</tspan></text>
    <g id="Group_183" data-name="Group 183" transform="translate(-796)">
      <path id="Path_53" data-name="Path 53" d="M215.161,46.745a1.932,1.932,0,0,0,1.6-.912A1.426,1.426,0,0,0,216.5,44.1a2.331,2.331,0,0,0-1.853-.5h-2.441v5.749h.956V46.863a2.8,2.8,0,0,1,1.412.206,11.418,11.418,0,0,1,1.588,2.25h1.206a21.792,21.792,0,0,0-1.662-2.294A1.305,1.305,0,0,0,215.161,46.745Zm-.794-.662h-1.206v-1.75h1.162a2.756,2.756,0,0,1,1,.132.728.728,0,0,1,.544.75.785.785,0,0,1-.294.632A2.29,2.29,0,0,1,214.367,46.084Zm.324-5.044a5.349,5.349,0,1,0,5.72,5.338A5.423,5.423,0,0,0,214.69,41.04Zm0,9.793a4.59,4.59,0,0,1-4.794-4.455,4.806,4.806,0,1,1,4.794,4.455Z" transform="translate(861.266 21.845)" fill="#eacbb7"/>
      <g id="Group_181" data-name="Group 181">
        <g id="Group_175" data-name="Group 175">
          <path id="Path_58" data-name="Path 58" d="M116.7,69.156q0,16.388-9.043,27.63-9.506,11.822-24.336,11.793A30.064,30.064,0,0,1,58.6,96.7Q49.713,85.515,49.72,69.141q0-17.447,9.676-27.38c6.132-6.249,14.087-9.381,23.924-9.381,9.676,0,17.587,3.132,23.674,9.426,6.455,6.676,9.705,15.763,9.705,27.35ZM92.775,77.332c0-8.587-3.132-12.881-9.337-12.881-6.088,0-9.132,4.338-9.132,12.969A20.882,20.882,0,0,0,76.688,87.1c1.838,3.382,4.044,5.044,6.632,5.044,2.544,0,4.838-1.706,6.749-5.132a18.763,18.763,0,0,0,2.706-9.676Z" transform="translate(789.28 17.771)" fill="#eacbb7"/>
          <path id="Path_64" data-name="Path 64" d="M120.189,70.672q0,16.388-9.043,27.674c-6.338,7.838-14.469,11.793-24.336,11.793A29.984,29.984,0,0,1,62.092,98.213Q53.2,87.031,53.21,70.657c0-11.631,3.206-20.763,9.7-27.38C69,37.028,76.958,33.94,86.8,33.94c9.7,0,17.587,3.132,23.718,9.381,6.426,6.676,9.676,15.807,9.676,27.35ZM96.265,78.848c0-8.587-3.132-12.881-9.337-12.881-6.088,0-9.087,4.338-9.087,12.969a20.271,20.271,0,0,0,2.382,9.676c1.794,3.382,4,5.044,6.588,5.044s4.838-1.706,6.793-5.132a19.167,19.167,0,0,0,2.662-9.676Z" transform="translate(790.922 18.505)" fill="#664332"/>
        </g>
      </g>
      <g id="Group_182" data-name="Group 182">
        <path id="Path_46" data-name="Path 46" d="M89.6,32.454a4.989,4.989,0,0,0,1.588,7.088,6.084,6.084,0,0,0,3.956,1,8.782,8.782,0,0,0,.382,1.544,9.417,9.417,0,0,0,6.676,5.794c1.544.5,1.544.5,1.662,1.338.044.294.059.706.088,1.162.1,2.353.338,6.588,4.058,7.867a6.921,6.921,0,0,0,4.4.015,7.424,7.424,0,0,0,4.367-3.956,16.561,16.561,0,0,0,1.515-9.631,19.876,19.876,0,0,0-1.956-6.205,11.894,11.894,0,0,0-2.294-3.294,4.186,4.186,0,0,0,.412-3.75,3.524,3.524,0,0,0-3.985-2.073,3.688,3.688,0,0,0-4.911-1,3.738,3.738,0,0,0-4.838.412,3.8,3.8,0,0,0-4.911,2A5.642,5.642,0,0,0,89.6,32.454Z" transform="translate(806.851 15.55)" fill="#664332"/>
        <path id="Path_47" data-name="Path 47" d="M95.015,31.749c-1.779-.941-3.544-.353-4.161.882a2.69,2.69,0,0,0,1.191,3.5,3.155,3.155,0,0,0,4.161-.338A2.7,2.7,0,0,0,95.015,31.749Z" transform="translate(807.776 17.255)" fill="#4fc1b7"/>
        <path id="Path_48" data-name="Path 48" d="M95.464,32.41a1.867,1.867,0,0,0,2.25,1.162,1.65,1.65,0,0,0,.588-2.338,1.918,1.918,0,0,0-2.25-1.206A1.7,1.7,0,0,0,95.464,32.41Z" transform="translate(809.885 16.623)" fill="#4fc1b7"/>
        <path id="Path_49" data-name="Path 49" d="M100.052,32.716c-.853.265-1.632-.5-1.882-1.25-.323-.971.015-1.823.676-2.029a1.638,1.638,0,0,1,1.823,1.029C101.066,31.216,100.964,32.437,100.052,32.716Z" transform="translate(811.161 16.361)" fill="#4fc1b7"/>
        <path id="Path_50" data-name="Path 50" d="M100.741,31.132a1.612,1.612,0,0,0,1.118,1.794c.868.088,1.426-.779,1.47-1.662.044-.853-.412-1.765-1.206-1.794A1.6,1.6,0,0,0,100.741,31.132Z" transform="translate(812.38 16.401)" fill="#4fc1b7"/>
        <path id="Path_51" data-name="Path 51" d="M103.461,31.417c-.279.662-.235,1.632.5,1.912a1.564,1.564,0,0,0,1.823-1.073c.368-.882.029-1.779-.676-1.926A1.5,1.5,0,0,0,103.461,31.417Z" transform="translate(813.541 16.792)" fill="#4fc1b7"/>
        <path id="Path_52" data-name="Path 52" d="M113.011,48.065a16.5,16.5,0,0,0-1.632-10.5,9.477,9.477,0,0,0-4.632-4.661,9.012,9.012,0,0,0-6.426-.382c-3.75,1-6.176,4.161-5.088,6.838,2.5,6.176,7.793,2.911,8.455,7.676.25,1.838-.294,6.117,2.544,7.132a4.178,4.178,0,0,0,4.132-.838C111.835,52.153,112.511,50.138,113.011,48.065Z" transform="translate(809.714 17.643)" fill="#4fc1b7"/>
      </g>
      <g id="Group_180" data-name="Group 180">
        <path id="Path_59" data-name="Path 59" d="M131.3,99.968l-19.425,5.838L113.674,38.4l15.057,1.294Z" transform="translate(817.344 20.603)" fill="#eacbb7"/>
        <path id="Path_60" data-name="Path 60" d="M134.159,101.4l-19.469,4.794L116.484,38.8l15.087,1.294Z" transform="translate(818.612 20.791)" fill="#664332"/>
      </g>
      <g id="Group_179" data-name="Group 179">
        <path id="Path_54" data-name="Path 54" d="M137.875,94.249c-8.543-4.955-10.176-10.543-4.911-16.675,5.294-6.176,12.425-8.793,21.513-7.882q-9.374-8.514-21.763-1.882l-5.294-8.676q16.256-12.2,32.85-2c29.218,17.984,7.705,54.627-22.395,37.114Zm21.557-8.793-1.382-6.838q-13.94-3.441-11.881,3.911c1.426,4.926,5.838,5.882,13.263,2.926Z" transform="translate(824.157 27.233)" fill="#eacbb7"/>
        <path id="Path_55" data-name="Path 55" d="M140.269,94.869c-8.543-4.955-10.2-10.543-4.911-16.719,5.294-6.132,12.425-8.749,21.513-7.838Q147.5,61.8,135.108,68.43l-5.338-8.676c10.881-8.132,21.807-8.793,32.894-2,29.218,17.984,7.705,54.627-22.395,37.114Zm21.557-8.793-1.382-6.882c-9.293-2.25-13.249-.956-11.881,3.956q2.14,7.389,13.264,2.926Z" transform="translate(825.212 27.525)" fill="#664332"/>
      </g>
      <g id="Group_178" data-name="Group 178">
        <path id="Path_61" data-name="Path 61" d="M183.8,99.968l-19.425,5.838L166.174,38.4l15.043,1.294Z" transform="translate(841.046 20.603)" fill="#eacbb7"/>
        <path id="Path_63" data-name="Path 63" d="M186.659,101.4l-19.469,4.794L168.984,38.8l15.043,1.294Z" transform="translate(842.315 20.791)" fill="#664332"/>
      </g>
      <g id="Group_177" data-name="Group 177">
        <path id="Path_56" data-name="Path 56" d="M190.389,94.249c-8.543-4.955-10.2-10.543-4.911-16.675,5.294-6.176,12.425-8.793,21.513-7.882q-9.374-8.514-21.763-1.882l-5.338-8.676c10.881-8.132,21.807-8.793,32.894-2,29.2,17.984,7.705,54.627-22.4,37.114Zm21.557-8.793-1.382-6.838q-13.94-3.441-11.881,3.911c1.412,4.926,5.838,5.882,13.264,2.926Z" transform="translate(847.6 27.233)" fill="#eacbb7"/>
        <path id="Path_57" data-name="Path 57" d="M192.769,94.869c-8.543-4.955-10.2-10.543-4.911-16.719,5.249-6.132,12.425-8.749,21.469-7.838-6.205-5.676-13.469-6.294-21.719-1.882l-5.338-8.676q16.256-12.2,32.85-2c29.247,17.984,7.749,54.627-22.351,37.114Zm21.557-8.793-1.412-6.882c-9.249-2.25-13.219-.956-11.837,3.956s5.779,5.9,13.249,2.926Z" transform="translate(848.72 27.525)" fill="#664332"/>
      </g>
      <g id="Group_176" data-name="Group 176">
        <path id="Path_62" data-name="Path 62" d="M224.3,106.549a.99.99,0,0,0-.794.382,19.452,19.452,0,0,1-4.455,3.588c1.088-3.544,2.25-6.749,3.661-10.176.162-.5.456-.882-.382-1a3.585,3.585,0,0,0-3.161,1.412,4.47,4.47,0,0,0-.412.956,67.211,67.211,0,0,0-2.294,6.5c-1.632,1.544-2.911,2.25-3.456,2.25-.338,0-.5-.206-.5-.588a5.818,5.818,0,0,1,.206-.794c.544-1.75,1.294-3.838,2-5.5l1.294-3.25c.162-.5.5-.882-.338-1a3.756,3.756,0,0,0-3.206,1.412,5.187,5.187,0,0,0-.382.956c-.647,1.632-1.544,3.676-2.294,5.823a3.824,3.824,0,0,1-3.426.765,8.347,8.347,0,0,0,1.5-4.661,4.489,4.489,0,0,0-4.411-4.411,3.057,3.057,0,0,0-.882.132c-5.205,1.206-4.882,8.132.794,9.955a3.885,3.885,0,0,1-2.544,1.162c-3.5.162-3.5-3.632-3-5.955,1.088-4.911,5.382-14.131,9.337-17.543.338-.294,0-.632-.588-1.044a4.379,4.379,0,0,0-1.838-.838c-2.706,0-9.705,12.749-10.043,21.924a5.817,5.817,0,0,0,.044.882c-1.72,1.706-3.014,2.5-3.617,2.5-.294,0-.456-.162-.456-.544a4.9,4.9,0,0,1,.206-.838,45.341,45.341,0,0,1,2.662-6.249,8.79,8.79,0,0,0,1-2.456c0-.412-.294-.662-.912-.662a4.243,4.243,0,0,0-2.044.912,3.09,3.09,0,0,0-2.75-1.206c-2.794,0-6.705,2.206-8.176,6.382a11.487,11.487,0,0,0-.456,1.765,3.858,3.858,0,0,1-3.47.823,8.708,8.708,0,0,0,1.5-4.661,4.527,4.527,0,0,0-4.455-4.411,2.771,2.771,0,0,0-.838.132c-5.25,1.206-4.911,8.132.75,9.955a3.784,3.784,0,0,1-2.5,1.162c-3.544.162-3.544-3.632-3.044-5.955,1.132-4.911,5.382-14.131,9.337-17.542.338-.294,0-.632-.544-1.044a4.9,4.9,0,0,0-1.838-.838c-2.75,0-9.705,12.749-10.043,21.924-.132,3.75,2.044,5.338,4.5,5.338a8.783,8.783,0,0,0,5.632-2.382,6.748,6.748,0,0,0,4.985-.779,3.831,3.831,0,0,0,3.764,3.161,4.749,4.749,0,0,0,3.5-1.632,2.134,2.134,0,0,0,2.382,1.632c1.279,0,3.176-.985,5.191-2.9a4.183,4.183,0,0,0,4.235,2.9,8.585,8.585,0,0,0,5.588-2.382,6.566,6.566,0,0,0,4.426-.471,4.159,4.159,0,0,0-.044.6,2.182,2.182,0,0,0,2.456,2.382,7.5,7.5,0,0,0,4.044-1.838c-.162.75-.382,1.5-.588,2.338l-.882.588c-4.382,2.956-7.926,6.426-7.926,9.837,0,2.132,1.294,4.132,3.544,4.132,5.426,0,7.205-10.455,8.5-14.675a31.5,31.5,0,0,0,6.426-5.161A.67.67,0,0,0,224.3,106.549Zm-49.481,1.176a5.432,5.432,0,0,1-2.632-2.132C170.027,100.505,177.585,101.255,174.82,107.725Zm15.131-4.544a33.536,33.536,0,0,0-2.338,5.25,3.846,3.846,0,0,1-2.632,2.044c-1.206,0-1.662-1.162-1.662-2.382,0-3.456,3.25-6.838,5.25-6.838.75,0,1.382.456,1.5,1.662Zm14.513,4.544a5.321,5.321,0,0,1-2.588-2.132C199.715,100.505,207.259,101.255,204.465,107.725Zm6.411,18.042c-.662,0-1.382-.794-1.382-2.338,0-2.206,2-4.955,3.838-6.705a4.426,4.426,0,0,1,1.088-.912C214.1,117.224,212.214,125.767,210.876,125.767Z" transform="translate(840.612 42.564)" fill="#664332"/>
        <path id="Path_65" data-name="Path 65" d="M224.081,106.933a.855.855,0,0,0-.838-.485,1.179,1.179,0,0,0-.868.426,19.647,19.647,0,0,1-4.044,3.308c.985-3.176,2.073-6.191,3.485-9.72a1.725,1.725,0,0,1,.074-.162c.118-.265.235-.515.1-.735-.1-.176-.309-.279-.676-.338a3.716,3.716,0,0,0-3.294,1.485,2.523,2.523,0,0,0-.382.735c-.029.074-.059.162-.1.265-.882,2.279-1.588,4.279-2.279,6.47-1.706,1.6-2.853,2.176-3.309,2.176-.147,0-.294-.029-.294-.412a2.335,2.335,0,0,1,.1-.529l.059-.221c.559-1.823,1.4-4,2-5.485l1.338-3.264c.029-.074.044-.147.074-.206a.814.814,0,0,0,.074-.706c-.088-.162-.279-.25-.618-.309a3.824,3.824,0,0,0-3.382,1.5,4.28,4.28,0,0,0-.382.971l-.059.132c-.676,1.588-1.5,3.573-2.22,5.647a3.832,3.832,0,0,1-3.014.779,9.038,9.038,0,0,0,1.4-4.573,4.735,4.735,0,0,0-4.632-4.588,3.034,3.034,0,0,0-.868.132,4.662,4.662,0,0,0-3.853,4.382,6.082,6.082,0,0,0,4.323,5.808,3.6,3.6,0,0,1-2.191.926,2.756,2.756,0,0,1-2.309-.853c-1.206-1.412-.735-4.117-.573-4.911,1.1-4.794,5.264-13.984,9.279-17.454a.514.514,0,0,0,.191-.4c-.015-.294-.294-.559-.75-.912a4.719,4.719,0,0,0-1.926-.868c-2.882,0-9.881,12.837-10.2,22.086a5.206,5.206,0,0,0,.029.691v.088c-1.691,1.691-2.956,2.441-3.456,2.441-.147,0-.294-.029-.294-.382a2.7,2.7,0,0,1,.132-.559c.029-.074.044-.147.074-.221a45.249,45.249,0,0,1,2.617-6.235c.118-.25.235-.485.353-.721a5.076,5.076,0,0,0,.706-1.809c0-.309-.147-.838-1.132-.838a4.283,4.283,0,0,0-2,.853,3.3,3.3,0,0,0-2.75-1.132,9.544,9.544,0,0,0-8.367,6.485,11.478,11.478,0,0,0-.456,1.75,3.866,3.866,0,0,1-3.044.794,8.72,8.72,0,0,0,1.4-4.573,4.646,4.646,0,0,0-4.588-4.588,3.792,3.792,0,0,0-.912.132A4.661,4.661,0,0,0,168,103.581a6.1,6.1,0,0,0,4.323,5.823,3.769,3.769,0,0,1-2.22.941,2.658,2.658,0,0,1-2.264-.838c-1.206-1.412-.735-4.117-.559-4.926,1.029-4.647,5.25-13.969,9.279-17.454a.514.514,0,0,0,.191-.4c-.015-.294-.323-.573-.794-.912a4.947,4.947,0,0,0-1.882-.868c-2.882,0-9.911,12.837-10.249,22.086a5.61,5.61,0,0,0,1.323,4.191,4.6,4.6,0,0,0,3.382,1.309,8.94,8.94,0,0,0,5.661-2.353,6.757,6.757,0,0,0,4.794-.706,4.04,4.04,0,0,0,3.882,3.059,4.9,4.9,0,0,0,3.456-1.47,2.251,2.251,0,0,0,2.426,1.47c1.367,0,3.235-1.015,5.161-2.779a4.3,4.3,0,0,0,4.264,2.779,8.94,8.94,0,0,0,5.661-2.353,6.668,6.668,0,0,0,4.147-.382,2.286,2.286,0,0,0-.015.324,2.371,2.371,0,0,0,2.661,2.544,7.192,7.192,0,0,0,3.779-1.6c-.132.529-.294,1.1-.5,1.823l-.779.544c-5.308,3.588-8,6.941-8,9.97,0,2.132,1.279,4.294,3.706,4.294,4.705,0,6.676-7.485,7.97-12.44.235-.882.441-1.662.632-2.294a30.835,30.835,0,0,0,6.441-5.161A.709.709,0,0,0,224.081,106.933Zm-20.719.618a4.727,4.727,0,0,1-2.353-1.956c-.559-1.294-.529-2.367.1-2.853a1.286,1.286,0,0,1,.765-.25,1.8,1.8,0,0,1,1.044.368C203.8,103.537,204.362,105.11,203.362,107.551Zm-15.793-6.058c.735,0,1.176.5,1.294,1.47l-.1.206h0c-.118.235-.265.544-.441.882a24.634,24.634,0,0,0-1.853,4.367,3.689,3.689,0,0,1-2.47,1.941c-1.4,0-1.5-1.691-1.5-2.206C182.482,104.786,185.7,101.493,187.569,101.493Zm-13.881,6.058a4.88,4.88,0,0,1-2.353-1.956c-.559-1.294-.5-2.367.132-2.853a1.286,1.286,0,0,1,.765-.25,1.767,1.767,0,0,1,1.059.382C174.159,103.537,174.688,105.11,173.688,107.551Zm39.467,8.69c-1.956,8.5-2.985,9.426-3.323,9.426-.485,0-1.162-.676-1.162-2.162,0-2.206,2.044-4.926,3.794-6.6A4.193,4.193,0,0,1,213.155,116.241Z" transform="translate(840.038 42.502)" fill="#4fc1b7"/>
      </g>
    </g>
  </g>
</svg>
