<svg id="Layer_1" data-name="Layer 1" xmlns="http://www.w3.org/2000/svg" viewBox="0 0 750.51 33.02"><defs><style>.cls-1{fill:#fff;stroke:#664332;stroke-miterlimit:10;}</style></defs><path id="Showcase_Wave_-_Right_White" data-name="Showcase Wave - Right White" class="cls-1" d="M1945.6,1055.43v-32l-749.5,0v32H1211c14.92,0,14.92-14.91,29.83-14.91s14.91,14.91,29.82,14.91,14.91-14.91,29.82-14.91,14.91,14.91,29.82,14.91,14.91-14.91,29.82-14.91,14.91,14.91,29.82,14.91,14.91-14.91,29.81-14.91,14.91,14.91,29.82,14.91,14.9-14.91,29.81-14.91,14.91,14.91,29.82,14.91,14.91-14.91,29.82-14.91,14.91,14.91,29.83,14.91,14.91-14.91,29.82-14.91,14.9,14.91,29.81,14.91,14.91-14.91,29.82-14.91,14.91,14.91,29.82,14.91,14.91-14.91,29.82-14.91,14.9,14.91,29.81,14.91,14.91-14.91,29.81-14.91,14.91,14.91,29.82,14.91,14.91-14.91,29.81-14.91,14.91,14.91,29.82,14.91,14.9-14.91,29.81-14.91,14.91,14.91,29.82,14.91Z" transform="translate(-1195.6 -1022.91)"/></svg>