<svg id="Layer_1" data-name="Layer 1" xmlns="http://www.w3.org/2000/svg" viewBox="0 0 750.51 33.02"><defs><style>.cls-1{fill:#fff;stroke:#664332;stroke-miterlimit:10;}</style></defs><path class="cls-1" d="M41.57,1055.43c14.9,0,14.9-14.91,29.81-14.91s14.91,14.91,29.81,14.91,14.91-14.91,29.82-14.91,14.91,14.91,29.81,14.91,14.91-14.91,29.82-14.91,14.9,14.91,29.81,14.91,14.91-14.91,29.81-14.91,14.91,14.91,29.82,14.91,14.91-14.91,29.82-14.91,14.91,14.91,29.82,14.91,14.91-14.91,29.82-14.91,14.91,14.91,29.82,14.91,14.91-14.91,29.82-14.91,14.91,14.91,29.82,14.91,14.91-14.91,29.82-14.91,14.91,14.91,29.81,14.91,14.91-14.91,29.82-14.91,14.9,14.91,29.81,14.91,14.91-14.91,29.82-14.91,14.91,14.91,29.82,14.91,14.91-14.91,29.82-14.91,14.91,14.91,29.82,14.91,14.91-14.91,29.82-14.91,14.91,14.91,29.83,14.91H772.1v-32l-749.51,0v32Z" transform="translate(-22.09 -1022.91)"/></svg>