<svg xmlns="http://www.w3.org/2000/svg" width="1921.615" height="788.522" viewBox="0 0 1921.615 788.522">
  <path id="Street" d="M79.06,55.49h1921m-1739.2,0-181.55,115m52.25-115L79.31,84m960.31-28.56V843.27M910.84,55.44,703.74,843.32M650.23,55.44,79.17,779M519.85,55.49,79.21,474.24M780.56,55.44,366,843.28M389.06,55.44,79.24,291m-.17-102.3H2000M79.07,357.59H2000M79,571.59H2000M79.07,842.8h1921M1818.31,55.46l181.56,115m-52.25-115L1999.82,84M1168.34,55.44l207.08,787.82M2000,779,1429,55.44m571,418.77L1559.33,55.49m-260.72-.05,414.56,787.82M1690.12,55.44,1999.91,291" transform="translate(-78.778 -54.99)" fill="none" stroke="#664332" stroke-width="1"/>
</svg>
