<svg xmlns="http://www.w3.org/2000/svg" width="113.232" height="142.385" viewBox="0 0 113.232 142.385">
  <g fill="rgba(0,0,0,0)" stroke-linecap="round" stroke-linejoin="round" data-name="Union 2">
    <path d="M104.2298 140.8856h-.0001c-1.0531 0-2.0783-.2185-3.047-.6496-3.7775-1.6822-5.4828-6.1242-3.8016-9.9022 1.2041-2.704 3.895-4.4512 6.8554-4.4512 1.0533 0 2.0784.2185 3.0468.6497 3.7779 1.6822 5.4831 6.1243 3.8015 9.902-1.204 2.704-3.8948 4.4511-6.855 4.4513Zm-10.7749-20.588c-1.6144.0002-3.1862-.3351-4.6718-.9968-2.8061-1.2492-4.958-3.5167-6.059-6.3843-1.101-2.868-1.0193-5.9928.23-8.799 1.846-4.146 5.972-6.8248 10.5113-6.8248 1.6147 0 3.1867.3353 4.6722.9968 2.8062 1.2493 4.9579 3.5167 6.0587 6.3845 1.1007 2.8678 1.0188 5.9927-.2306 8.7988-1.8458 4.1457-5.9715 6.8246-10.5108 6.8249Zm-57.6894-23.857h-.0037c-2.2883 0-4.6439-.3653-7.0014-1.0858-2.2734-.6947-4.5024-1.7048-6.6251-3.002a30.946 30.946 0 0 1-5.7988-4.577c-1.7809-1.7905-3.2969-3.7583-4.5059-5.8486-2.0083-3.4723-3.094-7.113-3.227-10.821-.129-3.6.6542-7.1211 2.33-10.4865-3.849-2.3746-6.6574-5.7855-8.166-9.9404-.7562-2.0824-1.1783-4.3192-1.2547-6.6483-.0727-2.2177.1684-4.4688.7167-6.6907 1.0805-4.3787 3.3115-8.3887 6.2819-11.291 3.2871-3.212 7.2492-4.9097 11.4579-4.9097 2.0026 0 4.0301.3868 6.053 1.1525.0207-1.5984.2741-3.1569.7588-4.657.6946-2.15 1.8634-4.1791 3.474-6.0307 2.7214-3.1286 6.6986-5.729 11.5016-7.5199 4.5345-1.6908 9.5549-2.5844 14.5183-2.5844 2.8719 0 5.6268.3018 8.1882.8973 2.7068.6293 5.1444 1.5757 7.245 2.8128 4.1624 2.4514 6.8944 5.9943 7.9838 10.3197 1.999-.6624 4.0217-.9972 6.0345-.9972 2.9335 0 5.8282.7042 8.6035 2.0931 2.5615 1.2819 4.9641 3.1156 7.1411 5.4504 2.0648 2.2146 3.8504 4.7941 5.307 7.667 1.4408 2.8417 2.4893 5.83 3.1165 8.882 1.1042 5.3728.806 10.5017-.8622 14.8321-.9127 2.3693-2.2273 4.4685-3.9072 6.2393-1.4617 1.5407-3.2013 2.8328-5.1852 3.853.975 2.5015 1.3344 5.0901 1.0687 7.7143-.2886 2.851-1.3087 5.6959-3.032 8.4555-2.832 4.535-7.521 8.6988-13.2035 11.7243-5.6218 2.9931-11.7646 4.642-17.297 4.6426h-.0034c-3.8292 0-7.2344-.7714-10.1225-2.2929-2.4522-1.292-4.4644-3.0918-6.0058-5.3672-1.7269 2.3836-3.7981 4.2665-6.1802 5.6148-2.8122 1.5916-5.9745 2.399-9.3989 2.3996Z"/>
    <path fill="#c0e7ff" d="M104.2297 139.3856c2.2974-.0002 4.4897-1.3267 5.4847-3.5612 1.3473-3.0267-.0135-6.5736-3.041-7.9217-3.0268-1.3473-6.5737.0134-7.922 3.041-1.3472 3.0277.0136 6.5736 3.0412 7.9218.7931.353 1.6216.52 2.437.52m-10.7748-20.5878c3.8283-.0003 7.4828-2.2116 9.1406-5.935 2.2464-5.0454-.0225-10.9566-5.0679-13.203-5.0454-2.2462-10.9566.0225-13.203 5.068-2.2464 5.0453.0234 10.9566 5.0688 13.203 1.3218.5885 2.7022.8671 4.0615.867m-57.693-23.857h.0034c6.044-.0012 11.8335-2.751 15.6499-9.3848 3.1195 6.3863 9.2189 9.0312 16.061 9.0304 16.8481-.002 38.1838-16.046 30.505-31.7717 24.1353-10.3571 4.7196-55.6107-19.4193-45.252-3.3066-23.635-54.1935-16.515-50.887 7.119C7.0344 13.8386-7.696 49.1932 12.9456 60.0408 3.1932 76.993 20.3168 94.9406 35.7618 94.9406m68.468 47.445h-.0001c-1.2646 0-2.4949-.2621-3.6567-.7792-4.5334-2.0188-6.5797-7.349-4.5624-11.8825 1.445-3.245 4.6738-5.3413 8.226-5.3413 1.2647 0 2.495.2622 3.6567.7793 4.5335 2.0187 6.5798 7.3492 4.5618 11.8825-1.4448 3.2446-4.6733 5.341-8.2252 5.3412Zm-10.7748-20.588c-1.826.0002-3.6032-.3788-5.2821-1.1265-3.172-1.4122-5.6045-3.9754-6.8491-7.217-1.2447-3.242-1.1523-6.7745.26-9.9467 2.0867-4.6865 6.7505-7.7149 11.8817-7.7149 1.8262 0 3.6034.379 5.2822 1.1266 3.1723 1.4124 5.6046 3.9756 6.849 7.2174 1.2443 3.2419 1.1517 6.7742-.2607 9.9465-2.0864 4.6861-6.75 7.7143-11.881 7.7147Zm-57.6892-23.857h-.004c-2.437 0-4.94-.3873-7.4398-1.1512-2.394-.7317-4.7386-1.7937-6.969-3.1568a32.4522 32.4522 0 0 1-6.08-4.799c-1.872-1.8822-3.467-3.9532-4.7408-6.1554-2.1326-3.687-3.2858-7.5624-3.4276-11.5182-.1228-3.4242.523-6.7766 1.9226-9.9997-3.5673-2.5023-6.1935-5.9039-7.6696-9.969C.5475 48.96.0953 46.5674.0137 44.08c-.0772-2.3552.1784-4.7436.7596-7.0992 1.1465-4.6462 3.5224-8.9095 6.6899-12.0045 1.7014-1.6625 3.5949-2.9638 5.6277-3.8677 2.1923-.9748 4.5065-1.4691 6.8785-1.4691 1.5587 0 3.1274.2133 4.6942.6366.448-3.4956 1.9527-6.774 4.4598-9.6561 2.8852-3.317 7.0725-6.0629 12.1093-7.941C45.9331.9264 51.1347 0 56.2751 0c6.2427 0 11.8426 1.3547 16.1944 3.9176 4.0374 2.3778 6.837 5.7088 8.2345 9.7536 1.667-.4246 3.3467-.6386 5.0226-.6386 3.1687 0 6.2892.7575 9.2748 2.2517 2.7218 1.362 5.2677 3.303 7.567 5.7689 2.1608 2.3176 4.0273 5.013 5.5477 8.0116 1.5011 2.9607 2.5939 6.0757 3.248 9.2584 1.162 5.6546.8398 11.0744-.9318 15.6732-1.6869 4.379-4.6527 7.8782-8.6582 10.2517.7288 2.3352.9732 4.7356.7271 7.1668-.312 3.0815-1.4061 6.1428-3.2521 9.0989-2.9692 4.7547-7.8597 9.1065-13.7708 12.2537-5.8349 3.1067-12.228 4.818-18.0018 4.8187-4.0794 0-7.7209-.8298-10.8268-2.4665-2.0712-1.0914-3.8535-2.5138-5.3315-4.2507-3.9753 4.5917-9.3635 7.0704-15.5524 7.0715Z"/>
  </g>
</svg>
