<svg xmlns="http://www.w3.org/2000/svg" width="113.232" height="142.385" viewBox="0 0 113.232 142.385">
  <g id="Union_2" data-name="Union 2" transform="translate(20.582 -1098.945)" fill="rgba(0,0,0,0)" stroke-linecap="round" stroke-linejoin="round">
    <path d="M 83.64776611328125 1239.83056640625 L 83.64768218994141 1239.83056640625 C 82.59456634521484 1239.83056640625 81.56944274902344 1239.612060546875 80.60078430175781 1239.181030273438 C 76.82320404052734 1237.498779296875 75.11794281005859 1233.056762695312 76.79906463623047 1229.27880859375 C 78.00322723388672 1226.57470703125 80.69410705566406 1224.82763671875 83.654541015625 1224.82763671875 C 84.70778656005859 1224.82763671875 85.73286437988281 1225.046142578125 86.70130157470703 1225.477294921875 C 90.47916412353516 1227.159545898438 92.18442535400391 1231.6015625 90.50276184082031 1235.37939453125 C 89.29872131347656 1238.083251953125 86.60800170898438 1239.830444335938 83.64776611328125 1239.83056640625 Z M 72.87290191650391 1219.24267578125 C 72.87286376953125 1219.24267578125 72.87286376953125 1219.24267578125 72.87286376953125 1219.24267578125 C 71.25848388671875 1219.242797851562 69.68666076660156 1218.907470703125 68.20108795166016 1218.245849609375 C 65.39496612548828 1216.99658203125 63.2431640625 1214.729125976562 62.14214324951172 1211.861450195312 C 61.04106521606445 1208.993530273438 61.12276458740234 1205.86865234375 62.37218475341797 1203.0625 C 64.21812438964844 1198.91650390625 68.34404754638672 1196.237670898438 72.88344573974609 1196.237670898438 C 74.49812316894531 1196.237670898438 76.07008361816406 1196.572998046875 77.55562591552734 1197.234497070312 C 80.36180114746094 1198.483764648438 82.51348114013672 1200.751220703125 83.61426544189453 1203.619018554688 C 84.71502685546875 1206.48681640625 84.63314056396484 1209.611694335938 83.38372802734375 1212.417846679688 C 81.53794097900391 1216.5634765625 77.41218566894531 1219.242431640625 72.87286376953125 1219.24267578125 L 72.87290191650391 1219.24267578125 Z M 15.1835241317749 1195.385620117188 L 15.18338394165039 1195.385620117188 L 15.17978477478027 1195.385620117188 C 12.89152431488037 1195.385620117188 10.53594398498535 1195.020263671875 8.178443908691406 1194.2998046875 C 5.905044555664062 1193.605102539062 3.676004409790039 1192.594970703125 1.553264379501343 1191.297729492188 C -0.5560356378555298 1190.008666992188 -2.506995677947998 1188.46875 -4.245455741882324 1186.720825195312 C -6.026355743408203 1184.930297851562 -7.542355537414551 1182.962524414062 -8.75135612487793 1180.872192382812 C -10.7596960067749 1177.39990234375 -11.84543609619141 1173.759155273438 -11.97839546203613 1170.05126953125 C -12.10748100280762 1166.451171875 -11.32415390014648 1162.930053710938 -9.648338317871094 1159.564697265625 C -13.49731826782227 1157.190063476562 -16.30582046508789 1153.779174804688 -17.81445503234863 1149.624267578125 C -18.57057571411133 1147.541870117188 -18.99267578125 1145.305053710938 -19.06905555725098 1142.975952148438 C -19.14179611206055 1140.75830078125 -18.90065574645996 1138.507202148438 -18.35237503051758 1136.285278320312 C -17.2718563079834 1131.906616210938 -15.04091548919678 1127.896606445312 -12.07049560546875 1124.994262695312 C -8.78337574005127 1121.782348632812 -4.821295738220215 1120.084594726562 -0.6126156449317932 1120.084594726562 C 1.389954447746277 1120.084594726562 3.417511940002441 1120.471435546875 5.44041919708252 1121.237060546875 C 5.461104869842529 1119.638671875 5.714534759521484 1118.080200195312 6.199184417724609 1116.580078125 C 6.893824577331543 1114.430053710938 8.062644004821777 1112.401000976562 9.673184394836426 1110.549438476562 C 12.39460468292236 1107.420776367188 16.37178421020508 1104.820434570312 21.17478370666504 1103.029541015625 C 25.7093448638916 1101.338745117188 30.72968482971191 1100.445068359375 35.69308471679688 1100.445068359375 C 38.56498336791992 1100.445068359375 41.31990432739258 1100.746948242188 43.88128280639648 1101.342407226562 C 46.58808517456055 1101.9716796875 49.02568435668945 1102.918090820312 51.1263427734375 1104.155151367188 C 55.28874969482422 1106.606567382812 58.02067947387695 1110.149536132812 59.1100959777832 1114.474853515625 C 61.10902404785156 1113.8125 63.13183975219727 1113.477661132812 65.14456176757812 1113.477661132812 C 68.07814788818359 1113.477661132812 70.97280120849609 1114.181884765625 73.74810791015625 1115.57080078125 C 76.30958557128906 1116.852661132812 78.71220397949219 1118.686401367188 80.88920593261719 1121.021240234375 C 82.95404815673828 1123.23583984375 84.73956298828125 1125.815307617188 86.19620513916016 1128.688232421875 C 87.63698577880859 1131.529907226562 88.685546875 1134.518188476562 89.31272125244141 1137.570190429688 C 90.41686248779297 1142.942993164062 90.11872100830078 1148.071899414062 88.45054626464844 1152.40234375 C 87.53780364990234 1154.771606445312 86.22320556640625 1156.870849609375 84.54326629638672 1158.6416015625 C 83.08161926269531 1160.182250976562 81.34197998046875 1161.474365234375 79.35809326171875 1162.494506835938 C 80.33309173583984 1164.99609375 80.69251251220703 1167.584716796875 80.42684173583984 1170.208862304688 C 80.13822174072266 1173.059936523438 79.11810302734375 1175.90478515625 77.39480590820312 1178.664428710938 C 74.56284332275391 1183.199340820312 69.87376403808594 1187.363159179688 64.19130706787109 1190.388671875 C 58.56952285766602 1193.3818359375 52.42668533325195 1195.030639648438 46.89432525634766 1195.03125 C 46.89339065551758 1195.03125 46.8918342590332 1195.03125 46.89089965820312 1195.03125 C 43.06172180175781 1195.031372070312 39.65645980834961 1194.259887695312 36.7684440612793 1192.738403320312 C 34.31621170043945 1191.446411132812 32.30399703979492 1189.646606445312 30.76255989074707 1187.371215820312 C 29.03569984436035 1189.754760742188 26.96449851989746 1191.6376953125 24.58238410949707 1192.985961914062 C 21.77018356323242 1194.57763671875 18.60794448852539 1195.385009765625 15.1835241317749 1195.385620117188 Z" stroke="none"/>
    <path d="M 83.64768218994141 1238.33056640625 C 85.94506072998047 1238.330444335938 88.13739013671875 1237.00390625 89.13241577148438 1234.769409179688 C 90.47970581054688 1231.74267578125 89.11891174316406 1228.19580078125 86.09130859375 1226.84765625 C 83.0645751953125 1225.500366210938 79.51769256591797 1226.861083984375 78.16949462890625 1229.888671875 C 76.82220458984375 1232.916381835938 78.18299865722656 1236.462280273438 81.21060180664062 1237.810546875 C 82.00372314453125 1238.163452148438 82.83224487304688 1238.33056640625 83.64768218994141 1238.33056640625 M 72.87276458740234 1217.74267578125 C 76.70108032226562 1217.742431640625 80.35562133789062 1215.531127929688 82.01341247558594 1211.807739257812 C 84.25981140136719 1206.762329101562 81.99091339111328 1200.85107421875 76.94549560546875 1198.604736328125 C 71.90011596679688 1196.358520507812 65.98889923095703 1198.627197265625 63.74249649047852 1203.672607421875 C 61.49610137939453 1208.718017578125 63.76589202880859 1214.629272460938 68.81130981445312 1216.875610351562 C 70.13307952880859 1217.464233398438 71.51349639892578 1217.742797851562 72.87276458740234 1217.74267578125 M 15.17977714538574 1193.885620117188 C 15.18072032928467 1193.885620117188 15.1823034286499 1193.885620117188 15.18324565887451 1193.885620117188 C 21.22722434997559 1193.884521484375 27.01672554016113 1191.134765625 30.83309936523438 1184.500854492188 C 33.95259857177734 1190.88720703125 40.05196380615234 1193.532104492188 46.89414596557617 1193.53125 C 63.74222183227539 1193.529296875 85.07794952392578 1177.4853515625 77.39910125732422 1161.759643554688 C 101.5344009399414 1151.402465820312 82.11872863769531 1106.14892578125 57.97980880737305 1116.507568359375 C 54.67320251464844 1092.87255859375 3.786307811737061 1099.992553710938 7.092891693115234 1123.626586914062 C -13.54769039154053 1112.78369140625 -28.27800369262695 1148.13818359375 -7.636504173278809 1158.98583984375 C -17.38884544372559 1175.93798828125 -0.2652141153812408 1193.885620117188 15.17977714538574 1193.885620117188 M 83.64785003662109 1241.33056640625 C 83.64778900146484 1241.33056640625 83.64774322509766 1241.33056640625 83.64768218994141 1241.33056640625 C 82.38311767578125 1241.33056640625 81.15283203125 1241.068481445312 79.99097442626953 1240.551391601562 C 75.4576416015625 1238.532592773438 73.41133117675781 1233.202392578125 75.42861938476562 1228.6689453125 C 76.87364196777344 1225.423950195312 80.10239410400391 1223.32763671875 83.654541015625 1223.32763671875 C 84.91928863525391 1223.32763671875 86.14962005615234 1223.58984375 87.31130981445312 1224.10693359375 C 91.84481048583984 1226.125610351562 93.89109802246094 1231.4560546875 91.87313842773438 1235.989379882812 C 90.42832946777344 1239.234008789062 87.19979095458984 1241.330322265625 83.64785003662109 1241.33056640625 Z M 72.87299346923828 1220.74267578125 C 72.87295532226562 1220.74267578125 72.87295532226562 1220.74267578125 72.87295532226562 1220.74267578125 C 71.04693603515625 1220.742797851562 69.26976776123047 1220.36376953125 67.59087371826172 1219.616088867188 C 64.41886901855469 1218.203857421875 61.98641204833984 1215.640747070312 60.74178695678711 1212.399047851562 C 59.49710083007812 1209.157104492188 59.58947372436523 1205.624633789062 61.00186920166016 1202.452392578125 C 63.08849716186523 1197.765869140625 67.75231170654297 1194.737548828125 72.88345336914062 1194.737548828125 C 74.70968627929688 1194.737548828125 76.48691558837891 1195.116577148438 78.16574859619141 1195.864135742188 C 81.33795166015625 1197.276489257812 83.77028656005859 1199.839721679688 85.01464080810547 1203.08154296875 C 86.25897216796875 1206.323364257812 86.16643524169922 1209.855712890625 84.75403594970703 1213.027954101562 C 82.66757965087891 1217.714111328125 78.00397491455078 1220.742309570312 72.87295532226562 1220.74267578125 L 72.87299346923828 1220.74267578125 Z M 15.18378734588623 1196.885620117188 C 15.18362140655518 1196.885620117188 15.18343353271484 1196.885620117188 15.18324565887451 1196.885620117188 L 15.17978763580322 1196.885620117188 C 12.74282932281494 1196.885620117188 10.23974609375 1196.498291015625 7.740037441253662 1195.734375 C 5.346079349517822 1195.002685546875 3.001391887664795 1193.940673828125 0.7710584998130798 1192.57763671875 C -1.440441489219666 1191.22607421875 -3.486066579818726 1189.611450195312 -5.308983325958252 1187.778686523438 C -7.181045532226562 1185.896362304688 -8.776087760925293 1183.825439453125 -10.0498161315918 1181.623168945312 C -12.18235778808594 1177.936157226562 -13.33558750152588 1174.060791015625 -13.47742080688477 1170.10498046875 C -13.60021591186523 1166.680786132812 -12.95439338684082 1163.328369140625 -11.55478477478027 1160.105346679688 C -15.1220531463623 1157.60302734375 -17.7483081817627 1154.201416015625 -19.22437858581543 1150.13623046875 C -20.0345458984375 1147.905029296875 -20.48669242858887 1145.512451171875 -20.5682544708252 1143.025146484375 C -20.64548301696777 1140.669921875 -20.38994216918945 1138.281494140625 -19.80869102478027 1135.925903320312 C -18.66217041015625 1131.279663085938 -16.28631591796875 1127.016357421875 -13.11881637573242 1123.92138671875 C -11.4173583984375 1122.258911132812 -9.523941040039062 1120.957641601562 -7.49114990234375 1120.0537109375 C -5.298837184906006 1119.078857421875 -2.984566450119019 1118.584594726562 -0.6126289963722229 1118.584594726562 C 0.946138322353363 1118.584594726562 2.514754056930542 1118.7978515625 4.081568241119385 1119.22119140625 C 4.529553890228271 1115.7255859375 6.034307479858398 1112.447265625 8.541412353515625 1109.565063476562 C 11.42657947540283 1106.248046875 15.61391258239746 1103.502197265625 20.65072441101074 1101.6240234375 C 25.35114097595215 1099.871459960938 30.55270385742188 1098.945068359375 35.69308090209961 1098.945068359375 C 41.93578720092773 1098.945068359375 47.53574752807617 1100.2998046875 51.88753890991211 1102.862670898438 C 55.92494201660156 1105.240478515625 58.72444534301758 1108.571533203125 60.12196731567383 1112.616333007812 C 61.78902816772461 1112.191650390625 63.46871948242188 1111.977661132812 65.14457702636719 1111.977661132812 C 68.31330871582031 1111.977661132812 71.43380737304688 1112.735229492188 74.41941070556641 1114.229370117188 C 77.14118194580078 1115.591430664062 79.68705749511719 1117.532348632812 81.98630523681641 1119.998291015625 C 84.14720153808594 1122.31591796875 86.01374816894531 1125.011352539062 87.5340576171875 1128.009887695312 C 89.03520202636719 1130.970581054688 90.12797546386719 1134.085571289062 90.78203582763672 1137.268310546875 C 91.94407653808594 1142.9228515625 91.62187194824219 1148.342651367188 89.85026550292969 1152.941528320312 C 88.16342926025391 1157.320434570312 85.19761657714844 1160.819702148438 81.19212341308594 1163.193237304688 C 81.92085266113281 1165.528442382812 82.16533660888672 1167.928833007812 81.91922760009766 1170.359985351562 C 81.60726928710938 1173.441528320312 80.51309967041016 1176.502807617188 78.66709899902344 1179.458862304688 C 75.69793701171875 1184.213623046875 70.807373046875 1188.5654296875 64.89626312255859 1191.712646484375 C 59.0614128112793 1194.8193359375 52.66826629638672 1196.530639648438 46.89449691772461 1196.53125 C 42.81514358520508 1196.531372070312 39.17362213134766 1195.701538085938 36.06766128540039 1194.064819335938 C 33.99652481079102 1192.973388671875 32.21416854858398 1191.551025390625 30.73616218566895 1189.814086914062 C 26.76087188720703 1194.40576171875 21.37274932861328 1196.884521484375 15.18378734588623 1196.885620117188 Z" stroke="none" fill="#c0e7ff"/>
  </g>
</svg>
