<svg xmlns="http://www.w3.org/2000/svg" width="109.849" height="152.34" viewBox="0 0 109.849 152.34">
  <g id="Union_3" data-name="Union 3" transform="translate(-14.819 -1171.877)" fill="rgba(0,0,0,0)" stroke-linecap="round" stroke-linejoin="round">
    <path d="M 83.99897003173828 1322.717407226562 L 83.99886322021484 1322.717407226562 C 82.54988861083984 1322.717407226562 81.13925933837891 1322.298828125 79.91947174072266 1321.5068359375 C 78.23915863037109 1320.415771484375 77.08441162109375 1318.73583984375 76.66786956787109 1316.776245117188 C 76.25128173828125 1314.816528320312 76.62297058105469 1312.81201171875 77.71443176269531 1311.1318359375 C 79.10309600830078 1308.993041992188 81.45651245117188 1307.7158203125 84.00961303710938 1307.7158203125 C 85.45880126953125 1307.7158203125 86.86951446533203 1308.134765625 88.08924102783203 1308.927124023438 C 89.76913452148438 1310.017700195312 90.92380523681641 1311.697875976562 91.34021759033203 1313.657592773438 C 91.756591796875 1315.616943359375 91.38509368896484 1317.621459960938 90.29418182373047 1319.301635742188 C 88.90557098388672 1321.440307617188 86.55222320556641 1322.71728515625 83.99897003173828 1322.717407226562 Z M 79.63761901855469 1300.228271484375 L 79.63755035400391 1300.228271484375 C 77.41611480712891 1300.228271484375 75.25342559814453 1299.586059570312 73.38330078125 1298.37109375 C 70.80722045898438 1296.698486328125 69.03665924072266 1294.12255859375 68.3980712890625 1291.117797851562 C 67.75955200195312 1288.113403320312 68.3292236328125 1285.039916992188 70.00213623046875 1282.46337890625 C 72.13211822509766 1279.183715820312 75.74107360839844 1277.225830078125 79.65615844726562 1277.225830078125 C 81.87725830078125 1277.225830078125 84.03982543945312 1277.86767578125 85.91007232666016 1279.08203125 C 88.48616027832031 1280.755004882812 90.25655364990234 1283.3310546875 90.895263671875 1286.335815429688 C 91.53398895263672 1289.340576171875 90.96440887451172 1292.4140625 89.29147338867188 1294.989990234375 C 87.16191101074219 1298.269775390625 83.55294799804688 1300.228149414062 79.63761901855469 1300.228271484375 Z M 69.98965454101562 1270.149658203125 L 69.98965454101562 1268.649658203125 L 69.98928070068359 1270.149658203125 C 67.05525970458984 1270.149658203125 64.23795318603516 1269.838745117188 61.61492919921875 1269.225708007812 C 58.84509658813477 1268.578369140625 56.35365676879883 1267.606689453125 54.20984649658203 1266.337768554688 C 50.17376327514648 1263.94873046875 47.48474502563477 1260.56591796875 46.3242073059082 1256.457153320312 C 45.15093231201172 1257.301025390625 43.92995834350586 1257.98388671875 42.67490768432617 1258.496948242188 C 40.78682327270508 1259.268798828125 38.81620025634766 1259.660278320312 36.81780242919922 1259.660522460938 C 32.89407348632812 1259.660888671875 28.98072052001953 1258.17578125 25.50082397460938 1255.36572265625 C 22.26074028015137 1252.749389648438 19.61432456970215 1249.104858398438 18.04907417297363 1245.103393554688 C 16.53099060058594 1241.22265625 16.07482528686523 1237.173828125 16.72986602783203 1233.394775390625 C 17.08542823791504 1231.343505859375 17.76661682128906 1229.380737304688 18.75449180603027 1227.560913085938 C 19.57177352905273 1226.055419921875 20.60308837890625 1224.641479492188 21.82992553710938 1223.342529296875 C 20.49848175048828 1221.833984375 19.39418411254883 1220.205078125 18.53769874572754 1218.484375 C 17.52559471130371 1216.450927734375 16.85090827941895 1214.273681640625 16.5323657989502 1212.012939453125 C 15.94563674926758 1207.848999023438 16.57536697387695 1203.384033203125 18.35342788696289 1199.100830078125 C 20.3391170501709 1194.317626953125 23.68674087524414 1189.938110351562 27.77961540222168 1186.768920898438 C 29.86709594726562 1185.152709960938 32.08909606933594 1183.889892578125 34.38393020629883 1183.015625 C 36.81051254272461 1182.091064453125 39.26703262329102 1181.622314453125 41.68521881103516 1181.622314453125 C 44.15423965454102 1181.622314453125 46.5580940246582 1182.112915039062 48.83001327514648 1183.080322265625 C 50.52270126342773 1183.801147460938 52.14257431030273 1184.7880859375 53.66785430908203 1186.02587890625 C 54.22188186645508 1184.431030273438 54.99555587768555 1182.957763671875 55.98072052001953 1181.625 C 57.35928344726562 1179.759887695312 59.15095138549805 1178.170288085938 61.30596923828125 1176.900268554688 C 65.21636962890625 1174.595581054688 70.25486755371094 1173.37744140625 75.87676239013672 1173.37744140625 C 81.01190948486328 1173.37744140625 86.25473785400391 1174.381225585938 91.0384521484375 1176.280029296875 C 96.06553649902344 1178.275512695312 100.2052230834961 1181.129516601562 103.0099716186523 1184.533569335938 C 104.6939697265625 1186.577392578125 105.881591796875 1188.799438476562 106.5398254394531 1191.137939453125 C 107.1147918701172 1193.1806640625 107.2836456298828 1195.306274414062 107.0449523925781 1197.475830078125 C 112.4443206787109 1198.64453125 116.7684783935547 1201.799072265625 119.6112213134766 1206.666381835938 C 122.2966156005859 1211.264404296875 123.5275955200195 1217.24951171875 123.0773849487305 1223.519409179688 C 122.8470153808594 1226.727905273438 122.1962432861328 1229.861206054688 121.1431350708008 1232.83203125 C 120.0549087524414 1235.901977539062 118.5874710083008 1238.650268554688 116.7815933227539 1241.000610351562 C 114.8442230224609 1243.522216796875 112.5790557861328 1245.499755859375 110.0490341186523 1246.87841796875 C 107.3013229370117 1248.375854492188 104.2933883666992 1249.135375976562 101.1087646484375 1249.135986328125 C 101.1074371337891 1249.135986328125 101.10595703125 1249.135986328125 101.1046371459961 1249.135986328125 C 100.7123870849609 1249.135986328125 100.3155059814453 1249.124267578125 99.91564178466797 1249.100830078125 C 99.94442749023438 1250.933349609375 99.67255401611328 1252.71337890625 99.10272216796875 1254.412963867188 C 98.39203643798828 1256.532470703125 97.21823883056641 1258.527221679688 95.61395263671875 1260.341796875 C 92.91599273681641 1263.393310546875 88.99532318115234 1265.921997070312 84.27580261230469 1267.654296875 C 79.82851409912109 1269.286743164062 74.88845062255859 1270.149658203125 69.98965454101562 1270.149658203125 Z" stroke="none"/>
    <path d="M 83.99887084960938 1321.217407226562 C 85.96269226074219 1321.21728515625 87.88703155517578 1320.254516601562 89.03610229492188 1318.484741210938 C 90.84059906005859 1315.70556640625 90.05130004882812 1311.989379882812 87.27210235595703 1310.184936523438 C 84.49288940429688 1308.379516601562 80.77680969238281 1309.169677734375 78.97230529785156 1311.948974609375 C 77.16689300537109 1314.728149414062 77.95709991455078 1318.444213867188 80.73630523681641 1320.248779296875 C 81.74575805664062 1320.904174804688 82.87869262695312 1321.217407226562 83.99887084960938 1321.217407226562 M 79.63755035400391 1298.728271484375 C 82.91057586669922 1298.728149414062 86.11818695068359 1297.122802734375 88.03350830078125 1294.172973632812 C 91.04130554199219 1289.541625976562 89.72460174560547 1283.347778320312 85.09319305419922 1280.340087890625 C 80.46088409423828 1277.332153320312 74.26801300048828 1278.649047851562 71.26019287109375 1283.2802734375 C 68.25239562988281 1287.91259765625 69.56819152832031 1294.105590820312 74.20050811767578 1297.11328125 C 75.88271331787109 1298.206176757812 77.77062225341797 1298.728271484375 79.63755035400391 1298.728271484375 M 69.98975372314453 1268.649658203125 C 84.37318420410156 1268.649658203125 99.95001983642578 1260.81787109375 98.29709625244141 1247.4296875 C 99.26184844970703 1247.569091796875 100.1966400146484 1247.63623046875 101.1084594726562 1247.635986328125 C 124.7677841186523 1247.631103515625 130.3715209960938 1202.31103515625 105.3432159423828 1198.69287109375 C 110.0493011474609 1174.539794921875 59.18760681152344 1164.624389648438 54.4778938293457 1188.778564453125 C 35.2656135559082 1169.506713867188 4.711505889892578 1204.109985351562 23.92289543151855 1223.381713867188 C 10.16321563720703 1236.0888671875 22.53717613220215 1258.161987304688 36.81764221191406 1258.160522460938 C 40.31613922119141 1258.16015625 43.93039321899414 1256.834838867188 47.30130386352539 1253.722534179688 C 48.57239532470703 1264.018310546875 58.92800903320312 1268.6494140625 69.98869323730469 1268.649658203125 C 69.98957061767578 1268.649658203125 69.98887634277344 1268.649658203125 69.98975372314453 1268.649658203125 M 83.99907684326172 1324.217407226562 C 83.99900817871094 1324.217407226562 83.99893951416016 1324.217407226562 83.99887084960938 1324.217407226562 C 82.25927734375 1324.217407226562 80.56619262695312 1323.715209960938 79.10266876220703 1322.765014648438 C 77.08621215820312 1321.455688476562 75.70048522949219 1319.439575195312 75.20064544677734 1317.088134765625 C 74.70073699951172 1314.736450195312 75.14675903320312 1312.330932617188 76.45652770996094 1310.314697265625 C 78.12275695800781 1307.748413085938 80.94648742675781 1306.2158203125 84.00959777832031 1306.2158203125 C 85.74957275390625 1306.2158203125 87.44287109375 1306.718383789062 88.90641784667969 1307.669189453125 C 90.92209625244141 1308.977905273438 92.3077392578125 1310.994018554688 92.80746459960938 1313.345703125 C 93.30709838867188 1315.697021484375 92.861328125 1318.102294921875 91.55223846435547 1320.118408203125 C 89.88594055175781 1322.684936523438 87.06230163574219 1324.217163085938 83.99907684326172 1324.217407226562 Z M 79.63766479492188 1301.728271484375 C 79.63764190673828 1301.728271484375 79.63759613037109 1301.728271484375 79.63755035400391 1301.728271484375 C 77.12532806396484 1301.728271484375 74.6800537109375 1301.002319335938 72.56612396240234 1299.629028320312 C 69.65430450439453 1297.738403320312 67.65273284912109 1294.826293945312 66.93084716796875 1291.4296875 C 66.20903015136719 1288.033447265625 66.85298919677734 1284.558959960938 68.74405670166016 1281.646606445312 C 71.15187072753906 1277.939086914062 75.23112487792969 1275.725708007812 79.65616607666016 1275.725708007812 C 82.16789245605469 1275.725708007812 84.61293792724609 1276.451293945312 86.72693634033203 1277.823974609375 C 89.63912200927734 1279.715209960938 91.64048767089844 1282.627319335938 92.36248779296875 1286.02392578125 C 93.08451080322266 1289.420654296875 92.44064331054688 1292.89501953125 90.54948425292969 1295.806884765625 C 88.14223480224609 1299.514404296875 84.06298828125 1301.728149414062 79.63766479492188 1301.728271484375 Z M 69.98976135253906 1271.649658203125 L 69.98869323730469 1271.649658203125 C 66.94048309326172 1271.649536132812 64.00832366943359 1271.325439453125 61.27355194091797 1270.686279296875 C 58.35482788085938 1270.004150390625 55.72119140625 1268.975341796875 53.44580459594727 1267.628540039062 C 49.6955451965332 1265.408813476562 47.01542663574219 1262.390625 45.52935409545898 1258.75830078125 C 44.781982421875 1259.191772460938 44.01877212524414 1259.568115234375 43.24250793457031 1259.885375976562 C 41.17343902587891 1260.731201171875 39.01191711425781 1261.160278320312 36.81796264648438 1261.160522460938 C 36.81742858886719 1261.160522460938 36.81674575805664 1261.160522460938 36.81621170043945 1261.160522460938 C 34.62496948242188 1261.160522460938 32.42505264282227 1260.734375 30.27725791931152 1259.893798828125 C 28.2733039855957 1259.109619140625 26.34923553466797 1257.978881835938 24.55846214294434 1256.532836914062 C 21.11871337890625 1253.755126953125 18.31087112426758 1249.890258789062 16.65214538574219 1245.64990234375 C 15.03425788879395 1241.513916015625 14.55005359649658 1237.187622070312 15.2518949508667 1233.138671875 C 15.63539505004883 1230.926147460938 16.37030410766602 1228.808837890625 17.43618965148926 1226.845336914062 C 18.10962677001953 1225.604736328125 18.91685104370117 1224.42333984375 19.84901809692383 1223.312255859375 C 18.80717849731445 1221.998779296875 17.91878700256348 1220.607177734375 17.19484901428223 1219.152709960938 C 16.1107349395752 1216.974731445312 15.38809871673584 1214.642944335938 15.0470085144043 1212.222290039062 C 14.42289447784424 1207.792724609375 15.08716773986816 1203.056518554688 16.96805381774902 1198.525756835938 C 19.05207633972168 1193.505615234375 22.56557655334473 1188.909057617188 26.86128044128418 1185.5830078125 C 29.06562232971191 1183.876220703125 31.41694068908691 1182.540771484375 33.84989547729492 1181.613891601562 C 36.44766616821289 1180.624145507812 39.0838508605957 1180.122314453125 41.68521118164062 1180.122314453125 C 44.35732650756836 1180.122314453125 46.95891571044922 1180.653198242188 49.41769027709961 1181.700317382812 C 50.65761947631836 1182.228271484375 51.8592529296875 1182.887329101562 53.01554107666016 1183.672607421875 C 54.59617233276367 1180.35400390625 57.14450836181641 1177.611694335938 60.54434967041016 1175.60791015625 C 64.68534851074219 1173.16748046875 69.98721313476562 1171.87744140625 75.87675476074219 1171.87744140625 C 81.19955444335938 1171.87744140625 86.63373565673828 1172.917724609375 91.59187316894531 1174.885864257812 C 96.85366821289062 1176.974487304688 101.2023010253906 1179.980834960938 104.1676483154297 1183.579711914062 C 107.3007736206055 1187.382202148438 108.8187026977539 1191.739868164062 108.6348571777344 1196.32421875 C 110.8909683227539 1196.953735351562 112.9658279418945 1197.925659179688 114.8290328979492 1199.228393554688 C 117.2685089111328 1200.93408203125 119.3132553100586 1203.182006835938 120.9064865112305 1205.909912109375 C 123.7428512573242 1210.766357421875 125.045166015625 1217.058349609375 124.5735321044922 1223.626953125 C 124.3335113525391 1226.9697265625 123.655029296875 1230.2353515625 122.5569381713867 1233.333129882812 C 121.4159851074219 1236.551879882812 119.8730545043945 1239.439086914062 117.9710311889648 1241.91455078125 C 115.9054412841797 1244.60302734375 113.4815979003906 1246.716186523438 110.7667999267578 1248.195556640625 C 107.8721084594727 1249.773071289062 104.7124404907227 1250.593017578125 101.3712921142578 1250.634399414062 C 101.0905456542969 1254.540161132812 99.52027130126953 1258.188110351562 96.73773193359375 1261.335327148438 C 93.87555694580078 1264.572631835938 89.74503326416016 1267.24462890625 84.79273223876953 1269.0625 C 80.18173217773438 1270.755004882812 75.06296539306641 1271.649658203125 69.98976135253906 1271.649658203125 Z" stroke="none" fill="#c0e7ff"/>
  </g>
</svg>
