<svg xmlns="http://www.w3.org/2000/svg" width="113.373" height="142.215" viewBox="0 0 113.373 142.215">
  <g id="Union_4" data-name="Union 4" transform="translate(728.563 -1140.652)" fill="rgba(0,0,0,0)" stroke-linecap="round" stroke-linejoin="round">
    <path d="M -719.5674438476562 1281.366943359375 L -719.5676879882812 1281.366943359375 L -719.5679321289062 1281.366943359375 C -723.2108764648438 1281.367065429688 -726.3143920898438 1278.760009765625 -726.9474487304688 1275.16796875 C -727.6660766601562 1271.096435546875 -724.93701171875 1267.19873046875 -720.86376953125 1266.479736328125 C -720.43115234375 1266.403442382812 -719.9908447265625 1266.364868164062 -719.5548706054688 1266.364868164062 C -715.9127197265625 1266.364868164062 -712.80908203125 1268.9716796875 -712.1751708984375 1272.563354492188 C -711.827392578125 1274.536743164062 -712.2687377929688 1276.526977539062 -713.417724609375 1278.16796875 C -714.56689453125 1279.80908203125 -716.2863159179688 1280.904296875 -718.2592163085938 1281.252075195312 C -718.6903076171875 1281.328125 -719.130615234375 1281.366821289062 -719.5674438476562 1281.366943359375 Z M -703.1719360351562 1264.115234375 C -703.1720581054688 1264.115234375 -703.1720581054688 1264.115234375 -703.1720581054688 1264.115234375 C -705.8424072265625 1264.115478515625 -708.4496459960938 1263.171020507812 -710.5135498046875 1261.455932617188 C -712.6021728515625 1259.72021484375 -714.0126342773438 1257.289184570312 -714.485107421875 1254.6103515625 C -715.018798828125 1251.585327148438 -714.3423461914062 1248.533569335938 -712.5803833007812 1246.017456054688 C -710.8184814453125 1243.501220703125 -708.1819458007812 1241.821899414062 -705.1565551757812 1241.288696289062 C -704.4927978515625 1241.171630859375 -703.8167114257812 1241.1123046875 -703.1473999023438 1241.1123046875 C -700.4773559570312 1241.1123046875 -697.8702392578125 1242.056640625 -695.8062744140625 1243.771606445312 C -693.71728515625 1245.507202148438 -692.306640625 1247.93798828125 -691.8341674804688 1250.616088867188 C -691.3010864257812 1253.641845703125 -691.9777221679688 1256.693725585938 -693.7395629882812 1259.209838867188 C -695.50146484375 1261.726196289062 -698.1377563476562 1263.405639648438 -701.1627197265625 1263.938842773438 C -701.8270263671875 1264.055908203125 -702.5030517578125 1264.115234375 -703.1719360351562 1264.115234375 L -703.1719360351562 1264.115234375 Z M -676.55859375 1238.819091796875 L -676.55859375 1237.319091796875 L -676.5593872070312 1238.819091796875 C -679.1309204101562 1238.81884765625 -681.7605590820312 1238.55859375 -684.3787231445312 1238.04541015625 C -686.9901123046875 1237.53369140625 -689.5319213867188 1236.781982421875 -691.9337158203125 1235.81103515625 C -697.0361328125 1233.748291015625 -701.2247314453125 1230.81494140625 -704.046630859375 1227.328247070312 C -707.2266235351562 1223.39892578125 -708.568359375 1218.879150390625 -707.9703369140625 1214.173828125 C -713.3012084960938 1212.922241210938 -717.5449829101562 1209.736083984375 -720.3047485351562 1204.890625 C -722.9140014648438 1200.3095703125 -724.0751342773438 1194.367431640625 -723.5742797851562 1188.158813476562 C -723.3161010742188 1184.958618164062 -722.6383666992188 1181.832763671875 -721.5599365234375 1178.867919921875 C -720.4470825195312 1175.80859375 -718.9595336914062 1173.069213867188 -717.1385498046875 1170.725830078125 C -715.1869506835938 1168.214477539062 -712.9154663085938 1166.244750976562 -710.3872680664062 1164.871337890625 C -707.64111328125 1163.379516601562 -704.6450805664062 1162.623046875 -701.4823608398438 1162.623046875 C -700.974853515625 1162.623046875 -700.4605102539062 1162.642944335938 -699.9423217773438 1162.682373046875 C -699.9391479492188 1160.879272460938 -699.6458129882812 1159.131713867188 -699.0654907226562 1157.467163085938 C -698.3379516601562 1155.380615234375 -697.1591186523438 1153.422485351562 -695.5617065429688 1151.647216796875 C -692.8901977539062 1148.67822265625 -689.0318603515625 1146.2255859375 -684.40380859375 1144.554565429688 C -680.0513305664062 1142.98291015625 -675.1998901367188 1142.152221679688 -670.3739624023438 1142.152221679688 C -667.3740844726562 1142.152221679688 -664.4889526367188 1142.473022460938 -661.798583984375 1143.105590820312 C -658.960205078125 1143.77294921875 -656.4102172851562 1144.7724609375 -654.2195434570312 1146.076416015625 C -650.0682373046875 1148.547485351562 -647.3435668945312 1152.035278320312 -646.2305297851562 1156.26123046875 C -645.0848388671875 1155.46728515625 -643.8975219726562 1154.823852539062 -642.6813354492188 1154.3388671875 C -640.8240356445312 1153.598266601562 -638.8915405273438 1153.222778320312 -636.9376220703125 1153.222778320312 C -632.9986572265625 1153.222778320312 -629.082763671875 1154.724365234375 -625.6133422851562 1157.565185546875 C -622.389892578125 1160.20458984375 -619.7688598632812 1163.877685546875 -618.233154296875 1167.90771484375 C -616.7354125976562 1171.838012695312 -616.31689453125 1175.926147460938 -617.0228271484375 1179.730224609375 C -617.4060668945312 1181.795288085938 -618.1187133789062 1183.76513671875 -619.1409912109375 1185.5849609375 C -619.9891967773438 1187.094970703125 -621.0546875 1188.507690429688 -622.3180541992188 1189.79931640625 C -621.0281982421875 1191.313110351562 -619.9619750976562 1192.941040039062 -619.1396484375 1194.654174804688 C -618.1651000976562 1196.684448242188 -617.5240478515625 1198.851318359375 -617.2344360351562 1201.094482421875 C -616.700927734375 1205.226806640625 -617.3685913085938 1209.643676757812 -619.1653442382812 1213.867553710938 C -621.1831665039062 1218.611206054688 -624.55908203125 1222.950805664062 -628.6712036132812 1226.087158203125 C -630.7648315429688 1227.683959960938 -632.9902954101562 1228.931274414062 -635.2857666015625 1229.794677734375 C -637.71044921875 1230.706665039062 -640.1614990234375 1231.169189453125 -642.57080078125 1231.169189453125 C -645.0965576171875 1231.169311523438 -647.5479125976562 1230.659545898438 -649.856689453125 1229.654052734375 C -651.5950317382812 1228.89697265625 -653.2510375976562 1227.858154296875 -654.8017578125 1226.554077148438 C -655.36572265625 1228.090698242188 -656.1340942382812 1229.509643554688 -657.0988159179688 1230.79296875 C -658.4654541015625 1232.611083984375 -660.226806640625 1234.159057617188 -662.3340454101562 1235.39404296875 C -666.157470703125 1237.634765625 -671.0762939453125 1238.819091796875 -676.55859375 1238.819091796875 Z" stroke="none"/>
    <path d="M -719.5679931640625 1279.866943359375 C -719.222412109375 1279.866821289062 -718.8716430664062 1279.8369140625 -718.51953125 1279.774780273438 C -715.256103515625 1279.19970703125 -713.0772094726562 1276.087524414062 -713.65234375 1272.824096679688 C -714.2283325195312 1269.560791015625 -717.3401489257812 1267.3828125 -720.60302734375 1267.956909179688 C -723.8663940429688 1268.532958984375 -726.0462036132812 1271.644287109375 -725.47021484375 1274.907592773438 C -724.9571533203125 1277.81884765625 -722.4253540039062 1279.867065429688 -719.5679931640625 1279.866943359375 M -703.1720581054688 1262.615234375 C -702.595703125 1262.615234375 -702.0104370117188 1262.565063476562 -701.423095703125 1262.461547851562 C -695.9844360351562 1261.503051757812 -692.3529052734375 1256.316284179688 -693.3114013671875 1250.876708984375 C -694.2708129882812 1245.437866210938 -699.4579467773438 1241.807006835938 -704.896240234375 1242.765991210938 C -710.3358154296875 1243.724487304688 -713.9673461914062 1248.9111328125 -713.0079345703125 1254.349853515625 C -712.152099609375 1259.2021484375 -707.9341430664062 1262.615600585938 -703.1720581054688 1262.615234375 M -676.55859375 1237.319091796875 C -666.6260986328125 1237.319091796875 -657.5797119140625 1233.244995117188 -655.5635986328125 1223.78759765625 C -636.69140625 1243.39208984375 -605.5370483398438 1209.328247070312 -624.4100952148438 1189.723510742188 C -607.0050048828125 1174.204833984375 -629.8505249023438 1143.464111328125 -647.2557373046875 1158.978637695312 C -648.3694458007812 1148.445190429688 -659.0520629882812 1143.652221679688 -670.3739624023438 1143.652221679688 C -684.5606079101562 1143.652221679688 -699.7492065429688 1151.1826171875 -698.3532104492188 1164.38134765625 C -724.2801513671875 1160.171875 -732.171630859375 1208.7763671875 -706.248046875 1212.986694335938 C -709.3602905273438 1227.596313476562 -691.9065551757812 1237.317504882812 -676.5626220703125 1237.319091796875 C -676.560791015625 1237.319091796875 -676.5604248046875 1237.319091796875 -676.55859375 1237.319091796875 M -719.56689453125 1282.866943359375 C -719.5671997070312 1282.866943359375 -719.5675659179688 1282.866943359375 -719.56787109375 1282.866943359375 C -721.659423828125 1282.867065429688 -723.7006225585938 1282.128173828125 -725.3154296875 1280.786499023438 C -726.9509887695312 1279.427490234375 -728.0552368164062 1277.524536132812 -728.4246826171875 1275.42822265625 C -729.2869873046875 1270.542724609375 -726.0122680664062 1265.865356445312 -721.12451171875 1265.002563476562 C -720.6058349609375 1264.9111328125 -720.0779418945312 1264.864868164062 -719.5548706054688 1264.864868164062 C -717.4636840820312 1264.864868164062 -715.4227294921875 1265.603637695312 -713.8079223632812 1266.9453125 C -712.1724243164062 1268.304077148438 -711.0679931640625 1270.206665039062 -710.697998046875 1272.302612304688 C -710.2806396484375 1274.6708984375 -710.8101806640625 1277.059204101562 -712.1890258789062 1279.0283203125 C -713.5679931640625 1280.997680664062 -715.63134765625 1282.31201171875 -717.9989013671875 1282.729248046875 C -718.5151977539062 1282.820434570312 -719.0430297851562 1282.86669921875 -719.56689453125 1282.866943359375 Z M -703.1718139648438 1265.615234375 C -703.1719970703125 1265.615234375 -703.1719970703125 1265.615234375 -703.1720581054688 1265.615234375 C -706.1917724609375 1265.615478515625 -709.1395874023438 1264.547973632812 -711.4722290039062 1262.609619140625 C -713.8336181640625 1260.647216796875 -715.4282836914062 1257.89892578125 -715.9623413085938 1254.870971679688 C -716.5655517578125 1251.451293945312 -715.8009033203125 1248.00146484375 -713.8091430664062 1245.157104492188 C -711.8173217773438 1242.312622070312 -708.8369140625 1240.414184570312 -705.4168701171875 1239.8115234375 C -704.6675415039062 1239.679321289062 -703.90380859375 1239.6123046875 -703.1473999023438 1239.6123046875 C -700.1279296875 1239.6123046875 -697.1803588867188 1240.6796875 -694.84765625 1242.617797851562 C -692.48583984375 1244.580200195312 -690.8910522460938 1247.328125 -690.3569946289062 1250.355590820312 C -689.7543334960938 1253.776000976562 -690.5192260742188 1257.225830078125 -692.5108032226562 1260.070190429688 C -694.5026245117188 1262.914794921875 -697.4827880859375 1264.813354492188 -700.9024047851562 1265.416015625 C -701.6522827148438 1265.548217773438 -702.4158935546875 1265.615234375 -703.1718139648438 1265.615234375 L -703.1718139648438 1265.615234375 Z M -676.55859375 1240.319091796875 L -676.5626220703125 1240.319091796875 C -681.9429321289062 1240.318481445312 -687.4524536132812 1239.240600585938 -692.4959106445312 1237.20166015625 C -697.8336791992188 1235.043823242188 -702.2310180664062 1231.955932617188 -705.2125854492188 1228.271850585938 C -708.364501953125 1224.37744140625 -709.8485107421875 1219.940551757812 -709.580810546875 1215.298217773438 C -714.7332153320312 1213.765747070312 -718.8557739257812 1210.46533203125 -721.6080932617188 1205.633056640625 C -724.364990234375 1200.792724609375 -725.59423828125 1194.544067382812 -725.0693969726562 1188.038208007812 C -724.8004150390625 1184.7041015625 -724.0939331054688 1181.4462890625 -722.9695434570312 1178.355224609375 C -721.8032836914062 1175.148803710938 -720.2399291992188 1172.272338867188 -718.3229370117188 1169.805419921875 C -716.2435302734375 1167.129638671875 -713.8145141601562 1165.026123046875 -711.103271484375 1163.55322265625 C -708.1348876953125 1161.940795898438 -704.89794921875 1161.123168945312 -701.4823608398438 1161.123168945312 C -701.4451293945312 1161.123168945312 -701.4078979492188 1161.123168945312 -701.37060546875 1161.123413085938 C -701.0263671875 1157.281860351562 -699.4356079101562 1153.7099609375 -696.6767578125 1150.643920898438 C -693.840576171875 1147.491821289062 -689.7728271484375 1144.898315429688 -684.9132690429688 1143.143676757812 C -680.3992309570312 1141.513793945312 -675.37158203125 1140.652221679688 -670.3739624023438 1140.652221679688 C -667.2586669921875 1140.652221679688 -664.2579956054688 1140.986328125 -661.4552612304688 1141.645385742188 C -658.4674682617188 1142.347900390625 -655.77490234375 1143.405029296875 -653.4523315429688 1144.787475585938 C -649.5823974609375 1147.091064453125 -646.8541259765625 1150.217529296875 -645.3948974609375 1153.973999023438 C -644.6876831054688 1153.580200195312 -643.967529296875 1153.23681640625 -643.2368774414062 1152.945556640625 C -641.2020874023438 1152.134155273438 -639.0827026367188 1151.722778320312 -636.9376220703125 1151.722778320312 C -634.7352294921875 1151.722778320312 -632.5276489257812 1152.154296875 -630.3760986328125 1153.005493164062 C -628.370849609375 1153.798828125 -626.44873046875 1154.9423828125 -624.6630859375 1156.404541015625 C -621.2402954101562 1159.207153320312 -618.4589233398438 1163.102783203125 -616.8314819335938 1167.373657226562 C -615.235595703125 1171.561401367188 -614.7918090820312 1175.928955078125 -615.5480346679688 1180.004028320312 C -615.9613037109375 1182.231079101562 -616.7301635742188 1184.35595703125 -617.8331909179688 1186.319580078125 C -618.5345458984375 1187.568115234375 -619.3726196289062 1188.75341796875 -620.3380126953125 1189.864135742188 C -619.3340454101562 1191.17626953125 -618.4803466796875 1192.5615234375 -617.7874145507812 1194.005004882812 C -616.7434692382812 1196.1796875 -616.056884765625 1198.500366210938 -615.7467651367188 1200.90234375 C -615.1791381835938 1205.299194335938 -615.8839111328125 1209.985473632812 -617.7850341796875 1214.454711914062 C -619.9030151367188 1219.433715820312 -623.446044921875 1223.988403320312 -627.7615356445312 1227.27978515625 C -629.971435546875 1228.96533203125 -632.3252563476562 1230.283813476562 -634.7576904296875 1231.19873046875 C -637.3517456054688 1232.174438476562 -639.98046875 1232.669189453125 -642.57080078125 1232.669189453125 C -646.7337036132812 1232.669311523438 -650.6829833984375 1231.384033203125 -654.1900634765625 1228.915771484375 C -655.783447265625 1232.115966796875 -658.2828979492188 1234.758422851562 -661.5756225585938 1236.688110351562 C -665.6288452148438 1239.0634765625 -670.8098754882812 1240.319091796875 -676.55859375 1240.319091796875 Z" stroke="none" fill="#c0e7ff"/>
  </g>
</svg>
