<svg xmlns="http://www.w3.org/2000/svg" width="113.373" height="142.215" viewBox="0 0 113.373 142.215">
  <g fill="rgba(0,0,0,0)" stroke-linecap="round" stroke-linejoin="round" data-name="Union 4">
    <path d="M8.9956 140.715H8.995c-3.643 0-6.7465-2.607-7.3795-6.199-.7187-4.0716 2.0104-7.9693 6.0836-8.6883a7.557 7.557 0 0 1 1.309-.1148c3.642 0 6.7457 2.6068 7.3796 6.1985.3478 1.9733-.0935 3.9636-1.2425 5.6046-1.1492 1.641-2.8686 2.7363-4.8415 3.084a7.5648 7.5648 0 0 1-1.3082.115Zm16.3955-17.2518h-.0002c-2.6703.0003-5.2775-.9442-7.3414-2.6593-2.0887-1.7357-3.4991-4.1667-3.9716-6.8455-.5337-3.025.1428-6.0768 1.9047-8.593 1.762-2.5162 4.3985-4.1955 7.4238-4.7287a11.601 11.601 0 0 1 2.0092-.1764c2.67 0 5.2772.9443 7.3411 2.6593 2.089 1.7356 3.4997 4.1664 3.9721 6.8445.5331 3.0257-.1435 6.0776-1.9054 8.5937-1.7619 2.5164-4.3982 4.1958-7.4231 4.729a11.6101 11.6101 0 0 1-2.0092.1764Zm26.6133-25.2961v-1.5l-.0008 1.5c-2.5715-.0003-5.2012-.2605-7.8193-.7737-2.6114-.5117-5.1532-1.2634-7.555-2.2344-5.1024-2.0627-9.291-4.996-12.113-8.4828-3.18-3.9293-4.5217-8.449-3.9236-13.1544-5.331-1.2516-9.5747-4.4377-12.3344-9.2832-2.6093-4.581-3.7704-10.5232-3.2696-16.7318.2582-3.2002.936-6.326 2.0144-9.2909 1.1128-3.0593 2.6004-5.7987 4.4214-8.142 1.9515-2.5114 4.223-4.4811 6.7512-5.8546 2.7462-1.4918 5.7422-2.2483 8.905-2.2483.5074 0 1.0218.02 1.54.0594.0032-1.8031.2965-3.5507.8768-5.2152.7275-2.0866 1.9064-4.0447 3.5038-5.82 2.6715-2.969 6.5298-5.4216 11.1579-7.0926 4.3525-1.5717 9.204-2.4024 14.0298-2.4024 3 0 5.885.3208 8.5754.9534 2.8384.6673 5.3884 1.6669 7.579 2.9708 4.1514 2.471 6.876 5.9589 7.989 10.1848 1.1458-.794 2.333-1.4373 3.5493-1.9223 1.8573-.7406 3.7898-1.1161 5.7437-1.1161 3.939 0 7.8548 1.5016 11.3243 4.3424 3.2234 2.6394 5.8444 6.3125 7.3801 10.3425 1.4978 3.9303 1.9163 8.0184 1.2104 11.8225-.3833 2.065-1.096 4.035-2.1182 5.8548-.8482 1.51-1.9137 2.9227-3.177 4.2143 1.2898 1.5138 2.356 3.1417 3.1784 4.8549.9745 2.0302 1.6156 4.1971 1.9052 6.4403.5335 4.1323-.1342 8.5492-1.931 12.773-2.0178 4.7437-5.3937 9.0833-9.5058 12.2197-2.0936 1.5968-4.3191 2.844-6.6146 3.7075-2.4246.912-4.8757 1.3745-7.285 1.3745-2.5258.0001-4.9771-.5097-7.2859-1.5151-1.7383-.7571-3.3943-1.796-4.945-3.1-.564 1.5366-1.3324 2.9555-2.2971 4.2389-1.3667 1.818-3.128 3.366-5.2352 4.601-3.8235 2.2408-8.7423 3.425-14.2246 3.425Z"/>
    <path fill="#c0e7ff" d="M8.995 139.215a6.0445 6.0445 0 0 0 1.0485-.0922c3.2634-.575 5.4423-3.6873 4.8672-6.9507-.576-3.2633-3.6878-5.4413-6.9507-4.8672-3.2634.576-5.4432 3.6874-4.8672 6.9507.513 2.9112 3.0448 4.9595 5.9022 4.9593m16.396-17.2517c.5763 0 1.1616-.0501 1.7489-.1537 5.4387-.9584 9.0702-6.1452 8.1117-11.5848-.9594-5.4388-6.1465-9.0697-11.5848-8.1107-5.4396.9585-9.0711 6.1451-8.1117 11.5839.8558 4.8522 5.0738 8.2657 9.8358 8.2653m26.6135-25.2961c9.9325 0 18.9789-4.0741 20.995-13.5315 18.8722 19.6045 50.0266-14.4594 31.1535-34.064 17.4051-15.5188-5.4404-46.2595-22.8456-30.745C80.1936 7.7932 69.5109 3.0002 58.189 3.0002c-14.1866 0-29.3752 7.5304-27.9792 20.7291C4.2828 19.52-3.6086 68.1243 22.315 72.3347 19.2027 86.9443 36.6564 96.6655 52.0004 96.667h.004M8.9961 142.2149h-.001c-2.0915.0002-4.1327-.7387-5.7475-2.0804-1.6356-1.359-2.7398-3.262-3.1093-5.3583-.8623-4.8855 2.4124-9.5628 7.3002-10.4256a9.0652 9.0652 0 0 1 1.5696-.1377c2.0912 0 4.1322.7387 5.747 2.0804a9.0079 9.0079 0 0 1 3.1099 5.3573c.4174 2.3683-.1122 4.7566-1.491 6.7257-1.379 1.9694-3.4423 3.2837-5.8099 3.701a9.067 9.067 0 0 1-1.568.1376Zm16.395-17.2517h-.0002c-3.0197.0003-5.9675-1.0672-8.3001-3.0056-2.3614-1.9624-3.956-4.7107-4.4901-7.7386-.6033-3.4197.1614-6.8695 2.1532-9.7139 1.9918-2.8445 4.9722-4.743 8.3922-5.3456a13.1001 13.1001 0 0 1 2.2695-.1992c3.0195 0 5.967 1.0674 8.2997 3.0055 2.3619 1.9624 3.9566 4.7103 4.4907 7.7378.6027 3.4204-.1622 6.8702-2.1538 9.7146-1.9918 2.8446-4.972 4.7432-8.3916 5.3458a13.1084 13.1084 0 0 1-2.2694.1992Zm26.6133-25.2961h-.004c-5.3803-.0006-10.8899-1.0785-15.9333-3.1174-5.3378-2.1579-9.7351-5.2458-12.7167-8.9298-3.1519-3.8945-4.636-8.3313-4.3682-12.9737-5.1524-1.5325-9.275-4.8329-12.0273-9.6651-2.7569-4.8404-3.9861-11.089-3.4613-17.5949.269-3.3341.9755-6.592 2.0999-9.683 1.1662-3.2064 2.7296-6.0829 4.6466-8.5498 2.0794-2.6758 4.5084-4.7793 7.2196-6.2522 2.9684-1.6124 6.2054-2.43 9.621-2.43.0372 0 .0744 0 .1117.0002.3442-3.8415 1.935-7.4134 4.6938-10.4795 2.8362-3.152 6.904-5.7456 11.7635-7.5002C48.1637.8617 53.1914.0002 58.189.0002c3.1153 0 6.116.3341 8.9187.9932 2.9878.7025 5.6804 1.7596 8.003 3.142 3.8699 2.3037 6.5982 5.4301 8.0574 9.1866a18.576 18.576 0 0 1 2.158-1.0284c2.0348-.8114 4.1542-1.2228 6.2993-1.2228 2.2024 0 4.41.4315 6.5615 1.2827 2.0053.7933 3.9274 1.9369 5.713 3.399 3.4228 2.8027 6.2042 6.6983 7.8316 10.9692 1.5959 4.1877 2.0397 8.5553 1.2835 12.6303-.4133 2.227-1.1822 4.352-2.2852 6.3156-.7013 1.2485-1.5394 2.4338-2.5048 3.5445 1.004 1.3122 1.8577 2.6974 2.5506 4.1409 1.044 2.1747 1.7305 4.4954 2.0406 6.8973.5677 4.3969-.1371 9.0832-2.0382 13.5524-2.118 4.979-5.661 9.5337-9.9765 12.825-2.21 1.6856-4.5638 3.0041-6.9962 3.919-2.594.9757-5.2228 1.4705-7.8131 1.4705-4.1629.0001-8.1122-1.2852-11.6193-3.7534-1.5933 3.2002-4.0928 5.8426-7.3855 7.7723-4.0532 2.3754-9.2343 3.631-14.983 3.631Z"/>
  </g>
</svg>
