<svg xmlns="http://www.w3.org/2000/svg" width="113.373" height="142.214" viewBox="0 0 113.373 142.214">
  <g id="Union_1" data-name="Union 1" transform="translate(214.717 2801.836)" fill="rgba(0,0,0,0)" stroke-linecap="round" stroke-linejoin="round">
    <path d="M -110.3370666503906 -2661.12158203125 L -110.3371276855469 -2661.12158203125 L -110.3371887207031 -2661.12158203125 C -110.7738265991211 -2661.12158203125 -111.2146530151367 -2661.160400390625 -111.6474304199219 -2661.23681640625 C -113.6200485229492 -2661.58447265625 -115.3395080566406 -2662.6796875 -116.4887466430664 -2664.32080078125 C -117.6381072998047 -2665.962158203125 -118.0793075561523 -2667.952392578125 -117.731071472168 -2669.92529296875 C -117.4233093261719 -2671.671630859375 -116.5031890869141 -2673.25732421875 -115.1403121948242 -2674.3896484375 C -113.794189453125 -2675.508056640625 -112.0934677124023 -2676.1240234375 -110.3514709472656 -2676.1240234375 C -109.9154663085938 -2676.1240234375 -109.475212097168 -2676.08544921875 -109.0429306030273 -2676.00927734375 C -104.9702072143555 -2675.2900390625 -102.2411117553711 -2671.392333984375 -102.9587707519531 -2667.320068359375 C -103.5928115844727 -2663.728515625 -106.6958084106445 -2661.121826171875 -110.3370666503906 -2661.12158203125 Z M -126.7343521118164 -2678.37353515625 C -127.404052734375 -2678.37353515625 -128.0801849365234 -2678.432861328125 -128.7439727783203 -2678.55029296875 C -131.7685089111328 -2679.083251953125 -134.4048767089844 -2680.762451171875 -136.1669158935547 -2683.27880859375 C -137.9290313720703 -2685.794921875 -138.6056060791016 -2688.8466796875 -138.0720062255859 -2691.87158203125 C -137.5995635986328 -2694.5498046875 -136.1890106201172 -2696.980712890625 -134.1001892089844 -2698.716552734375 C -132.0361328125 -2700.431884765625 -129.4288940429688 -2701.376708984375 -126.7587127685547 -2701.376708984375 C -126.0894317626953 -2701.376708984375 -125.4134063720703 -2701.317138671875 -124.7494506835938 -2701.2001953125 C -121.7246704101562 -2700.6669921875 -119.0883865356445 -2698.987548828125 -117.3264694213867 -2696.47119140625 C -115.5646514892578 -2693.955078125 -114.8879699707031 -2690.9033203125 -115.4210510253906 -2687.8779296875 C -115.8935317993164 -2685.199462890625 -117.3041687011719 -2682.7685546875 -119.3931884765625 -2681.032958984375 C -121.4571685791016 -2679.31787109375 -124.0643310546875 -2678.37353515625 -126.7343521118164 -2678.37353515625 Z M -153.34375 -2703.66943359375 L -153.3438262939453 -2703.66943359375 L -153.3483734130859 -2703.66943359375 C -158.8310241699219 -2703.66943359375 -163.7497253417969 -2704.853759765625 -167.57275390625 -2707.093994140625 C -169.6798095703125 -2708.328857421875 -171.4410552978516 -2709.876708984375 -172.8075714111328 -2711.69482421875 C -173.7721710205078 -2712.978271484375 -174.5405578613281 -2714.397216796875 -175.1045227050781 -2715.933837890625 C -176.6548919677734 -2714.63037109375 -178.3107604980469 -2713.592041015625 -180.0494079589844 -2712.8349609375 C -182.3582763671875 -2711.82958984375 -184.8093719482422 -2711.319580078125 -187.3346252441406 -2711.319091796875 C -187.3356628417969 -2711.319091796875 -187.3367309570312 -2711.319091796875 -187.3377532958984 -2711.319091796875 C -189.7461090087891 -2711.319091796875 -192.1960601806641 -2711.781005859375 -194.6197052001953 -2712.692138671875 C -196.9152069091797 -2713.55517578125 -199.1406860351562 -2714.80224609375 -201.2343444824219 -2716.398681640625 C -205.3463745117188 -2719.5341796875 -208.7224884033203 -2723.873291015625 -210.7407684326172 -2728.61669921875 C -212.5381927490234 -2732.841064453125 -213.2063446044922 -2737.258544921875 -212.6730041503906 -2741.3916015625 C -212.3835144042969 -2743.635009765625 -211.7425231933594 -2745.80224609375 -210.7678680419922 -2747.832763671875 C -209.9454345703125 -2749.54638671875 -208.8791351318359 -2751.174560546875 -207.5890045166016 -2752.688720703125 C -208.8522338867188 -2753.980224609375 -209.9175109863281 -2755.392822265625 -210.765625 -2756.90283203125 C -211.7877349853516 -2758.72265625 -212.5002136230469 -2760.6923828125 -212.8832855224609 -2762.757568359375 C -213.5889434814453 -2766.5615234375 -213.1702270507812 -2770.649658203125 -211.6724243164062 -2774.580078125 C -210.1365966796875 -2778.6103515625 -207.5156860351562 -2782.283447265625 -204.2925109863281 -2784.9228515625 C -200.8233032226562 -2787.763916015625 -196.9078369140625 -2789.265625 -192.9693145751953 -2789.265625 C -191.0148620605469 -2789.265625 -189.0824279785156 -2788.89013671875 -187.2256622314453 -2788.149658203125 C -186.0096435546875 -2787.664794921875 -184.8222503662109 -2787.02099609375 -183.6763916015625 -2786.226806640625 C -182.5630493164062 -2790.451904296875 -179.8380279541016 -2793.93994140625 -175.6866455078125 -2796.410888671875 C -173.4958038330078 -2797.715087890625 -170.9458160400391 -2798.714599609375 -168.1075134277344 -2799.382080078125 C -165.4171295166016 -2800.014892578125 -162.5321655273438 -2800.335693359375 -159.5327758789062 -2800.335693359375 C -154.7065124511719 -2800.335693359375 -149.8549499511719 -2799.505126953125 -145.5026092529297 -2797.933837890625 C -140.8746490478516 -2796.262939453125 -137.0163421630859 -2793.810546875 -134.3448333740234 -2790.841796875 C -132.7473754882812 -2789.06640625 -131.5684967041016 -2787.1083984375 -130.8409118652344 -2785.021484375 C -130.2605133056641 -2783.35693359375 -129.9671783447266 -2781.60888671875 -129.9639587402344 -2779.8056640625 C -129.4458923339844 -2779.844970703125 -128.9315338134766 -2779.864990234375 -128.4240875244141 -2779.864990234375 C -125.2611312866211 -2779.864990234375 -122.2648086547852 -2779.1083984375 -119.5183868408203 -2777.61669921875 C -116.9899673461914 -2776.243408203125 -114.7183303833008 -2774.273681640625 -112.7665710449219 -2771.762451171875 C -110.945426940918 -2769.419189453125 -109.4577484130859 -2766.6796875 -108.3448715209961 -2763.620361328125 C -107.2663726806641 -2760.65576171875 -106.5886306762695 -2757.52978515625 -106.330451965332 -2754.32958984375 C -105.8295669555664 -2748.12109375 -106.9908676147461 -2742.1787109375 -109.6004257202148 -2737.597412109375 C -112.360481262207 -2732.751953125 -116.6046752929688 -2729.565673828125 -121.9359436035156 -2728.31396484375 C -121.3379058837891 -2723.609130859375 -122.6795196533203 -2719.089599609375 -125.8593521118164 -2715.16064453125 C -128.6812286376953 -2711.673828125 -132.869873046875 -2708.740478515625 -137.9724273681641 -2706.677734375 C -140.3742523193359 -2705.706787109375 -142.9161834716797 -2704.954833984375 -145.5276336669922 -2704.443115234375 C -148.1458435058594 -2703.929931640625 -150.7755737304688 -2703.669677734375 -153.34375 -2703.66943359375 Z" stroke="none"/>
    <path d="M -110.3372039794922 -2662.62158203125 C -107.4807052612305 -2662.621826171875 -104.9497451782227 -2664.67041015625 -104.4359970092773 -2667.580322265625 C -103.8608932495117 -2670.84375 -106.0398101806641 -2673.955810546875 -109.3031997680664 -2674.531982421875 C -112.5665893554688 -2675.10693359375 -115.6788101196289 -2672.927978515625 -116.2539138793945 -2669.66455078125 C -116.8298873901367 -2666.4013671875 -114.6501007080078 -2663.2890625 -111.3867034912109 -2662.7138671875 C -111.0339508056641 -2662.651611328125 -110.6833724975586 -2662.62158203125 -110.3372039794922 -2662.62158203125 M -126.7343521118164 -2679.87353515625 C -121.97314453125 -2679.87353515625 -117.7540588378906 -2683.286865234375 -116.898307800293 -2688.13818359375 C -115.9398040771484 -2693.57763671875 -119.5713043212891 -2698.764404296875 -125.0099945068359 -2699.722900390625 C -130.4495849609375 -2700.6826171875 -135.6354064941406 -2697.049560546875 -136.5948028564453 -2691.611083984375 C -137.55419921875 -2686.17236328125 -133.9218139648438 -2680.98583984375 -128.4830932617188 -2680.02734375 C -127.8955383300781 -2679.923583984375 -127.3110122680664 -2679.87353515625 -126.7343521118164 -2679.87353515625 M -153.3484039306641 -2705.16943359375 C -153.3471984863281 -2705.16943359375 -153.3451232910156 -2705.16943359375 -153.3439178466797 -2705.16943359375 C -137.9999694824219 -2705.171142578125 -120.5459518432617 -2714.89208984375 -123.658203125 -2729.501220703125 C -98.80736541748047 -2733.537109375 -105.0266723632812 -2778.364990234375 -128.4241027832031 -2778.364990234375 C -129.4341278076172 -2778.364990234375 -130.4801025390625 -2778.281005859375 -131.5530090332031 -2778.106689453125 C -129.0438232421875 -2801.83837890625 -180.1412811279297 -2807.241455078125 -182.6513977050781 -2783.50927734375 C -185.9985961914062 -2786.4931640625 -189.5446166992188 -2787.765625 -192.9693145751953 -2787.765625 C -207.351806640625 -2787.765625 -219.5540008544922 -2765.29833984375 -205.4970092773438 -2752.764404296875 C -220.3905792236328 -2737.29345703125 -204.1298980712891 -2712.81640625 -187.3348693847656 -2712.819091796875 C -182.848388671875 -2712.81982421875 -178.3211364746094 -2714.5673828125 -174.3426055908203 -2718.7001953125 C -172.3263702392578 -2709.24267578125 -163.2815551757812 -2705.16943359375 -153.3484039306641 -2705.16943359375 M -110.3369293212891 -2659.62158203125 C -110.3370361328125 -2659.62158203125 -110.3371200561523 -2659.62158203125 -110.3372039794922 -2659.62158203125 C -110.8610382080078 -2659.62158203125 -111.3896179199219 -2659.66796875 -111.9082260131836 -2659.759521484375 C -114.2749938964844 -2660.1767578125 -116.3383712768555 -2661.490966796875 -117.7174301147461 -2663.46044921875 C -119.0966796875 -2665.429931640625 -119.6261444091797 -2667.818359375 -119.2082443237305 -2670.18603515625 C -118.8389739990234 -2672.281494140625 -117.7346649169922 -2674.184326171875 -116.0988693237305 -2675.54345703125 C -114.4839935302734 -2676.885009765625 -112.44287109375 -2677.6240234375 -110.3514709472656 -2677.6240234375 C -109.8284149169922 -2677.6240234375 -109.3005752563477 -2677.57763671875 -108.7826385498047 -2677.486572265625 C -103.8951797485352 -2676.62353515625 -100.6203689575195 -2671.9462890625 -101.4815139770508 -2667.0595703125 C -101.8516235351562 -2664.96337890625 -102.9557418823242 -2663.061279296875 -104.5906600952148 -2661.70263671875 C -106.2052459716797 -2660.36083984375 -108.2459716796875 -2659.621826171875 -110.3369293212891 -2659.62158203125 Z M -126.7343521118164 -2676.87353515625 C -127.4912872314453 -2676.87353515625 -128.2552032470703 -2676.940673828125 -129.0048675537109 -2677.072998046875 C -132.4234313964844 -2677.675537109375 -135.4037017822266 -2679.573974609375 -137.3955993652344 -2682.418212890625 C -139.3876037597656 -2685.2626953125 -140.1524353027344 -2688.712646484375 -139.5492095947266 -2692.13232421875 C -139.01513671875 -2695.15966796875 -137.4204559326172 -2697.90771484375 -135.0588836669922 -2699.870361328125 C -132.72607421875 -2701.808837890625 -129.7783508300781 -2702.87646484375 -126.7587280273438 -2702.87646484375 C -126.0023498535156 -2702.87646484375 -125.2386627197266 -2702.8095703125 -124.4889144897461 -2702.67724609375 C -121.0696792602539 -2702.07470703125 -118.0894927978516 -2700.17626953125 -116.0977249145508 -2697.33154296875 C -114.1061401367188 -2694.4873046875 -113.3412017822266 -2691.037353515625 -113.9438247680664 -2687.61767578125 C -114.4779510498047 -2684.589599609375 -116.0727691650391 -2681.841552734375 -118.4345779418945 -2679.879150390625 C -120.7673263549805 -2677.94091796875 -123.7149124145508 -2676.87353515625 -126.7343521118164 -2676.87353515625 Z M -153.3435821533203 -2702.16943359375 C -153.3436889648438 -2702.16943359375 -153.3438110351562 -2702.16943359375 -153.3439178466797 -2702.16943359375 L -153.3484191894531 -2702.16943359375 C -159.097412109375 -2702.16943359375 -164.2783660888672 -2703.4248046875 -168.3311767578125 -2705.800048828125 C -171.6238403320312 -2707.7294921875 -174.1230163574219 -2710.37158203125 -175.71630859375 -2713.572265625 C -179.2225952148438 -2711.10498046875 -183.1714324951172 -2709.81982421875 -187.3343658447266 -2709.819091796875 C -187.3354797363281 -2709.819091796875 -187.3367004394531 -2709.819091796875 -187.3377990722656 -2709.819091796875 C -189.9270935058594 -2709.819091796875 -192.5545654296875 -2710.313232421875 -195.1475524902344 -2711.2880859375 C -197.5800018310547 -2712.20263671875 -199.9338836669922 -2713.520751953125 -202.1438751220703 -2715.205810546875 C -206.4592895507812 -2718.49658203125 -210.0025787353516 -2723.05078125 -212.1210174560547 -2728.029541015625 C -214.0228424072266 -2732.499267578125 -214.7281341552734 -2737.18603515625 -214.1606903076172 -2741.58349609375 C -213.8506622314453 -2743.986083984375 -213.1641387939453 -2746.306884765625 -212.1201782226562 -2748.48193359375 C -211.4271545410156 -2749.92578125 -210.5732879638672 -2751.3115234375 -209.5690765380859 -2752.623779296875 C -210.5343475341797 -2753.734619140625 -211.3722229003906 -2754.919677734375 -212.0734710693359 -2756.168212890625 C -213.1763153076172 -2758.1318359375 -213.9449768066406 -2760.256591796875 -214.3581237792969 -2762.48388671875 C -215.1140441894531 -2766.558837890625 -214.6700439453125 -2770.92626953125 -213.0741271972656 -2775.1142578125 C -211.4465637207031 -2779.38525390625 -208.6653747558594 -2783.28076171875 -205.2428741455078 -2786.08349609375 C -203.4573211669922 -2787.545654296875 -201.5353546142578 -2788.689208984375 -199.5302886962891 -2789.482666015625 C -197.37890625 -2790.333984375 -195.1714935302734 -2790.765625 -192.9693298339844 -2790.765625 C -190.8237457275391 -2790.765625 -188.7043762207031 -2790.354248046875 -186.6700592041016 -2789.54296875 C -185.9393310546875 -2789.25146484375 -185.2192077636719 -2788.908203125 -184.5118255615234 -2788.51416015625 C -183.0523529052734 -2792.27001953125 -180.3237915039062 -2795.396240234375 -176.4538726806641 -2797.699951171875 C -174.1311645507812 -2799.08251953125 -171.4385833740234 -2800.1396484375 -168.4508972167969 -2800.84228515625 C -165.6481170654297 -2801.50146484375 -162.6476135253906 -2801.835693359375 -159.5327606201172 -2801.835693359375 C -154.5347900390625 -2801.835693359375 -149.5071258544922 -2800.974365234375 -144.9932708740234 -2799.3447265625 C -140.1337280273438 -2797.59033203125 -136.0659942626953 -2794.9970703125 -133.2298126220703 -2791.84521484375 C -130.4708862304688 -2788.779052734375 -128.8799591064453 -2785.20654296875 -128.53564453125 -2781.364501953125 C -125.0768966674805 -2781.382568359375 -121.803337097168 -2780.56494140625 -118.8024291992188 -2778.934814453125 C -116.0909957885742 -2777.462158203125 -113.6617431640625 -2775.358642578125 -111.5822067260742 -2772.682861328125 C -109.6650772094727 -2770.216064453125 -108.1016006469727 -2767.339599609375 -106.9352416992188 -2764.13330078125 C -105.8108062744141 -2761.042236328125 -105.1042861938477 -2757.784423828125 -104.8353042602539 -2754.4501953125 C -104.310432434082 -2747.9443359375 -105.5398254394531 -2741.695556640625 -108.2970352172852 -2736.85498046875 C -111.0496368408203 -2732.022705078125 -115.1726608276367 -2728.72216796875 -120.3254165649414 -2727.189697265625 C -120.0577011108398 -2722.547607421875 -121.5416564941406 -2718.111328125 -124.6933517456055 -2714.216796875 C -127.6749114990234 -2710.532958984375 -132.0723419189453 -2707.445068359375 -137.4102478027344 -2705.287109375 C -142.4538116455078 -2703.248046875 -147.9634552001953 -2702.169921875 -153.3435821533203 -2702.16943359375 Z" stroke="none" fill="#c0e7ff"/>
  </g>
</svg>
