<svg xmlns="http://www.w3.org/2000/svg" width="113.373" height="142.214" viewBox="0 0 113.373 142.214">
  <g fill="rgba(0,0,0,0)" stroke-linecap="round" stroke-linejoin="round" data-name="Union 1">
    <path d="M104.38 140.7144h-.0001a7.5564 7.5564 0 0 1-1.3103-.1152c-1.9726-.3477-3.6921-1.4429-4.8413-3.084-1.1494-1.6414-1.5906-3.6316-1.2424-5.6045a7.5037 7.5037 0 0 1 2.5908-4.4643c1.3461-1.1185 3.0468-1.7344 4.7888-1.7344.436 0 .8763.0386 1.3086.1147 4.0727.7193 6.8018 4.617 6.0841 8.6892-.634 3.5916-3.737 6.1983-7.3783 6.1985Zm-16.3974-17.252c-.6697 0-1.3458-.0593-2.0096-.1767-3.0245-.533-5.6609-2.2122-7.423-4.7285-1.762-2.5161-2.4386-5.5679-1.905-8.5928.4724-2.6782 1.883-5.1091 3.9718-6.845 2.064-1.7153 4.6713-2.6601 7.3415-2.6601.6693 0 1.3453.0596 2.0092.1765 3.0248.5332 5.6611 2.2127 7.423 4.729 1.7618 2.5161 2.4385 5.5679 1.9054 8.5933-.4724 2.6784-1.883 5.1093-3.972 6.845-2.064 1.715-4.6712 2.6594-7.3413 2.6594ZM61.3733 98.1667h-.0047c-5.4826 0-10.4013-1.1844-14.2244-3.4246-2.107-1.2349-3.8683-2.7827-5.2348-4.6008-.9646-1.2835-1.733-2.7024-2.297-4.239-1.5503 1.3034-3.2062 2.3418-4.9448 3.0988-2.3089 1.0054-4.76 1.5154-7.2852 1.516h-.0032c-2.4083 0-4.8583-.462-7.282-1.3731-2.2954-.863-4.5209-2.1101-6.6145-3.7066-4.112-3.1355-7.4882-7.4746-9.5065-12.218-1.7974-4.2244-2.4655-8.6418-1.9322-12.7749.2895-2.2434.9305-4.4106 1.9051-6.4412.8225-1.7136 1.8888-3.3418 3.1789-4.856-1.2632-1.2914-2.3285-2.704-3.1766-4.214-1.0221-1.8199-1.7346-3.7896-2.1177-5.8548-.7056-3.804-.287-7.892 1.2109-11.8225 1.5358-4.0303 4.1567-7.7033 7.3799-10.3428 3.4692-2.841 7.3847-4.3427 11.3232-4.3427 1.9544 0 3.8869.3755 5.7436 1.116 1.216.4848 2.4034 1.1286 3.5493 1.9228 1.1134-4.2251 3.8384-7.7131 7.9898-10.184 2.1908-1.3043 4.7408-2.3038 7.579-2.9713 2.6905-.6328 5.5754-.9536 8.5748-.9536 4.8263 0 9.6779.8306 14.0302 2.4019 4.628 1.6709 8.4863 4.1233 11.1578 7.092 1.5974 1.7754 2.7763 3.7334 3.5039 5.8203.5804 1.6646.8737 3.4126.877 5.2158a20.372 20.372 0 0 1 1.5398-.0593c3.163 0 6.1593.7566 8.9057 2.2483 2.5284 1.3733 4.8 3.343 6.7518 5.8542 1.8212 2.3433 3.3089 5.0828 4.4217 8.1421 1.0785 2.9646 1.7563 6.0906 2.0144 9.2908.501 6.2085-.6604 12.1509-3.27 16.7322-2.76 4.8454-7.0042 8.0317-12.3354 9.2834.598 4.7049-.7436 9.2244-3.9235 13.1534-2.8218 3.4868-7.0105 6.4201-12.113 8.4829-2.4019.971-4.9438 1.7229-7.5552 2.2346-2.6182.5132-5.248.7734-7.8161.7737Z"/>
    <path fill="#c0e7ff" d="M104.3798 139.2144c2.8565-.0002 5.3875-2.0488 5.9012-4.9587.5751-3.2635-1.6038-6.3755-4.8672-6.9517-3.2634-.575-6.3756 1.604-6.9507 4.8674-.576 3.2632 1.6038 6.3755 4.8672 6.9507a6.033 6.033 0 0 0 1.0495.0923m-16.3972-17.252c4.7613 0 8.9803-3.4133 9.836-8.2646.9586-5.4394-2.6729-10.6262-8.1116-11.5847-5.4396-.9597-10.6254 2.6733-11.5848 8.1118-.9594 5.4387 2.673 10.6253 8.1117 11.5838a10.055 10.055 0 0 0 1.7487.1538m-26.614-25.296h.0045c15.344-.0016 32.798-9.7226 29.6857-24.3317 24.8508-4.036 18.6315-48.8638-4.7659-48.8638-1.01 0-2.056.084-3.129.2583C85.6733-.0024 34.5758-5.4055 32.0657 18.3267c-3.3472-2.9839-6.8932-4.2563-10.318-4.2563-14.3824 0-26.5846 22.4673-12.5276 35.0012-14.8936 15.471 1.3671 39.948 18.1621 39.9453 4.4865-.0007 9.0138-1.7483 12.9923-5.8811 2.0162 9.4575 11.061 13.5308 20.9942 13.5308m43.0115 45.5478h-.0003a9.062 9.062 0 0 1-1.571-.138c-2.3668-.4172-4.4302-1.7314-5.8092-3.7008-1.3793-1.9695-1.9087-4.358-1.4908-6.7256a9.005 9.005 0 0 1 3.1093-5.3575c1.615-1.3415 3.656-2.0805 5.7474-2.0805.523 0 1.051.0464 1.5689.1374 4.8874.863 8.1622 5.5403 7.301 10.427-.37 2.0962-1.4741 3.9983-3.109 5.357-1.6146 1.3418-3.6554 2.0808-5.7463 2.081Zm-16.3975-17.252c-.7569 0-1.5208-.067-2.2705-.1994-3.4185-.6025-6.3988-2.501-8.3907-5.3452-1.992-2.8445-2.7568-6.2944-2.1536-9.7141.534-3.0274 2.1287-5.7754 4.4903-7.738 2.3328-1.9385 5.2805-3.0062 8.3002-3.0062.7564 0 1.52.067 2.2698.1993 3.4192.6025 6.3994 2.501 8.3912 5.3457 1.9916 2.8442 2.7565 6.2941 2.1539 9.7138-.5342 3.0281-2.129 5.7761-4.4908 7.7385-2.3327 1.9383-5.2803 3.0057-8.2998 3.0057ZM61.3734 99.6667h-.0048c-5.749 0-10.93-1.2554-14.9828-3.6306-3.2926-1.9295-5.7918-4.5716-7.3851-7.7723-3.5063 2.4673-7.4551 3.7525-11.618 3.7532h-.0035c-2.5893 0-5.2168-.4941-7.8098-1.469-2.4324-.9145-4.7863-2.2327-6.9963-3.9177-4.3154-3.2908-7.8587-7.845-9.9771-12.8237C.6942 69.3367-.0111 64.65.5563 60.2525c.31-2.4026.9966-4.7234 2.0405-6.8984.693-1.4439 1.547-2.8296 2.5511-4.1419-.9652-1.1108-1.8031-2.2959-2.5044-3.5444C1.5407 43.7042.772 41.5794.359 39.352c-.756-4.075-.312-8.4424 1.284-12.6304 1.6275-4.271 4.4087-8.1665 7.8312-10.9692 1.7856-1.4622 3.7075-2.6057 5.7126-3.3992 2.1514-.8513 4.3588-1.283 6.561-1.283 2.1456 0 4.265.4115 6.2992 1.2227a18.589 18.589 0 0 1 2.1583 1.0288c1.4594-3.7558 4.188-6.882 8.058-9.1858 2.3226-1.3825 5.0152-2.4396 8.0029-3.1423C49.069.3344 52.0695.0002 55.1843.0002c4.998 0 10.0257.8613 14.5395 2.491 4.8596 1.7544 8.9273 4.3476 11.7635 7.4995 2.759 3.0661 4.3498 6.6387 4.6942 10.4807 3.4587-.018 6.7323.7996 9.7332 2.4297 2.7114 1.4726 5.1407 3.5762 7.2202 6.252 1.9171 2.4667 3.4806 5.3432 4.647 8.5495 1.1244 3.091 1.831 6.3489 2.0999 9.6831.5249 6.5059-.7045 12.7546-3.4617 17.5952-2.7526 4.8323-6.8757 8.1328-12.0284 9.6653.2677 4.642-1.2163 9.0784-4.368 12.9729-2.9815 3.6838-7.379 6.7717-12.7168 8.9297-5.0436 2.039-10.5533 3.1172-15.9334 3.1177Z"/>
  </g>
</svg>
