<svg xmlns="http://www.w3.org/2000/svg" width="109.849" height="152.34" viewBox="0 0 109.849 152.34">
  <g fill="rgba(0,0,0,0)" stroke-linecap="round" stroke-linejoin="round" data-name="Union 3">
    <path d="M69.18 150.8404h-.0001c-1.449 0-2.8596-.4186-4.0794-1.2106-1.6803-1.091-2.835-2.771-3.2516-4.7306-.4166-1.9597-.045-3.9642 1.0465-5.6444 1.3887-2.1388 3.7421-3.416 6.2952-3.416 1.4492 0 2.86.419 4.0796 1.2113 1.68 1.0906 2.8346 2.7708 3.251 4.7305.4164 1.9593.0449 3.9639-1.046 5.644-1.3886 2.1387-3.742 3.4157-6.2952 3.4158Zm-4.3614-22.4891c-2.2215 0-4.3842-.6422-6.2543-1.8572-2.576-1.6726-4.3466-4.2485-4.9852-7.2533-.6385-3.0044-.0689-6.0779 1.604-8.6544 2.13-3.2797 5.739-5.2376 9.654-5.2376 2.2212 0 4.3837.6419 6.254 1.8562 2.576 1.673 4.3465 4.249 4.9852 7.2538.6387 3.0048.0691 6.0783-1.6038 8.6542-2.1296 3.2798-5.7386 5.2381-9.6539 5.2383Zm-9.648-30.0786v-1.5l-.0003 1.5c-2.934 0-5.7513-.311-8.3744-.924-2.7698-.6473-5.2612-1.619-7.405-2.888-4.0361-2.389-6.7252-5.7718-7.8857-9.8805-1.1733.8438-2.3942 1.5267-3.6493 2.0397-1.888.7719-3.8587 1.1634-5.8571 1.1636-3.9237.0004-7.837-1.4847-11.317-4.2948-3.24-2.6163-5.8865-6.2608-7.4517-10.2623-1.5181-3.8807-1.9743-7.9296-1.3192-11.7086.3555-2.0513 1.0367-4.014 2.0246-5.8339.8173-1.5055 1.8486-2.9194 3.0754-4.2184-1.3314-1.5085-2.4357-3.1374-3.2922-4.8581-1.0121-2.0335-1.6868-4.2107-2.0053-6.4715-.5868-4.1639.043-8.6289 1.821-12.912 1.9857-4.7833 5.3333-9.1628 9.4262-12.332 2.0875-1.6162 4.3095-2.879 6.6043-3.7533 2.4266-.9245 4.8831-1.3933 7.3013-1.3933 2.469 0 4.8729.4906 7.1448 1.458 1.6927.7208 3.3126 1.7078 4.8379 2.9456.554-1.5949 1.3277-3.0681 2.3128-4.4009 1.3786-1.8651 3.1703-3.4547 5.3253-4.7247 3.9104-2.3047 8.9489-3.5229 14.5708-3.5229 5.1351 0 10.378 1.0038 15.1617 2.9026 5.027 1.9955 9.1667 4.8495 11.9715 8.2536 1.684 2.0438 2.8716 4.2658 3.5298 6.6043.575 2.0428.7438 4.1684.5052 6.338 5.3993 1.1686 9.7235 4.3232 12.5662 9.1905 2.6854 4.598 3.9164 10.5831 3.4662 16.853-.2304 3.2085-.8812 6.3418-1.9343 9.3126-1.0882 3.07-2.5556 5.8183-4.3615 8.1686-1.9374 2.5216-4.2025 4.4992-6.7326 5.8778-2.7477 1.4975-5.7556 2.257-8.9402 2.2576h-.0042c-.3922 0-.789-.0117-1.189-.0352.0288 1.8325-.243 3.6126-.8129 5.3122-.7107 2.1195-1.8845 4.1142-3.4887 5.9288-2.698 3.0515-6.6187 5.5802-11.3382 7.3125-4.4473 1.6324-9.3873 2.4954-14.2861 2.4954Z"/>
    <path fill="#c0e7ff" d="M69.1799 149.3404c1.9638-.0001 3.8881-.9629 5.0372-2.7327 1.8045-2.7791 1.0152-6.4953-1.764-8.2998-2.7792-1.8054-6.4953-1.0152-8.2998 1.764-1.8054 2.7792-1.0152 6.4953 1.764 8.2999 1.0095.6554 2.1424.9686 3.2626.9686m-4.3613-22.4891c3.273-.0002 6.4806-1.6055 8.396-4.5553 3.0077-4.6314 1.691-10.8252-2.9404-13.833-4.6323-3.0078-10.8252-1.691-13.833 2.9403-3.0078 4.6323-1.692 10.8253 2.9403 13.833 1.6822 1.0929 3.5701 1.615 5.437 1.615m-9.6477-30.0786c14.3834 0 29.9602-7.8318 28.3073-21.22.9647.1394 1.8995.2065 2.8114.2063 23.6593-.0049 29.263-45.325 4.2347-48.9431C95.2303 2.6628 44.3686-7.2526 39.659 16.9016 20.4466-2.3703-10.1075 32.233 9.1039 51.5047-4.6558 64.212 7.7182 86.285 21.9986 86.2835c3.4985-.0003 7.1128-1.3257 10.4837-4.438 1.2711 10.2958 11.6267 14.927 22.6874 14.9272h.001m14.0094 55.5677h-.0002c-1.7396 0-3.4327-.5022-4.8962-1.4524-2.0165-1.3093-3.4022-3.3254-3.902-5.6769-.5-2.3516-.054-4.7572 1.2558-6.7734 1.6663-2.5663 4.49-4.0989 7.5531-4.0989 1.74 0 3.4333.5026 4.8968 1.4534 2.0157 1.3087 3.4013 3.3248 3.901 5.6765.4997 2.3513.054 4.7566-1.2552 6.7727-1.6663 2.5665-4.4899 4.0988-7.5531 4.099Zm-4.3614-22.4891h-.0001c-2.5123 0-4.9575-.726-7.0715-2.0993-2.9118-1.8906-4.9134-4.8027-5.6353-8.1993-.7218-3.3963-.0778-6.8707 1.8133-9.783 2.4078-3.7076 6.487-5.921 10.912-5.921 2.5118 0 4.9568.7256 7.0708 2.0983 2.9122 1.8912 4.9136 4.8033 5.6356 8.2.722 3.3967.0781 6.871-1.813 9.7829-2.4073 3.7075-6.4865 5.9212-10.9118 5.9214Zm-9.648-30.0786h-.001c-3.0482-.0002-5.9804-.3243-8.7151-.9634-2.9188-.6821-5.5524-1.711-7.8278-3.0578-3.7503-2.2197-6.4304-5.2379-7.9164-8.8702-.7474.4335-1.5106.8098-2.2869 1.127-2.069.8459-4.2306 1.275-6.4245 1.2752h-.0018c-2.1912 0-4.3911-.4261-6.539-1.2667-2.0039-.7842-3.928-1.915-5.7187-3.361-3.4398-2.7777-6.2476-6.6425-7.9064-10.8829C.2153 69.6369-.2689 65.3106.433 61.2617c.3835-2.2126 1.1184-4.3299 2.1843-6.2934.6734-1.2406 1.4807-2.422 2.4128-3.533-1.0418-1.3135-1.9302-2.7051-2.6542-4.1596C1.2918 45.0977.5691 42.766.228 40.3453c-.6241-4.4296.0402-9.1658 1.921-13.6965 2.084-5.0202 5.5976-9.6167 9.8933-12.9428 2.2043-1.7068 4.5556-3.0422 6.9886-3.9691 2.5978-.9898 5.234-1.4916 7.8353-1.4916 2.6721 0 5.2737.5309 7.7325 1.578 1.24.528 2.4416 1.187 3.5978 1.9723 1.5807-3.3186 4.129-6.061 7.5288-8.0647 4.141-2.4404 9.443-3.7305 15.3325-3.7305 5.3228 0 10.757 1.0403 15.715 3.0085 5.2619 2.0886 9.6105 5.095 12.5758 8.6938 3.1332 3.8025 4.6511 8.1602 4.4673 12.7445 2.256.6295 4.331 1.6015 6.1941 2.9042 2.4395 1.7057 4.4843 3.9536 6.0775 6.6815 2.8364 4.8565 4.1387 11.1484 3.667 17.717-.24 3.3428-.9185 6.6085-2.0166 9.7062-1.141 3.2188-2.6838 6.106-4.5859 8.5815-2.0656 2.6884-4.4894 4.8016-7.2042 6.281-2.8947 1.5775-6.0544 2.3974-9.3955 2.4388-.2808 3.9058-1.851 7.5537-4.6336 10.701-2.8621 3.2372-6.9927 5.9092-11.945 7.7271-4.611 1.6925-9.7297 2.5872-14.803 2.5872Z"/>
  </g>
</svg>
