<svg xmlns="http://www.w3.org/2000/svg" width="109.999" height="149.497" viewBox="0 0 109.999 149.497">
  <g id="Union_5" data-name="Union 5" transform="translate(47.032 -313.956)" fill="rgba(0,0,0,0)" stroke-linecap="round" stroke-linejoin="round">
    <path d="M -24.69395065307617 461.9527282714844 L -24.69399070739746 460.4527282714844 L -24.69395065307617 461.9527282714844 C -26.10177040100098 461.9527587890625 -27.47834968566895 461.5578918457031 -28.67486953735352 460.8107604980469 C -29.90480995178223 460.0428161621094 -30.8800106048584 458.939697265625 -31.49506950378418 457.6206359863281 C -33.24274826049805 453.87255859375 -31.6155891418457 449.4016418457031 -27.86788940429688 447.6541137695312 C -26.86598968505859 447.1869812011719 -25.80088996887207 446.9501037597656 -24.70220947265625 446.9501037597656 C -23.29437065124512 446.9501037597656 -21.9177303314209 447.3448791503906 -20.72114944458008 448.0917358398438 C -19.49101066589355 448.8595275878906 -18.51568984985352 449.9624328613281 -17.90058898925781 451.2811584472656 C -16.15276908874512 455.029541015625 -17.78030967712402 459.5009155273438 -21.5285701751709 461.2486877441406 C -22.53048896789551 461.7158508300781 -23.5954704284668 461.9526977539062 -24.69395065307617 461.9527282714844 Z M -14.34902954101562 441.1801147460938 C -14.34904956817627 441.1801147460938 -14.34904956817627 441.1801147460938 -14.34904956817627 441.1801147460938 C -16.50812911987305 441.1802368164062 -18.61943054199219 440.5746459960938 -20.45466995239258 439.4288330078125 C -22.34026908874512 438.2515869140625 -23.83539009094238 436.5601196289062 -24.77842903137207 434.5373229980469 C -26.07638931274414 431.7536926269531 -26.21266937255859 428.6309814453125 -25.162109375 425.7445373535156 C -24.11154937744141 422.8580627441406 -21.99991035461426 420.5535278320312 -19.21619033813477 419.2555541992188 C -17.67936897277832 418.5387878417969 -16.04604911804199 418.1753540039062 -14.36172962188721 418.1753540039062 C -12.20281028747559 418.1753540039062 -10.09173011779785 418.7809448242188 -8.256710052490234 419.9266357421875 C -6.371309757232666 421.1038208007812 -4.876329898834229 422.795166015625 -3.933369874954224 424.8178100585938 C -2.635029792785645 427.6011657714844 -2.498609781265259 430.7239990234375 -3.549349784851074 433.6107177734375 C -4.599969863891602 436.4971313476562 -6.711649894714355 438.8018798828125 -9.495389938354492 440.1004028320312 C -11.03216934204102 440.8168029785156 -12.66506958007812 441.1800231933594 -14.34904956817627 441.1801147460938 L -14.34902954101562 441.1801147460938 Z M 1.596290230751038 412.1232299804688 L 1.596290230751038 410.6232299804688 L 1.595690131187439 412.1232299804688 C -0.975669801235199 412.1229553222656 -3.605349779129028 411.8627014160156 -6.223529815673828 411.3496398925781 C -8.834929466247559 410.837890625 -11.37681007385254 410.0860900878906 -13.77859020233154 409.1151428222656 C -18.88102912902832 407.0524291992188 -23.06957054138184 404.1191711425781 -25.89142990112305 400.6324768066406 C -29.07129859924316 396.7034301757812 -30.41291046142578 392.1839599609375 -29.81485939025879 387.4788818359375 C -35.1457633972168 386.227294921875 -39.38951110839844 383.041015625 -42.14928817749023 378.1955261230469 C -44.75854873657227 373.6143188476562 -45.9196891784668 367.6720581054688 -45.41878890991211 361.4634094238281 C -45.16061019897461 358.2631530761719 -44.48289108276367 355.1371765136719 -43.40444946289062 352.1723022460938 C -42.29162979125977 349.1129150390625 -40.80405044555664 346.3734741210938 -38.98305130004883 344.0301208496094 C -37.03144836425781 341.5186767578125 -34.760009765625 339.5488586425781 -32.23178863525391 338.1754455566406 C -29.4855899810791 336.68359375 -26.48954963684082 335.9271545410156 -23.32686996459961 335.9271545410156 C -22.81934547424316 335.9271545410156 -22.3050479888916 335.9469909667969 -21.78688430786133 335.9864196777344 C -21.78370475769043 334.1832885742188 -21.49041175842285 332.435791015625 -20.91003036499023 330.771240234375 C -20.18251037597656 328.6846618652344 -19.00369071960449 326.7265625 -17.40630912780762 324.9512939453125 C -14.73474979400635 321.9822692871094 -10.876389503479 319.5296630859375 -6.248369693756104 317.8585815429688 C -1.895849823951721 316.2870178222656 2.95559024810791 315.4563293457031 7.781490325927734 315.4563293457031 C 10.78137016296387 315.4563293457031 13.6665506362915 315.7770690917969 16.35687065124512 316.4096374511719 C 19.19524955749512 317.0769958496094 21.74521064758301 318.0765686035156 23.93590927124023 319.3805236816406 C 28.08719444274902 321.8515319824219 30.81183624267578 325.3392944335938 31.92487716674805 329.5652465820312 C 33.07052993774414 328.7712707519531 34.25772476196289 328.1278686523438 35.4738883972168 327.6428833007812 C 37.33113098144531 326.9023132324219 39.2635498046875 326.5267944335938 41.21747207641602 326.5267944335938 C 45.1563720703125 326.5267944335938 49.07218933105469 328.0283508300781 52.54159164428711 330.8691711425781 C 55.76504898071289 333.5085754394531 58.3861083984375 337.1817016601562 59.92195129394531 341.2118530273438 C 61.41976928710938 345.1422424316406 61.83837127685547 349.2304992675781 61.13251113891602 353.0347290039062 C 60.74932861328125 355.0998229980469 60.03670883178711 357.0697021484375 59.01446914672852 358.8895874023438 C 58.16621017456055 360.3997192382812 57.1007080078125 361.8125305175781 55.83732604980469 363.1042175292969 C 57.12716293334961 364.6180114746094 58.193359375 366.2458190917969 59.01568984985352 367.9588012695312 C 59.99026870727539 369.9889831542969 60.63129043579102 372.1557006835938 60.92092895507812 374.3987426757812 C 61.45452880859375 378.5309143066406 60.78691101074219 382.9476623535156 58.99026870727539 387.1714172363281 C 56.97246932983398 391.9151000976562 53.5965690612793 396.2548217773438 49.48440933227539 399.3911437988281 C 47.39078903198242 400.9879455566406 45.16530990600586 402.2353820800781 42.86977005004883 403.0987854003906 C 40.445068359375 404.0108032226562 37.99399185180664 404.4732360839844 35.58460998535156 404.4733276367188 C 33.05886840820312 404.473388671875 30.6075496673584 403.963623046875 28.29874992370605 402.9581298828125 C 26.56035995483398 402.2010498046875 24.90435600280762 401.1622924804688 23.35364723205566 399.8581848144531 C 22.78964424133301 401.394775390625 22.02122497558594 402.8137817382812 21.05647087097168 404.09716796875 C 19.68980979919434 405.9152221679688 17.92836952209473 407.4632263183594 15.82108974456787 408.6981506347656 C 11.99750995635986 410.9388427734375 7.078649997711182 412.1232299804688 1.596290230751038 412.1232299804688 Z" stroke="none"/>
    <path d="M -24.69399261474609 460.4527282714844 C -23.84514617919922 460.4526977539062 -22.98262405395508 460.2716064453125 -22.1624927520752 459.8892211914062 C -19.15918922424316 458.4888000488281 -17.8596019744873 454.9185180664062 -19.2599925994873 451.9152221679688 C -20.66040802001953 448.912841796875 -24.23070907592773 447.6133422851562 -27.23399353027344 449.0136108398438 C -30.23729705810547 450.4140014648438 -31.5359935760498 453.9833984375 -30.13560104370117 456.9867248535156 C -29.11760139465332 459.1698913574219 -26.95366668701172 460.4527893066406 -24.69399261474609 460.4527282714844 M -14.34910202026367 439.6801147460938 C -12.93423271179199 439.6800537109375 -11.49644947052002 439.3782653808594 -10.12949371337891 438.7409973144531 C -5.1246018409729 436.4064025878906 -2.958297729492188 430.4565124511719 -5.292906284332275 425.4515991210938 C -7.626602172851562 420.44580078125 -13.5764856338501 418.2803039550781 -18.58229827880859 420.6150207519531 C -23.58721160888672 422.9486999511719 -25.75260162353516 428.8986206054688 -23.41890716552734 433.9035034179688 C -21.72247123718262 437.5423583984375 -18.11557960510254 439.6802978515625 -14.34910202026367 439.6801147460938 M 1.596272706985474 410.6232299804688 C 11.52873802185059 410.6232299804688 20.57570266723633 406.5491027832031 22.59181022644043 397.0917053222656 C 41.46389770507812 416.6965026855469 72.61831665039062 382.6322937011719 53.74531173706055 363.0285034179688 C 71.15039825439453 347.5088806152344 48.30390548706055 316.7683410644531 30.89970207214355 332.28271484375 C 29.78600120544434 321.749267578125 19.10342216491699 316.9563293457031 7.781497001647949 316.9563293457031 C -6.405162811279297 316.9563293457031 -21.59379959106445 324.4867553710938 -20.19779777526855 337.6853942871094 C -46.12593460083008 333.4757995605469 -54.01620864868164 382.0815124511719 -28.09260177612305 386.2917175292969 C -31.20484161376953 400.9007263183594 -13.75131893157959 410.6216735839844 1.592615365982056 410.6232299804688 C 1.594434499740601 410.6232299804688 1.594453692436218 410.6232299804688 1.596272706985474 410.6232299804688 M -24.69390678405762 463.4527282714844 L -24.69399261474609 460.4527282714844 L -24.69390678405762 463.4527282714844 C -26.38294982910156 463.4527893066406 -28.03425407409668 462.9791870117188 -29.46932029724121 462.0831298828125 C -30.94597244262695 461.1611328125 -32.11655807495117 459.8372192382812 -32.85453796386719 458.2545471191406 C -34.95173263549805 453.7568664550781 -32.99908065795898 448.3916931152344 -28.50179672241211 446.294677734375 C -27.29994964599609 445.7342529296875 -26.02157974243164 445.4501037597656 -24.70221138000488 445.4501037597656 C -23.01323318481445 445.4501037597656 -21.36197090148926 445.9235534667969 -19.92690658569336 446.8192443847656 C -18.45001411437988 447.7410888671875 -17.27925491333008 449.0647277832031 -16.54118919372559 450.6470947265625 C -14.44377613067627 455.145263671875 -16.39679718017578 460.5108032226562 -20.89466667175293 462.608154296875 C -22.09664535522461 463.1685485839844 -23.37486267089844 463.4526977539062 -24.69390678405762 463.4527282714844 Z M -14.34897136688232 442.6801147460938 L -14.34910202026367 439.6801147460938 L -14.34897136688232 442.6801147460938 C -16.78927612304688 442.6802368164062 -19.17529678344727 441.9959411621094 -21.24905776977539 440.7012023925781 C -23.38142776489258 439.369873046875 -25.07197189331055 437.4576110839844 -26.13794898986816 435.1711120605469 C -27.60516738891602 432.0244750976562 -27.75923156738281 428.4944458007812 -26.5716667175293 425.2315368652344 C -25.38405799865723 421.968505859375 -22.99695014953613 419.3633728027344 -19.85010147094727 417.8960571289062 C -18.11336326599121 417.0860900878906 -16.26673316955566 416.6753540039062 -14.36175441741943 416.6753540039062 C -11.92164516448975 416.6753540039062 -9.53584098815918 417.3596496582031 -7.462319374084473 418.6542663574219 C -5.330145359039307 419.9855346679688 -3.639732360839844 421.8976745605469 -2.573862791061401 424.1839904785156 C -1.10625422000885 427.3302307128906 -0.9520150423049927 430.8604736328125 -2.139819383621216 434.123779296875 C -3.327471494674683 437.3865966796875 -5.714536666870117 439.9919128417969 -8.861297607421875 441.4597473144531 C -10.59825420379639 442.26953125 -12.44438457489014 442.6800231933594 -14.34897136688232 442.6801147460938 Z M 1.596267580986023 413.6232299804688 L 1.592615365982056 413.6232299804688 C -3.787732362747192 413.6226806640625 -9.297297477722168 412.544677734375 -14.34077548980713 410.5058288574219 C -19.67853736877441 408.3479614257812 -24.07586288452148 405.2601318359375 -27.05740547180176 401.5761413574219 C -30.20913124084473 397.6818237304688 -31.6931037902832 393.2453308105469 -31.42538070678711 388.6032104492188 C -36.57781219482422 387.0706787109375 -40.70037841796875 383.7703247070312 -43.45270919799805 378.9378967285156 C -46.20960235595703 374.0975036621094 -47.43881988525391 367.8487854003906 -46.91394805908203 361.3428039550781 C -46.64496994018555 358.0086059570312 -45.93847274780273 354.7507019042969 -44.81410217285156 351.6595764160156 C -43.64781951904297 348.4531860351562 -42.08447265625 345.5765991210938 -40.1674919128418 343.1097412109375 C -38.08810043334961 340.433837890625 -35.6590576171875 338.3302612304688 -32.94784164428711 336.8573913574219 C -29.97940635681152 335.2448425292969 -26.74245071411133 334.4271850585938 -23.32688522338867 334.4271850585938 C -23.28966903686523 334.4271850585938 -23.25248908996582 334.4272766113281 -23.2152099609375 334.427490234375 C -22.87098121643066 330.5859680175781 -21.28020477294922 327.0139770507812 -18.5213623046875 323.9479675292969 C -15.68514537811279 320.7959594726562 -11.61736297607422 318.202392578125 -6.757775783538818 316.44775390625 C -2.243732452392578 314.8178405761719 2.783876180648804 313.9563293457031 7.781506538391113 313.9563293457031 C 10.89681148529053 313.9563293457031 13.89750671386719 314.2904357910156 16.70020294189453 314.949462890625 C 19.68798446655273 315.6519470214844 22.38057136535645 316.7091369628906 24.7031364440918 318.0916137695312 C 28.57304191589355 320.3950805664062 31.30131912231445 323.5214538574219 32.76052856445312 327.2780151367188 C 33.46769332885742 326.8841857910156 34.18767929077148 326.5409240722656 34.91828918457031 326.2495727539062 C 36.95307159423828 325.4382019042969 39.07241821289062 325.0267944335938 41.21746444702148 325.0267944335938 C 43.4197883605957 325.0267944335938 45.62735366821289 325.4583740234375 47.77885437011719 326.3095703125 C 49.78409194946289 327.1028747558594 51.70622253417969 328.2464599609375 53.49187469482422 329.7085876464844 C 56.91468048095703 332.51123046875 59.69602966308594 336.4067993164062 61.32361602783203 340.6776733398438 C 62.91957092285156 344.8655700683594 63.36346435546875 349.2332153320312 62.60733413696289 353.3083801269531 C 62.19407272338867 355.5356140136719 61.42526626586914 357.6605224609375 60.32226943969727 359.6241760253906 C 59.62092971801758 360.8727722167969 58.78279876708984 362.0583190917969 57.81742858886719 363.1690368652344 C 58.82138442993164 364.4810791015625 59.67500686645508 365.8662109375 60.36794281005859 367.3096618652344 C 61.4118537902832 369.4842529296875 62.09844207763672 371.8047180175781 62.40859222412109 374.2066650390625 C 62.97631072998047 378.6032409667969 62.2715950012207 383.2894287109375 60.37057113647461 387.758544921875 C 58.25265884399414 392.7376098632812 54.70961380004883 397.2923889160156 50.39407348632812 400.5838317871094 C 48.18415832519531 402.2693481445312 45.83026885986328 403.5878601074219 43.39783096313477 404.5027770996094 C 40.80374526977539 405.4784851074219 38.17500686645508 405.9732360839844 35.58463668823242 405.9733276367188 C 31.42170906066895 405.9734497070312 27.4724178314209 404.6881408691406 23.96535110473633 402.2198791503906 C 22.37192535400391 405.4201049804688 19.87231826782227 408.0626220703125 16.5794849395752 409.9923095703125 C 12.52611541748047 412.36767578125 7.344985008239746 413.6232299804688 1.596267580986023 413.6232299804688 Z" stroke="none" fill="#c0e7ff"/>
  </g>
</svg>
