<svg xmlns="http://www.w3.org/2000/svg" width="109.999" height="149.497" viewBox="0 0 109.999 149.497">
  <g fill="rgba(0,0,0,0)" stroke-linecap="round" stroke-linejoin="round" data-name="Union 5">
    <path d="M22.338 147.9967v-1.5 1.5a7.5088 7.5088 0 0 1-3.9809-1.142c-1.23-.7679-2.2051-1.871-2.8202-3.19-1.7476-3.7481-.1205-8.219 3.6272-9.9666 1.002-.4671 2.067-.704 3.1657-.704a7.5118 7.5118 0 0 1 3.981 1.1416c1.2302.7678 2.2055 1.8707 2.8206 3.1895 1.7478 3.7483.1203 8.2197-3.628 9.9675-1.0019.4672-2.0669.704-3.1654.704Zm10.345-20.7726c-2.1591.0001-4.2704-.6055-6.1057-1.7513-1.8856-1.1772-3.3807-2.8687-4.3237-4.8915-1.298-2.7836-1.4343-5.9063-.3837-8.7928 1.0506-2.8864 3.1622-5.191 5.946-6.489 1.5367-.7167 3.17-1.0801 4.8544-1.0801 2.1589 0 4.27.6055 6.105 1.7512 1.8854 1.1772 3.3804 2.8686 4.3233 4.8912 1.2984 2.7834 1.4348 5.9062.384 8.793-1.0506 2.8863-3.1622 5.191-5.946 6.4896-1.5368.7164-3.1697 1.0796-4.8536 1.0797Zm15.9453-29.0569v-1.5l-.0006 1.5c-2.5714-.0002-5.201-.2605-7.8192-.7736-2.6114-.5117-5.1533-1.2635-7.555-2.2345-5.1025-2.0627-9.291-4.996-12.113-8.4826-3.1798-3.929-4.5214-8.4485-3.9234-13.1536-5.3309-1.2516-9.5746-4.4379-12.3344-9.2834-2.6092-4.5812-3.7704-10.5234-3.2695-16.732.2582-3.2003.936-6.3263 2.0144-9.2912 1.1128-3.0594 2.6003-5.7988 4.4213-8.1422 1.9517-2.5114 4.223-4.4812 6.7513-5.8547 2.7462-1.4918 5.7423-2.2482 8.905-2.2482.5075 0 1.0218.0198 1.54.0592.0031-1.8031.2964-3.5506.8768-5.2152.7275-2.0865 1.9063-4.0446 3.5037-5.82 2.6716-2.969 6.53-5.4215 11.158-7.0926 4.3525-1.5716 9.2039-2.4023 14.0298-2.4023 2.9999 0 5.885.3208 8.5754.9533 2.8383.6674 5.3883 1.667 7.579 2.971 4.1513 2.471 6.876 5.9587 7.989 10.1846 1.1456-.794 2.3328-1.4373 3.549-1.9223 1.8572-.7406 3.7896-1.1161 5.7436-1.1161 3.9389 0 7.8547 1.5016 11.324 4.3424 3.2235 2.6394 5.8446 6.3125 7.3805 10.3427 1.4978 3.9303 1.9164 8.0186 1.2105 11.8228-.3832 2.0651-1.0958 4.035-2.118 5.8549-.8483 1.5101-1.9138 2.923-3.1772 4.2146 1.2899 1.5138 2.356 3.1416 3.1784 4.8546.9746 2.0302 1.6156 4.1969 1.9052 6.44.5336 4.1321-.134 8.5489-1.9306 12.7726-2.0178 4.7437-5.3937 9.0834-9.5059 12.2197-2.0936 1.5968-4.319 2.8443-6.6146 3.7077-2.4247.912-4.8758 1.3744-7.2852 1.3745-2.5257 0-4.977-.5097-7.2859-1.5152-1.7383-.757-3.3943-1.7958-4.945-3.1-.564 1.5367-1.3325 2.9557-2.2972 4.239-1.3667 1.8181-3.1281 3.3661-5.2354 4.601-3.8236 2.2407-8.7425 3.4251-14.2248 3.4251Z"/>
    <path fill="#c0e7ff" d="M22.338 146.4967c.8489 0 1.7114-.181 2.5315-.5635 3.0033-1.4004 4.3029-4.9707 2.9025-7.974-1.4004-3.0024-4.9707-4.3019-7.974-2.9016-3.0033 1.4004-4.302 4.9698-2.9016 7.9731 1.018 2.1832 3.182 3.466 5.4416 3.466m10.3449-20.7726c1.4149 0 2.8527-.3018 4.2196-.9391 5.0049-2.3346 7.1712-8.2845 4.8366-13.2894-2.3337-5.0058-8.2836-7.1713-13.2894-4.8366-5.005 2.3337-7.1703 8.2836-4.8366 13.2885 1.6964 3.6389 5.3033 5.7768 9.0698 5.7766m15.9454-29.0569c9.9324 0 18.9794-4.0741 20.9955-13.5315 18.8721 19.6048 50.0265-14.4594 31.1535-34.0632 17.4051-15.5196-5.4414-46.2602-22.8456-30.7458C76.818 7.7933 66.1354 3.0003 54.8135 3.0003c-14.1867 0-29.3753 7.5305-27.9793 20.729C.9061 19.5199-6.9842 68.1256 18.9394 72.3358c-3.1122 14.609 14.3413 24.33 29.6852 24.3315h.0037M22.338 149.4967v-3 3a9.0073 9.0073 0 0 1-4.7754-1.3696c-1.4767-.922-2.6473-2.2459-3.3852-3.8286-2.0972-4.4976-.1446-9.8628 4.3527-11.9598 1.2019-.5604 2.4802-.8446 3.7996-.8446 1.689 0 3.3402.4735 4.7753 1.3691 1.4769.9219 2.6476 2.2455 3.3857 3.8279 2.0974 4.4982.1444 9.8637-4.3535 11.961-1.202.5604-2.4802.8446-3.7992.8446Zm10.345-20.7726-.0002-3 .0001 3c-2.4403.0001-4.8263-.6842-6.9-1.9789-2.1324-1.3313-3.823-3.2436-4.889-5.53-1.4672-3.1467-1.6212-6.6768-.4337-9.9397 1.1876-3.263 3.5747-5.8681 6.7216-7.3354 1.7367-.81 3.5834-1.2207 5.4883-1.2207 2.4402 0 4.826.6842 6.8995 1.9789 2.1322 1.3312 3.8226 3.2434 4.8884 5.5297 1.4676 3.1462 1.6219 6.6765.434 9.9398-1.1876 3.2628-3.5746 5.8681-6.7214 7.336-1.737.8097-3.583 1.2202-5.4877 1.2203Zm15.9452-29.0569h-.0037c-5.3803-.0005-10.8899-1.0785-15.9334-3.1174-5.3377-2.1578-9.735-5.2457-12.7166-8.9297-3.1517-3.8943-4.6357-8.3308-4.368-12.9729-5.1524-1.5325-9.275-4.8329-12.0273-9.6653C.8224 60.1415-.4068 53.8928.118 47.3868c.269-3.3342.9754-6.5921 2.0998-9.6832 1.1663-3.2064 2.7296-6.083 4.6466-8.5499 2.0794-2.6759 4.5084-4.7794 7.2197-6.2523 2.9684-1.6126 6.2053-2.4302 9.621-2.4302.0371 0 .0743 0 .1116.0003.3442-3.8415 1.935-7.4135 4.6938-10.4795 2.8363-3.152 6.904-5.7456 11.7636-7.5002C44.7882.8618 49.816.0003 54.8135.0003c3.1153 0 6.116.3341 8.9187.9932 2.9878.7024 5.6804 1.7596 8.003 3.1421 3.8698 2.3035 6.5981 5.4299 8.0573 9.1864a18.582 18.582 0 0 1 2.1578-1.0284c2.0348-.8114 4.1541-1.2228 6.2992-1.2228 2.2023 0 4.4099.4316 6.5614 1.2828 2.0052.7933 3.9273 1.9369 5.713 3.399 3.4228 2.8026 6.2041 6.6982 7.8317 10.969 1.596 4.188 2.0399 8.5556 1.2837 12.6308-.4132 2.2272-1.182 4.3521-2.285 6.3158-.7014 1.2486-1.5395 2.4341-2.5049 3.5448 1.004 1.312 1.8576 2.6972 2.5505 4.1407 1.044 2.1746 1.7305 4.495 2.0407 6.897.5677 4.3965-.137 9.0827-2.038 13.5518-2.118 4.9791-5.661 9.5339-9.9765 12.8253-2.21 1.6855-4.5638 3.004-6.9963 3.919-2.594.9757-5.2228 1.4704-7.8132 1.4705-4.1629.0001-8.1122-1.2852-11.6192-3.7534-1.5935 3.2002-4.093 5.8427-7.386 7.7724-4.0533 2.3754-9.2344 3.631-14.9831 3.631Z"/>
  </g>
</svg>
